<?xml version="1.0" encoding="utf-8"?>
<!DOCTYPE svg PUBLIC "-//W3C//DTD SVG 1.1//EN" "http://www.w3.org/Graphics/SVG/1.1/DTD/svg11.dtd">
<svg version="1.1" xmlns="http://www.w3.org/2000/svg" xmlns:xlink="http://www.w3.org/1999/xlink" width="64" height="64" viewBox="0 0 64 64">
<path d="M37.274 25.142c-0.005-0-0.011-0-0.017-0-0.015 0-0.029 0.001-0.044 0.002-0.031 0.002-0.061 0.006-0.090 0.013-0.113 0.017-0.239 0.092-0.328 0.2-0.030 0.029-0.076 0.101-0.105 0.182 0.042-0.118-0.002-0.055-0.032 0.016 0.079-0.124 0.044-0.052 0.025 0.025 0.030-0.121-0.006-0.054-0.028 0.020l-12.555 13.477c-0.126 0.099-0.211 0.246-0.225 0.413 0.004-0.032 0.004-0.032 0.004-0.032s0 0.001 0 0.001c-0.002 0.019-0.004 0.041-0.004 0.064-0.003-0.012-0.005 0.017-0.005 0.046 0.003-0.051 0.003-0.050 0.003-0.049s0 0.003 0 0.004c-0 0.008-0.001 0.018-0.001 0.027 0 0.078 0.015 0.153 0.043 0.222l5.055 20.411c0.001 0.017 0.002 0.032 0.004 0.047-0.003-0.026-0.003-0.025-0.003-0.025s0 0.001 0 0.001c0.006 0.044 0.016 0.084 0.030 0.123-0.020-0.067-0.020-0.067-0.020-0.066s0 0.001 0 0.001c0.013 0.056 0.032 0.106 0.056 0.152-0.041-0.097-0.041-0.096-0.041-0.096s0 0 0 0.001c0.023 0.066 0.055 0.124 0.095 0.174-0.073-0.12-0.073-0.12-0.073-0.12s0 0 0 0.001c0.038 0.083 0.092 0.153 0.159 0.209-0.101-0.109-0.101-0.109-0.101-0.108s0 0 0 0.001c0.051 0.069 0.114 0.125 0.187 0.166-0.151-0.121-0.151-0.121-0.151-0.121s0 0 0 0.001c0.055 0.062 0.123 0.112 0.2 0.146-0.112-0.063-0.045-0.023 0.029 0.003-0.188-0.108-0.188-0.108-0.188-0.107s0 0 0 0.001c0.058 0.050 0.126 0.089 0.201 0.114-0.133-0.048-0.070-0.005 0.001 0.025-0.128-0.072-0.059-0.030 0.017-0.004-0.123-0.056-0.053-0.019 0.023 0.003-0.128-0.052-0.061-0.022 0.011-0.006-0.128-0.033-0.054 0.003 0.027 0.022-0.109-0.033-0.038-0.005 0.039 0.008-0.108-0.024-0.045-0.004 0.022 0.006-0.12-0.029-0.057-0.012 0.009-0.007-0.085-0.010-0.029 0.002 0.029 0.005-0.061 0.004-0.005 0.018 0.054 0.023-0.122-0.029-0.081-0.024-0.039-0.023-0.045-0.001-0.014 0.002 0.018 0.003-0.083-0.008-0.082-0.008-0.081-0.008s0.002 0 0.003 0c0.023 0.003 0.051 0.005 0.078 0.006-0.018-0-0.010-0-0.002-0s0.016-0 0.024-0.001c0.001 0 0.003 0 0.005 0s0.004 0 0.007-0h0.002l19.574 1.969c0.042 0.011 0.090 0.017 0.14 0.017 0.016 0 0.033-0.001 0.049-0.002 0.191-0.012 0.357-0.117 0.455-0.269 0.048-0.044 0.091-0.108 0.121-0.178-0.096 0.131-0.075 0.069-0.066 0.003l12.592-13.446c0.064-0.046 0.117-0.103 0.158-0.169-0.079 0.102-0.031 0.040 0.004-0.031-0.068 0.117-0.020 0.048 0.012-0.028-0.052 0.111-0.006 0.038 0.023-0.043-0.028 0.086 0.017-0.019 0.028-0.134-0.002 0.033 0.005-0.011 0.006-0.057-0.007 0.074-0.007 0.074-0.007 0.074s0-0.001 0-0.001 0-0.002 0-0.004 0-0.003 0-0.004c0.004-0.024 0.006-0.051 0.006-0.079-0.001 0.021-0 0.013-0 0.004s-0-0.017-0.001-0.025c-0.003-0.068-0.018-0.133-0.042-0.194-0.017-0.045-0.051-0.104-0.093-0.155l0.078 0.121-0.002-0.008-5.669-18.758c-0.008-0.039-0.018-0.073-0.031-0.106 0.022 0.051 0.010 0.008-0.007-0.033 0.015 0.024-0.002-0.024-0.025-0.068 0.019 0.040-0.003-0.005-0.031-0.047 0.045 0.071 0.014 0.014-0.025-0.036 0.041 0.061 0.003 0.009-0.043-0.035 0.038-0.015-0.111-0.139-0.291-0.18-0.007-0.008-0.063-0.022-0.121-0.027 0.111 0.022 0.065 0.014 0.017 0.012 0.081 0.007 0.035 0-0.013-0.001 0.060 0.004 0.026 0-0.010-0.001 0.084 0.008 0.083 0.008 0.082 0.008s-0.002 0-0.003 0c-0.028-0.005-0.061-0.008-0.094-0.008l-18.917-3.638c-0.058-0.022-0.126-0.035-0.196-0.035zM38.625 26.598l16.578 3.184-8.015 8.293-8.563-11.476zM37.358 26.861l8.799 11.791-16.91 5.019 8.111-16.81zM35.021 29.006l-6.981 14.466-2.82-3.88 9.801-10.586zM56.104 30.535l4.985 16.497-13.035-8.169 8.050-8.329zM46.46 39.788l-1.755 17.637-15.336-12.566 17.091-5.071zM47.62 39.975l13.363 8.375-15.104 9.115 1.741-17.49zM25.755 42.322l1.817 2.502 0.703 7.675-2.52-10.178zM28.852 45.953l14.863 12.178-13.623 1.369-1.24-13.546zM58.836 51.015l-9.563 10.3-3.098-2.66 12.66-7.64zM44.989 59.18l2.534 2.178-12.099-1.216 9.565-0.961zM26.538 1.28c-0.004-0-0.009-0-0.014-0-0.070 0-0.137 0.012-0.199 0.034l-21.142 3.857c-0.073 0.002-0.142 0.016-0.206 0.041-0.086 0.032-0.169 0.090-0.234 0.165 0.089-0.083 0.088-0.083 0.088-0.083s-0 0-0.001 0c-0.067 0.054-0.122 0.12-0.16 0.196 0.062-0.109 0.013-0.044-0.021 0.030 0.071-0.122 0.027-0.057-0.004 0.016 0.067-0.132 0.019-0.064-0.013 0.013 0.063-0.125 0.017-0.060-0.014 0.014 0.125-0.187 0.125-0.186 0.125-0.186s0 0 0 0.001c-0.055 0.055-0.1 0.12-0.131 0.193 0.086-0.13 0.056-0.062 0.039 0.011 0.029-0.141-0.016-0.075-0.047-0.002 0.082-0.128 0.049-0.059 0.029 0.016 0.040-0.134 0.002-0.062-0.021 0.016 0.048-0.129 0.013-0.059-0.008 0.016 0.049-0.135 0.013-0.066-0.008 0.010 0.051-0.131 0.020-0.056 0.004 0.024 0.029-0.11 0.005-0.040-0.005 0.035 0.013-0.099-0.007-0.036-0.016 0.030 0.032-0.127 0.015-0.063 0.009 0.004 0.014-0.094 0.003-0.041-0 0.015 0.012-0.093 0.005-0.047 0.004-0.001 0.004-0.068-0.002-0.026-0.003 0.017 0.003-0.059-0.001-0.023-0.002 0.014 0.003-0.051 0.003-0.034 0.003-0.017-0.001-0.014-0.002 0.008-0.002 0.029-0-0.016-0.001-0-0.001 0.016 0.001-0.026 0.001-0.025 0.001-0.025s0 0.001 0 0.001l-3.251 19.837c-0.018 0.052-0.028 0.113-0.029 0.175 0.001-0.022 0-0.008 0 0.006-0.001 0.002-0.001 0.016-0.001 0.031 0 0.001 0.002 0.020 0.004 0.039-0.001-0.006-0.001-0.006-0.001-0.005s0 0.002 0 0.003c0.016 0.182 0.111 0.339 0.25 0.438l13.089 13.769c0.047 0.066 0.105 0.121 0.172 0.164-0.108-0.078-0.051-0.027 0.014 0.013-0.104-0.073-0.028-0.013 0.060 0.026-0.059-0.014 0.061 0.041 0.193 0.054-0.026-0.002 0.012 0.002 0.051 0.003-0.033-0.001-0.014-0 0.006-0-0.001 0 0.004 0 0.009 0 0.056 0 0.111-0.008 0.163-0.022 0.042-0.011 0.082-0.026 0.12-0.045-0.054 0.025 0.003-0.003 0.054-0.039-0.067 0.050-0.024 0.032 0.017 0.009-0.063 0.021-0.011-0.019 0.034-0.066l11.211-2.559c0.277-0.056 0.483-0.298 0.483-0.588 0-0.331-0.268-0.599-0.599-0.599-0.056 0-0.11 0.008-0.161 0.022l-9.908 2.333 9.164-12.78 5.385 5.896c0.11 0.12 0.267 0.195 0.443 0.195 0.331 0 0.599-0.268 0.599-0.599 0-0.156-0.060-0.298-0.157-0.405l-5.408-5.921 12.254-8.008-2.188 8.495c-0.016 0.051-0.025 0.11-0.025 0.171 0 0.331 0.268 0.599 0.599 0.599 0.286 0 0.525-0.2 0.585-0.467l2.548-9.898c0.029-0.055 0.050-0.12 0.060-0.188-0.055 0.178-0.055 0.178-0.055 0.177s0-0 0-0.001c0.020-0.050 0.035-0.108 0.040-0.169-0.012 0.098 0.003 0.039 0.007-0.023-0.013 0.092-0.005 0.039-0.003-0.015 0.001 0.033 0.005-0.002 0.006-0.039-0.006 0.072-0.006 0.072-0.006 0.071s0-0.001 0-0.001c0.002-0.016 0.002-0.035 0.002-0.054s-0.001-0.038-0.003-0.057c0 0.001 0-0.001 0-0.003s0-0.004 0-0.006c-0.005-0.041-0.012-0.078-0.024-0.114 0.015 0.058 0.015 0.057 0.015 0.057s0-0.001 0-0.001c-0.021-0.099-0.063-0.186-0.122-0.258 0.001-0.008-0.056-0.069-0.124-0.117 0.084 0.061 0.019 0.003-0.056-0.039 0.096 0.059 0.024 0.007-0.057-0.027 0.108 0.052 0.034 0.009-0.048-0.018 0.122 0.055 0.054 0.025-0.020 0.009l-12.941-13.693c-0.055-0.054-0.12-0.097-0.193-0.127 0.143 0.055 0.083-0.004 0.013-0.048 0.092 0.076 0.027 0.032-0.046 0.002 0.093 0.010-0.046-0.069-0.202-0.087 0.014 0-0.027-0.005-0.069-0.006 0.037 0.001 0.011-0.001-0.014-0.001 0.033 0.001 0.013-0-0.008-0zM26.435 2.655l10.175 10.672-14.315-8.043 4.14-2.63zM23.615 3.026l-2.671 1.696-7.875 0.228 10.546-1.924zM19.714 5.956l-13.369 14.389-0.53-13.985 13.899-0.404zM22.016 6.503l16.635 9.346-12.59 8.227-4.045-17.574zM20.797 6.553l4.087 17.76-17.884-2.913 13.796-14.848zM4.82 11.76l0.371 9.819-2.381 2.446 2.010-12.265zM6.886 22.595l17.734 2.889-9.395 13.101-8.339-15.99zM5.651 22.823l6.991 13.402-9.901-10.411 2.91-2.991z"></path>
</svg>
