<?xml version="1.0" encoding="utf-8"?>
<!DOCTYPE svg PUBLIC "-//W3C//DTD SVG 1.1//EN" "http://www.w3.org/Graphics/SVG/1.1/DTD/svg11.dtd">
<svg version="1.1" xmlns="http://www.w3.org/2000/svg" xmlns:xlink="http://www.w3.org/1999/xlink" width="64" height="64" viewBox="0 0 64 64">
<path d="M61.964 2.036c-1.807 4.090-1.68 4.681-5.486 8.777-3.237 3.483-8.949 8.353-12.030 11.466-4.109 4.151 1.194 3.691 2.41 3.793 3.273 0.275 5.778-1.897 8.454-4.513 3.565-3.485 4.395-3.84 7.407-3.848-5.030 2.965-4.97 4.407-7.462 7.172-0.943 1.047-1.802 1.742-2.809 2.285s-1.878 0.915-2.881 1.185c-4.256 1.146-9.669-1.652-13.102 1.788l-28.931 28.994c-1.971 1.975-4.438 4.688-5.783 3.109zM61.964 2.036c-4.090 1.807-4.681 1.68-8.777 5.486-3.483 3.237-8.353 8.949-11.466 12.030-4.151 4.109-3.691-1.194-3.793-2.41-0.275-3.273 1.897-5.778 4.513-8.454 3.485-3.565 3.84-4.395 3.848-7.407-2.965 5.030-4.407 4.97-7.172 7.462-1.047 0.943-1.742 1.802-2.285 2.809s-0.915 1.878-1.185 2.881c-1.146 4.256 1.652 9.669-1.788 13.102l-28.994 28.931c-1.975 1.971-4.688 4.438-3.109 5.783z"></path>
</svg>
