<?xml version="1.0" encoding="utf-8"?>
<!DOCTYPE svg PUBLIC "-//W3C//DTD SVG 1.1//EN" "http://www.w3.org/Graphics/SVG/1.1/DTD/svg11.dtd">
<svg version="1.1" xmlns="http://www.w3.org/2000/svg" xmlns:xlink="http://www.w3.org/1999/xlink" width="64" height="64" viewBox="0 0 64 64">
<path d="M48.27 14.354c-4.015-5.323-9.816-8.685-16.271-8.685s-12.256 3.362-16.271 8.685c0.871 2.145 2.171 4.114 3.858 5.801 3.316 3.316 7.724 5.141 12.413 5.141s9.097-1.826 12.413-5.141c1.686-1.686 2.986-3.656 3.858-5.801zM14.286 16.479c-0.237 0.388-0.466 0.782-0.685 1.185-0.401-0.252-0.729-0.513-1.062-0.792-0.161-0.135-0.405-0.542-0.623-1.008 0.742-1.552 0.162-3.434-1.36-4.287-1.585-0.889-3.591-0.325-4.481 1.26s-0.325 3.592 1.26 4.481c0.172 0.096 0.348 0.174 0.528 0.237 0.386 0.86 1.004 1.965 1.858 2.681 0.574 0.481 1.206 0.976 2.085 1.464-0.987 2.778-1.588 5.802-1.72 8.973-1.512 0.028-2.553 0.288-3.494 0.565-0.571 0.168-1.123 0.466-1.621 0.803-0.131-0.016-0.264-0.025-0.399-0.025-1.818 0-3.291 1.474-3.291 3.291s1.474 3.291 3.291 3.291c1.773 0 3.218-1.403 3.288-3.159 0.692-0.203 1.356-0.365 2.344-0.38 0.434 4.528 1.825 8.706 3.924 12.236-1.943 1.509-3.138 3.156-3.649 4.981 0 0-0.103 0.060-0.257 0.187-0.135 0.109-0.265 0.226-0.385 0.359-1.216 1.352-1.106 3.433 0.246 4.648s3.432 1.106 4.648-0.246c1.109-1.233 1.11-3.069 0.076-4.306 0.422-0.763 0.855-1.236 1.875-2.052 3.71 4.341 8.696 7.137 14.219 7.463v-30.875c-7.301-0.4-13.546-4.764-16.617-10.978zM59.428 32.016c-0.135 0-0.268 0.009-0.399 0.025-0.498-0.337-1.051-0.634-1.621-0.803-0.94-0.277-1.981-0.537-3.494-0.565-0.133-3.171-0.734-6.194-1.72-8.973 0.879-0.488 1.511-0.983 2.085-1.464 0.854-0.715 1.472-1.821 1.858-2.681 0.179-0.063 0.356-0.141 0.528-0.237 1.585-0.889 2.149-2.896 1.26-4.481s-2.895-2.149-4.481-1.26c-1.522 0.854-2.102 2.736-1.36 4.287-0.218 0.466-0.463 0.873-0.623 1.008-0.333 0.279-0.661 0.539-1.062 0.792-0.219-0.403-0.448-0.798-0.685-1.185-3.071 6.214-9.316 10.578-16.617 10.978v30.875c5.524-0.327 10.51-3.122 14.22-7.463 1.020 0.816 1.453 1.289 1.875 2.052-1.034 1.236-1.033 3.073 0.077 4.306 1.216 1.352 3.297 1.462 4.648 0.246s1.462-3.297 0.246-4.648c-0.12-0.133-0.25-0.25-0.385-0.359-0.154-0.127-0.257-0.187-0.257-0.187-0.511-1.824-1.706-3.471-3.649-4.981 2.1-3.53 3.49-7.709 3.924-12.236 0.988 0.016 1.652 0.177 2.344 0.38 0.070 1.756 1.515 3.159 3.288 3.159 1.818 0 3.291-1.474 3.291-3.291s-1.474-3.291-3.292-3.291z"></path>
</svg>
