<?xml version="1.0" encoding="utf-8"?>
<!DOCTYPE svg PUBLIC "-//W3C//DTD SVG 1.1//EN" "http://www.w3.org/Graphics/SVG/1.1/DTD/svg11.dtd">
<svg version="1.1" xmlns="http://www.w3.org/2000/svg" xmlns:xlink="http://www.w3.org/1999/xlink" width="64" height="64" viewBox="0 0 64 64">
<path d="M6.615 21.787c0-5.624 3.429-10.494 8.311-12.551h-1.056c-5.637 0-10.299 4.499-11.122 10.315-0.823 0.137-1.467 1.084-1.467 2.209 0 1.18 0.699 2.113 1.591 2.181 0.987 4.993 4.814 9.026 9.559 9.438 0 0 0.014 0 0.014 0 0.192 0 0.384 0.082 0.576 0.123 0.151 0.027 0.302 0.055 0.453 0.096-4.101-2.346-6.857-6.749-6.857-11.811zM60.677 9.373c-0.151-0.398-0.315-0.768-0.48-1.139-0.891-1.975-1.975-3.566-3.209-4.746-1.536-1.44-3.305-2.208-5.129-2.208-1.138 0-2.249 0.302-3.305 0.878 0 0 0 0-0.014 0-0.165 0.096-0.329 0.178-0.494 0.274-6.72 3.978-14.277 6.337-22.299 6.776-0.891 0.055-1.783 0.027-2.674 0.027h-5.801c-4.663 2.058-8.091 6.927-8.091 12.551 0 5.048 2.633 9.479 6.555 11.811 1.783 1.495 5.719 1.605 5.486 3.278-0.261 1.811-0.754 3.004-1.070 4.211-0.178 0.658-3.237 10-3.47 19.849 0 0.274 0 0.508 0.027 0.905s0.302 0.878 1.166 0.878h10.533c0.905 0 1.33-0.453 1.275-1.276-0.027-0.261-0.082-0.59-0.11-0.892-0.329-3.169-0.631-6.831-0.453-11.193 0.178-4.664 0.713-7.119 0.96-8.409 0.288-1.427 1.042-3.073 1.659-4.156 4.224 0.123 12.741 2.647 15.785 3.964 0 0 0.987 0.466 1.385 0.713 0.96 0.466 1.947 0.7 2.962 0.7 0.123 0 0.247 0 0.37-0.014 1.687-0.096 3.319-1.331 4.759-2.675 1.248-1.166 2.318-2.771 3.209-4.746 0.165-0.384 0.329-0.768 0.48-1.18 1.317-3.429 2.030-7.668 2.030-12.085s-0.713-8.669-2.043-12.099zM57.509 33.584c-1.070 2.538-2.496 4.568-4.046 4.568s-2.962-2.016-4.032-4.568c-1.248-2.963-2.043-7.284-2.043-12.085 0-4.828 0.795-9.163 2.057-12.126 1.070-2.524 2.482-4.047 4.018-4.047 1.55 0 2.949 1.536 4.032 4.047 1.262 2.963 2.057 7.298 2.057 12.126 0 4.801-0.795 9.122-2.043 12.085z"></path>
</svg>
