<?xml version="1.0" encoding="utf-8"?>
<!DOCTYPE svg PUBLIC "-//W3C//DTD SVG 1.1//EN" "http://www.w3.org/Graphics/SVG/1.1/DTD/svg11.dtd">
<svg version="1.1" xmlns="http://www.w3.org/2000/svg" xmlns:xlink="http://www.w3.org/1999/xlink" width="64" height="64" viewBox="0 0 64 64">
<path d="M45.6 11.52v-4.64c0-3.056-2.32-5.6-5.52-5.6h-16.176c-3.184 0-5.504 2.544-5.504 5.6v4.64h-14.56v5.12h1.472c0 0 0.864 0.096 1.312 0.544s0.624 1.44 0.624 1.44l3.040 38.672c0.24 4.704 0.24 5.424 5.76 5.424h31.904c5.52 0 5.52-0.704 5.76-5.408l3.040-38.656c0 0 0.176-1.008 0.624-1.456s1.312-0.544 1.312-0.544h1.472v-5.12h-14.56v-0.016zM21.76 6.88c0-1.536 1.248-2.4 2.832-2.4h14.672c1.584 0 2.976 0.88 2.976 2.4v4.64h-20.48v-4.64zM20.4 52.48l-1.648-30.72h3.248l1.68 30.72h-3.28zM33.776 52.48h-3.52v-30.72h3.52v30.72zM43.632 52.48h-3.264l1.68-30.72h3.248l-1.664 30.72z"></path>
</svg>
