<?xml version="1.0" encoding="utf-8"?>
<!DOCTYPE svg PUBLIC "-//W3C//DTD SVG 1.1//EN" "http://www.w3.org/Graphics/SVG/1.1/DTD/svg11.dtd">
<svg version="1.1" xmlns="http://www.w3.org/2000/svg" xmlns:xlink="http://www.w3.org/1999/xlink" width="64" height="64" viewBox="0 0 64 64">
<path d="M32.548 25.014c-6.438 6.437 0 0-6.438 6.437l-10.111 10.111-5.124-5.123-5.688 0.194 9.501 9.499-9.146 9.146c-1.123-0.156-2.302 0.182-3.166 1.047-1.463 1.463-1.463 3.834-0.001 5.297 1.464 1.465 3.835 1.465 5.299 0 0.864-0.863 1.203-2.043 1.046-3.165l9.146-9.146 9.501 9.501 0.193-5.689-5.124-5.124 10.11-10.109c6.437-6.439 0 0 6.437-6.439l23.256-23.254 0.478-6.916-26.739 27.165-0.426-0.427 27.165-26.738-6.916 0.48zM35.98 28.445l-16.419 16.677-0.687-0.687 16.679-16.418z"></path>
</svg>
