<?xml version="1.0" encoding="utf-8"?>
<!DOCTYPE svg PUBLIC "-//W3C//DTD SVG 1.1//EN" "http://www.w3.org/Graphics/SVG/1.1/DTD/svg11.dtd">
<svg version="1.1" xmlns="http://www.w3.org/2000/svg" xmlns:xlink="http://www.w3.org/1999/xlink" width="64" height="64" viewBox="0 0 64 64">
<path d="M32.001 27.288c-2.605 0-4.712 2.107-4.712 4.708 0 2.605 2.107 4.715 4.712 4.715 2.602 0 4.712-2.11 4.712-4.715 0-2.602-2.11-4.708-4.712-4.708zM56.549 29.76c-1.069-11.811-10.499-21.242-22.31-22.311v-6.169h-4.478v6.169c-11.811 1.069-21.241 10.5-22.312 22.311h-6.169v4.478h6.169c1.070 11.813 10.501 21.241 22.312 22.311v6.171h4.478v-6.171c11.811-1.070 21.241-10.498 22.31-22.311h6.171v-4.478h-6.171zM52.050 34.238c-1.036 9.34-8.47 16.776-17.811 17.812v-8.072h-4.478v8.072c-9.341-1.036-16.777-8.472-17.813-17.812h8.072v-4.478h-8.072c1.036-9.34 8.472-16.776 17.813-17.812v8.072h4.478v-8.072c9.341 1.036 16.775 8.472 17.811 17.812h-8.070v4.478h8.070z"></path>
</svg>
