<?xml version="1.0" encoding="utf-8"?>
<!DOCTYPE svg PUBLIC "-//W3C//DTD SVG 1.1//EN" "http://www.w3.org/Graphics/SVG/1.1/DTD/svg11.dtd">
<svg version="1.1" xmlns="http://www.w3.org/2000/svg" xmlns:xlink="http://www.w3.org/1999/xlink" width="64" height="64" viewBox="0 0 64 64">
<path d="M32.036 5.143c7.15 4.923 18.549 7.31 23.409 8.147 0.185 1.703 0.28 3.396 0.28 5.052 0 16.978-9.049 32.52-23.723 40.945-14.676-8.427-23.725-23.968-23.725-40.945 0-1.64 0.095-3.32 0.28-5.020 4.962-0.788 16.583-3.092 23.48-8.18zM31.955 1.28c-7.264 7.188-26.082 9.389-26.082 9.389-0.386 2.505-0.602 5.063-0.602 7.674 0 19.247 10.838 35.95 26.73 44.377 15.895-8.428 26.729-25.13 26.729-44.377 0-2.611-0.213-5.168-0.598-7.674 0.001 0-18.323-2.421-26.177-9.389v0zM13.952 17.264c-0.267 1.735-0.416 3.503-0.416 5.307 0 13.291 7.49 24.826 18.465 30.648 10.976-5.822 18.464-17.356 18.464-30.648 0-1.804-0.152-3.572-0.414-5.307 0 0-12.658-1.671-18.083-6.483-5.018 4.963-18.015 6.483-18.015 6.483z"></path>
</svg>
