<?xml version="1.0" encoding="utf-8"?>
<!DOCTYPE svg PUBLIC "-//W3C//DTD SVG 1.1//EN" "http://www.w3.org/Graphics/SVG/1.1/DTD/svg11.dtd">
<svg version="1.1" xmlns="http://www.w3.org/2000/svg" xmlns:xlink="http://www.w3.org/1999/xlink" width="64" height="64" viewBox="0 0 64 64">
<path d="M38.272 14.859h7.869l0.001 9.18 3.989-6.194v-5.192c0-0.317-0.126-0.621-0.35-0.847l-10.176-10.176c-0.224-0.224-0.529-0.35-0.846-0.35h-31.464c-1.98 0-3.591 1.61-3.591 3.59v54.259c0 1.98 1.611 3.59 3.591 3.59h39.246c1.98 0 3.591-1.61 3.591-3.59v-15.405l-3.988 6.103 0.001 8.902h-38.45v-53.46h29.097v8.107c0 0.819 0.663 1.482 1.482 1.482zM54.586 29.824l-1.649-1.077c-0.269-0.176-0.629-0.1-0.805 0.169l-8.878 13.585-1.707-1.115 8.878-13.585c0.176-0.269 0.1-0.63-0.169-0.805l-1.649-1.077c-0.269-0.176-0.63-0.1-0.805 0.169l-13.293 20.341c-0.056 0.086-0.089 0.186-0.094 0.289l-0.347 7.059c-0.010 0.206 0.090 0.403 0.263 0.515s0.393 0.126 0.578 0.034l6.326-3.153c0.093-0.046 0.171-0.116 0.228-0.203l13.293-20.341c0.176-0.268 0.101-0.629-0.168-0.805zM60.033 21.489l-5.979-3.907c-0.269-0.176-0.63-0.1-0.805 0.169l-4.032 6.17c-0.176 0.269-0.1 0.63 0.169 0.806l5.979 3.907c0.269 0.176 0.63 0.1 0.805-0.169l4.032-6.17c0.176-0.269 0.1-0.63-0.169-0.806zM13.504 14.074h11.41c0.808 0 1.463-0.655 1.463-1.463s-0.655-1.463-1.463-1.463h-11.41c-0.808 0-1.463 0.655-1.463 1.463s0.655 1.463 1.463 1.463zM35.154 19.926c0-0.808-0.655-1.463-1.463-1.463h-20.187c-0.808 0-1.463 0.655-1.463 1.463s0.655 1.463 1.463 1.463h20.187c0.808 0 1.463-0.655 1.463-1.463zM13.504 28.703h11.41c0.808 0 1.463-0.655 1.463-1.463s-0.655-1.463-1.463-1.463h-11.41c-0.808 0-1.463 0.655-1.463 1.463s0.655 1.463 1.463 1.463zM13.504 36.017h11.41c0.808 0 1.463-0.655 1.463-1.463s-0.655-1.463-1.463-1.463h-11.41c-0.808 0-1.463 0.655-1.463 1.463s0.655 1.463 1.463 1.463zM14.123 54.922c-0.285 0.368 0.229 0.89 0.517 0.517 0.909-1.174 1.659-2.439 2.286-3.773 0.391 0.246 0.905 0.196 1.326 0.030 0.607-0.239 1.122-0.702 1.612-1.12 0.29-0.247 0.627-0.656 1.028-0.695 0.306-0.029 0.72 0.217 1.026 0.27 0.8 0.136 1.735-0.095 2.507-0.286 0.733-0.181 1.591-0.467 2.023-1.131 0.258-0.397-0.376-0.763-0.631-0.369-0.345 0.531-1.189 0.697-1.759 0.838-0.669 0.165-1.445 0.329-2.135 0.211-0.52-0.088-0.94-0.403-1.474-0.165-0.716 0.319-1.262 0.989-1.894 1.441-0.283 0.202-0.606 0.397-0.96 0.424-0.146 0.011-0.264-0.042-0.363-0.131 0.078-0.181 0.155-0.362 0.229-0.545 0.713-1.771 1.036-3.569 1.367-5.434 0.168-0.948 0.448-2.441-0.91-2.532-1.2-0.080-2.238 1.651-2.621 2.563-0.343 0.816-0.381 1.764-0.355 2.635 0.016 0.543 0.212 1.107 0.356 1.668-1.152 0.185-2.167 1.348-1.989 2.502 0.175 1.135 1.594 0.549 2.124 0.129 0.536-0.425 0.71-0.956 0.716-1.528 0.107 0.176 0.196 0.388 0.289 0.585-0.618 1.386-1.393 2.704-2.315 3.895zM15.405 50.782c-0.108 0.482-0.719 0.959-1.199 1.003-0.378 0.035-0.147-0.64-0.073-0.791 0.235-0.474 0.816-0.784 1.305-0.917 0.023 0.238 0.019 0.474-0.033 0.705zM16.016 49.366c-0.124-0.582-0.297-1.166-0.342-1.694-0.087-1.020 0.095-2.090 0.601-2.982 0.316-0.558 0.96-1.412 1.644-1.485 0.61-0.065 0.238 1.42 0.185 1.718-0.163 0.921-0.28 1.835-0.508 2.745-0.212 0.845-0.48 1.682-0.8 2.501-0.17-0.424-0.392-0.696-0.78-0.802z"></path>
</svg>
