<?xml version="1.0" encoding="utf-8"?>
<!DOCTYPE svg PUBLIC "-//W3C//DTD SVG 1.1//EN" "http://www.w3.org/Graphics/SVG/1.1/DTD/svg11.dtd">
<svg version="1.1" xmlns="http://www.w3.org/2000/svg" xmlns:xlink="http://www.w3.org/1999/xlink" width="64" height="64" viewBox="0 0 64 64">
<path d="M43.917 35.501c0-0.934 4.094-13.354-3.877-17.109-9.184-4.327-11.722-7.779-11.646-13.31-0.006 0.224-5.554 8.983-1.941 13.31 5.608 6.698 3.24 11.884 0 11.407-5.444-0.799-4.787-7.752-3.883-9.506-2.845-0.294-6.135 1.44-7.764 3.802-4.897 7.126 5.716 13.945 1.942 19.012-2.872 3.862-7.78-3.742-7.764-3.802-5.827 29.795 36.492 30.552 38.817 5.704 0.692-7.452 7.542-11.505 7.762-11.409-7.293-3.294-11.647 2.139-11.647 1.901zM30.336 56.419c-10.175 0.367-9.13-7.102-7.765-9.507 1.733-3.062 6.122-3.667 3.883-7.607 0.029 0.060 4.76 0.756 7.76 3.802 4.602 4.654 4.079 13.017-3.878 13.312zM36.156 10.786c-1.188-1.248-1.942-2.748-1.942-3.803 0-1.979 1.65-3.881 3.884-5.703 0.224 1.585-0.968 3.961 0 5.703 0.751 1.289 1.942 2.748 1.942 3.803 0 1.414-0.538 2.703-1.942 3.802-0.213-0.529-0.585-2.264-1.942-3.802z"></path>
</svg>
