<?xml version="1.0" encoding="utf-8"?>
<!DOCTYPE svg PUBLIC "-//W3C//DTD SVG 1.1//EN" "http://www.w3.org/Graphics/SVG/1.1/DTD/svg11.dtd">
<svg version="1.1" xmlns="http://www.w3.org/2000/svg" xmlns:xlink="http://www.w3.org/1999/xlink" width="64" height="64" viewBox="0 0 64 64">
<path d="M51.526 56.24l10.619-26.549c0.035-0.082 0.056-0.166 0.069-0.252 0.004-0.025 0.005-0.049 0.007-0.074 0.005-0.056 0.005-0.111 0.001-0.166-0.002-0.029-0.005-0.058-0.009-0.088-0.009-0.057-0.023-0.113-0.040-0.168-0.008-0.022-0.012-0.044-0.020-0.066-0.030-0.076-0.068-0.147-0.114-0.214-0.003-0.004-0.004-0.008-0.006-0.012l-18.6-26.57c-0.006-0.008-0.002-0.017-0.008-0.026l0.009-0.002v0.438c0 0-0.021 0-0.024 0-0.258-0.64-0.7-0.719-1.121-0.625 0 0.003-0.003-0.008-0.005-0.008-0.002 0.003-0.006-0.008-0.006-0.008h-0.011c0 0-0.003 0-0.005 0s-0.002-0.097-0.005-0.097l-29.227 7.922c-0.016 0.005-0.029-0.012-0.045-0.007-0.056 0.018-0.11 0.026-0.162 0.053-0.035 0.017-0.065 0.034-0.097 0.054s-0.065 0.039-0.094 0.063c-0.028 0.023-0.054 0.047-0.079 0.072-0.031 0.031-0.059 0.063-0.087 0.097-0.019 0.025-0.038 0.049-0.054 0.075-0.029 0.045-0.054 0.093-0.077 0.143-0.007 0.015-0.017 0.027-0.023 0.042l-10.534 26.566c-0.013 0.033 0.057 0.067 0.057 0.1v0.001c0 0.119 0 0.24 0 0.36 0 0.003 0 0.003 0 0.005 0 0 0 0 0 0.001 0 0 0 0 0 0.003v0.004c0 0.047-0.001 0.096 0.008 0.143 0.002 0.003-0.008 0.003-0.008 0.004 0 0.003 0 0.003 0 0.005 0 0 0 0 0 0.001 0 0 0 0 0 0.003v0.003c0 0 0 0 0 0.001v0.003c0 0.122-0.029 0.241 0.038 0.349 0-0.001-0.019 0.003-0.019 0.003 0 0.003-0.019 0.003-0.019 0.003 0 0.001 0 0.001 0 0.001l-0.029 0.003c0.019 0.030 0.023 0.058 0.044 0.085l18.591 23.91c0.001 0.003 0 0.004 0.001 0.006 0.001 0.001 0 0.003 0.001 0.005 0.004 0.005 0.009 0.009 0.013 0.013 0.015 0.019 0.033 0.033 0.050 0.050 0.017 0.019 0.034 0.036 0.052 0.053 0.019 0.017 0.035 0.040 0.055 0.056 0.017 0.013 0.037 0.021 0.054 0.034 0.026 0.017 0.052 0.034 0.079 0.049 0.003 0.003 0.006 0.005 0.010 0.006 0.056 0.033 0.113 0.058 0.172 0.079 0.027 0.009 0.052 0.020 0.080 0.028 0.013 0.004 0.026 0.011 0.040 0.013 0.079 0.017 0.159 0.028 0.24 0.028 0.063 0 0.129-0.008 0.195-0.017l29.228-5.314c0.036-0.006 0.069-0.013 0.104-0.024 0.009-0.003 0.019 0.002 0.027 0.002 0.003 0 0.003 0 0.003 0 0.013 0 0.025-0.017 0.038-0.022 0.026-0.009 0.051-0.022 0.077-0.033 0.013-0.006 0.028-0.012 0.041-0.019 0.011-0.006 0.017-0.010 0.021-0.011 0.009-0.005 0.015-0.013 0.024-0.018 0.090-0.050 0.172-0.111 0.243-0.182 0.009-0.010 0.015-0.022 0.024-0.031 0.070-0.076 0.129-0.161 0.173-0.255 0.004-0.006 0.010-0.011 0.013-0.019 0.003-0.005 0.005-0.011 0.007-0.017 0.001-0.003 0.002-0.004 0.003-0.006 0.005-0.013 0.010-0.026 0.016-0.038zM49.585 53.987l-18.436-11.525 20.741-16.129-2.305 27.654zM29.877 40.706l-7.011-25.707 28.044 9.349-21.033 16.358zM54.101 25.879l5.713 3.809-7.617 19.040 1.905-22.849zM56.956 25.177l-2.943-1.962-3.923-7.845 6.865 9.807zM51.034 22.105l-26.924-8.975 17.95-8.975 8.974 17.949zM21.205 12.16l-4.15-1.384 15.22-4.152-11.069 5.535zM13.943 12.025l5.549 1.85-12.949 16.648 7.4-18.498zM20.811 15.707l6.941 25.445-23.133-4.626 16.193-20.819zM27.736 43.36l-6.722 15.684-15.684-20.165 22.406 4.481zM29.758 44.149l17.809 11.132-24.488 4.454 6.68-15.585z"></path>
</svg>
