<?xml version="1.0" encoding="utf-8"?>
<!DOCTYPE svg PUBLIC "-//W3C//DTD SVG 1.1//EN" "http://www.w3.org/Graphics/SVG/1.1/DTD/svg11.dtd">
<svg version="1.1" xmlns="http://www.w3.org/2000/svg" xmlns:xlink="http://www.w3.org/1999/xlink" width="64" height="64" viewBox="0 0 64 64">
<path d="M19.588 10.736c0 0 0.522 3.177 4.199 2.629l7.405-8.307c0 0 1.247-3.308-3.258-1.036 0 0-6.153 4.28-8.347 6.715zM34.424 8.891c0 0 0.521 3.177 4.199 2.629 0 0 5.205-6.126 7.405-8.308 0.621-0.617 1.248-3.308-3.258-1.035 0 0-6.152 4.28-8.346 6.714zM56.649 30.496c0 0-3.043 0.034-3.205-3.899 0 0 4.729-6.546 6.351-9.236 0.458-0.758 2.84-1.905 1.556 3.208 0-0.001-2.846 7.193-4.702 9.927zM56.614 44.49c0 0-3.030-0.248-2.866-4.182 0 0 5.257-6.078 7.096-8.605 0.521-0.714 2.989-1.629 1.284 3.343 0 0-3.435 6.899-5.514 9.444zM46.063 13.143c0 0 1.192 4.625 4.73 4.364l4.674-6.887c0 0 3.376-6.946-3.248-2.479-1.636 1.104-6.156 5.002-6.156 5.002zM29.165 62.686c-7.737 0.786-11.798-12.498-11.798-12.498-1.735-5.177-9.603-4.455-13.74-9.594-6.842-8.507 3.152-12.294 6.209-11.836 3.789 0.567 9.56 1.949 12.325 0.503 3.91-2.046 18.612-4.518 15.24 12.287-0.471 2.341-2.386 6.678-0.126 9.566 0 0 6.431 10.096-8.11 11.573zM20.456 22.349c-1.95 3.142-5.331 4.43-7.554 2.882-2.22-1.552-2.442-5.355-0.492-8.495s5.331-4.431 7.553-2.88c2.222 1.551 2.442 5.354 0.494 8.494zM34.58 20.619c-2.147 3.521-5.822 5.048-8.209 3.412s-2.582-5.817-0.436-9.338c2.147-3.521 5.822-5.048 8.209-3.412s2.582 5.817 0.436 9.338zM51.149 38.895c-2.873 2.88-6.786 3.439-8.741 1.249-1.953-2.191-1.207-6.301 1.666-9.184 2.874-2.878 6.784-3.44 8.74-1.248 1.951 2.19 1.206 6.3-1.665 9.183zM51.151 53.557c-3.326 2.264-7.27 2.043-8.806-0.492-1.537-2.538-0.083-6.431 3.244-8.696s7.27-2.044 8.807 0.494c1.536 2.538 0.083 6.43-3.245 8.694zM46.080 26.504c-2.526 3.225-6.422 4.213-8.706 2.203-2.281-2.007-2.083-6.252 0.443-9.477s6.423-4.212 8.706-2.202c2.282 2.009 2.082 6.252-0.443 9.476z"></path>
</svg>
