<?xml version="1.0" encoding="utf-8"?>
<!DOCTYPE svg PUBLIC "-//W3C//DTD SVG 1.1//EN" "http://www.w3.org/Graphics/SVG/1.1/DTD/svg11.dtd">
<svg version="1.1" xmlns="http://www.w3.org/2000/svg" xmlns:xlink="http://www.w3.org/1999/xlink" width="64" height="64" viewBox="0 0 64 64">
<path d="M53.87 3.688c0.858-0.428 1.461-1.261 2.347-1.603 0.474-0.183 1.005-0.261 1.544-0.275 0.245 0.126 0.521 0.185 0.809 0.21 0.33 0.23 0.66 0.46 0.99 0.689 1.705 1.184 2.585 2.851 2.864 4.87l-0.196 2.611c-0.695 1.006-1.213 2.214-2.111 2.986-0.621 0.534-1.245 1.065-1.867 1.599l4.469 3.568-0.371 0.462-4.557-3.637c-0.912 0.783-1.828 1.563-2.74 2.345l2.834 4.881-0.513 0.296-2.778-4.785c-1.786 1.532-3.578 3.057-5.367 4.586l3.46 3.947-0.446 0.389-3.463-3.952c-5.435 4.645-10.88 9.279-16.363 13.866-3.656 3.059-7.687 5.677-11.289 8.792-5.038 4.355-9.827 8.994-14.737 13.497-0.631 0.579-1.065 1.167-1.262 2.059-0.134 0.607-0.824 1.093-1.265 1.633-0.554-0.041-0.824-0.285-1.143-0.494-0.042-0.075-0.096-0.144-0.169-0.204-0.223-0.183-0.445-0.365-0.661-0.55-0.017-0.026-0.039-0.050-0.057-0.076-0.116-0.837-0.619-1.397-0.545-2.369 0.615-0.4 1.209-1.079 1.851-1.127 0.747-0.056 1.194-0.327 1.664-0.788 6.487-6.374 12.849-12.828 18.67-19.864 6.398-7.734 13.136-15.189 19.879-22.638l-1.958-3.873 0.53-0.266 1.854 3.668c1.163-1.285 2.325-2.57 3.486-3.856l-3.3-3.96 0.456-0.378 3.245 3.894c0.22-0.244 0.441-0.487 0.66-0.73 1.146-1.272 2.378-2.467 3.632-3.642l-1.843-3.936 0.537-0.25 1.759 3.759c0.484-0.453 0.972-0.902 1.46-1.351z"></path>
</svg>
