<?xml version="1.0" encoding="UTF-8" standalone="no"?>
<svg
   xmlns:dc="http://purl.org/dc/elements/1.1/"
   xmlns:cc="http://creativecommons.org/ns#"
   xmlns:rdf="http://www.w3.org/1999/02/22-rdf-syntax-ns#"
   xmlns:svg="http://www.w3.org/2000/svg"
   xmlns="http://www.w3.org/2000/svg"
   xmlns:sodipodi="http://sodipodi.sourceforge.net/DTD/sodipodi-0.dtd"
   xmlns:inkscape="http://www.inkscape.org/namespaces/inkscape"
   version="1.1"
   id="Layer_2"
   x="0px"
   y="0px"
   width="100"
   height="100"
   viewBox="5 -10 99.999999 135"
   enable-background="new 0 0 100 100"
   xml:space="preserve"
   inkscape:version="0.48.2 r9819"
   sodipodi:docname="Bludgeoning.svg"><metadata
   id="metadata67"><rdf:RDF><cc:Work
       rdf:about=""><dc:format>image/svg+xml</dc:format><dc:type
         rdf:resource="http://purl.org/dc/dcmitype/StillImage" /><dc:title /></cc:Work></rdf:RDF></metadata><defs
   id="defs65" /><sodipodi:namedview
   pagecolor="#ffffff"
   bordercolor="#666666"
   borderopacity="1"
   objecttolerance="10"
   gridtolerance="10"
   guidetolerance="10"
   inkscape:pageopacity="0"
   inkscape:pageshadow="2"
   inkscape:window-width="754"
   inkscape:window-height="562"
   id="namedview63"
   showgrid="false"
   fit-margin-top="0"
   fit-margin-left="0"
   fit-margin-right="0"
   fit-margin-bottom="0"
   inkscape:zoom="3.337544"
   inkscape:cx="52.747666"
   inkscape:cy="51.45204"
   inkscape:window-x="2209"
   inkscape:window-y="315"
   inkscape:window-maximized="0"
   inkscape:current-layer="Layer_2" />












<g
   id="g3019"
   transform="matrix(1.3684859,0,0,1.3684859,6.876689,-56.477314)"><path
     inkscape:connector-curvature="0"
     id="path57"
     d="m 72.561467,55.059766 c 0.350425,-1.059686 1.210696,-1.894928 1.456392,-2.972542 0.131965,-0.577002 0.132012,-1.201157 0.05842,-1.823499 -0.186647,-0.26134 -0.300804,-0.568143 -0.37835,-0.896038 -0.320607,-0.340752 -0.642216,-0.682141 -0.962183,-1.023896 -1.654128,-1.762937 -3.72642,-2.495824 -6.104089,-2.476092 l -2.981432,0.665962 c -1.044665,0.969404 -2.352518,1.770324 -3.092231,2.933321 -0.512367,0.80488 -1.01972,1.612944 -1.531906,2.418643 l -4.870889,-4.54392 -0.470958,0.50465 4.965671,4.632942 c -0.750992,1.181874 -1.496785,2.367753 -2.246772,3.550265 l -6.112343,-2.439814 -0.255468,0.640746 5.99227,2.391736 c -1.468957,2.31505 -2.928249,4.634827 -4.393193,6.952425 l -5.139295,-3.317465 -0.374188,0.579453 5.145132,3.320466 c -4.449232,7.040699 -8.884422,14.090313 -13.258785,21.177133 -2.91685,4.724395 -5.26201,9.807493 -8.253371,14.479662 -4.181679,6.534996 -8.732791,12.830536 -13.105615,19.242076 -0.562195,0.82462 -1.16902,1.42246 -2.16512,1.79992 -0.678735,0.25664 -1.123405,1.13335 -1.67318,1.73222 0.140848,0.63056 0.4673,0.90114 0.76247,1.23207 0.09326,0.036 0.182903,0.0866 0.263816,0.15974 0.249306,0.22582 0.495787,0.45056 0.745906,0.66845 0.03282,0.0159 0.0641,0.0365 0.09693,0.0524 0.985753,-0.008 1.71715,0.47647 2.827399,0.22847 0.357934,-0.77555 1.042181,-1.57405 0.989876,-2.32081 -0.06082,-0.86969 0.176506,-1.42976 0.630572,-2.04858 6.2693,-8.54315 12.651098,-16.95647 19.796874,-24.843987 7.854279,-8.669921 15.329354,-17.68472 22.795765,-26.703609 l 4.8006,1.600747 0.217906,-0.654737 -4.546708,-1.516275 c 1.288164,-1.555825 2.576692,-3.11001 3.866226,-4.663556 l 5.127062,3.131661 0.359141,-0.589006 -5.041343,-3.079354 c 0.244273,-0.293891 0.48818,-0.58942 0.732453,-0.88331 1.275794,-1.534123 2.448971,-3.153794 3.594785,-4.795765 l 4.854759,1.457796 0.198488,-0.66073 -4.63588,-1.391328 c 0.4412,-0.634024 0.878203,-1.271414 1.314387,-1.908621 z" /><g
     id="g3058"
     transform="matrix(-0.93799509,0.45169471,0.45169471,0.93799509,50.03288,18.498649)"><g
       transform="matrix(0.99906314,0.11056385,-0.11056385,0.99906314,5.2344819,-4.6306681)"
       id="g3121"><path
         inkscape:connector-curvature="0"
         id="path3"
         d="m 32,93 v 1.903 c 0,0 0.19,2.758 3.5,2.758 3.31,0 3.5,-2.758 3.5,-2.758 V 93 h -7 z" /><rect
         id="rect5"
         height="48"
         width="7"
         y="15"
         x="32" /><rect
         id="rect7"
         height="2"
         width="7"
         y="64"
         x="32" /><path
         inkscape:connector-curvature="0"
         id="path9"
         d="M 39,14 C 39,14 38.619,11.242 35.31,11.242 32,11.242 32,14 32,14 h 7 z" /><path
         style="fill:none;stroke:#000000;stroke-miterlimit:10"
         inkscape:connector-curvature="0"
         id="path11"
         d="m 37.186,9.796 c -0.379,0.477 -1.073,0.556 -1.55,0.177 L 35.204,9.63 C 34.727,9.251 34.648,8.557 35.027,8.08 l 1.716,-2.159 c 0.379,-0.477 1.073,-0.556 1.55,-0.177 l 0.432,0.343 c 0.477,0.379 0.556,1.073 0.177,1.55 l -1.716,2.159 z"
         stroke-miterlimit="10" /><path
         style="fill:none;stroke:#000000;stroke-miterlimit:10"
         inkscape:connector-curvature="0"
         id="path13"
         d="M 38.912,7.6 C 38.303,7.608 37.803,7.121 37.795,6.512 L 37.788,5.96 C 37.78,5.351 38.268,4.851 38.877,4.843 l 2.758,-0.035 c 0.609,-0.008 1.109,0.479 1.117,1.088 l 0.007,0.552 c 0.008,0.609 -0.48,1.109 -1.089,1.117 L 38.912,7.6 z"
         stroke-miterlimit="10" /><path
         style="fill:none;stroke:#000000;stroke-miterlimit:10"
         inkscape:connector-curvature="0"
         id="path15"
         d="M 42.2,7.733 C 41.636,7.504 41.364,6.86 41.594,6.296 L 41.802,5.785 C 42.031,5.221 42.675,4.95 43.24,5.179 l 2.554,1.039 C 46.358,6.447 46.63,7.091 46.4,7.655 L 46.192,8.166 C 45.963,8.73 45.318,9.002 44.754,8.772 L 42.2,7.733 z"
         stroke-miterlimit="10" /><path
         style="fill:none;stroke:#000000;stroke-miterlimit:10"
         inkscape:connector-curvature="0"
         id="path17"
         d="m 44.793,8.771 c -0.18,-0.582 0.148,-1.199 0.73,-1.378 L 46.05,7.231 c 0.583,-0.179 1.199,0.148 1.378,0.73 l 0.81,2.637 c 0.179,0.582 -0.148,1.199 -0.73,1.378 l -0.528,0.163 c -0.583,0.178 -1.2,-0.148 -1.378,-0.731 L 44.793,8.771 z"
         stroke-miterlimit="10" /><path
         style="fill:none;stroke:#000000;stroke-miterlimit:10"
         inkscape:connector-curvature="0"
         id="path19"
         d="m 55.918,14.654 c 0.604,-0.081 1.158,0.344 1.238,0.948 l 0.072,0.547 c 0.081,0.604 -0.345,1.159 -0.948,1.239 l -2.733,0.363 c -0.604,0.08 -1.158,-0.344 -1.239,-0.948 l -0.072,-0.547 c -0.08,-0.604 0.345,-1.159 0.948,-1.239 l 2.734,-0.363 z"
         stroke-miterlimit="10" /><path
         style="fill:none;stroke:#000000;stroke-miterlimit:10"
         inkscape:connector-curvature="0"
         id="path21"
         d="m 52.637,14.913 c 0.588,0.16 0.934,0.767 0.773,1.355 L 53.265,16.8 c -0.16,0.588 -0.768,0.933 -1.355,0.773 l -2.66,-0.728 c -0.588,-0.161 -0.934,-0.767 -0.773,-1.354 l 0.146,-0.532 c 0.161,-0.588 0.768,-0.935 1.355,-0.774 l 2.659,0.728 z"
         stroke-miterlimit="10" /><path
         style="fill:none;stroke:#000000;stroke-miterlimit:10"
         inkscape:connector-curvature="0"
         id="path23"
         d="m 49.938,14.191 c 0.248,0.556 -0.004,1.208 -0.562,1.455 l -0.504,0.224 c -0.557,0.248 -1.208,-0.004 -1.456,-0.56 l -1.118,-2.522 c -0.247,-0.557 0.004,-1.208 0.561,-1.455 l 0.505,-0.224 c 0.557,-0.247 1.209,0.004 1.456,0.562 l 1.118,2.52 z"
         stroke-miterlimit="10" /><path
         style="fill:none;stroke:#000000;stroke-miterlimit:10"
         inkscape:connector-curvature="0"
         id="path25"
         d="m 57.352,17.69 c -0.607,-0.04 -1.067,-0.566 -1.026,-1.174 l 0.037,-0.551 c 0.04,-0.608 0.566,-1.067 1.174,-1.026 l 2.752,0.185 c 0.608,0.041 1.067,0.566 1.027,1.174 l -0.037,0.551 c -0.041,0.607 -0.567,1.067 -1.175,1.026 L 57.352,17.69 z"
         stroke-miterlimit="10" /><path
         style="fill:none;stroke:#000000;stroke-miterlimit:10"
         inkscape:connector-curvature="0"
         id="path27"
         d="m 60.619,18.085 c -0.545,-0.273 -0.765,-0.937 -0.49,-1.48 l 0.248,-0.493 c 0.273,-0.544 0.937,-0.763 1.481,-0.49 l 2.463,1.239 c 0.545,0.274 0.764,0.937 0.49,1.48 l -0.248,0.493 c -0.273,0.544 -0.938,0.764 -1.481,0.49 l -2.463,-1.239 z"
         stroke-miterlimit="10" /><path
         style="fill:none;stroke:#000000;stroke-miterlimit:10"
         inkscape:connector-curvature="0"
         id="path29"
         d="m 63.121,19.327 c -0.133,-0.594 0.243,-1.184 0.838,-1.315 l 0.538,-0.12 c 0.596,-0.132 1.185,0.243 1.316,0.837 l 0.597,2.693 c 0.132,0.595 -0.243,1.184 -0.837,1.316 l -0.539,0.119 c -0.595,0.132 -1.185,-0.243 -1.316,-0.838 l -0.597,-2.692 z"
         stroke-miterlimit="10" /><path
         style="fill:none;stroke:#000000;stroke-miterlimit:10"
         inkscape:connector-curvature="0"
         id="path31"
         d="m 68.062,24.561 c 0.247,0.556 -0.005,1.208 -0.562,1.455 l -0.504,0.223 c -0.558,0.248 -1.208,-0.004 -1.456,-0.561 l -1.117,-2.522 c -0.246,-0.557 0.004,-1.208 0.562,-1.456 l 0.504,-0.223 c 0.558,-0.247 1.209,0.004 1.456,0.562 l 1.117,2.522 z"
         stroke-miterlimit="10" /><path
         style="fill:none;stroke:#000000;stroke-miterlimit:10"
         inkscape:connector-curvature="0"
         id="path33"
         d="m 65.7,26.303 c -0.076,-0.604 0.352,-1.156 0.956,-1.232 l 0.547,-0.069 c 0.604,-0.076 1.157,0.352 1.232,0.956 l 0.347,2.737 c 0.075,0.604 -0.353,1.156 -0.956,1.232 l -0.548,0.069 C 66.674,30.072 66.122,29.644 66.046,29.04 L 65.7,26.303 z"
         stroke-miterlimit="10" /><path
         style="fill:none;stroke:#000000;stroke-miterlimit:10"
         inkscape:connector-curvature="0"
         id="path35"
         d="m 68.278,33.137 c -0.068,0.605 -0.617,1.039 -1.222,0.969 l -0.548,-0.063 c -0.605,-0.069 -1.038,-0.617 -0.97,-1.222 l 0.317,-2.74 c 0.07,-0.605 0.617,-1.04 1.222,-0.97 l 0.549,0.063 c 0.604,0.07 1.039,0.618 0.97,1.223 l -0.318,2.74 z"
         stroke-miterlimit="10" /><path
         style="fill:none;stroke:#000000;stroke-miterlimit:10"
         inkscape:connector-curvature="0"
         id="path37"
         d="m 65.795,34.403 c -0.18,-0.582 0.148,-1.199 0.73,-1.377 l 0.527,-0.162 c 0.583,-0.179 1.199,0.148 1.378,0.73 l 0.81,2.637 c 0.179,0.582 -0.148,1.199 -0.729,1.378 l -0.528,0.162 C 67.4,37.949 66.784,37.622 66.605,37.04 l -0.81,-2.637 z"
         stroke-miterlimit="10" /><path
         style="fill:none;stroke:#000000;stroke-miterlimit:10"
         inkscape:connector-curvature="0"
         id="path39"
         d="m 66.062,36.709 c 0.345,-0.501 1.032,-0.628 1.533,-0.282 l 0.454,0.313 c 0.502,0.346 0.629,1.033 0.283,1.534 l -1.565,2.271 c -0.346,0.501 -1.032,0.628 -1.533,0.283 l -0.455,-0.313 c -0.502,-0.346 -0.628,-1.033 -0.282,-1.534 l 1.565,-2.272 z"
         stroke-miterlimit="10" /><circle
         style="fill:none;stroke:#000000;stroke-miterlimit:10"
         sodipodi:ry="1.103"
         sodipodi:rx="1.103"
         sodipodi:cy="11.168"
         sodipodi:cx="35.308998"
         d="m 36.411998,11.168 c 0,0.60917 -0.49383,1.103 -1.103,1.103 -0.60917,0 -1.103,-0.49383 -1.103,-1.103 0,-0.60917 0.49383,-1.103 1.103,-1.103 0.60917,0 1.103,0.49383 1.103,1.103 z"
         id="circle41"
         r="1.103"
         cy="11.168"
         cx="35.308998"
         stroke-miterlimit="10" /><circle
         style="fill:none;stroke:#000000;stroke-miterlimit:10"
         sodipodi:ry="1.103"
         sodipodi:rx="1.103"
         sodipodi:cy="42.056"
         sodipodi:cx="64.542"
         d="m 65.645,42.056 c 0,0.60917 -0.49383,1.103 -1.103,1.103 -0.60917,0 -1.103,-0.49383 -1.103,-1.103 0,-0.60917 0.49383,-1.103 1.103,-1.103 0.60917,0 1.103,0.49383 1.103,1.103 z"
         id="circle43"
         r="1.103"
         cy="42.056"
         cx="64.542"
         stroke-miterlimit="10" /><path
         inkscape:connector-curvature="0"
         id="path45"
         d="m 66.584,62.021 c 2.392,-1.731 4.058,-4.394 4.468,-7.459 l 7.688,-2.148 -7.707,-0.92 C 70.792,49.831 70.192,48.286 69.296,46.95 l 3.519,-8.149 -5.817,5.662 c -1.886,-1.503 -4.27,-2.407 -6.867,-2.407 -0.142,0 -0.278,0.016 -0.419,0.021 l -3.24,-7.267 0.219,7.8 c -1.822,0.598 -3.43,1.66 -4.694,3.044 l -8.265,-3.326 6.356,6.213 c -0.629,1.388 -0.988,2.923 -0.988,4.546 0,0.325 0.021,0.646 0.048,0.965 l -7.711,3.22 8.477,-0.036 c 0.736,1.811 1.939,3.376 3.458,4.558 l -3.048,8.493 6.157,-6.799 c 1.144,0.401 2.369,0.631 3.649,0.631 1.169,0 2.293,-0.185 3.35,-0.521 l 5.18,7.202 -2.076,-8.779 z" /><g
         id="g47"><polygon
           id="polygon49"
           points="32,77.051 39,70.051 39,68.637 32,75.637 " /><polygon
           id="polygon51"
           points="32,79.879 39,72.879 39,71.465 32,78.465 " /><polygon
           id="polygon53"
           points="39,67 37.808,67 32,72.808 32,74.223 39,67.223 " /><polygon
           id="polygon55"
           points="32,68.564 33.564,67 32.15,67 32,67.15 " /><polygon
           id="polygon57"
           points="32,82.707 39,75.707 39,74.293 32,81.293 " /><polygon
           id="polygon59"
           points="32,71.393 36.393,67 34.979,67 32,69.979 " /><polygon
           id="polygon61"
           points="32,88.363 39,81.363 39,79.949 32,86.949 " /><polygon
           id="polygon63"
           points="38.264,92 39,92 39,91.264 " /><polygon
           id="polygon65"
           points="36.85,92 39,89.85 39,88.436 35.435,92 " /><polygon
           id="polygon67"
           points="34.021,92 39,87.021 39,85.606 32.607,92 " /><polygon
           id="polygon69"
           points="32,85.535 39,78.535 39,77.121 32,84.121 " /><polygon
           id="polygon71"
           points="32,91.192 39,84.192 39,82.777 32,89.777 " /></g></g></g></g></svg>