<?xml version="1.0" encoding="UTF-8" standalone="no"?>
<svg
   xmlns:dc="http://purl.org/dc/elements/1.1/"
   xmlns:cc="http://creativecommons.org/ns#"
   xmlns:rdf="http://www.w3.org/1999/02/22-rdf-syntax-ns#"
   xmlns:svg="http://www.w3.org/2000/svg"
   xmlns="http://www.w3.org/2000/svg"
   xmlns:sodipodi="http://sodipodi.sourceforge.net/DTD/sodipodi-0.dtd"
   xmlns:inkscape="http://www.inkscape.org/namespaces/inkscape"
   version="1.1"
   id="Layer_1"
   x="0px"
   y="0px"
   viewBox="30.6 -79.2 611.99999 1069.2"
   enable-background="new 0 0 612 792"
   xml:space="preserve"
   height="100"
   width="100"
   inkscape:version="0.91 r13725"
   sodipodi:docname="critical-piercing.svg"><metadata
     id="metadata15"><rdf:RDF><cc:Work
         rdf:about=""><dc:format>image/svg+xml</dc:format><dc:type
           rdf:resource="http://purl.org/dc/dcmitype/StillImage" /><dc:title /></cc:Work></rdf:RDF></metadata><defs
     id="defs13" /><sodipodi:namedview
     pagecolor="#ffffff"
     bordercolor="#666666"
     borderopacity="1"
     objecttolerance="10"
     gridtolerance="10"
     guidetolerance="10"
     inkscape:pageopacity="0"
     inkscape:pageshadow="2"
     inkscape:window-width="1440"
     inkscape:window-height="837"
     id="namedview11"
     showgrid="false"
     fit-margin-top="0"
     fit-margin-left="0"
     fit-margin-right="0"
     fit-margin-bottom="0"
     inkscape:zoom="2.8284271"
     inkscape:cx="41.805812"
     inkscape:cy="42.41169"
     inkscape:window-x="1912"
     inkscape:window-y="172"
     inkscape:window-maximized="1"
     inkscape:current-layer="g3"
     showguides="true"
     inkscape:snap-bbox="true"
     inkscape:bbox-paths="true"
     inkscape:bbox-nodes="true"
     inkscape:snap-bbox-edge-midpoints="true"
     inkscape:snap-bbox-midpoints="true"
     inkscape:object-paths="true"
     inkscape:snap-intersection-paths="true"
     inkscape:object-nodes="true"
     inkscape:snap-smooth-nodes="true"
     inkscape:snap-midpoints="true"
     inkscape:snap-object-midpoints="true"
     inkscape:snap-center="true"
     inkscape:snap-text-baseline="true"
     inkscape:snap-page="true"
     inkscape:guide-bbox="true" /><g
     id="g3"
     transform="matrix(-1,0,0,1,412.70869,377.48366)"><path
       d="m -410.80014,-380.0176 c 62.98369,38.12877 96.5987,61.41357 153.275,111.39755 56.67628,49.98398 129.80639,142.47448 181.626443,190.752057 37.247026,34.700776 48.979738,20.539261 59.12458,3.603002 28.504178,-47.586229 -55.807397,-119.640969 -99.303903,-161.706589 -59.62989,-57.6683 -106.68089,-75.09059 -141.99349,-190.84066 77.11163,67.87831 132.97541,131.4236 191.180303,200.2173 34.776338,41.10296 83.648107,79.54223 90.148739,127.212341 -4.132034,86.280139 -53.306633,63.460393 1.875328,119.415687 L 514.46108,509.56797 c 31.78129,32.02035 62.57963,69.87484 48.38946,84.06501 z"
       id="path5"
       inkscape:connector-curvature="0"
       sodipodi:nodetypes="csssscsccccc" /><path
       d="m -410.80014,-380.0176 c 38.12877,62.98368 61.41354,96.59866 111.39754,153.27497 49.98398,56.67629 142.47449,129.806381 190.75207,181.626426 34.70078,37.2470297 20.539262,48.9797332 3.603,59.124586 -47.58623,28.504169 -119.64099,-55.807396 -161.7066,-99.303896 -57.66831,-59.629886 -75.0906,-106.680886 -190.84069,-141.993486 67.87833,77.11164 131.42363,132.975405 200.21733,191.180292 41.10296,34.7763318 79.54223,83.648094 127.21235,90.14873 86.280145,-4.13204 63.460399,-53.30662722 119.415694,1.875329 L 478.78543,545.24349 c 32.02035,31.78128 69.87485,62.57962 84.06502,48.38945 z"
       id="path5-4"
       inkscape:connector-curvature="0"
       sodipodi:nodetypes="csssscsccccc" /></g></svg>