<?xml version="1.0" encoding="UTF-8" standalone="no"?>
<svg
   xmlns:dc="http://purl.org/dc/elements/1.1/"
   xmlns:cc="http://creativecommons.org/ns#"
   xmlns:rdf="http://www.w3.org/1999/02/22-rdf-syntax-ns#"
   xmlns:svg="http://www.w3.org/2000/svg"
   xmlns="http://www.w3.org/2000/svg"
   xmlns:sodipodi="http://sodipodi.sourceforge.net/DTD/sodipodi-0.dtd"
   xmlns:inkscape="http://www.inkscape.org/namespaces/inkscape"
   version="1.1"
   id="Layer_1"
   x="0px"
   y="0px"
   viewBox="30.6 -79.2 611.99999 1069.2"
   enable-background="new 0 0 612 792"
   xml:space="preserve"
   height="100"
   width="100"
   inkscape:version="0.91 r13725"
   sodipodi:docname="critical-piercing.svg"><metadata
     id="metadata15"><rdf:RDF><cc:Work
         rdf:about=""><dc:format>image/svg+xml</dc:format><dc:type
           rdf:resource="http://purl.org/dc/dcmitype/StillImage" /><dc:title></dc:title></cc:Work></rdf:RDF></metadata><defs
     id="defs13" /><sodipodi:namedview
     pagecolor="#ffffff"
     bordercolor="#666666"
     borderopacity="1"
     objecttolerance="10"
     gridtolerance="10"
     guidetolerance="10"
     inkscape:pageopacity="0"
     inkscape:pageshadow="2"
     inkscape:window-width="1920"
     inkscape:window-height="1057"
     id="namedview11"
     showgrid="false"
     fit-margin-top="0"
     fit-margin-left="0"
     fit-margin-right="0"
     fit-margin-bottom="0"
     inkscape:zoom="3.337544"
     inkscape:cx="32.331233"
     inkscape:cy="27.91648"
     inkscape:window-x="-8"
     inkscape:window-y="-8"
     inkscape:window-maximized="1"
     inkscape:current-layer="g3"
     showguides="true"
     inkscape:snap-bbox="true"
     inkscape:bbox-paths="true"
     inkscape:bbox-nodes="true"
     inkscape:snap-bbox-edge-midpoints="true"
     inkscape:snap-bbox-midpoints="true"
     inkscape:object-paths="true"
     inkscape:snap-intersection-paths="true"
     inkscape:object-nodes="true"
     inkscape:snap-smooth-nodes="true"
     inkscape:snap-midpoints="true"
     inkscape:snap-object-midpoints="true"
     inkscape:snap-center="true"
     inkscape:snap-text-baseline="true"
     inkscape:snap-page="true"
     inkscape:guide-bbox="true" /><g
     id="g3"
     transform="matrix(-1,0,0,1,412.70869,377.48366)"><path
       d="m -390.31225,-388.50458 c 38.12877,62.9837 47.22474,74.85846 97.20872,131.53476 49.98398,56.6763 182.03081,157.908538 204.939034,203.369494 22.908234,45.4609558 20.540341,48.9738828 3.604089,59.1187058 -47.586213,28.5041742 -99.627433,-43.7864428 -141.693063,-87.2829288 -57.6683,-59.629871 -95.10374,-118.689611 -210.85381,-154.002191 67.8783,77.11162 132.22153,122.55185 201.01524,180.756746 41.10296,34.776338 89.60266,92.647545 126.40474,100.565741 86.28014,-4.132034 57.791536,-66.531934 113.7468218,-11.349975 L 531.17229,555.06947 c 32.02033,31.78133 37.43207,44.68323 52.15759,30.068 14.61524,-14.72553 1.71333,-20.13727 -30.06799,-52.15759 L 32.398139,5.8671598 C -22.783826,-50.088126 39.616079,-21.599521 43.748116,-107.87966 35.829919,-144.68173 -22.04129,-193.18144 -56.817637,-234.28439 -115.02252,-303.0781 -160.46276,-367.42132 -237.57439,-435.29962 c 35.31259,115.75006 94.37231,153.1855 154.002197,210.8538 43.496494,42.06562 115.787119,94.10684 87.2829349,141.693059 C -6.4340899,-65.816504 -9.9470052,-63.44862 -55.407961,-86.356854 -100.86892,-109.26508 -202.10119,-241.3119 -258.77748,-291.29588 c -56.67629,-49.98398 -68.55107,-59.07993 -131.53477,-97.2087 z"
       id="path5"
       inkscape:connector-curvature="0" /></g></svg>