<?xml version="1.0" encoding="UTF-8" standalone="no"?>
<svg
   xmlns:dc="http://purl.org/dc/elements/1.1/"
   xmlns:cc="http://creativecommons.org/ns#"
   xmlns:rdf="http://www.w3.org/1999/02/22-rdf-syntax-ns#"
   xmlns:svg="http://www.w3.org/2000/svg"
   xmlns="http://www.w3.org/2000/svg"
   xmlns:sodipodi="http://sodipodi.sourceforge.net/DTD/sodipodi-0.dtd"
   xmlns:inkscape="http://www.inkscape.org/namespaces/inkscape"
   version="1.1"
   id="Layer_1"
   x="0px"
   y="0px"
   viewBox="30.6 -79.2 611.99999 1069.2"
   enable-background="new 0 0 612 792"
   xml:space="preserve"
   height="100"
   width="100"
   inkscape:version="0.91 r13725"
   sodipodi:docname="critical-piercing.svg"><metadata
     id="metadata15"><rdf:RDF><cc:Work
         rdf:about=""><dc:format>image/svg+xml</dc:format><dc:type
           rdf:resource="http://purl.org/dc/dcmitype/StillImage" /><dc:title /></cc:Work></rdf:RDF></metadata><defs
     id="defs13" /><sodipodi:namedview
     pagecolor="#ffffff"
     bordercolor="#666666"
     borderopacity="1"
     objecttolerance="10"
     gridtolerance="10"
     guidetolerance="10"
     inkscape:pageopacity="0"
     inkscape:pageshadow="2"
     inkscape:window-width="1920"
     inkscape:window-height="1057"
     id="namedview11"
     showgrid="false"
     fit-margin-top="0"
     fit-margin-left="0"
     fit-margin-right="0"
     fit-margin-bottom="0"
     inkscape:zoom="6.675088"
     inkscape:cx="37.056379"
     inkscape:cy="55.698757"
     inkscape:window-x="-8"
     inkscape:window-y="-8"
     inkscape:window-maximized="1"
     inkscape:current-layer="g3"
     showguides="false"
     inkscape:snap-bbox="true"
     inkscape:bbox-paths="true"
     inkscape:bbox-nodes="true"
     inkscape:snap-bbox-edge-midpoints="true"
     inkscape:snap-bbox-midpoints="true"
     inkscape:object-paths="true"
     inkscape:snap-intersection-paths="true"
     inkscape:object-nodes="true"
     inkscape:snap-smooth-nodes="true"
     inkscape:snap-midpoints="true"
     inkscape:snap-object-midpoints="true"
     inkscape:snap-center="true"
     inkscape:snap-text-baseline="true"
     inkscape:snap-page="true" /><g
     id="g3"
     transform="matrix(-1,0,0,1,412.70869,377.48366)"><path
       d="m -436.79878,-235.73935 c 59.29936,17.91187 108.97706,32.48376 158.54926,47.68967 15.20317,4.48667 19.9128,11.78683 20.04195,27.44626 0.18071,30.8715 69.20931,109.914588 99.67161,116.725289 15.93494,3.739797 23.35901,-4.363123 28.10095,-15.519028 5.13596,-12.610659 6.85795,-27.527355 -7.28397,-42.045381 -42.9467,-44.07517 -86.36485,-87.14288 -129.86049,-130.65786 -17.45033,-17.45813 -40.30783,-1.50028 -58.07667,-30.73987 -30.4902,-50.47121 -64.40069,-99.55727 -93.65962,-152.86411 57.99279,33.98373 131.39752,57.50259 163.63337,109.35045 38.48023,61.79276 91.5825,102.34662 135.29767,154.58591 5.44152,6.55325 12.50171,12.50732 19.40698,17.5668 20.79314,15.62569 35.283842,9.78566 46.860009,-0.44927 11.8367,-9.9744 7.139962,-24.65691 -5.460779,-40.22142 -31.346932,-38.01669 -57.74731,-84.76605 -111.23712,-82.8146 -13.02047,0.65509 -20.01829,-11.15276 -23.46872,-22.36985 -14.60468,-48.26003 -28.3225,-96.37233 -46.32159,-158.01211 71.27794,60.95629 117.55675,124.26502 170.161752,180.59111 33.281983,35.51548 65.4382016,73.23249 90.908745,114.61442 19.226095,31.43706 26.000003,51.895318 -11.4492946,56.952585 -48.8017114,6.641721 -47.8433304,15.665333 -1.2572196,62.342247 L 327.16372,296.46008 C 557.22687,525.05233 607.55021,559.54407 584.59001,582.58761 561.6298,605.63116 536.80436,567.27302 294.45629,328.42387 L -20.459262,13.650878 c -54.955532,-54.98006 -56.806669,-55.72275 -67.763026,2.83226 -6.033594,33.528933 -25.698832,29.38509 -54.783512,10.640976 -58.16928,-37.488232 -109.37949,-85.763129 -161.8984,-131.649604 -42.41074,-37.25294 -81.10625,-80.40293 -131.89458,-131.21386 z"
       id="path5"
       inkscape:connector-curvature="0"
       sodipodi:nodetypes="ccccccscccccccccccccsczcccscc" /></g></svg>