<?xml version="1.0" encoding="UTF-8" standalone="no"?>
<svg
   xmlns:dc="http://purl.org/dc/elements/1.1/"
   xmlns:cc="http://creativecommons.org/ns#"
   xmlns:rdf="http://www.w3.org/1999/02/22-rdf-syntax-ns#"
   xmlns:svg="http://www.w3.org/2000/svg"
   xmlns="http://www.w3.org/2000/svg"
   xmlns:sodipodi="http://sodipodi.sourceforge.net/DTD/sodipodi-0.dtd"
   xmlns:inkscape="http://www.inkscape.org/namespaces/inkscape"
   version="1.1"
   id="Your_Icon"
   x="0px"
   y="0px"
   width="100"
   height="100"
   viewBox="0 0 100 100"
   enable-background="new 0 0 100 100"
   xml:space="preserve"
   inkscape:version="0.48.2 r9819"
   sodipodi:docname="CriticalRoll-Icons-Color.svg"
   inkscape:export-filename="C:\Users\Ele\Downloads\CriticalRoll-xhdpi.png"
   inkscape:export-xdpi="15"
   inkscape:export-ydpi="15"><metadata
   id="metadata9"><rdf:RDF><cc:Work
       rdf:about=""><dc:format>image/svg+xml</dc:format><dc:type
         rdf:resource="http://purl.org/dc/dcmitype/StillImage" /><dc:title /></cc:Work></rdf:RDF></metadata><defs
   id="defs7"><linearGradient
     id="linearGradient4145"><stop
       style="stop-color:#2980b9;stop-opacity:1;"
       offset="0"
       id="stop4147" /><stop
       style="stop-color:#3498db;stop-opacity:1;"
       offset="1"
       id="stop4149" /></linearGradient></defs><sodipodi:namedview
   pagecolor="#ffffff"
   bordercolor="#666666"
   borderopacity="1"
   objecttolerance="10"
   gridtolerance="10"
   guidetolerance="10"
   inkscape:pageopacity="0"
   inkscape:pageshadow="2"
   inkscape:window-width="1049"
   inkscape:window-height="688"
   id="namedview5"
   showgrid="false"
   inkscape:zoom="3.5164624"
   inkscape:cx="47.529977"
   inkscape:cy="63.809777"
   inkscape:window-x="411"
   inkscape:window-y="121"
   inkscape:window-maximized="0"
   inkscape:current-layer="Your_Icon"
   showguides="true"
   inkscape:snap-bbox="true"
   inkscape:bbox-paths="true"
   inkscape:bbox-nodes="true"
   inkscape:snap-bbox-edge-midpoints="true"
   inkscape:snap-bbox-midpoints="true"
   inkscape:object-paths="true"
   inkscape:snap-intersection-paths="true"
   inkscape:object-nodes="true"
   inkscape:snap-smooth-nodes="true"
   inkscape:snap-midpoints="true"
   inkscape:snap-object-midpoints="true"
   inkscape:snap-center="true"
   inkscape:snap-page="true"
   inkscape:snap-global="false"><inkscape:grid
     type="xygrid"
     id="grid2988"
     empspacing="5"
     visible="true"
     enabled="true"
     snapvisiblegridlinesonly="true" /></sodipodi:namedview>

<g
   id="g3007"
   transform="matrix(0.20510569,0,0,0.20510569,-9.6052835,88.254877)"><path
     style="fill:#000000;fill-opacity:1;stroke:#000000;stroke-width:1.1662662;stroke-opacity:1"
     inkscape:connector-curvature="0"
     id="path3"
     d="m 286.74881,-172.89771 47.43308,-118.5913 c 0.15439,-0.36593 0.25158,-0.74329 0.30874,-1.12637 0.0171,-0.11149 0.0201,-0.22012 0.0315,-0.33161 0.0201,-0.24872 0.0229,-0.49744 0.006,-0.74328 -0.008,-0.13152 -0.0201,-0.26016 -0.04,-0.39167 -0.04,-0.25442 -0.10287,-0.50315 -0.18009,-0.749 -0.0343,-0.0972 -0.0543,-0.19725 -0.0887,-0.29445 -0.13437,-0.33735 -0.30304,-0.65467 -0.50887,-0.95771 -0.0117,-0.0171 -0.0171,-0.0343 -0.0286,-0.0515 l -83.0825,-118.68559 c -0.0286,-0.0372 -0.008,-0.0743 -0.0372,-0.11436 l 0.04,-0.009 v 1.95828 c 0,0 -0.0944,0 -0.10578,0 -1.1521,-2.8588 -3.12752,-3.21329 -5.0086,-2.79018 0,0.0114 -0.0117,-0.0343 -0.0201,-0.0343 -0.008,0.0114 -0.0286,-0.0343 -0.0286,-0.0343 h -0.0117 -0.008 -0.008 -0.0117 -0.008 c 0,0 -0.0117,0 -0.0201,0 -0.008,0 -0.008,-0.43167 -0.0201,-0.43167 l -130.55562,35.38611 c -0.0715,0.0201 -0.13151,-0.0543 -0.20298,-0.0315 -0.24872,0.08 -0.49171,0.11721 -0.72327,0.23728 -0.15438,0.0772 -0.2916,0.15151 -0.43454,0.24299 -0.14579,0.0943 -0.28874,0.17439 -0.42024,0.28303 -0.12579,0.10286 -0.24014,0.20869 -0.3545,0.32305 -0.13722,0.13722 -0.26586,0.28016 -0.38878,0.43452 -0.0857,0.1115 -0.16868,0.21728 -0.24301,0.33449 -0.1315,0.2001 -0.24013,0.41452 -0.34305,0.6375 -0.0315,0.0658 -0.0772,0.12008 -0.10287,0.18869 l -47.056373,118.66859 c -0.05718,0.1458 0.254433,0.29732 0.254433,0.44597 v 0.006 c 0,0.53174 0,1.07205 0,1.60664 0,0.0117 0,0.0117 0,0.0229 0,0 0,0 0,0.006 0,0 0,0 0,0.0117 v 0.0117 0.006 c 0,0.21156 -0.0057,0.42883 0.03432,0.63752 0.0086,0.0117 -0.03432,0.0117 -0.03432,0.0171 0,0.0117 0,0.0117 0,0.0229 0,0 0,0 0,0.006 0,0 0,0 0,0.0117 v 0.0117 c 0,0 0,0 0,0.006 v 0.0117 c 0,0.54602 -0.131505,1.07775 0.171527,1.55803 0,-0.006 -0.08577,0.0117 -0.08577,0.0117 0,0.0117 -0.08577,0.0117 -0.08577,0.0117 0,0.006 0,0.006 0,0.006 l -0.128646,0.0117 c 0.08577,0.13437 0.102927,0.25729 0.194398,0.38021 l 83.045091,106.79875 c 0.006,0.0117 0,0.0171 0.006,0.0286 0.006,0.006 0,0.0117 0.006,0.0229 0.0171,0.0228 0.04,0.04 0.0601,0.0601 0.0686,0.0829 0.14865,0.1458 0.22298,0.22298 0.0772,0.0829 0.15152,0.16295 0.23442,0.23444 0.0857,0.0772 0.15723,0.17723 0.24586,0.25156 0.0743,0.0572 0.16294,0.0944 0.24014,0.15152 0.11441,0.0772 0.23156,0.15152 0.35163,0.21726 0.0142,0.0117 0.0286,0.0229 0.0457,0.0286 0.24872,0.14579 0.50314,0.25728 0.769,0.35163 0.12008,0.04 0.23443,0.0887 0.35735,0.12292 0.0601,0.0171 0.11721,0.0514 0.17725,0.0601 0.35162,0.0772 0.71184,0.12293 1.07204,0.12293 0.28303,0 0.57748,-0.0342 0.86908,-0.0772 L 283.1079,-169.8877 c 0.16295,-0.0286 0.30876,-0.0601 0.46598,-0.10578 0.04,-0.0142 0.0829,0.008 0.12008,0.008 0.0117,0 0.0117,0 0.0117,0 0.0601,0 0.11149,-0.0772 0.17152,-0.10003 0.11722,-0.04 0.2287,-0.0972 0.34305,-0.14866 0.0601,-0.0286 0.12579,-0.0543 0.18297,-0.0857 0.0487,-0.0286 0.0743,-0.0429 0.0944,-0.0487 0.04,-0.0229 0.0658,-0.0601 0.10578,-0.08 0.40023,-0.22298 0.76902,-0.49743 1.08634,-0.81475 0.04,-0.0457 0.0686,-0.0972 0.10858,-0.13722 0.31162,-0.3402 0.57462,-0.72041 0.77474,-1.13779 0.0171,-0.0286 0.0457,-0.0514 0.0601,-0.0829 0.0117,-0.0229 0.0229,-0.0487 0.0315,-0.0743 0.006,-0.0117 0.008,-0.0171 0.0143,-0.0286 0.0229,-0.0601 0.0457,-0.11429 0.0714,-0.17153 z m -8.67073,-10.0658 -82.35039,-51.48114 92.6449,-72.0473 -10.29451,123.52844 z m -88.03366,-59.32567 -31.31522,-114.82914 125.26659,41.76125 -93.95137,73.06789 z m 108.20817,-66.22966 25.51757,17.01553 -34.02534,85.0491 8.50777,-102.06463 z m 12.75021,-3.13324 -13.14473,-8.76506 -17.52153,-35.04022 30.66626,43.80528 z m -26.44954,-13.72506 -120.26657,-40.08886 80.18056,-40.08885 40.08601,80.17771 z m -133.24263,-44.41993 -18.53927,-6.18071 67.98496,-18.54498 -49.44569,24.72569 z m -32.44158,-0.60606 24.78574,8.26477 -57.841965,74.36292 33.056225,-82.62769 z m 30.68056,16.4495 31.00361,113.65702 -103.333922,-20.66335 72.330312,-92.99367 z m 30.93214,123.52271 -30.0259,70.05758 -70.060433,-90.07484 100.086333,20.01726 z m 9.03092,3.52489 79.54878,49.72299 -109.38599,19.89435 29.83721,-69.61734 z" /><path
     inkscape:connector-curvature="0"
     id="path3-0"
     d="m 517.19649,-52.51652 -24.24333,-125.40356 c -0.068,-0.39129 -0.19039,-0.76127 -0.3495,-1.11441 -0.0459,-0.10308 -0.10218,-0.19598 -0.15286,-0.29595 -0.11766,-0.22004 -0.24981,-0.43077 -0.39711,-0.62834 -0.078,-0.10618 -0.15757,-0.20798 -0.24547,-0.3078 -0.17125,-0.19238 -0.35866,-0.36757 -0.55659,-0.5326 -0.0814,-0.0631 -0.15239,-0.13652 -0.2338,-0.19973 -0.29548,-0.21107 -0.60896,-0.38676 -0.94599,-0.53033 -0.019,-0.008 -0.033,-0.0196 -0.0518,-0.0278 L 355.9466,-236.4506 c -0.0442,-0.0159 -0.047,-0.0581 -0.0933,-0.0762 l 0.0293,-0.0286 1.05914,1.64714 c 0,0 -0.0795,0.0511 -0.089,0.0572 -2.51524,-1.78146 -4.36853,-1.01124 -5.72189,0.36203 0.007,0.009 -0.0284,-0.0226 -0.0354,-0.018 -5.6e-4,0.0142 -0.0427,-0.0135 -0.0427,-0.0135 l -0.009,0.007 -0.007,0.004 -0.007,0.004 -0.009,0.007 -0.007,0.004 c 0,0 -0.009,0.007 -0.0169,0.0113 -0.007,0.004 -0.24034,-0.35868 -0.25035,-0.35224 l -90.67394,100.37488 c -0.0493,0.0554 -0.14,0.0254 -0.18774,0.0832 -0.16594,0.20181 -0.3502,0.36451 -0.48003,0.59075 -0.0882,0.14843 -0.16334,0.28515 -0.23408,0.43942 -0.0716,0.1582 -0.14856,0.30284 -0.2004,0.46534 -0.0502,0.15456 -0.0891,0.30542 -0.12348,0.46344 -0.0412,0.18965 -0.072,0.37944 -0.0919,0.57578 -0.0114,0.14013 -0.0244,0.27397 -0.0236,0.41275 -0.003,0.23944 0.0222,0.47855 0.0563,0.72178 0.009,0.0723 -5e-4,0.14274 0.0155,0.21434 l 24.60198,125.26484 c 0.0308,0.15353 0.37482,0.1124 0.45522,0.2375 l 0.003,0.004 c 0.28759,0.44726 0.57982,0.90171 0.86895,1.35136 0.007,0.009 0.007,0.009 0.0123,0.0192 0,0 0,0 0.003,0.004 0,0 0,0 0.007,0.009 l 0.007,0.009 0.003,0.004 c 0.11444,0.17794 0.22702,0.36385 0.37364,0.51769 0.0133,0.004 -0.0226,0.0283 -0.0196,0.033 0.007,0.009 0.007,0.009 0.0123,0.0192 0,0 0,0 0.003,0.004 0,0 0,0 0.007,0.009 l 0.007,0.009 c 0,0 0,0 0.003,0.004 l 0.007,0.009 c 0.29532,0.45928 0.4723,0.97765 0.98695,1.21772 -0.003,-0.004 -0.0658,0.0561 -0.0658,0.0561 0.007,0.009 -0.0658,0.0561 -0.0658,0.0561 0.003,0.004 0.003,0.004 0.003,0.004 l -0.10187,0.0793 c 0.14478,0.0666 0.22578,0.16072 0.36917,0.21466 l 127.61447,44.91789 c 0.0115,0.006 0.009,0.0144 0.0204,0.0209 0.008,0.001 0.007,0.009 0.0172,0.016 0.0269,0.01 0.0552,0.0119 0.083,0.018 0.10252,0.0326 0.20389,0.0422 0.30815,0.067 0.1098,0.028 0.21557,0.0551 0.32398,0.0704 0.11387,0.0186 0.2281,0.064 0.34284,0.0786 0.0933,0.008 0.1881,-0.009 0.28393,-0.002 0.13799,0.003 0.27671,0.003 0.41326,-0.007 0.0183,0.001 0.0365,0.003 0.0539,-6.7e-4 0.28805,-0.0119 0.56235,-0.0558 0.83701,-0.12017 0.12261,-0.0312 0.24511,-0.0522 0.36705,-0.0898 0.0599,-0.0179 0.1264,-0.0201 0.18158,-0.0454 0.33751,-0.12523 0.66522,-0.28159 0.9682,-0.47642 0.23804,-0.15307 0.46717,-0.34116 0.68924,-0.53496 l 96.97668,-90.57809 c 0.12162,-0.11215 0.22722,-0.21751 0.33474,-0.341 0.0259,-0.0335 0.0741,-0.038 0.10537,-0.058 0.009,-0.007 0.009,-0.007 0.009,-0.007 0.0505,-0.0325 0.0521,-0.12523 0.0902,-0.17693 0.0769,-0.0971 0.13981,-0.20541 0.20813,-0.31059 0.0351,-0.0566 0.0764,-0.11374 0.10751,-0.17105 0.0255,-0.0504 0.0393,-0.0763 0.0531,-0.0919 0.0213,-0.0409 0.0229,-0.0862 0.0458,-0.1245 0.21603,-0.40404 0.37779,-0.83433 0.47309,-1.27286 0.008,-0.0601 0.005,-0.1188 0.0171,-0.17414 0.0781,-0.45469 0.0937,-0.91675 0.0357,-1.37606 -10e-4,-0.0332 0.0107,-0.068 0.006,-0.10234 -0.002,-0.0255 -0.007,-0.0533 -0.0138,-0.0796 -6.8e-4,-0.0129 -0.002,-0.0188 -0.003,-0.0318 -0.0133,-0.0629 -0.0235,-0.12087 -0.0326,-0.18294 z m -12.73721,-3.77698 -97.11005,1.23752 38.95853,-110.70738 58.15152,109.46986 z m -106.13308,-2.28685 -88.44523,-79.64808 127.95068,-32.62434 -39.50545,112.27242 z m 55.19557,-114.23146 30.66617,0.51088 17.37949,89.93902 -48.04566,-90.4499 z m 9.02983,-9.53139 -15.79687,-0.26313 -33.68922,-19.99645 49.48609,20.25958 z m -29.67043,2.76085 -122.84054,31.32675 45.75931,-77.08519 77.08123,45.75844 z m -136.09741,34.70192 -18.93657,4.82826 47.15337,-52.36823 -28.2168,47.53997 z m -27.61498,17.03628 25.31773,-6.45373 -8.43272,93.83189 -16.88501,-87.37816 z m 34.70269,-2.75763 87.5492,78.83074 -98.09189,38.50788 10.54269,-117.33862 z m 92.82494,87.1676 12.63534,75.16628 -107.64618,-37.87141 95.01084,-37.29487 z m 9.50253,-1.91953 93.80266,-1.20106 -81.24673,75.89498 -12.55593,-74.69392 z" /><path
     inkscape:connector-curvature="0"
     id="path3925"
     d="m 189.02906,-247.63912 c -5.98652,-20.92746 -29.37125,-107.94932 -29.08526,-108.23531 0.44501,-0.44501 122.74426,40.23522 122.70049,40.81369 -0.0323,0.4273 -90.68174,71.00237 -91.76462,71.44331 -0.34491,0.14046 -1.17769,-1.66931 -1.85061,-4.02169 l 0,0 z"
     style="fill:#e74c3c;fill-opacity:1;stroke:none" /><path
     inkscape:connector-curvature="0"
     id="path3927"
     d="m 223.95829,-345.96825 -58.31456,-19.52375 38.80606,-19.42319 c 21.34334,-10.68275 39.08075,-19.42319 39.41647,-19.42319 0.33571,0 9.38551,17.5547 20.11066,39.01043 10.72514,21.45574 19.22929,38.98186 18.89809,38.94694 -0.33118,-0.0349 -26.84371,-8.84918 -58.91672,-19.58724 z"
     style="fill:#e74c3c;fill-opacity:1;stroke:none" /><path
     inkscape:connector-curvature="0"
     id="path3929"
     d="m 142.44861,-373.12315 c -3.90959,-1.34201 -6.80521,-2.70165 -6.43471,-3.02143 0.75003,-0.64736 54.90096,-15.39557 56.17301,-15.29893 1.23385,0.0937 -40.04868,20.80363 -41.42345,20.78058 -0.66358,-0.0111 -4.40526,-1.11822 -8.31485,-2.46022 z"
     style="fill:#e74c3c;fill-opacity:1;stroke:none" /><path
     inkscape:connector-curvature="0"
     id="path3931"
     d="m 88.217504,-292.53529 c 0.861333,-2.42109 30.633086,-76.82283 30.851046,-77.09897 0.20672,-0.2619 22.89873,7.04492 23.52643,7.5755 0.25245,0.21339 -52.146105,68.05802 -54.005787,69.92564 -0.532764,0.53504 -0.657209,0.40039 -0.371689,-0.40217 z"
     style="fill:#c0392b;fill-opacity:1;stroke:none" /><path
     inkscape:connector-curvature="0"
     id="path3933"
     d="m 128.02352,-251.07457 c -26.88452,-5.42198 -49.06316,-10.04034 -49.285858,-10.26304 -0.462399,-0.46239 69.549048,-90.71875 70.370128,-90.71875 0.40298,0 16.29711,57.26094 30.41962,109.59116 0.26696,0.98921 -0.0664,1.38399 -1.12153,1.32818 -0.82578,-0.0437 -23.49784,-4.51559 -50.38236,-9.93755 l 0,0 z"
     style="fill:#c0392b;fill-opacity:1;stroke:none" /><path
     inkscape:connector-curvature="0"
     id="path3935"
     d="m 116.65769,-204.52755 c -18.476105,-23.75065 -33.763154,-43.62662 -33.971219,-44.16883 -0.243443,-0.6344 16.912894,2.46083 48.126359,8.68263 26.67756,5.31766 48.62151,9.75791 48.76434,9.86722 0.22965,0.17576 -27.33532,65.11185 -28.76149,67.7548 -0.36542,0.67718 -12.43431,-14.21047 -34.15799,-42.13582 z"
     style="fill:#c0392b;fill-opacity:1;stroke:none" /><path
     inkscape:connector-curvature="0"
     id="path3937"
     d="m 162.8028,-163.64 c 19.6933,-46.17418 26.63811,-61.72175 27.53962,-61.6539 1.9632,0.14776 77.30947,47.73042 76.17105,48.10353 -1.51957,0.49802 -103.82268,18.98064 -105.05668,18.98009 -0.6237,-2.8e-4 -0.14353,-1.93725 1.34601,-5.42972 z"
     style="fill:#c0392b;fill-opacity:1;stroke:none" /><path
     inkscape:connector-curvature="0"
     id="path3939"
     d="m 267.39259,-189.97108 c -5.08745,-3.23989 -23.11518,-14.58297 -40.06162,-25.20684 l -30.81172,-19.31614 45.14792,-35.12802 c 24.83136,-19.32041 45.36153,-34.91441 45.6226,-34.65334 0.26108,0.26107 -1.59809,25.54094 -4.13148,56.17749 -5.13964,62.15431 -5.32958,64.1751 -6.0233,64.08296 -0.27088,-0.036 -4.65496,-2.71622 -9.7424,-5.95611 z"
     style="fill:#e74c3c;fill-opacity:1;stroke:none" /><path
     inkscape:connector-curvature="0"
     id="path3941"
     d="m 290.70672,-212.16843 c -0.0221,-2.1573 7.29093,-90.42437 7.70727,-93.02497 l 0.41687,-2.60388 12.10753,8.09752 c 9.01989,6.03251 12.01197,8.44007 11.73281,9.44076 -0.53384,1.91359 -31.22984,78.49044 -31.62519,78.89491 -0.18018,0.18432 -0.33286,-0.17763 -0.33929,-0.80434 l 0,0 z"
     style="fill:#e74c3c;fill-opacity:1;stroke:none" /><path
     inkscape:connector-curvature="0"
     id="path3943"
     d="m 302.5306,-317.72225 c -3.51862,-2.32858 -4.42325,-3.65454 -9.90124,-14.51269 -3.31585,-6.57248 -5.88028,-12.09851 -5.69872,-12.28006 0.2923,-0.29231 19.87019,27.15538 20.54483,28.80331 0.49038,1.19785 -1.03232,0.57873 -4.94487,-2.01056 z"
     style="fill:#e74c3c;fill-opacity:1;stroke:none" /><path
     inkscape:connector-curvature="0"
     id="path3945"
     d="m 310.11457,-148.6046 c 1.5728,-3.89565 45.54316,-76.4545 46.23755,-76.30011 1.21225,0.26952 76.69631,45.09758 76.41373,45.38017 -0.11682,0.11682 -26.6188,6.94124 -58.89327,15.16538 -32.27448,8.22415 -59.87973,15.27328 -61.34499,15.66475 -1.46527,0.39147 -2.55113,0.43188 -2.41302,0.0898 l 0,0 z"
     style="fill:#2ecc71;fill-opacity:1;stroke:none" /><path
     inkscape:connector-curvature="0"
     id="path3947"
     d="m 285.58491,-42.51222 c -1.66428,-5.96599 -16.4657,-84.93187 -15.99461,-85.33161 0.86502,-0.73402 24.27627,-6.64128 24.68811,-6.22944 0.29065,0.29064 -6.90136,83.89151 -7.8768,91.56105 l -0.25575,2.01085 -0.56095,-2.01085 z"
     style="fill:#27ae60;fill-opacity:1;stroke:none" /><path
     inkscape:connector-curvature="0"
     id="path3949"
     d="m 279.67814,-142.25114 c 5.89457,-7.0053 43.46202,-48.22029 43.71876,-47.96355 0.28478,0.28478 -25.03237,43.59987 -26.30808,45.01047 -0.44734,0.49464 -17.44492,5.23801 -19.16928,5.3494 -0.14992,0.01 0.64145,-1.06866 1.7586,-2.39632 z"
     style="fill:#27ae60;fill-opacity:1;stroke:none" /><path
     inkscape:connector-curvature="0"
     id="path3951"
     d="m 354.19435,-98.0998 c -24.10577,-21.68977 -43.7597,-39.68231 -43.6754,-39.98343 0.15198,-0.54285 126.7131,-33.09983 127.17052,-32.71373 0.30905,0.26087 -38.49736,110.81006 -39.16205,111.56228 -0.27741,0.31396 -20.22729,-17.17535 -44.33307,-38.86512 z"
     style="fill:#2ecc71;fill-opacity:1;stroke:none" /><path
     inkscape:connector-curvature="0"
     id="path3953"
     d="m 293.46955,-17.37663 c 0.24891,-2.10134 2.63234,-28.24051 5.29651,-58.08706 2.66417,-29.84654 5.01207,-54.43457 5.21756,-54.64005 0.20549,-0.20549 1.54454,0.72136 2.97567,2.05967 1.43112,1.33831 20.76921,18.77845 42.97353,38.75587 22.20431,19.97741 40.57132,36.64593 40.81557,37.04113 0.24425,0.39521 -0.006,0.90153 -0.55671,1.12517 -12.94696,5.26008 -95.84705,37.56588 -96.39802,37.56588 -0.45385,0 -0.58857,-1.58804 -0.32411,-3.82061 z"
     style="fill:#27ae60;fill-opacity:1;stroke:none" /><path
     inkscape:connector-curvature="0"
     id="path3955"
     d="M 354.80765,12.79071 C 325.72199,2.54444 302.19508,-6.09141 302.52563,-6.40005 c 1.15521,-1.07865 93.65917,-37.02757 94.11266,-36.57409 1.0033,1.0033 12.77326,74.46012 11.92554,74.42777 -0.48024,-0.0183 -24.67052,-8.41664 -53.75618,-18.66292 z"
     style="fill:#27ae60;fill-opacity:1;stroke:none" /><path
     inkscape:connector-curvature="0"
     id="path3957"
     d="m 418.2226,26.91059 c -1.18095,-5.61068 -11.73113,-69.20558 -11.73458,-70.73428 l -0.004,-1.71364 45.24739,-0.59535 c 24.88607,-0.32745 45.88998,-0.46119 46.67536,-0.29721 1.01061,0.21101 -10.00229,10.99482 -37.67933,36.89556 -21.50902,20.12858 -39.76473,37.07172 -40.56824,37.65143 -1.30059,0.93833 -1.51316,0.80591 -1.93674,-1.20651 z"
     style="fill:#27ae60;fill-opacity:1;stroke:none" /><path
     inkscape:connector-curvature="0"
     id="path3959"
     d="m 407.2885,-55.20748 c 0,-0.56049 38.02648,-108.41237 38.5995,-109.47711 0.4034,-0.74957 2.41958,2.30638 6.10268,9.2499 3.02513,5.7031 16.07956,30.27666 29.00983,54.60791 l 23.50959,44.23863 -16.63833,0.53574 c -18.83582,0.6065 -80.58327,1.25393 -80.58327,0.84493 z"
     style="fill:#2ecc71;fill-opacity:1;stroke:none" /><path
     inkscape:connector-curvature="0"
     id="path3961"
     d="m 477.16032,-127.8702 -23.83365,-44.9449 15.13954,0 c 8.85373,0 15.3386,0.32209 15.61899,0.77577 0.64338,1.04101 17.43493,87.75853 17.14017,88.5179 -0.12727,0.32787 -10.95654,-19.62907 -24.06505,-44.34877 z"
     style="fill:#2ecc71;fill-opacity:1;stroke:none" /><path
     inkscape:connector-curvature="0"
     id="path3963"
     d="m 430.21216,-192.1618 c -8.84773,-5.28402 -15.75827,-9.6078 -15.35675,-9.6084 0.61115,-9.2e-4 27.49825,10.84037 43.10643,17.38116 l 4.42387,1.85388 -8.04339,-0.01 -8.04339,-0.01 -16.08677,-9.60731 0,1e-5 z"
     style="fill:#2ecc71;fill-opacity:1;stroke:none" /></g></svg>