<?xml version="1.0" encoding="UTF-8" standalone="no"?>
<svg
   xmlns:dc="http://purl.org/dc/elements/1.1/"
   xmlns:cc="http://creativecommons.org/ns#"
   xmlns:rdf="http://www.w3.org/1999/02/22-rdf-syntax-ns#"
   xmlns:svg="http://www.w3.org/2000/svg"
   xmlns="http://www.w3.org/2000/svg"
   xmlns:sodipodi="http://sodipodi.sourceforge.net/DTD/sodipodi-0.dtd"
   xmlns:inkscape="http://www.inkscape.org/namespaces/inkscape"
   version="1.1"
   id="Calque_1"
   x="0px"
   y="0px"
   width="100.0px"
   height="100px"
   viewBox="20.47565 -40.9525 409.513 552.85875"
   enable-background="new 0 0 409.513 409.525"
   xml:space="preserve"
   inkscape:version="0.91 r13725"
   sodipodi:docname="fumble-ranged.svg"><metadata
     id="metadata17"><rdf:RDF><cc:Work
         rdf:about=""><dc:format>image/svg+xml</dc:format><dc:type
           rdf:resource="http://purl.org/dc/dcmitype/StillImage" /><dc:title></dc:title></cc:Work></rdf:RDF></metadata><defs
     id="defs15" /><sodipodi:namedview
     pagecolor="#ffffff"
     bordercolor="#666666"
     borderopacity="1"
     objecttolerance="10"
     gridtolerance="10"
     guidetolerance="10"
     inkscape:pageopacity="0"
     inkscape:pageshadow="2"
     inkscape:window-width="1652"
     inkscape:window-height="955"
     id="namedview13"
     showgrid="false"
     inkscape:zoom="2.1177848"
     inkscape:cx="94.689761"
     inkscape:cy="35.332819"
     inkscape:window-x="0"
     inkscape:window-y="0"
     inkscape:window-maximized="0"
     inkscape:current-layer="Calque_1" /><g
     id="g3"
     transform="matrix(1.2960381,0,0,1.2959968,-40.14007,-29.895319)"><path
       d="m 204.763,173.357 c -17.363,0 -31.405,14.042 -31.405,31.382 0,17.364 14.042,31.428 31.405,31.428 17.341,0 31.405,-14.064 31.405,-31.428 0,-17.34 -14.064,-31.382 -31.405,-31.382 z"
       id="path5"
       inkscape:connector-curvature="0" /><path
       d="M 368.38,189.833 C 361.258,111.109 298.403,48.242 219.68,41.12 l 0,-41.12 -29.847,0 0,41.12 C 111.109,48.242 48.255,111.109 41.12,189.833 l -41.12,0 0,29.847 41.12,0 c 7.135,78.736 69.989,141.578 148.713,148.713 l 0,41.133 29.847,0 0,-41.133 c 78.724,-7.135 141.578,-69.977 148.7,-148.713 l 41.133,0 0,-29.847 -41.133,0 z M 338.394,219.68 C 331.488,281.938 281.938,331.5 219.68,338.407 l 0,-53.803 -29.847,0 0,53.803 C 127.575,331.5 78.013,281.938 71.106,219.68 l 53.803,0 0,-29.847 -53.803,0 C 78.012,127.575 127.575,78.013 189.833,71.106 l 0,53.803 29.847,0 0,-53.803 c 62.258,6.906 111.808,56.469 118.714,118.727 l -53.79,0 0,29.847 53.79,0 z"
       id="path7"
       inkscape:connector-curvature="0" /></g></svg>