<?xml version="1.0" encoding="UTF-8" standalone="no"?>
<svg
   xmlns:dc="http://purl.org/dc/elements/1.1/"
   xmlns:cc="http://creativecommons.org/ns#"
   xmlns:rdf="http://www.w3.org/1999/02/22-rdf-syntax-ns#"
   xmlns:svg="http://www.w3.org/2000/svg"
   xmlns="http://www.w3.org/2000/svg"
   xmlns:sodipodi="http://sodipodi.sourceforge.net/DTD/sodipodi-0.dtd"
   xmlns:inkscape="http://www.inkscape.org/namespaces/inkscape"
   version="1.1"
   id="Layer_1"
   x="0px"
   y="0px"
   width="100"
   height="100"
   viewBox="5 -10 100 135"
   enable-background="new 0 0 100 100"
   xml:space="preserve"
   inkscape:version="0.91 r13725"
   sodipodi:docname="Icon-Melee.svg"><metadata
     id="metadata17"><rdf:RDF><cc:Work
         rdf:about=""><dc:format>image/svg+xml</dc:format><dc:type
           rdf:resource="http://purl.org/dc/dcmitype/StillImage" /><dc:title /></cc:Work></rdf:RDF></metadata><defs
     id="defs15" /><sodipodi:namedview
     pagecolor="#ffffff"
     bordercolor="#666666"
     borderopacity="1"
     objecttolerance="10"
     gridtolerance="10"
     guidetolerance="10"
     inkscape:pageopacity="0"
     inkscape:pageshadow="2"
     inkscape:window-width="1316"
     inkscape:window-height="599"
     id="namedview13"
     showgrid="false"
     inkscape:snap-bbox="true"
     inkscape:bbox-paths="true"
     inkscape:bbox-nodes="true"
     inkscape:snap-bbox-edge-midpoints="true"
     inkscape:snap-bbox-midpoints="true"
     inkscape:object-paths="true"
     inkscape:snap-intersection-paths="true"
     inkscape:object-nodes="true"
     inkscape:snap-midpoints="true"
     inkscape:snap-smooth-nodes="true"
     inkscape:snap-object-midpoints="true"
     inkscape:snap-center="true"
     inkscape:snap-page="true"
     fit-margin-top="0"
     fit-margin-left="0"
     fit-margin-right="0"
     fit-margin-bottom="0"
     inkscape:zoom="2"
     inkscape:cx="54.184228"
     inkscape:cy="40.79156"
     inkscape:window-x="234"
     inkscape:window-y="234"
     inkscape:window-maximized="0"
     inkscape:current-layer="Layer_1" /><g
     transform="matrix(1.296,0,0,1.296,-9.9464466,-7.2999978)"
     id="g2992"><path
       inkscape:connector-curvature="0"
       id="path3"
       d="m 50.171,6.288 c 11.637,8.013 30.191,11.898 38.101,13.26 0.301,2.772 0.455,5.527 0.455,8.223 0,27.634 -14.728,52.93 -38.612,66.642 C 26.229,80.697 11.5,55.402 11.5,27.771 c 0,-2.669 0.154,-5.403 0.455,-8.17 8.076,-1.283 26.991,-5.033 38.216,-13.313 M 50.039,0 C 38.216,11.699 7.588,15.281 7.588,15.281 c -0.628,4.078 -0.98,8.24 -0.98,12.49 0,31.327 17.64,58.512 43.506,72.229 25.87,-13.718 43.504,-40.902 43.504,-72.229 0,-4.25 -0.346,-8.412 -0.973,-12.49 C 92.646,15.281 62.822,11.34 50.039,0 l 0,0 z" /><path
       inkscape:connector-curvature="0"
       id="path5-1"
       d="m 20.738,26.015 c -0.435,2.824 -0.677,5.702 -0.677,8.638 0,21.633 12.19,40.407 30.053,49.882 17.864,-9.476 30.052,-28.249 30.052,-49.882 0,-2.936 -0.247,-5.814 -0.674,-8.638 0,0 -20.602,-2.719 -29.432,-10.551 -8.168,8.078 -29.322,10.551 -29.322,10.551 z" /></g></svg>