<?xml version="1.0" encoding="UTF-8" standalone="no"?>
<svg
   xmlns:dc="http://purl.org/dc/elements/1.1/"
   xmlns:cc="http://creativecommons.org/ns#"
   xmlns:rdf="http://www.w3.org/1999/02/22-rdf-syntax-ns#"
   xmlns:svg="http://www.w3.org/2000/svg"
   xmlns="http://www.w3.org/2000/svg"
   xmlns:sodipodi="http://sodipodi.sourceforge.net/DTD/sodipodi-0.dtd"
   xmlns:inkscape="http://www.inkscape.org/namespaces/inkscape"
   version="1.1"
   id="Layer_2"
   x="0px"
   y="0px"
   width="100"
   height="100"
   viewBox="5 -10 99.999999 135"
   enable-background="new 0 0 100 100"
   xml:space="preserve"
   inkscape:version="0.91 r13725"
   sodipodi:docname="Icon-Bludgeoning.svg"><metadata
     id="metadata67"><rdf:RDF><cc:Work
         rdf:about=""><dc:format>image/svg+xml</dc:format><dc:type
           rdf:resource="http://purl.org/dc/dcmitype/StillImage" /><dc:title /></cc:Work></rdf:RDF></metadata><defs
     id="defs65" /><sodipodi:namedview
     pagecolor="#ffffff"
     bordercolor="#666666"
     borderopacity="1"
     objecttolerance="10"
     gridtolerance="10"
     guidetolerance="10"
     inkscape:pageopacity="0"
     inkscape:pageshadow="2"
     inkscape:window-width="1047"
     inkscape:window-height="562"
     id="namedview63"
     showgrid="false"
     fit-margin-top="0"
     fit-margin-left="0"
     fit-margin-right="0"
     fit-margin-bottom="0"
     inkscape:zoom="3.337544"
     inkscape:cx="17.392327"
     inkscape:cy="49.35469"
     inkscape:window-x="374"
     inkscape:window-y="126"
     inkscape:window-maximized="0"
     inkscape:current-layer="Layer_2" /><path
     d="m 101.13171,-2.220867 c 1.80919,-0.9036598 3.08217,-2.660637 4.95095,-3.3816616 1.00054,-0.3867843 2.12022,-0.549929 3.25595,-0.5808292 0.51772,0.2655892 1.09802,0.3896213 1.70657,0.4426766 0.69528,0.4844616 1.39199,0.9705504 2.08891,1.4536077 3.59598,2.4982147 5.45369,6.0135281 6.04127,10.2716836 l -0.41356,5.5069019 c -1.46534,2.121882 -2.55946,4.670515 -4.452,6.29749 -1.30966,1.126759 -2.62634,2.24538 -3.93751,3.372035 l 9.42771,7.525616 -0.78192,0.974253 -9.61224,-7.671899 c -1.92345,1.652085 -3.85543,3.295921 -5.78029,4.946363 l 5.97835,10.295933 -1.08251,0.624356 -5.86065,-10.093715 c -3.768162,3.23237 -7.547355,6.448681 -11.321154,9.674539 l 7.297858,8.326128 -0.941451,0.820713 -7.304778,-8.33578 C 78.926385,48.04538 67.441879,57.820427 55.874692,67.496392 48.163663,73.948085 39.659359,79.470886 32.061545,86.042215 21.433807,95.229355 11.332439,105.01476 0.97625871,114.51156 c -1.33203372,1.22102 -2.24551631,2.46268 -2.66166741,4.34303 -0.2825667,1.28115 -1.7388115,2.30557 -2.6691041,3.44542 -1.1681023,-0.0867 -1.7390281,-0.60044 -2.4100311,-1.04198 -0.088981,-0.15744 -0.2032413,-0.30457 -0.3556647,-0.43015 -0.4704281,-0.38697 -0.9381921,-0.76914 -1.3946055,-1.1596 -0.036302,-0.0554 -0.083128,-0.10449 -0.1193301,-0.15971 -0.2438524,-1.76536 -1.3046414,-2.94704 -1.1506504,-4.99777 1.297509,-0.84287 2.5506788,-2.27539 3.904024,-2.37693 1.576107,-0.11841 2.5186684,-0.68925 3.509819,-1.6631 C 11.312244,97.024805 24.733119,83.411539 37.010573,68.569086 50.505979,52.254913 64.719426,36.528932 78.942482,20.817383 l -4.129434,-8.168787 1.117464,-0.560816 3.911376,7.736702 c 2.453541,-2.710632 4.904047,-5.421487 7.35314,-8.133973 L 80.233696,3.3377174 81.196238,2.5414331 88.041273,10.754567 C 88.504487,10.240838 88.970751,9.7273572 89.433965,9.2136432 91.851819,6.530806 94.450025,4.00918 97.095409,1.5306699 l -3.887198,-8.3030181 1.133305,-0.5276575 3.710588,7.92886306 c 1.021767,-0.9548846 2.050686,-1.90308056 3.079536,-2.84973806 z"
     id="path57"
     inkscape:connector-curvature="0" /></svg>