<?xml version="1.0" encoding="UTF-8" standalone="no"?>
<svg
   xmlns:dc="http://purl.org/dc/elements/1.1/"
   xmlns:cc="http://creativecommons.org/ns#"
   xmlns:rdf="http://www.w3.org/1999/02/22-rdf-syntax-ns#"
   xmlns:svg="http://www.w3.org/2000/svg"
   xmlns="http://www.w3.org/2000/svg"
   xmlns:sodipodi="http://sodipodi.sourceforge.net/DTD/sodipodi-0.dtd"
   xmlns:inkscape="http://www.inkscape.org/namespaces/inkscape"
   version="1.1"
   id="Layer_1"
   x="0px"
   y="0px"
   viewBox="30.6 -79.2 611.99999 1069.2"
   enable-background="new 0 0 612 792"
   xml:space="preserve"
   height="100"
   width="100"
   inkscape:version="0.91 r13725"
   sodipodi:docname="icon-critical-piercing.svg"><metadata
     id="metadata15"><rdf:RDF><cc:Work
         rdf:about=""><dc:format>image/svg+xml</dc:format><dc:type
           rdf:resource="http://purl.org/dc/dcmitype/StillImage" /><dc:title /></cc:Work></rdf:RDF></metadata><defs
     id="defs13" /><sodipodi:namedview
     pagecolor="#ffffff"
     bordercolor="#666666"
     borderopacity="1"
     objecttolerance="10"
     gridtolerance="10"
     guidetolerance="10"
     inkscape:pageopacity="0"
     inkscape:pageshadow="2"
     inkscape:window-width="1440"
     inkscape:window-height="837"
     id="namedview11"
     showgrid="false"
     fit-margin-top="0"
     fit-margin-left="0"
     fit-margin-right="0"
     fit-margin-bottom="0"
     inkscape:zoom="2.8284271"
     inkscape:cx="-7.0318622"
     inkscape:cy="54.938373"
     inkscape:window-x="1912"
     inkscape:window-y="168"
     inkscape:window-maximized="1"
     inkscape:current-layer="g3"
     showguides="true"
     inkscape:snap-bbox="true"
     inkscape:bbox-paths="true"
     inkscape:bbox-nodes="true"
     inkscape:snap-bbox-edge-midpoints="true"
     inkscape:snap-bbox-midpoints="true"
     inkscape:object-paths="true"
     inkscape:snap-intersection-paths="true"
     inkscape:object-nodes="true"
     inkscape:snap-smooth-nodes="true"
     inkscape:snap-midpoints="true"
     inkscape:snap-object-midpoints="true"
     inkscape:snap-center="true"
     inkscape:snap-text-baseline="true"
     inkscape:snap-page="true"
     inkscape:guide-bbox="true"
     inkscape:snap-global="true" /><g
     id="g3"
     transform="matrix(-1,0,0,1,412.70869,377.48366)"><path
       id="path5-5-8"
       d="m -424.48176,-422.67416 c 30.18568,68.32399 28.06906,78.20505 91.65465,146.63521 54.07054,58.19018 149.49993,139.54611 200.97507,191.547195 68.645963,69.347408 -19.94142,61.662893 -40.26587,63.370482 -54.68534,4.594464 -96.53534,-31.691615 -141.2382,-75.391323 -59.55644,-58.219994 -73.43013,-64.152784 -123.75117,-64.282814 84.0397,49.53746 83.02243,73.618628 124.65646,119.824999 15.7556,17.485929 30.10378,29.110513 46.92748,38.1791746 16.8237,9.0686516 31.37414,15.2912754 48.12372,19.8010134 71.10502,19.144648 161.534846,-27.594965 218.8818124,29.878836 L 484.80298,531.27849 c 32.92117,32.99398 74.14175,78.3211 96.61268,51.94479 z m -4e-5,3e-5 c 68.32399,30.18568 78.20506,28.06907 146.63522,91.65464 58.19018,54.07054 139.54611,149.49992 191.547203,200.97505 69.347397,68.645982 61.662891,-19.94141 63.370479,-40.26586 4.594467,-54.68532 -31.691617,-96.53533 -75.39133,-141.23819 -58.219982,-59.55643 -64.152782,-73.43012 -64.282812,-123.75115 49.53746,84.03968 73.618633,83.02241 119.825005,124.65644 17.485919,15.7556 29.110519,30.10378 38.1791672,46.92748 9.0686478,16.82369 15.2912848,31.37414 19.8010158,48.12371 19.144648,71.10503 -27.594964,161.53485 29.878848,218.881808 L 529.47088,486.61056 c 32.99399,32.92116 78.32111,74.14175 51.9448,96.61268 z"
       inkscape:connector-curvature="0" /></g></svg>