<?xml version="1.0" encoding="UTF-8" standalone="no"?>
<svg
   xmlns:dc="http://purl.org/dc/elements/1.1/"
   xmlns:cc="http://creativecommons.org/ns#"
   xmlns:rdf="http://www.w3.org/1999/02/22-rdf-syntax-ns#"
   xmlns:svg="http://www.w3.org/2000/svg"
   xmlns="http://www.w3.org/2000/svg"
   xmlns:sodipodi="http://sodipodi.sourceforge.net/DTD/sodipodi-0.dtd"
   xmlns:inkscape="http://www.inkscape.org/namespaces/inkscape"
   version="1.1"
   x="0px"
   y="0px"
   width="100"
   height="100"
   viewBox="0 0 100 100"
   enable-background="new 0 0 100 100"
   xml:space="preserve"
   id="svg2"
   inkscape:version="0.91 r13725"
   sodipodi:docname="Icon-Trash.svg"><metadata
     id="metadata14"><rdf:RDF><cc:Work
         rdf:about=""><dc:format>image/svg+xml</dc:format><dc:type
           rdf:resource="http://purl.org/dc/dcmitype/StillImage" /></cc:Work></rdf:RDF></metadata><defs
     id="defs12" /><sodipodi:namedview
     pagecolor="#ffffff"
     bordercolor="#666666"
     borderopacity="1"
     objecttolerance="10"
     gridtolerance="10"
     guidetolerance="10"
     inkscape:pageopacity="0"
     inkscape:pageshadow="2"
     inkscape:window-width="1576"
     inkscape:window-height="820"
     id="namedview10"
     showgrid="false"
     fit-margin-top="0"
     fit-margin-left="0"
     fit-margin-right="0"
     fit-margin-bottom="0"
     inkscape:zoom="2.3599764"
     inkscape:cx="-14.850657"
     inkscape:cy="49.413476"
     inkscape:window-x="0"
     inkscape:window-y="0"
     inkscape:window-maximized="0"
     inkscape:current-layer="svg2" /><g
     id="Captions"
     transform="translate(-12.52,0.03200055)" /><g
     id="Your_Icon"
     transform="matrix(0.9599904,0,0,0.9599904,1.9121609,2.0316797)"><path
       d="m 12.52,17.178 0,7.772 7.418,0 2.568,75.018 55.172,0 2.568,-75.018 7.418,0 0,-7.772 -75.144,0 z m 24.471,69.616 -5.153,0 -1.301,-53.386 6.454,0 0,53.386 z m 15.9,0 -5.597,0 0,-53.387 5.597,0 0,53.387 z m 15.293,0 -5.039,0 0,-53.387 6.502,0 -1.463,53.387 z"
       id="path6"
       inkscape:connector-curvature="0"
       style="fill:#000000" /><polygon
       points="42.591,-0.033 42.591,5.992 16.409,5.992 16.409,13.764 83.775,13.764 83.775,5.992 57.594,5.992 57.594,-0.033 "
       id="polygon8"
       style="fill:#000000" /></g></svg>