<?xml version="1.0" encoding="UTF-8" standalone="no"?>
<svg
   xmlns:dc="http://purl.org/dc/elements/1.1/"
   xmlns:cc="http://creativecommons.org/ns#"
   xmlns:rdf="http://www.w3.org/1999/02/22-rdf-syntax-ns#"
   xmlns:svg="http://www.w3.org/2000/svg"
   xmlns="http://www.w3.org/2000/svg"
   xmlns:sodipodi="http://sodipodi.sourceforge.net/DTD/sodipodi-0.dtd"
   xmlns:inkscape="http://www.inkscape.org/namespaces/inkscape"
   version="1.1"
   id="Layer_1"
   x="0px"
   y="0px"
   width="100"
   height="100"
   viewBox="0 0 100 100"
   enable-background="new 0 0 100 28"
   xml:space="preserve"
   inkscape:version="0.91 r13725"
   sodipodi:docname="Icon-Mustache.svg"><metadata
     id="metadata11"><rdf:RDF><cc:Work
         rdf:about=""><dc:format>image/svg+xml</dc:format><dc:type
           rdf:resource="http://purl.org/dc/dcmitype/StillImage" /></cc:Work></rdf:RDF></metadata><defs
     id="defs9" /><sodipodi:namedview
     pagecolor="#ffffff"
     bordercolor="#666666"
     borderopacity="1"
     objecttolerance="10"
     gridtolerance="10"
     guidetolerance="10"
     inkscape:pageopacity="0"
     inkscape:pageshadow="2"
     inkscape:window-width="1920"
     inkscape:window-height="1057"
     id="namedview7"
     showgrid="false"
     fit-margin-top="0"
     fit-margin-left="0"
     fit-margin-right="0"
     fit-margin-bottom="0"
     inkscape:zoom="3.66"
     inkscape:cx="16.12683"
     inkscape:cy="31.288772"
     inkscape:window-x="-8"
     inkscape:window-y="-8"
     inkscape:window-maximized="1"
     inkscape:current-layer="Layer_1" /><g
     id="g3"
     transform="matrix(0.96393285,0,0,0.96393285,1.8746885,36.516829)"><path
       d="m 93.301,3.903 c -4.633,0.479 -5.887,6.338 -6.108,7.648 0.528,-1.366 5.718,-3.849 6.726,-0.991 1.081,3.058 -0.853,7.377 -7.869,6.837 -7.018,-0.54 -9.447,-6.836 -18.083,-13.674 -8.637,-6.837 -18.173,0 -18.173,0 0,0 -9.4,-6.837 -18.037,0 C 23.12,10.56 20.758,16.857 13.743,17.397 6.725,17.937 4.825,13.618 5.904,10.56 6.913,7.701 12.121,10.186 12.65,11.552 12.428,10.246 11.183,4.383 6.548,3.904 1.329,3.363 0.13,9.255 0.13,12.134 c 0,2.878 0.686,15.157 21.736,15.157 21.05,0 27.927,-13.303 27.927,-13.303 0,0 7.009,13.303 28.061,13.303 21.05,0 21.868,-12.279 21.868,-15.157 0,-2.879 -1.204,-8.771 -6.421,-8.231 z"
       id="path5"
       inkscape:connector-curvature="0" /></g></svg>