<?xml version="1.0" encoding="UTF-8" standalone="no"?>
<!-- Generator: Adobe Illustrator 18.1.1, SVG Export Plug-In . SVG Version: 6.00 Build 0)  -->

<svg
   xmlns:dc="http://purl.org/dc/elements/1.1/"
   xmlns:cc="http://creativecommons.org/ns#"
   xmlns:rdf="http://www.w3.org/1999/02/22-rdf-syntax-ns#"
   xmlns:svg="http://www.w3.org/2000/svg"
   xmlns="http://www.w3.org/2000/svg"
   xmlns:sodipodi="http://sodipodi.sourceforge.net/DTD/sodipodi-0.dtd"
   xmlns:inkscape="http://www.inkscape.org/namespaces/inkscape"
   version="1.1"
   id="Capa_1"
   x="0px"
   y="0px"
   viewBox="0 0 100 100"
   xml:space="preserve"
   inkscape:version="0.91 r13725"
   sodipodi:docname="Icon-Help.svg"
   width="100"
   height="100"><metadata
     id="metadata41"><rdf:RDF><cc:Work
         rdf:about=""><dc:format>image/svg+xml</dc:format><dc:type
           rdf:resource="http://purl.org/dc/dcmitype/StillImage" /><dc:title /></cc:Work></rdf:RDF></metadata><defs
     id="defs39" /><sodipodi:namedview
     pagecolor="#ffffff"
     bordercolor="#666666"
     borderopacity="1"
     objecttolerance="10"
     gridtolerance="10"
     guidetolerance="10"
     inkscape:pageopacity="0"
     inkscape:pageshadow="2"
     inkscape:window-width="1314"
     inkscape:window-height="869"
     id="namedview37"
     showgrid="false"
     inkscape:zoom="1.2826087"
     inkscape:cx="16.556292"
     inkscape:cy="-5.6795088"
     inkscape:window-x="156"
     inkscape:window-y="156"
     inkscape:window-maximized="0"
     inkscape:current-layer="Capa_1" /><g
     id="g3"
     transform="matrix(1.043486,0,0,1.0434745,1.9991227,2.0001859)"><path
       style="fill:#030104"
       d="M 45.386,0.004 C 19.983,0.344 -0.333,21.215 0.005,46.619 0.345,72.012 21.214,92.334 46.616,91.996 72.014,91.654 92.334,70.783 91.996,45.381 91.656,19.986 70.786,-0.335 45.386,0.004 Z M 45.25,74 44.996,73.996 c -3.912,-0.116 -6.67,-2.998 -6.559,-6.852 0.109,-3.788 2.934,-6.538 6.717,-6.538 l 0.227,0.004 c 4.021,0.119 6.748,2.972 6.635,6.937 C 51.904,71.346 49.123,74 45.25,74 Z M 61.705,41.341 c -0.92,1.307 -2.943,2.93 -5.492,4.916 l -2.807,1.938 c -1.541,1.198 -2.471,2.325 -2.82,3.434 -0.275,0.873 -0.41,1.104 -0.434,2.88 l -0.004,0.451 -10.718,0 0.031,-0.907 c 0.131,-3.728 0.223,-5.921 1.768,-7.733 2.424,-2.846 7.771,-6.289 7.998,-6.435 0.766,-0.577 1.412,-1.234 1.893,-1.936 1.125,-1.551 1.623,-2.772 1.623,-3.972 0,-1.665 -0.494,-3.205 -1.471,-4.576 -0.939,-1.323 -2.723,-1.993 -5.303,-1.993 -2.559,0 -4.311,0.812 -5.359,2.478 -1.078,1.713 -1.623,3.512 -1.623,5.35 l 0,0.457 -11.051,0 0.02,-0.477 C 28.241,28.447 30.657,23.573 35.134,20.729 37.947,18.918 41.447,18 45.531,18 c 5.346,0 9.859,1.299 13.412,3.861 3.6,2.596 5.426,6.484 5.426,11.556 0,2.837 -0.896,5.502 -2.664,7.924 z"
       id="path5"
       inkscape:connector-curvature="0" /></g><g
     id="g7"
     transform="translate(0,8)" /><g
     id="g9"
     transform="translate(0,8)" /><g
     id="g11"
     transform="translate(0,8)" /><g
     id="g13"
     transform="translate(0,8)" /><g
     id="g15"
     transform="translate(0,8)" /><g
     id="g17"
     transform="translate(0,8)" /><g
     id="g19"
     transform="translate(0,8)" /><g
     id="g21"
     transform="translate(0,8)" /><g
     id="g23"
     transform="translate(0,8)" /><g
     id="g25"
     transform="translate(0,8)" /><g
     id="g27"
     transform="translate(0,8)" /><g
     id="g29"
     transform="translate(0,8)" /><g
     id="g31"
     transform="translate(0,8)" /><g
     id="g33"
     transform="translate(0,8)" /><g
     id="g35"
     transform="translate(0,8)" /></svg>