<?xml version="1.0" encoding="UTF-8" standalone="no"?>
<!-- Generated by IcoMoon.io -->

<svg
   xmlns:dc="http://purl.org/dc/elements/1.1/"
   xmlns:cc="http://creativecommons.org/ns#"
   xmlns:rdf="http://www.w3.org/1999/02/22-rdf-syntax-ns#"
   xmlns:svg="http://www.w3.org/2000/svg"
   xmlns="http://www.w3.org/2000/svg"
   xmlns:sodipodi="http://sodipodi.sourceforge.net/DTD/sodipodi-0.dtd"
   xmlns:inkscape="http://www.inkscape.org/namespaces/inkscape"
   version="1.1"
   width="100"
   height="100"
   viewBox="0 0 100 100"
   id="svg2"
   inkscape:version="0.91 r13725"
   sodipodi:docname="icon-github.svg">
  <metadata
     id="metadata10">
    <rdf:RDF>
      <cc:Work
         rdf:about="">
        <dc:format>image/svg+xml</dc:format>
        <dc:type
           rdf:resource="http://purl.org/dc/dcmitype/StillImage" />
        <dc:title></dc:title>
      </cc:Work>
    </rdf:RDF>
  </metadata>
  <defs
     id="defs8" />
  <sodipodi:namedview
     pagecolor="#ffffff"
     bordercolor="#666666"
     borderopacity="1"
     objecttolerance="10"
     gridtolerance="10"
     guidetolerance="10"
     inkscape:pageopacity="0"
     inkscape:pageshadow="2"
     inkscape:window-width="1920"
     inkscape:window-height="1057"
     id="namedview6"
     showgrid="false"
     inkscape:zoom="2.3947718"
     inkscape:cx="-9.1220099"
     inkscape:cy="37.774041"
     inkscape:window-x="-8"
     inkscape:window-y="-8"
     inkscape:window-maximized="1"
     inkscape:current-layer="svg2" />
  <path
     d="m 49.996928,2.2207597 c -27.058559,0 -48.996938,21.9383793 -48.996938,48.9969383 0,21.650522 14.037623,40.012124 33.507781,46.491969 2.449847,0.453222 3.350165,-1.065683 3.350165,-2.357977 0,-1.169802 -0.049,-5.028311 -0.06737,-9.119555 -13.633398,2.964314 -16.505844,-5.781639 -16.505844,-5.781639 -2.22936,-5.665271 -5.43866,-7.171927 -5.43866,-7.171927 -4.446472,-3.043934 0.336854,-2.976564 0.336854,-2.976564 4.918068,0.342979 7.508781,5.046685 7.508781,5.046685 4.372976,7.490407 11.465283,5.322292 14.258109,4.07287 0.440972,-3.166427 1.708768,-5.328417 3.111305,-6.55334 -10.883445,-1.237173 -22.32423,-5.43866 -22.32423,-24.216737 0,-5.346791 1.917006,-9.719767 5.046685,-13.149553 -0.508343,-1.237173 -2.186488,-6.216486 0.471596,-12.965814 0,0 4.115742,-1.316793 13.480282,5.022186 3.907506,-1.084057 8.096744,-1.629148 12.261484,-1.647522 4.164739,0.01837 8.360102,0.563465 12.273732,1.647522 9.35229,-6.338979 13.46191,-5.022186 13.46191,-5.022186 2.66421,6.749328 0.99219,11.734766 0.48384,12.965814 3.14193,3.429786 5.04056,7.802762 5.04056,13.149553 0,18.820949 -11.46528,22.96119 -22.373223,24.173865 1.757763,1.518905 3.325663,4.501593 3.325663,9.070558 0,6.55334 -0.0551,11.83276 -0.0551,13.443534 0,1.304544 0.88195,2.829574 3.36854,2.351853 C 84.98076,91.205324 99.00001,72.843721 99.00001,51.205449 99.00001,24.14689 77.06163,2.2085107 50.003072,2.2085107 Z"
     id="path4"
     inkscape:connector-curvature="0"
     style="fill:#444444" />
</svg>
