<?xml version="1.0" encoding="UTF-8" standalone="no"?>
<!-- Generator: Adobe Illustrator 16.2.1, SVG Export Plug-In . SVG Version: 6.00 Build 0)  -->

<svg
   xmlns:dc="http://purl.org/dc/elements/1.1/"
   xmlns:cc="http://creativecommons.org/ns#"
   xmlns:rdf="http://www.w3.org/1999/02/22-rdf-syntax-ns#"
   xmlns:svg="http://www.w3.org/2000/svg"
   xmlns="http://www.w3.org/2000/svg"
   xmlns:sodipodi="http://sodipodi.sourceforge.net/DTD/sodipodi-0.dtd"
   xmlns:inkscape="http://www.inkscape.org/namespaces/inkscape"
   version="1.1"
   id="Layer_1"
   x="0px"
   y="0px"
   width="100"
   height="100"
   viewBox="0 0 100 100"
   xml:space="preserve"
   inkscape:version="0.91 r13725"
   sodipodi:docname="icon-share.svg"><metadata
     id="metadata13"><rdf:RDF><cc:Work
         rdf:about=""><dc:format>image/svg+xml</dc:format><dc:type
           rdf:resource="http://purl.org/dc/dcmitype/StillImage" /><dc:title></dc:title></cc:Work></rdf:RDF></metadata><defs
     id="defs11" /><sodipodi:namedview
     pagecolor="#ffffff"
     bordercolor="#666666"
     borderopacity="1"
     objecttolerance="10"
     gridtolerance="10"
     guidetolerance="10"
     inkscape:pageopacity="0"
     inkscape:pageshadow="2"
     inkscape:window-width="1317"
     inkscape:window-height="694"
     id="namedview9"
     showgrid="false"
     inkscape:zoom="0.4609375"
     inkscape:cx="117.33782"
     inkscape:cy="218.86156"
     inkscape:window-x="0"
     inkscape:window-y="0"
     inkscape:window-maximized="0"
     inkscape:current-layer="Layer_1" /><g
     id="g3"
     transform="matrix(0.21428571,0,0,0.21433356,-4.8571418,-4.8586747)"><path
       d="m 70.9,181.5 c 0,-41 25,-76.5 60.6,-91.5 l -7.7,0 c -41.1,0 -75.1,32.8 -81.1,75.2 -6,1 -10.7,7.9 -10.7,16.1 0,8.6 5.1,15.4 11.6,15.9 7.2,36.4 35.1,65.8 69.7,68.8 0,0 0.1,0 0.1,0 1.4,0 2.8,0.6 4.2,0.9 1.1,0.2 2.2,0.4 3.3,0.7 -29.9,-17.1 -50,-49.2 -50,-86.1 z"
       id="path5"
       inkscape:connector-curvature="0" /><path
       d="M 465.1,91 C 464,88.1 462.8,85.4 461.6,82.7 455.1,68.3 447.2,56.7 438.2,48.1 427,37.6 414.1,32 400.8,32 c -8.3,0 -16.4,2.2 -24.1,6.4 0,0 0,0 -0.1,0 -1.2,0.7 -2.4,1.3 -3.6,2 -49,29 -104.1,46.2 -162.6,49.4 -6.5,0.4 -13,0.2 -19.5,0.2 l -42.3,0 c -34,15 -59,50.5 -59,91.5 0,36.8 19.2,69.1 47.8,86.1 13,10.9 41.7,11.7 40,23.9 -1.9,13.2 -5.5,21.9 -7.8,30.7 -1.3,4.8 -23.6,72.9 -25.3,144.7 0,2 0,3.7 0.2,6.6 0.2,2.9 2.2,6.4 8.5,6.4 l 76.8,0 c 6.6,0 9.7,-3.3 9.3,-9.3 -0.2,-1.9 -0.6,-4.3 -0.8,-6.5 -2.4,-23.1 -4.6,-49.8 -3.3,-81.6 1.3,-34 5.2,-51.9 7,-61.3 2.1,-10.4 7.6,-22.4 12.1,-30.3 30.8,0.9 92.9,19.3 115.1,28.9 0,0 7.2,3.4 10.1,5.2 7,3.4 14.2,5.1 21.6,5.1 0.9,0 1.8,0 2.7,-0.1 12.3,-0.7 24.2,-9.7 34.7,-19.5 9.1,-8.5 16.9,-20.2 23.4,-34.6 1.2,-2.8 2.4,-5.6 3.5,-8.6 9.6,-25 14.8,-55.9 14.8,-88.1 C 480,147 474.8,116 465.1,91 Z M 442,267.5 c -7.8,18.5 -18.2,33.3 -29.5,33.3 -11.3,0 -21.6,-14.7 -29.4,-33.3 -9.1,-21.6 -14.9,-53.1 -14.9,-88.1 0,-35.2 5.8,-66.8 15,-88.4 7.8,-18.4 18.1,-29.5 29.3,-29.5 11.3,0 21.5,11.2 29.4,29.5 9.2,21.6 15,53.2 15,88.4 0,35 -5.8,66.5 -14.9,88.1 z"
       id="path7"
       inkscape:connector-curvature="0" /></g></svg>