<?xml version="1.0" encoding="UTF-8" standalone="no"?>
<svg
   xmlns:dc="http://purl.org/dc/elements/1.1/"
   xmlns:cc="http://creativecommons.org/ns#"
   xmlns:rdf="http://www.w3.org/1999/02/22-rdf-syntax-ns#"
   xmlns:svg="http://www.w3.org/2000/svg"
   xmlns="http://www.w3.org/2000/svg"
   xmlns:sodipodi="http://sodipodi.sourceforge.net/DTD/sodipodi-0.dtd"
   xmlns:inkscape="http://www.inkscape.org/namespaces/inkscape"
   version="1.1"
   id="Your_Icon"
   x="0px"
   y="0px"
   width="100"
   height="100"
   viewBox="0 0 100 100"
   enable-background="new 0 0 100 100"
   xml:space="preserve"
   inkscape:version="0.91 r13725"
   sodipodi:docname="icon-d20s.svg"><metadata
     id="metadata9"><rdf:RDF><cc:Work
         rdf:about=""><dc:format>image/svg+xml</dc:format><dc:type
           rdf:resource="http://purl.org/dc/dcmitype/StillImage" /><dc:title /></cc:Work></rdf:RDF></metadata><defs
     id="defs7" /><sodipodi:namedview
     pagecolor="#ffffff"
     bordercolor="#666666"
     borderopacity="1"
     objecttolerance="10"
     gridtolerance="10"
     guidetolerance="10"
     inkscape:pageopacity="0"
     inkscape:pageshadow="2"
     inkscape:window-width="1440"
     inkscape:window-height="837"
     id="namedview5"
     showgrid="false"
     inkscape:zoom="4.87"
     inkscape:cx="51.694104"
     inkscape:cy="55.229258"
     inkscape:window-x="1912"
     inkscape:window-y="172"
     inkscape:window-maximized="1"
     inkscape:current-layer="Your_Icon"
     showguides="true"
     inkscape:snap-bbox="true"
     inkscape:bbox-paths="true"
     inkscape:bbox-nodes="true"
     inkscape:snap-bbox-edge-midpoints="true"
     inkscape:snap-bbox-midpoints="true"
     inkscape:object-paths="true"
     inkscape:snap-intersection-paths="true"
     inkscape:object-nodes="true"
     inkscape:snap-smooth-nodes="true"
     inkscape:snap-midpoints="true"
     inkscape:snap-object-midpoints="true"
     inkscape:snap-center="true"
     inkscape:snap-page="true"
     inkscape:snap-global="false"
     inkscape:guide-bbox="true"><inkscape:grid
       type="xygrid"
       id="grid2988"
       empspacing="5"
       visible="true"
       enabled="true"
       snapvisiblegridlinesonly="true" /></sodipodi:namedview><path
     style="color:#000000;font-style:normal;font-variant:normal;font-weight:normal;font-stretch:normal;font-size:medium;line-height:normal;font-family:sans-serif;text-indent:0;text-align:start;text-decoration:none;text-decoration-line:none;text-decoration-style:solid;text-decoration-color:#000000;letter-spacing:normal;word-spacing:normal;text-transform:none;direction:ltr;block-progression:tb;writing-mode:lr-tb;baseline-shift:baseline;text-anchor:start;white-space:normal;clip-rule:nonzero;display:inline;overflow:visible;visibility:visible;opacity:1;isolation:auto;mix-blend-mode:normal;color-interpolation:sRGB;color-interpolation-filters:linearRGB;solid-color:#000000;solid-opacity:1;fill:#000000;fill-opacity:1;fill-rule:evenodd;stroke:none;stroke-width:1.83195817;stroke-linecap:round;stroke-linejoin:round;stroke-miterlimit:4;stroke-dasharray:none;stroke-dashoffset:0;stroke-opacity:1;color-rendering:auto;image-rendering:auto;shape-rendering:auto;text-rendering:auto;enable-background:accumulate"
     d="m 58.240234,39.285156 a 0.91607069,0.91607069 0 0 0 -0.0918,0.002 0.91607069,0.91607069 0 0 0 -0.08984,0.0098 0.91607069,0.91607069 0 0 0 -0.523438,0.273437 0.91607069,0.91607069 0 0 0 -0.05859,0.06641 0.91607069,0.91607069 0 0 0 -0.0039,0.0039 0.91607069,0.91607069 0 0 0 -0.03516,0.05078 0.91607069,0.91607069 0 0 0 -0.0078,0.0098 l -19.763672,21.347656 -0.0059,0.0059 -0.0039,0.0039 a 0.91607069,0.91607069 0 0 0 -0.345703,0.59375 0.91607069,0.91607069 0 0 0 0,0.0039 0.91607069,0.91607069 0 0 0 -0.0039,0.04297 0.91607069,0.91607069 0 0 0 -0.0059,0.04687 0.91607069,0.91607069 0 0 0 0,0.01172 0.91607069,0.91607069 0 0 0 0.06445,0.382813 l 7.900391,31.896484 0,0.002 a 0.91607069,0.91607069 0 0 0 0.002,0.0332 0.91607069,0.91607069 0 0 0 0,0.0039 0.91607069,0.91607069 0 0 0 0.01563,0.08594 0.91607069,0.91607069 0 0 0 0,0.0039 0.91607069,0.91607069 0 0 0 0.02344,0.08594 0.91607069,0.91607069 0 0 0 0,0.002 0.91607069,0.91607069 0 0 0 0.0332,0.08398 0.91607069,0.91607069 0 0 0 0,0.002 0.91607069,0.91607069 0 0 0 0.08984,0.15625 0.91607069,0.91607069 0 0 0 0,0.002 0.91607069,0.91607069 0 0 0 0.05664,0.07031 0.91607069,0.91607069 0 0 0 0,0.002 0.91607069,0.91607069 0 0 0 0.04883,0.05078 0.91607069,0.91607069 0 0 0 0.01563,0.01367 0.91607069,0.91607069 0 0 0 0,0.002 0.91607069,0.91607069 0 0 0 0.02344,0.01953 0.91607069,0.91607069 0 0 0 0.002,0.002 0.91607069,0.91607069 0 0 0 0.03125,0.02734 0.91607069,0.91607069 0 0 0 0.0332,0.02539 0.91607069,0.91607069 0 0 0 0.0059,0.0039 0.91607069,0.91607069 0 0 0 0.07422,0.05078 0.91607069,0.91607069 0 0 0 0.07422,0.04102 0.91607069,0.91607069 0 0 0 0.01563,0.0078 0.91607069,0.91607069 0 0 0 0.07617,0.0293 0.91607069,0.91607069 0 0 0 0.08398,0.02539 0.91607069,0.91607069 0 0 0 0.0098,0.0039 0.91607069,0.91607069 0 0 0 0.07227,0.01367 0.91607069,0.91607069 0 0 0 0.01172,0.002 0.91607069,0.91607069 0 0 0 0.0078,0 0.91607069,0.91607069 0 0 0 0.08398,0.0078 0.91607069,0.91607069 0 0 0 0.07227,0 0.91607069,0.91607069 0 0 0 0.01953,0 l 0.0039,0 30.583985,3.076172 a 0.91607069,0.91607069 0 0 0 0.291015,0.02344 0.91607069,0.91607069 0 0 0 0.705078,-0.40625 0.91607069,0.91607069 0 0 0 0.0039,-0.0039 0.91607069,0.91607069 0 0 0 0.002,-0.0039 L 97.603516,76.292969 a 0.91607069,0.91607069 0 0 0 0.03125,-0.02344 0.91607069,0.91607069 0 0 0 0.01953,-0.01758 0.91607069,0.91607069 0 0 0 0.04687,-0.04687 0.91607069,0.91607069 0 0 0 0.06055,-0.06836 0.91607069,0.91607069 0 0 0 0.173828,-0.363281 0.91607069,0.91607069 0 0 0 0.01758,-0.08594 0.91607069,0.91607069 0 0 0 0,-0.0039 0.91607069,0.91607069 0 0 0 0,-0.01172 0.91607069,0.91607069 0 0 0 0.0078,-0.08008 0.91607069,0.91607069 0 0 0 0,-0.07422 0.91607069,0.91607069 0 0 0 -0.05273,-0.269531 0.91607069,0.91607069 0 0 0 -0.03516,-0.08398 l -0.002,-0.0039 -0.0039,-0.01172 -8.857422,-29.308594 a 0.91607069,0.91607069 0 0 0 -0.002,-0.0098 0.91607069,0.91607069 0 0 0 -0.01758,-0.08398 0.91607069,0.91607069 0 0 0 -0.02148,-0.08398 0.91607069,0.91607069 0 0 0 -0.002,-0.0059 0.91607069,0.91607069 0 0 0 -0.03125,-0.08008 0.91607069,0.91607069 0 0 0 -0.002,-0.0039 0.91607069,0.91607069 0 0 0 -0.570313,-0.503907 0.91607069,0.91607069 0 0 0 -0.01563,-0.0059 0.91607069,0.91607069 0 0 0 -0.02148,-0.0059 0.91607069,0.91607069 0 0 0 -0.06836,-0.01563 0.91607069,0.91607069 0 0 0 -0.02148,-0.0039 0.91607069,0.91607069 0 0 0 -0.0098,0 0.91607069,0.91607069 0 0 0 -0.111328,-0.01172 l -29.59375,-5.685547 a 0.91607069,0.91607069 0 0 0 -0.28125,-0.05469 z m 2.111328,2.273438 25.902344,4.974609 L 73.730469,59.490234 60.351562,41.558594 Z M 58.371094,41.970703 72.119141,60.394531 45.697266,68.236328 58.371094,41.970703 Z M 54.720703,45.322266 43.8125,67.925781 39.40625,61.863281 54.720703,45.322266 Z M 87.662109,47.710938 95.451172,73.488281 75.083984,60.724609 87.662109,47.710938 Z M 72.59375,62.167969 69.851562,89.726562 45.888672,70.091797 72.59375,62.167969 Z m 1.8125,0.292969 20.878906,13.085937 -23.599609,14.242187 2.720703,-27.328124 z m -34.164062,3.667968 2.839843,3.910156 1.097657,11.992188 -3.9375,-15.902344 z m 4.839843,5.671875 23.222657,19.027344 -21.285157,2.138672 -1.9375,-21.166016 z m 46.84961,7.910157 -14.941407,16.09375 -4.839843,-4.15625 19.78125,-11.9375 z M 70.294922,92.46875 74.253906,95.871094 55.349609,93.970703 70.294922,92.46875 Z"
     id="path4241-1"
     inkscape:connector-curvature="0" /><path
     style="color:#000000;font-style:normal;font-variant:normal;font-weight:normal;font-stretch:normal;font-size:medium;line-height:normal;font-family:sans-serif;text-indent:0;text-align:start;text-decoration:none;text-decoration-line:none;text-decoration-style:solid;text-decoration-color:#000000;letter-spacing:normal;word-spacing:normal;text-transform:none;direction:ltr;block-progression:tb;writing-mode:lr-tb;baseline-shift:baseline;text-anchor:start;white-space:normal;clip-rule:nonzero;display:inline;overflow:visible;visibility:visible;opacity:1;isolation:auto;mix-blend-mode:normal;color-interpolation:sRGB;color-interpolation-filters:linearRGB;solid-color:#000000;solid-opacity:1;fill:#000000;fill-opacity:1;fill-rule:evenodd;stroke:none;stroke-width:1.87271893;stroke-linecap:round;stroke-linejoin:round;stroke-miterlimit:4;stroke-dasharray:none;stroke-dashoffset:0;stroke-opacity:1;color-rendering:auto;image-rendering:auto;shape-rendering:auto;text-rendering:auto;enable-background:accumulate"
     d="m 41.464844,2 a 0.9364531,0.9364531 0 0 0 -0.326172,0.050781 L 8.0976562,8.0800781 a 0.9364531,0.9364531 0 0 0 -0.3027343,0.056641 0.9364531,0.9364531 0 0 0 -0.2460938,0.1347656 0.9364531,0.9364531 0 0 0 -0.00195,0 0.9364531,0.9364531 0 0 0 -0.058594,0.050781 0.9364531,0.9364531 0 0 0 -0.027344,0.025391 0.9364531,0.9364531 0 0 0 -0.00781,0.00781 0.9364531,0.9364531 0 0 0 -0.03125,0.03125 0.9364531,0.9364531 0 0 0 -0.011719,0.011719 0.9364531,0.9364531 0 0 0 0,0.00195 0.9364531,0.9364531 0 0 0 -0.00781,0.00781 0.9364531,0.9364531 0 0 0 -0.00391,0.00586 0.9364531,0.9364531 0 0 0 -0.00977,0.00977 0.9364531,0.9364531 0 0 0 -0.00977,0.013672 0.9364531,0.9364531 0 0 0 -0.027344,0.035156 0.9364531,0.9364531 0 0 0 -0.011719,0.015625 0.9364531,0.9364531 0 0 0 -0.011719,0.015625 0.9364531,0.9364531 0 0 0 -0.044922,0.074219 0.9364531,0.9364531 0 0 0 -0.039063,0.082031 0.9364531,0.9364531 0 0 0 -0.00195,0.00391 0.9364531,0.9364531 0 0 0 -0.027344,0.070312 0.9364531,0.9364531 0 0 0 -0.011719,0.037109 0.9364531,0.9364531 0 0 0 -0.00977,0.041016 0.9364531,0.9364531 0 0 0 -0.00977,0.046875 0.9364531,0.9364531 0 0 0 -0.00977,0.060547 0.9364531,0.9364531 0 0 0 -0.00195,0.027344 0.9364531,0.9364531 0 0 0 -0.00391,0.048828 0.9364531,0.9364531 0 0 0 -0.00195,0.03125 0.9364531,0.9364531 0 0 0 0,0.00391 L 2.0859375,40.027344 a 0.9364531,0.9364531 0 0 0 -0.042969,0.220703 0.9364531,0.9364531 0 0 0 -0.00195,0.04492 0.9364531,0.9364531 0 0 0 -0.00195,0.03711 0.9364531,0.9364531 0 0 0 0.00391,0.07813 0.9364531,0.9364531 0 0 0 0,0.0078 0.9364531,0.9364531 0 0 0 0.3671874,0.667968 l 20.4726558,21.529297 0.002,0.002 a 0.9364531,0.9364531 0 0 0 0.02734,0.03711 0.9364531,0.9364531 0 0 0 0.0059,0.0078 0.9364531,0.9364531 0 0 0 0.111328,0.117188 0.9364531,0.9364531 0 0 0 0.449219,0.224609 0.9364531,0.9364531 0 0 0 0.09375,0.01367 0.9364531,0.9364531 0 0 0 0.07617,0.0039 0.9364531,0.9364531 0 0 0 0.271484,-0.0332 0.9364531,0.9364531 0 0 0 0.0078,-0.002 0.9364531,0.9364531 0 0 0 0.08789,-0.03125 0.9364531,0.9364531 0 0 0 0.01367,-0.0039 0.9364531,0.9364531 0 0 0 0.0039,-0.002 l 17.761719,-4.181641 a 0.9364531,0.9364531 0 1 0 -0.427734,-1.822266 l -15.488282,3.646485 14.31836,-19.96875 8.414062,9.21289 a 0.93662142,0.93662142 0 1 0 1.382813,-1.263672 L 41.542969,39.318359 60.689453,26.806641 57.271484,40.080078 a 0.9364531,0.9364531 0 1 0 1.8125,0.466797 l 3.980469,-15.457031 0,-0.002 a 0.9364531,0.9364531 0 0 0 0.0078,-0.01563 0.9364531,0.9364531 0 0 0 0,-0.002 0.9364531,0.9364531 0 0 0 0.01172,-0.03125 0.9364531,0.9364531 0 0 0 0.01953,-0.05469 0.9364531,0.9364531 0 0 0 0.0293,-0.138672 0.9364531,0.9364531 0 0 0 0.0078,-0.04687 0.9364531,0.9364531 0 0 0 0,-0.0039 0.9364531,0.9364531 0 0 0 0,-0.169922 0.9364531,0.9364531 0 0 0 0,-0.01758 0.9364531,0.9364531 0 0 0 -0.01367,-0.08789 0.9364531,0.9364531 0 0 0 0,-0.0039 0.9364531,0.9364531 0 0 0 -0.119141,-0.302734 0.9364531,0.9364531 0 0 0 -0.05273,-0.07813 0.9364531,0.9364531 0 0 0 -0.05859,-0.07227 0.9364531,0.9364531 0 0 0 -0.06641,-0.06641 0.9364531,0.9364531 0 0 0 -0.05859,-0.04883 0.9364531,0.9364531 0 0 0 -0.0059,-0.0039 L 42.240234,2.4179688 a 0.9364531,0.9364531 0 0 0 -0.002,-0.00195 0.9364531,0.9364531 0 0 0 -0.04883,-0.066406 0.9364531,0.9364531 0 0 0 -0.0059,-0.00586 0.9364531,0.9364531 0 0 0 -0.533203,-0.3203125 0.9364531,0.9364531 0 0 0 -0.09375,-0.015625 0.9364531,0.9364531 0 0 0 -0.03516,-0.00391 A 0.9364531,0.9364531 0 0 0 41.464844,2 Z M 41.304688,4.1484375 57.203125,20.824219 34.835938,8.2578125 41.304688,4.1484375 Z M 36.898438,4.7285156 32.724609,7.3789062 20.419922,7.734375 36.898438,4.7285156 Z M 30.802734,9.3066406 9.9140625,31.789062 9.0859375,9.9375 30.802734,9.3066406 Z M 34.400391,10.160156 60.392578,24.763672 40.720703,37.619141 34.400391,10.160156 Z m -1.904297,0.07813 6.386718,27.75 L 10.939453,33.4375 32.496094,10.238281 Z M 7.53125,18.375 8.1113281,33.716797 4.390625,37.539062 7.53125,18.375 Z M 10.759766,35.304688 38.46875,39.818359 23.789062,60.289062 10.759766,35.304688 Z M 8.8300781,35.660156 19.753906,56.601562 4.2832031,40.333984 8.8300781,35.660156 Z"
     id="path4241"
     inkscape:connector-curvature="0" /></svg>