<?xml version="1.0" encoding="UTF-8" standalone="no"?>
<svg
   xmlns:dc="http://purl.org/dc/elements/1.1/"
   xmlns:cc="http://creativecommons.org/ns#"
   xmlns:rdf="http://www.w3.org/1999/02/22-rdf-syntax-ns#"
   xmlns:svg="http://www.w3.org/2000/svg"
   xmlns="http://www.w3.org/2000/svg"
   xmlns:sodipodi="http://sodipodi.sourceforge.net/DTD/sodipodi-0.dtd"
   xmlns:inkscape="http://www.inkscape.org/namespaces/inkscape"
   version="1.1"
   id="Your_Icon"
   x="0px"
   y="0px"
   width="100"
   height="100"
   viewBox="0 0 100 100"
   enable-background="new 0 0 100 100"
   xml:space="preserve"
   inkscape:version="0.48.2 r9819"
   sodipodi:docname="CriticalRoll-Icons-Color.svg"
   inkscape:export-filename="C:\Users\Ele\Downloads\CriticalRoll-xhdpi.png"
   inkscape:export-xdpi="15"
   inkscape:export-ydpi="15"><metadata
   id="metadata9"><rdf:RDF><cc:Work
       rdf:about=""><dc:format>image/svg+xml</dc:format><dc:type
         rdf:resource="http://purl.org/dc/dcmitype/StillImage" /><dc:title></dc:title></cc:Work></rdf:RDF></metadata><defs
   id="defs7"><linearGradient
     id="linearGradient4145"><stop
       style="stop-color:#2980b9;stop-opacity:1;"
       offset="0"
       id="stop4147" /><stop
       style="stop-color:#3498db;stop-opacity:1;"
       offset="1"
       id="stop4149" /></linearGradient></defs><sodipodi:namedview
   pagecolor="#ffffff"
   bordercolor="#666666"
   borderopacity="1"
   objecttolerance="10"
   gridtolerance="10"
   guidetolerance="10"
   inkscape:pageopacity="0"
   inkscape:pageshadow="2"
   inkscape:window-width="1049"
   inkscape:window-height="688"
   id="namedview5"
   showgrid="false"
   inkscape:zoom="3.5164624"
   inkscape:cx="47.529977"
   inkscape:cy="63.809777"
   inkscape:window-x="411"
   inkscape:window-y="121"
   inkscape:window-maximized="0"
   inkscape:current-layer="Your_Icon"
   showguides="true"
   inkscape:snap-bbox="true"
   inkscape:bbox-paths="true"
   inkscape:bbox-nodes="true"
   inkscape:snap-bbox-edge-midpoints="true"
   inkscape:snap-bbox-midpoints="true"
   inkscape:object-paths="true"
   inkscape:snap-intersection-paths="true"
   inkscape:object-nodes="true"
   inkscape:snap-smooth-nodes="true"
   inkscape:snap-midpoints="true"
   inkscape:snap-object-midpoints="true"
   inkscape:snap-center="true"
   inkscape:snap-page="true"
   inkscape:snap-global="false"><inkscape:grid
     type="xygrid"
     id="grid2988"
     empspacing="5"
     visible="true"
     enabled="true"
     snapvisiblegridlinesonly="true" /></sodipodi:namedview>

<path
   d="m 49.208529,52.792573 9.728795,-24.323751 c 0.03167,-0.07505 0.0516,-0.152453 0.06332,-0.231024 0.0035,-0.02287 0.0041,-0.04515 0.0065,-0.06802 0.0041,-0.05101 0.0047,-0.102027 0.0012,-0.15245 -0.0016,-0.02698 -0.0041,-0.05336 -0.0082,-0.08033 -0.0082,-0.05218 -0.0211,-0.103199 -0.03694,-0.153624 -0.007,-0.01994 -0.01114,-0.04046 -0.01819,-0.06039 -0.02756,-0.06919 -0.06216,-0.134276 -0.104372,-0.196432 -0.0024,-0.0035 -0.0035,-0.007 -0.0059,-0.01056 L 41.794073,3.1728957 c -0.0059,-0.00763 -0.0016,-0.015239 -0.0076,-0.023456 l 0.0082,-0.00185 V 3.549244 c 0,0 -0.01936,0 -0.0217,0 -0.236302,-0.5863561 -0.641472,-0.659064 -1.027292,-0.5722818 0,0.00234 -0.0024,-0.00704 -0.0041,-0.00704 -0.0016,0.00234 -0.0059,-0.00704 -0.0059,-0.00704 h -0.0024 -0.0016 -0.0016 -0.0024 -0.0016 c 0,0 -0.0024,0 -0.0041,0 -0.0016,0 -0.0016,-0.088538 -0.0041,-0.088538 l -26.7777,7.2578928 c -0.01467,0.0041 -0.02697,-0.01114 -0.04163,-0.0065 -0.05101,0.01641 -0.100852,0.02404 -0.148347,0.04867 -0.03166,0.01583 -0.05981,0.03108 -0.08913,0.04984 -0.0299,0.01934 -0.05922,0.03577 -0.08619,0.05805 -0.0258,0.0211 -0.04925,0.0428 -0.07271,0.06626 -0.02814,0.02815 -0.05453,0.05746 -0.07974,0.08912 -0.01758,0.02287 -0.0346,0.04457 -0.04984,0.06861 -0.02697,0.04104 -0.04925,0.08502 -0.07036,0.130755 -0.0065,0.0135 -0.01583,0.02463 -0.0211,0.0387 l -9.65153,24.339603 c -0.011728,0.0299 0.052186,0.06098 0.052186,0.09147 v 0.0012 c 0,0.109063 0,0.219883 0,0.329531 0,0.0024 0,0.0024 0,0.0047 0,0 0,0 0,0.0012 0,0 0,0 0,0.0024 v 0.0024 0.0012 c 0,0.04339 -0.00117,0.08796 0.00704,0.130759 0.00176,0.0024 -0.00704,0.0024 -0.00704,0.0035 0,0.0024 0,0.0024 0,0.0047 0,0 0,0 0,0.0012 0,0 0,0 0,0.0024 v 0.0024 c 0,0 0,0 0,0.0012 v 0.0024 c 0,0.111992 -0.026972,0.221053 0.035181,0.319561 0,-0.0012 -0.017592,0.0024 -0.017592,0.0024 0,0.0024 -0.017592,0.0024 -0.017592,0.0024 0,0.0012 0,0.0012 0,0.0012 l -0.026386,0.0024 c 0.017592,0.02756 0.021111,0.05277 0.039872,0.07798 l 17.032836,21.905267 c 0.0012,0.0024 0,0.0035 0.0012,0.0059 0.0012,0.0012 0,0.0024 0.0012,0.0047 0.0035,0.0047 0.0082,0.0082 0.01233,0.01233 0.01407,0.017 0.03049,0.0299 0.04573,0.04574 0.01584,0.017 0.03108,0.03342 0.04808,0.04809 0.01758,0.01583 0.03225,0.03635 0.05043,0.0516 0.01524,0.01173 0.03342,0.01936 0.04925,0.03108 0.02347,0.01583 0.04749,0.03108 0.07212,0.04456 0.0029,0.0024 0.0059,0.0047 0.0094,0.0059 0.05101,0.0299 0.103197,0.05277 0.157727,0.07212 0.02463,0.0082 0.04808,0.01819 0.07329,0.02521 0.01233,0.0035 0.02404,0.01054 0.03636,0.01233 0.07212,0.01583 0.146002,0.02521 0.219882,0.02521 0.05805,0 0.118444,-0.007 0.178253,-0.01583 l 26.778359,-4.86812 c 0.03342,-0.0059 0.06333,-0.01233 0.09557,-0.0217 0.0082,-0.0029 0.017,0.0016 0.02463,0.0016 0.0024,0 0.0024,0 0.0024,0 0.01233,0 0.02287,-0.01583 0.03518,-0.02052 0.02404,-0.0082 0.04691,-0.01994 0.07036,-0.03049 0.01233,-0.0059 0.0258,-0.01114 0.03753,-0.01758 0.01,-0.0059 0.01524,-0.0088 0.01936,-0.01 0.0082,-0.0047 0.0135,-0.01233 0.0217,-0.01641 0.08209,-0.04573 0.157731,-0.102025 0.222815,-0.167109 0.0082,-0.0094 0.01407,-0.01994 0.02227,-0.02814 0.06392,-0.06978 0.117858,-0.14776 0.158904,-0.233367 0.0035,-0.0059 0.0094,-0.01054 0.01233,-0.017 0.0024,-0.0047 0.0047,-0.01 0.0065,-0.01524 0.0012,-0.0024 0.0016,-0.0035 0.0029,-0.0059 0.0047,-0.01233 0.0094,-0.02344 0.01465,-0.03518 z M 47.430113,50.72802 30.539579,40.168945 49.541576,25.391634 47.430113,50.72802 z m -18.056205,-12.168032 -6.422929,-23.55211 25.69289,8.56547 -19.269961,14.98664 z M 51.56802,24.975907 56.801819,28.465889 49.823028,45.909944 51.56802,24.975907 z m 2.61514,-0.642645 -2.696059,-1.797764 -3.593765,-7.186948 6.289824,8.984712 z M 48.758209,21.518174 24.090851,13.295721 40.53634,5.0732697 48.758209,21.518174 z M 21.429388,12.407394 17.626878,11.139695 31.57098,7.3360141 21.429388,12.407394 z m -6.653953,-0.124307 5.083696,1.695152 -11.8637158,15.252258 6.7800198,-16.94741 z m 6.292757,3.373886 6.359017,23.311702 L 6.2328339,34.730504 21.068192,15.656973 z M 27.41255,40.992184 21.254067,55.361392 6.884274,36.88653 27.41255,40.992184 z m 1.852293,0.722975 16.315908,10.198468 -22.435689,4.080445 6.119781,-14.278913 z"
   id="path3"
   inkscape:connector-curvature="0"
   style="fill:#000000;fill-opacity:1;stroke:#000000;stroke-width:0.23920783;stroke-opacity:1" /><path
   d="M 96.474659,77.48344 91.502215,51.762456 c -0.01395,-0.08026 -0.03905,-0.156141 -0.07169,-0.228572 -0.0094,-0.02114 -0.02096,-0.0402 -0.03135,-0.0607 -0.02413,-0.04513 -0.05124,-0.08835 -0.08145,-0.128876 -0.016,-0.02178 -0.03232,-0.04266 -0.05035,-0.06313 -0.03512,-0.03946 -0.07356,-0.07539 -0.11416,-0.10924 -0.0167,-0.01294 -0.03126,-0.028 -0.04795,-0.04096 -0.0606,-0.04329 -0.124901,-0.07933 -0.194028,-0.108774 -0.0039,-0.0016 -0.0068,-0.004 -0.01062,-0.0057 L 63.401389,39.757514 c -0.0091,-0.0033 -0.0096,-0.01192 -0.01914,-0.01563 l 0.006,-0.0059 0.217235,0.337838 c 0,0 -0.01631,0.01048 -0.01825,0.01173 -0.51589,-0.365387 -0.89601,-0.207411 -1.173592,0.07426 0.0014,0.0018 -0.0058,-0.0046 -0.0073,-0.0037 -1.15e-4,0.0029 -0.0088,-0.0028 -0.0088,-0.0028 l -0.0018,0.0014 -0.0014,8.2e-4 -0.0014,8.2e-4 -0.0018,0.0014 -0.0014,8.21e-4 c 0,0 -0.0018,0.0014 -0.0035,0.0023 -0.0014,8.21e-4 -0.0493,-0.07357 -0.05135,-0.07225 L 43.737078,60.676245 c -0.01011,0.01136 -0.02871,0.0052 -0.03851,0.01706 -0.03403,0.04139 -0.07183,0.07476 -0.09846,0.121166 -0.01809,0.03044 -0.0335,0.05849 -0.04801,0.09013 -0.01469,0.03245 -0.03047,0.06211 -0.0411,0.09544 -0.0103,0.0317 -0.01828,0.06264 -0.02533,0.09505 -0.0085,0.0389 -0.01477,0.07783 -0.01885,0.118096 -0.0023,0.02874 -0.005,0.05619 -0.0048,0.08466 -6.15e-4,0.04911 0.0046,0.09815 0.01155,0.148041 0.0018,0.01483 -1.03e-4,0.02928 0.0032,0.04396 l 5.046006,25.692532 c 0.0063,0.03149 0.07688,0.02305 0.09337,0.04871 l 6.16e-4,8.21e-4 c 0.05899,0.09173 0.118924,0.184945 0.178226,0.277171 0.0014,0.0018 0.0014,0.0018 0.0025,0.0039 0,0 0,0 6.15e-4,8.21e-4 0,0 0,0 0.0014,0.0018 l 0.0014,0.0018 6.15e-4,8.2e-4 c 0.02347,0.0365 0.04656,0.07463 0.07664,0.106181 0.0027,8.21e-4 -0.0046,0.0058 -0.004,0.0068 0.0014,0.0018 0.0014,0.0018 0.0025,0.0039 0,0 0,0 6.15e-4,8.2e-4 0,0 0,0 0.0014,0.0018 l 0.0014,0.0018 c 0,0 0,0 6.16e-4,8.2e-4 l 0.0014,0.0018 c 0.06057,0.0942 0.09687,0.200522 0.20243,0.249762 -6.16e-4,-8.21e-4 -0.0135,0.01151 -0.0135,0.01151 0.0014,0.0018 -0.0135,0.01151 -0.0135,0.01151 6.15e-4,8.2e-4 6.15e-4,8.2e-4 6.15e-4,8.2e-4 l -0.02089,0.01627 c 0.02969,0.01366 0.04631,0.03296 0.07572,0.04403 l 26.174454,9.212915 c 0.0024,0.0012 0.0018,0.003 0.0042,0.0043 0.0016,2.05e-4 0.0014,0.0018 0.0035,0.0033 0.0055,0.0021 0.01132,0.0024 0.01702,0.0037 0.02103,0.0067 0.04182,0.0087 0.0632,0.01374 0.02252,0.0057 0.04421,0.0113 0.06645,0.01444 0.02336,0.0038 0.04678,0.01313 0.07032,0.01612 0.01914,0.0016 0.03858,-0.0018 0.05824,-4.1e-4 0.0283,6.15e-4 0.05675,6.15e-4 0.08476,-0.0014 0.0038,2.05e-4 0.0075,6.15e-4 0.01105,-1.38e-4 0.05908,-0.0024 0.115341,-0.01144 0.171676,-0.02465 0.02515,-0.0064 0.05027,-0.01071 0.07528,-0.01842 0.01229,-0.0037 0.02593,-0.0041 0.03724,-0.0093 0.06923,-0.02569 0.13644,-0.05776 0.198583,-0.09772 0.04882,-0.0314 0.09582,-0.06997 0.141367,-0.109723 L 96.180942,78.404914 c 0.02495,-0.023 0.0466,-0.04461 0.06866,-0.06994 0.0053,-0.0069 0.0152,-0.0078 0.02161,-0.0119 0.0018,-0.0014 0.0018,-0.0014 0.0018,-0.0014 0.01036,-0.0067 0.01069,-0.02568 0.0185,-0.03629 0.01577,-0.01992 0.02868,-0.04213 0.04269,-0.0637 0.0072,-0.01161 0.01567,-0.02333 0.02205,-0.03508 0.0052,-0.01034 0.0081,-0.01565 0.01089,-0.01885 0.0044,-0.0084 0.0047,-0.01768 0.0094,-0.02554 0.04431,-0.08287 0.07749,-0.171126 0.09703,-0.261071 0.0016,-0.01233 0.001,-0.02437 0.0035,-0.03572 0.01602,-0.09326 0.01922,-0.188031 0.0073,-0.282238 -2.05e-4,-0.0068 0.0022,-0.01395 0.0012,-0.02099 -4.11e-4,-0.0052 -0.0014,-0.01093 -0.0028,-0.01633 -1.39e-4,-0.0026 -4.1e-4,-0.0039 -6.15e-4,-0.0065 -0.0027,-0.0129 -0.0048,-0.02479 -0.0067,-0.03752 z M 93.862185,76.70876 73.944361,76.962582 81.934978,54.255869 93.862185,76.70876 z M 72.093687,76.239714 53.953067,59.903439 80.196479,53.212002 72.093687,76.239714 z m 11.320925,-23.429523 6.289806,0.104785 3.564632,18.447005 -9.854438,-18.55179 z m 1.85207,-1.954942 -3.240028,-0.05397 -6.909851,-4.101386 10.149879,4.155355 z m -6.085574,0.566266 -25.195294,6.425295 9.385495,-15.810611 15.809799,9.385316 z m -27.914354,7.117561 -3.883998,0.990304 9.671425,-10.741022 -5.787427,9.750718 z m -5.663989,3.494238 5.19281,-1.323696 -1.729599,19.245454 -3.463211,-17.921758 z m 7.117719,-0.565605 17.956839,16.168633 -20.119205,7.898185 2.162366,-24.066818 z M 71.759407,79.34628 74.350988,94.763311 52.272143,86.99567 71.759407,79.34628 z M 73.70843,78.952573 92.94789,78.706229 76.283723,94.272721 73.70843,78.952573 z"
   id="path3-0"
   inkscape:connector-curvature="0" /></svg>