<?xml version="1.0" encoding="UTF-8" standalone="no"?>
<svg
   xmlns:dc="http://purl.org/dc/elements/1.1/"
   xmlns:cc="http://creativecommons.org/ns#"
   xmlns:rdf="http://www.w3.org/1999/02/22-rdf-syntax-ns#"
   xmlns:svg="http://www.w3.org/2000/svg"
   xmlns="http://www.w3.org/2000/svg"
   xmlns:sodipodi="http://sodipodi.sourceforge.net/DTD/sodipodi-0.dtd"
   xmlns:inkscape="http://www.inkscape.org/namespaces/inkscape"
   version="1.1"
   x="0px"
   y="0px"
   width="100"
   height="100"
   viewBox="0 0 100 100"
   enable-background="new 0 0 100 100"
   xml:space="preserve"
   id="svg2"
   inkscape:version="0.91 r13725"
   sodipodi:docname="Icon-Slashing.svg"><metadata
     id="metadata172"><rdf:RDF><cc:Work
         rdf:about=""><dc:format>image/svg+xml</dc:format><dc:type
           rdf:resource="http://purl.org/dc/dcmitype/StillImage" /></cc:Work></rdf:RDF></metadata><defs
     id="defs170" /><sodipodi:namedview
     pagecolor="#ffffff"
     bordercolor="#666666"
     borderopacity="1"
     objecttolerance="10"
     gridtolerance="10"
     guidetolerance="10"
     inkscape:pageopacity="0"
     inkscape:pageshadow="2"
     inkscape:window-width="1920"
     inkscape:window-height="1057"
     id="namedview168"
     showgrid="false"
     inkscape:snap-bbox="true"
     inkscape:bbox-paths="true"
     inkscape:bbox-nodes="true"
     inkscape:snap-bbox-edge-midpoints="true"
     inkscape:snap-bbox-midpoints="true"
     inkscape:object-paths="true"
     inkscape:snap-intersection-paths="true"
     inkscape:object-nodes="true"
     inkscape:snap-smooth-nodes="true"
     inkscape:snap-midpoints="true"
     inkscape:snap-page="true"
     inkscape:snap-center="true"
     inkscape:snap-object-midpoints="true"
     fit-margin-top="0"
     fit-margin-left="0"
     fit-margin-right="0"
     fit-margin-bottom="0"
     inkscape:zoom="4"
     inkscape:cx="-10.808231"
     inkscape:cy="53.403116"
     inkscape:window-x="-8"
     inkscape:window-y="-8"
     inkscape:window-maximized="1"
     inkscape:current-layer="svg2"
     inkscape:snap-global="false" /><path
     inkscape:connector-curvature="0"
     id="path166"
     d="m 50.85701,39.084354 c -10.058657,10.057153 0,0 -10.058657,10.057153 L 24.99999,64.940024 16.9943,56.934751 8.1072325,57.237648 20.405488,69.534286 22.952887,72.080574 8.6622471,86.371445 c -1.7549398,-0.243294 -3.5968439,0.284333 -4.9472483,1.635644 -2.2865023,2.285406 -2.2865023,5.99052 -9.777e-4,8.275926 2.2874801,2.289313 5.9918093,2.289313 8.2792889,0 1.350404,-1.34838 1.880013,-3.192144 1.63475,-4.946014 l 14.29064,-14.289894 2.545444,2.545311 12.30021,12.300544 0.301937,-8.889535 -8.00569,-8.006249 15.797386,-15.794608 c 10.057679,-10.061063 0,0 10.057679,-10.061063 L 97.253466,12.807557 98,2.0009766 56.219541,44.445627 55.553134,43.778278 97.99902,2 87.192854,2.7494252 Z M 56.219541,44.445627 30.56479,70.503556 29.491893,69.430715 55.553134,43.778278 Z"
     sodipodi:nodetypes="ccccccccccccccccccccccccccccccc" /></svg>