<?xml version="1.0" encoding="UTF-8" standalone="no"?>
<!-- Generator: Adobe Illustrator 16.2.1, SVG Export Plug-In . SVG Version: 6.00 Build 0)  -->

<svg
   xmlns:dc="http://purl.org/dc/elements/1.1/"
   xmlns:cc="http://creativecommons.org/ns#"
   xmlns:rdf="http://www.w3.org/1999/02/22-rdf-syntax-ns#"
   xmlns:svg="http://www.w3.org/2000/svg"
   xmlns="http://www.w3.org/2000/svg"
   xmlns:sodipodi="http://sodipodi.sourceforge.net/DTD/sodipodi-0.dtd"
   xmlns:inkscape="http://www.inkscape.org/namespaces/inkscape"
   version="1.1"
   id="Layer_1"
   x="0px"
   y="0px"
   width="100"
   height="100"
   viewBox="0 0 100 100"
   enable-background="new 0 0 512 512"
   xml:space="preserve"
   inkscape:version="0.91 r13725"
   sodipodi:docname="icon-bug.svg"><metadata
     id="metadata15"><rdf:RDF><cc:Work
         rdf:about=""><dc:format>image/svg+xml</dc:format><dc:type
           rdf:resource="http://purl.org/dc/dcmitype/StillImage" /><dc:title></dc:title></cc:Work></rdf:RDF></metadata><defs
     id="defs13" /><sodipodi:namedview
     pagecolor="#ffffff"
     bordercolor="#666666"
     borderopacity="1"
     objecttolerance="10"
     gridtolerance="10"
     guidetolerance="10"
     inkscape:pageopacity="0"
     inkscape:pageshadow="2"
     inkscape:window-width="1330"
     inkscape:window-height="615"
     id="namedview11"
     showgrid="false"
     inkscape:zoom="0.4609375"
     inkscape:cx="-11.932203"
     inkscape:cy="219.23363"
     inkscape:window-x="0"
     inkscape:window-y="0"
     inkscape:window-maximized="0"
     inkscape:current-layer="Layer_1" /><g
     id="g3"
     transform="matrix(0.21428476,0,0,0.21428476,-4.8573271,-4.8568986)"><path
       d="M 374.64,127.327 C 345.365,88.512 303.062,64 256,64 c -47.062,0 -89.365,24.512 -118.64,63.327 6.354,15.64 15.833,30 28.13,42.297 24.176,24.176 56.319,37.49 90.51,37.49 34.191,0 66.334,-13.314 90.51,-37.49 12.297,-12.297 21.776,-26.658 28.13,-42.297 z"
       id="path5"
       inkscape:connector-curvature="0" /><path
       d="m 126.836,142.824 c -1.725,2.827 -3.396,5.703 -4.992,8.644 -2.926,-1.84 -5.319,-3.74 -7.745,-5.773 -1.171,-0.981 -2.954,-3.949 -4.546,-7.35 5.41,-11.314 1.181,-25.037 -9.914,-31.261 -11.561,-6.484 -26.188,-2.372 -32.674,9.189 -6.485,11.56 -2.371,26.188 9.187,32.673 1.251,0.702 2.539,1.272 3.847,1.729 2.816,6.269 7.32,14.331 13.548,19.547 4.184,3.507 8.792,7.117 15.204,10.674 -7.195,20.259 -11.576,42.303 -12.545,65.427 -11.026,0.207 -18.619,2.1 -25.474,4.122 -4.16,1.227 -8.192,3.395 -11.823,5.852 -0.954,-0.115 -1.923,-0.182 -2.908,-0.182 -13.255,0 -24,10.745 -24,24 0,13.255 10.745,24 24,24 12.93,0 23.467,-10.227 23.976,-23.032 5.046,-1.482 9.888,-2.659 17.095,-2.774 3.167,33.015 13.304,63.483 28.613,89.224 -14.166,11.006 -22.882,23.016 -26.605,36.317 0,0 -0.75,0.438 -1.873,1.366 -0.982,0.794 -1.932,1.65 -2.804,2.619 -8.865,9.855 -8.062,25.031 1.793,33.895 9.854,8.865 25.028,8.062 33.893,-1.793 8.087,-8.988 8.095,-22.381 0.558,-31.395 3.074,-5.562 6.236,-9.014 13.67,-14.961 C 171.368,425.235 207.723,445.619 248,448 l 0,-225.128 c -53.236,-2.918 -98.771,-34.734 -121.164,-80.048 z"
       id="path7"
       inkscape:connector-curvature="0" /><path
       d="m 456,256.114 c -0.985,0 -1.954,0.066 -2.908,0.182 -3.631,-2.457 -7.663,-4.625 -11.823,-5.852 -6.854,-2.021 -14.447,-3.915 -25.474,-4.122 -0.969,-23.125 -5.35,-45.168 -12.545,-65.427 6.412,-3.557 11.021,-7.167 15.204,-10.674 6.228,-5.216 10.731,-13.278 13.548,-19.547 1.308,-0.458 2.596,-1.028 3.847,-1.729 11.558,-6.485 15.672,-21.114 9.187,-32.673 -6.485,-11.561 -21.113,-15.673 -32.674,-9.189 -11.095,6.225 -15.324,19.947 -9.914,31.261 -1.592,3.401 -3.375,6.369 -4.546,7.35 -2.426,2.033 -4.819,3.933 -7.745,5.773 -1.596,-2.941 -3.268,-5.817 -4.992,-8.644 -22.393,45.314 -67.928,77.13 -121.164,80.048 l 0,225.129 c 40.277,-2.381 76.632,-22.765 103.686,-54.42 7.434,5.947 10.596,9.399 13.67,14.961 -7.537,9.014 -7.529,22.406 0.558,31.395 8.864,9.855 24.038,10.658 33.893,1.793 9.854,-8.863 10.658,-24.039 1.793,-33.895 -0.872,-0.969 -1.821,-1.825 -2.804,-2.619 -1.123,-0.929 -1.873,-1.366 -1.873,-1.366 -3.724,-13.302 -12.439,-25.312 -26.605,-36.317 15.31,-25.74 25.446,-56.209 28.613,-89.224 7.207,0.115 12.049,1.292 17.095,2.774 0.509,12.806 11.046,23.032 23.976,23.032 13.255,0 24,-10.745 24,-24 0,-13.255 -10.748,-24 -24.003,-24 z"
       id="path9"
       inkscape:connector-curvature="0" /></g></svg>