<?xml version="1.0" encoding="UTF-8" standalone="no"?>
<svg
   xmlns:dc="http://purl.org/dc/elements/1.1/"
   xmlns:cc="http://creativecommons.org/ns#"
   xmlns:rdf="http://www.w3.org/1999/02/22-rdf-syntax-ns#"
   xmlns:svg="http://www.w3.org/2000/svg"
   xmlns="http://www.w3.org/2000/svg"
   xmlns:sodipodi="http://sodipodi.sourceforge.net/DTD/sodipodi-0.dtd"
   xmlns:inkscape="http://www.inkscape.org/namespaces/inkscape"
   version="1.1"
   id="Layer_1"
   x="0px"
   y="0px"
   width="100"
   height="100"
   viewBox="4.5 -9 100 135"
   enable-background="new 0 0 90 90"
   xml:space="preserve"
   inkscape:version="0.91 r13725"
   sodipodi:docname="Icon-Natural.svg"><metadata
     id="metadata33"><rdf:RDF><cc:Work
         rdf:about=""><dc:format>image/svg+xml</dc:format><dc:type
           rdf:resource="http://purl.org/dc/dcmitype/StillImage" /></cc:Work></rdf:RDF></metadata><defs
     id="defs31" /><sodipodi:namedview
     pagecolor="#ffffff"
     bordercolor="#666666"
     borderopacity="1"
     objecttolerance="10"
     gridtolerance="10"
     guidetolerance="10"
     inkscape:pageopacity="0"
     inkscape:pageshadow="2"
     inkscape:window-width="1092"
     inkscape:window-height="687"
     id="namedview29"
     showgrid="false"
     fit-margin-top="0"
     fit-margin-left="0"
     fit-margin-right="0"
     fit-margin-bottom="0"
     inkscape:zoom="2.6222222"
     inkscape:cx="69.583234"
     inkscape:cy="39.520018"
     inkscape:window-x="78"
     inkscape:window-y="78"
     inkscape:window-maximized="0"
     inkscape:current-layer="Layer_1" /><g
     id="g3010"
     transform="matrix(1.0703223,1.0338854,-0.97506569,1.1348883,58.530354,-43.258021)"><path
       id="path3"
       d="m 9.537,41.453 c 0,0 3.502,2.714 6.955,-1.45 L 16.78,24.3 c 0,0 -1.718,-4.584 -4.467,2.144 0,0 -2.667,10.384 -2.776,15.009 z"
       inkscape:connector-curvature="0" /><path
       id="path5"
       d="m 23.807,25.023 c 0,0 3.501,2.715 6.955,-1.449 0,0 -0.062,-11.329 0.287,-15.704 0.098,-1.236 -1.717,-4.584 -4.466,2.145 0,0 -2.666,10.383 -2.776,15.008 z"
       inkscape:connector-curvature="0" /><path
       id="path7"
       d="m 67.735,25.162 c 0,0 -3.246,3.02 -7.059,-0.816 0,0 -0.964,-11.289 -1.706,-15.612 -0.208,-1.22 1.296,-4.721 4.644,1.732 0,-10e-4 3.591,10.098 4.121,14.696 z"
       inkscape:connector-curvature="0" /><path
       id="path9"
       d="m 80.646,39.41 c 0,0 -3.493,2.721 -6.956,-1.436 0,0 0.038,-11.331 -0.32,-15.702 -0.1,-1.236 1.711,-4.587 4.476,2.135 0,0 2.684,10.377 2.8,15.003 z"
       inkscape:connector-curvature="0" /><path
       id="path11"
       d="m 40.277,17.923 c 0,0 5.564,3.528 9.133,-0.208 L 48.071,6.134 c 0,0 -2.791,-10.367 -5.792,0.669 -0.74,2.726 -2.002,11.12 -2.002,11.12 z"
       inkscape:connector-curvature="0" /><path
       id="path13"
       d="M 67.921,84.823 C 60.316,93.213 43.651,83.704 43.651,83.704 36.992,80.148 29.187,88.601 19.975,87.44 4.735,85.513 11.994,71.86 15.71,69.326 c 4.605,-3.141 12.1,-7.4 13.739,-11.582 2.318,-5.915 15.864,-22.85 27.782,-2.473 1.659,2.839 3.61,9.124 8.716,9.84 0,0 16.267,3.945 1.974,19.712 z"
       inkscape:connector-curvature="0" /><path
       id="path15"
       d="m 21.217,52.397 c 0.807,5.104 -1.642,9.73 -5.469,10.339 -3.827,0.601 -7.585,-3.043 -8.391,-8.146 -0.807,-5.104 1.642,-9.731 5.469,-10.336 3.828,-0.605 7.584,3.043 8.391,8.143 z"
       inkscape:connector-curvature="0" /><ellipse
       id="ellipse17"
       ry="10.43"
       rx="7.4990001"
       cy="38.015999"
       cx="27.43"
       transform="matrix(0.9864,-0.1642,0.1642,0.9864,-5.869,5.0191)" /><path
       id="path19"
       d="m 69.583,39.089 c -0.43,5.744 -4.127,10.151 -8.258,9.844 -4.131,-0.309 -7.13,-5.216 -6.704,-10.962 0.432,-5.743 4.124,-10.15 8.258,-9.842 4.128,0.31 7.129,5.216 6.704,10.96 z"
       inkscape:connector-curvature="0" /><path
       id="path21"
       d="m 83.152,53.979 c -1.487,5.563 -5.939,9.208 -9.939,8.14 -4.004,-1.07 -6.04,-6.451 -4.553,-12.015 1.488,-5.564 5.939,-9.209 9.942,-8.139 4.002,1.071 6.039,6.449 4.55,12.014 z"
       inkscape:connector-curvature="0" /><path
       id="path23"
       d="m 52.658,31.476 c 0.264,5.754 -3.019,10.58 -7.338,10.779 -4.314,0.199 -8.028,-4.307 -8.292,-10.061 -0.265,-5.754 3.02,-10.579 7.339,-10.778 4.316,-0.198 8.027,4.307 8.291,10.06 z"
       inkscape:connector-curvature="0" /></g></svg>