<?xml version="1.0" encoding="UTF-8" standalone="no"?>
<svg
   xmlns:dc="http://purl.org/dc/elements/1.1/"
   xmlns:cc="http://creativecommons.org/ns#"
   xmlns:rdf="http://www.w3.org/1999/02/22-rdf-syntax-ns#"
   xmlns:svg="http://www.w3.org/2000/svg"
   xmlns="http://www.w3.org/2000/svg"
   xmlns:sodipodi="http://sodipodi.sourceforge.net/DTD/sodipodi-0.dtd"
   xmlns:inkscape="http://www.inkscape.org/namespaces/inkscape"
   version="1.1"
   id="Your_Icon"
   x="0px"
   y="0px"
   width="100"
   height="100"
   viewBox="0 0 100 100"
   enable-background="new 0 0 100 100"
   xml:space="preserve"
   inkscape:version="0.91 r13725"
   sodipodi:docname="icon-d20s.svg"><metadata
     id="metadata9"><rdf:RDF><cc:Work
         rdf:about=""><dc:format>image/svg+xml</dc:format><dc:type
           rdf:resource="http://purl.org/dc/dcmitype/StillImage" /><dc:title></dc:title></cc:Work></rdf:RDF></metadata><defs
     id="defs7" /><sodipodi:namedview
     pagecolor="#ffffff"
     bordercolor="#666666"
     borderopacity="1"
     objecttolerance="10"
     gridtolerance="10"
     guidetolerance="10"
     inkscape:pageopacity="0"
     inkscape:pageshadow="2"
     inkscape:window-width="1440"
     inkscape:window-height="837"
     id="namedview5"
     showgrid="false"
     inkscape:zoom="3.44361"
     inkscape:cx="50"
     inkscape:cy="49.637972"
     inkscape:window-x="-8"
     inkscape:window-y="-8"
     inkscape:window-maximized="1"
     inkscape:current-layer="Your_Icon"
     showguides="true"
     inkscape:snap-bbox="true"
     inkscape:bbox-paths="true"
     inkscape:bbox-nodes="true"
     inkscape:snap-bbox-edge-midpoints="true"
     inkscape:snap-bbox-midpoints="true"
     inkscape:object-paths="true"
     inkscape:snap-intersection-paths="true"
     inkscape:object-nodes="true"
     inkscape:snap-smooth-nodes="true"
     inkscape:snap-midpoints="true"
     inkscape:snap-object-midpoints="true"
     inkscape:snap-center="true"
     inkscape:snap-page="true"
     inkscape:snap-global="false"
     inkscape:guide-bbox="true"><inkscape:grid
       type="xygrid"
       id="grid2988"
       empspacing="5"
       visible="true"
       enabled="true"
       snapvisiblegridlinesonly="true" /></sodipodi:namedview><path
     style="fill:#ffffff;fill-opacity:1;stroke:#ffffff;stroke-width:0.93635947;stroke-linecap:round;stroke-linejoin:round;stroke-miterlimit:4;stroke-dasharray:none;stroke-opacity:1"
     d="M 17.369798,47.783958 C 13.867604,41.06969 11.032627,35.545744 11.069856,35.508515 c 0.03725,-0.03725 3.495226,0.491185 7.684425,1.174254 4.189201,0.683078 10.29479,1.677715 13.567978,2.210303 3.273187,0.532598 5.934287,1.009296 5.91356,1.059321 -0.102191,0.24673 -14.329285,20.030102 -14.407583,20.034365 -0.04992,0.0029 -2.956242,-5.488541 -6.458438,-12.2028 z"
     id="path4610"
     inkscape:connector-curvature="0" /><path
     style="fill:#ffffff;fill-opacity:1;stroke:#ffffff;stroke-width:0.93635947;stroke-linecap:round;stroke-linejoin:round;stroke-miterlimit:4;stroke-dasharray:none;stroke-opacity:1"
     d="m 37.549093,37.688656 c -5.047939,-0.797126 -26.189432,-4.27222 -26.229109,-4.311359 -0.02794,-0.02755 0.03696,-0.171686 0.14423,-0.320314 0.406225,-0.562906 20.773517,-22.393055 20.89249,-22.393055 0.06864,0 0.159004,0.113577 0.200822,0.252403 0.236476,0.785012 6.156604,26.752338 6.118819,26.838882 -0.02506,0.05731 -0.532292,0.02736 -1.127252,-0.06653 z"
     id="path4612"
     inkscape:connector-curvature="0" /><path
     style="fill:#ffffff;fill-opacity:1;stroke:#ffffff;stroke-width:0.93635947;stroke-linecap:round;stroke-linejoin:round;stroke-miterlimit:4;stroke-dasharray:none;stroke-opacity:1"
     d="M 9.9925445,31.253229 C 9.9679685,31.142292 9.1633157,10.012597 9.1832549,10.001441 9.2644709,9.9560332 30.414297,9.3946156 30.45646,9.4367788 30.5323,9.5126188 10.270521,31.289287 10.124112,31.289287 c -0.06797,0 -0.1271708,-0.01623 -0.1315675,-0.03609 z"
     id="path4614"
     inkscape:connector-curvature="0" /><path
     style="fill:#ffffff;fill-opacity:1;stroke:#ffffff;stroke-width:0.93635947;stroke-linecap:round;stroke-linejoin:round;stroke-miterlimit:4;stroke-dasharray:none;stroke-opacity:1"
     d="m 4.6047559,36.661974 c 0.042816,-0.21815 0.6463584,-3.865247 1.341168,-8.104646 0.780768,-4.763855 1.3281023,-7.729602 1.4329728,-7.764556 0.093312,-0.03111 0.1706303,-2.858294 0.1718015,-2.712854 9.6e-4,0.14544 0.097354,5.521728 0.2137152,8.377555 0.1163712,2.855817 0.2127744,5.648274 0.214224,6.205459 l 0.00288,1.013068 -1.5984191,1.691299 c -0.8791392,0.930231 -1.6563744,1.691319 -1.7271935,1.691319 -0.070848,0 -0.093696,-0.178492 -0.05088,-0.396644 z"
     id="path4616"
     inkscape:connector-curvature="0"
     sodipodi:nodetypes="ssccsscsss" /><path
     style="fill:#ffffff;fill-opacity:1;stroke:#ffffff;stroke-width:0.93635947;stroke-linecap:round;stroke-linejoin:round;stroke-miterlimit:4;stroke-dasharray:none;stroke-opacity:1"
     d="M 11.549194,47.840051 4.06106,40.123572 6.5755974,38.107043 c 1.3309536,-1.067366 2.2361183,-2.149372 2.2924799,-2.091379 0.1167841,0.120145 11.2648407,20.776175 11.2648407,20.879654 0,0.03715 -1.241711,-1.519075 -1.305024,-1.519075 -0.06326,0 -3.338716,-3.391286 -7.2787,-7.536192 z"
     id="path4618"
     inkscape:connector-curvature="0"
     sodipodi:nodetypes="scsssss" /><path
     style="fill:#ffffff;fill-opacity:1;stroke:#ffffff;stroke-width:0.93635947;stroke-linecap:round;stroke-linejoin:round;stroke-miterlimit:4;stroke-dasharray:none;stroke-opacity:1"
     d="m 26.346777,60.219212 c 0.05386,-0.1404 3.191078,-4.569687 6.971558,-9.84286 l 6.8736,-9.587597 0.395155,0.406608 c 2.016029,2.074455 11.795951,12.959855 11.71151,13.035341 -0.06038,0.05395 -5.853916,1.446086 -12.874473,3.093523 -7.020557,1.647436 -12.857049,3.030201 -12.969984,3.072796 -0.148166,0.05588 -0.178061,0.0067 -0.107366,-0.177811 z"
     id="path4620"
     inkscape:connector-curvature="0" /><path
     style="fill:#ffffff;fill-opacity:1;stroke:#ffffff;stroke-width:0.93635947;stroke-linecap:round;stroke-linejoin:round;stroke-miterlimit:4;stroke-dasharray:none;stroke-opacity:1"
     d="m 47.757694,45.983862 c -3.274549,-3.579235 -5.969212,-6.548639 -5.988133,-6.598675 -0.03975,-0.104957 18.598799,-12.296341 18.67795,-12.21718 0.04071,0.04071 -6.070646,23.984869 -6.398975,25.071157 -0.04195,0.138826 -0.134976,0.252414 -0.206707,0.252414 -0.07171,0 -2.809594,-2.928471 -6.084135,-6.507716 z"
     id="path4622"
     inkscape:connector-curvature="0" /><path
     style="fill:#ffffff;fill-opacity:1;stroke:#ffffff;stroke-width:0.93635947;stroke-linecap:round;stroke-linejoin:round;stroke-miterlimit:4;stroke-dasharray:none;stroke-opacity:1"
     d="M 40.369544,35.724458 C 37.002815,21.146964 34.552838,10.440978 34.57773,10.415201 c 0.01719,-0.01786 5.78256,3.194986 12.811949,7.139549 7.029388,3.944553 13.31662,7.216694 13.263541,7.271414 -0.190819,0.196714 -19.684137,12.520915 -19.795228,12.520915 -0.0625,0 -0.282335,-0.730176 -0.488448,-1.622621 z"
     id="path4624"
     inkscape:connector-curvature="0"
     sodipodi:nodetypes="scscss" /><path
     style="fill:#ffffff;fill-opacity:1;stroke:#ffffff;stroke-width:0.93635947;stroke-linecap:round;stroke-linejoin:round;stroke-miterlimit:4;stroke-dasharray:none;stroke-opacity:1"
     d="M 45.637822,14.226718 C 39.972268,11.037598 35.313484,8.3578445 35.284972,8.2717228 35.233323,8.1157805 40.871702,4.4421006 41.215314,4.4077999 41.378629,4.3914798 56.017611,19.606299 56.13115,19.91034 c 0.0264,0.07084 1.941129,1.387651 1.875034,1.383811 -0.06615,-0.0038 -6.702807,-3.878303 -12.368362,-7.067433 z"
     id="path4626"
     inkscape:connector-curvature="0"
     sodipodi:nodetypes="scsscs" /><path
     style="fill:#ffffff;fill-opacity:1;stroke:#ffffff;stroke-width:0.93635947;stroke-linecap:round;stroke-linejoin:round;stroke-miterlimit:4;stroke-dasharray:none;stroke-opacity:1"
     d="M 19.257754,7.9888493 C 19.302009,7.8560429 25.896768,6.8140589 29.842012,6.0925998 33.009973,5.5132782 37.273055,4.4424271 37.420454,4.4621263 37.590057,4.4847823 35.499062,5.5171278 34.398,6.217131 l -1.739953,1.1061983 -4.352611,0.1051776 c -3.615379,0.08736 -9.101366,0.7214016 -9.047682,0.5603424 z"
     id="path4628"
     inkscape:connector-curvature="0"
     sodipodi:nodetypes="cssscsc" /><path
     id="path4241"
     style="fill:none;fill-opacity:0.78698222;fill-rule:evenodd;stroke:#000000;stroke-width:1.87271893;stroke-linecap:round;stroke-linejoin:round;stroke-miterlimit:4;stroke-dasharray:none;stroke-opacity:1"
     d="M 9.0634085,34.080285 23.663068,62.073 M 54.440657,54.827775 40.108665,39.137047 M 23.663068,62.073 40.108665,39.137047 M 9.0634085,34.080285 40.108665,39.137047 m 0,0 22.088927,-14.434262 M 33.0127,8.3062541 40.108665,39.137047 M 62.197592,24.702785 33.0127,8.3062541 M 9.0634085,34.080285 33.0127,8.3062541 M 41.451244,2.9460367 33.0127,8.3062541 m 0,0 L 8.115783,9.0281933 M 9.0634085,34.080285 8.115783,9.0281933 M 2.9839016,40.326554 9.0634085,34.080285 M 8.115783,9.0281933 2.9839016,40.326554 M 41.451244,2.9460367 8.115783,9.0281933 M 62.197592,24.702785 41.451244,2.9460367 M 54.440657,54.827775 62.197592,24.702785 M 23.663068,62.073 54.440657,54.827775 M 2.9839016,40.326554 23.663068,62.073"
     inkscape:connector-curvature="0"
     sodipodi:nodetypes="cccccccccccccccccccccccccccccccccccc" /><g
     id="g4631"
     transform="translate(0,-476)" /><path
     inkscape:connector-curvature="0"
     id="path4580"
     d="m 46.045564,67.814905 c 0.06864,-0.278189 12.230744,-25.343327 12.324546,-25.399986 0.06432,-0.03888 0.588538,0.559084 1.164854,1.328793 6.710582,8.962435 12.16703,16.343932 12.178367,16.474914 0.01229,0.141831 -25.319403,7.765008 -25.585054,7.699431 -0.05607,-0.01383 -0.09332,-0.06029 -0.08275,-0.103152 z"
     style="fill:#ffffff;fill-opacity:1;stroke:#ffffff;stroke-width:0.91597909;stroke-linecap:round;stroke-linejoin:round;stroke-miterlimit:4;stroke-dasharray:none;stroke-opacity:1" /><path
     sodipodi:nodetypes="scssss"
     inkscape:connector-curvature="0"
     id="path4590"
     d="m 41.674597,64.874319 c -1.156214,-1.590067 -2.10647,-2.932185 -2.111663,-2.98248 -0.0086,-0.08352 16.110574,-17.991791 16.346053,-18.15454 0.05626,-0.03888 -1.771335,2.42185 -1.748535,2.459587 0.03657,0.06067 -10.254278,21.49032 -10.346869,21.546248 -0.02025,0.01219 -0.982771,-1.278748 -2.138986,-2.868815 z"
     style="fill:#ffffff;fill-opacity:1;stroke:#ffffff;stroke-width:0.91597909;stroke-linecap:round;stroke-linejoin:round;stroke-miterlimit:4;stroke-dasharray:none;stroke-opacity:1" /><path
     inkscape:connector-curvature="0"
     id="path4594"
     d="m 57.975415,79.913976 c -6.480211,-5.309731 -11.77844,-9.698371 -11.773832,-9.752544 0.0096,-0.110851 26.223943,-7.916169 26.27925,-7.824595 0.03907,0.0647 -2.645261,27.189705 -2.69329,27.21526 -0.01652,0.0086 -5.331916,-4.328399 -11.812128,-9.638121 z"
     style="fill:#ffffff;fill-opacity:1;stroke:#ffffff;stroke-width:0.91597909;stroke-linecap:round;stroke-linejoin:round;stroke-miterlimit:4;stroke-dasharray:none;stroke-opacity:1" /><path
     sodipodi:nodetypes="ssscsss"
     inkscape:connector-curvature="0"
     id="path4596"
     d="m 42.080361,73.290917 c -0.882001,-3.559498 -1.746212,-6.838972 -1.712199,-6.859526 0.03398,-0.02054 0.777283,1.061136 1.443399,1.975517 l 1.211126,1.662499 0.426086,4.638998 c 0.469729,5.114064 0.910944,7.07085 0.773232,7.036857 -0.05319,-0.01315 -1.259636,-4.894858 -2.141644,-8.454345 z"
     style="fill:#ffffff;fill-opacity:1;stroke:#ffffff;stroke-width:0.91597909;stroke-linecap:round;stroke-linejoin:round;stroke-miterlimit:4;stroke-dasharray:none;stroke-opacity:1" /><path
     sodipodi:nodetypes="cscsssc"
     inkscape:connector-curvature="0"
     id="path4600"
     d="m 57.139208,93.95339 c 0.03811,-0.06019 3.006201,-0.406973 6.595804,-0.770515 l 6.52657,-0.660999 1.856909,1.592707 c 1.427807,1.224662 1.81028,1.599235 1.655116,1.620951 -0.163488,0.02285 -18.889679,-1.74984 -19.155215,-1.815389 -0.04263,-0.01056 2.482732,0.09351 2.520816,0.03321 z"
     style="fill:#ffffff;fill-opacity:1;stroke:#ffffff;stroke-width:0.91597909;stroke-linecap:round;stroke-linejoin:round;stroke-miterlimit:4;stroke-dasharray:none;stroke-opacity:1" /><path
     sodipodi:nodetypes="ssscs"
     inkscape:connector-curvature="0"
     id="path4602"
     d="m 74.620606,93.700776 c -1.245773,-1.078081 -2.25865,-1.98601 -2.250845,-2.017623 0.02909,-0.117725 20.186293,-12.484281 20.230722,-12.410726 0.05002,0.08284 -15.554476,16.435123 -15.654354,16.406073 -0.03331,-0.0096 -1.079751,-0.899645 -2.325523,-1.977724 z"
     style="fill:#ffffff;fill-opacity:1;stroke:#ffffff;stroke-width:0.91597909;stroke-linecap:round;stroke-linejoin:round;stroke-miterlimit:4;stroke-dasharray:none;stroke-opacity:1" /><path
     inkscape:connector-curvature="0"
     id="path4604"
     d="m 71.773534,89.497281 c 0.0067,-0.04061 0.608649,-6.100339 1.336885,-13.465986 0.728238,-7.365639 1.339018,-13.403971 1.357287,-13.418515 0.01823,-0.0145 3.991027,2.454403 8.828342,5.486543 4.837315,3.032151 9.492528,5.94721 10.344921,6.477907 l 1.549805,0.964925 -11.642188,7.032499 c -6.40321,3.867869 -11.674973,7.024406 -11.715034,7.014519 -0.04003,-0.0099 -0.06711,-0.05126 -0.06,-0.09187 z"
     style="fill:#ffffff;fill-opacity:1;stroke:#ffffff;stroke-width:0.91597909;stroke-linecap:round;stroke-linejoin:round;stroke-miterlimit:4;stroke-dasharray:none;stroke-opacity:1" /><path
     inkscape:connector-curvature="0"
     id="path4606"
     d="m 85.213514,67.004338 c -5.471376,-3.433546 -9.958829,-6.262425 -9.972125,-6.286377 -0.04733,-0.08515 12.292012,-12.778147 12.372585,-12.727209 0.06547,0.04138 7.329993,23.878078 7.618464,24.997977 0.04272,0.165973 0.04425,0.292031 0.0029,0.280118 -0.0409,-0.012 -4.550937,-2.830944 -10.022304,-6.264509 z"
     style="fill:#ffffff;fill-opacity:1;stroke:#ffffff;stroke-width:0.91597909;stroke-linecap:round;stroke-linejoin:round;stroke-miterlimit:4;stroke-dasharray:none;stroke-opacity:1" /><path
     inkscape:connector-curvature="0"
     id="path4608"
     d="m 67.152305,50.581177 c -3.56592,-4.788979 -6.483898,-8.753567 -6.484377,-8.810207 -4.13e-4,-0.06451 1.218297,0.131376 3.262608,0.524343 1.794921,0.345023 7.497589,1.439788 12.672594,2.432812 5.175014,0.993023 9.422092,1.826985 9.437962,1.85326 0.04425,0.07325 -12.190896,12.709037 -12.305069,12.707962 -0.05511,-4.14e-4 -3.017789,-3.9192 -6.583718,-8.70817 z"
     style="fill:#ffffff;fill-opacity:1;stroke:#ffffff;stroke-width:0.91597909;stroke-linecap:round;stroke-linejoin:round;stroke-miterlimit:4;stroke-dasharray:none;stroke-opacity:1" /><path
     inkscape:connector-curvature="0"
     id="path4592"
     d="m 46.117208,82.444056 c -0.521175,-5.70985 -0.9295,-10.39271 -0.907402,-10.406361 0.0289,-0.01786 22.841903,18.619621 22.930934,18.733814 0.02515,0.03225 -20.887372,2.106258 -20.979743,2.080703 -0.0529,-0.01469 -0.522605,-4.698316 -1.043789,-10.408156 z"
     style="fill:#ffffff;fill-opacity:1;stroke:#ffffff;stroke-width:0.91597909;stroke-linecap:round;stroke-linejoin:round;stroke-miterlimit:4;stroke-dasharray:none;stroke-opacity:1" /><path
     sodipodi:nodetypes="cccccccccccccccccccccccccccccccccccc"
     inkscape:connector-curvature="0"
     d="M 70.592916,91.518983 97.034626,75.560875 M 88.087436,45.952528 73.64034,60.900495 M 97.034626,75.560875 73.64034,60.900495 M 70.592916,91.518983 73.64034,60.900495 m 0,0 L 58.20308,40.212803 M 43.970955,69.705183 73.64034,60.900495 M 58.20308,40.212803 43.970955,69.705183 m 26.621961,21.8138 -26.621961,-21.8138 m -5.747029,-7.912598 5.747029,7.912598 m 0,0 2.220307,24.263893 m 24.401654,-2.450093 -24.401654,2.450093 m 30.870172,3.10536 -6.468518,-5.555453 m -24.401654,2.450093 30.870172,3.10536 M 38.223926,61.792585 46.191262,93.969076 M 58.20308,40.212803 38.223926,61.792585 M 88.087436,45.952528 58.20308,40.212803 M 97.034626,75.560875 88.087436,45.952528 M 77.061434,97.074436 97.034636,75.560885"
     style="fill:#ff0000;fill-opacity:0.78698222;fill-rule:evenodd;stroke:#000000;stroke-width:1.83195817;stroke-linecap:round;stroke-linejoin:round;stroke-miterlimit:4;stroke-dasharray:none;stroke-opacity:1"
     id="path4241-1" /><path
     id="path4241-1-1"
     style="fill:#ff0000;fill-opacity:0.78698222;fill-rule:evenodd;stroke:#000000;stroke-width:1.83195817;stroke-linecap:round;stroke-linejoin:round;stroke-miterlimit:4;stroke-dasharray:none;stroke-opacity:1"
     d="M 70.148272,91.409217 96.589983,75.451118 M 87.642793,45.842761 73.195697,60.790728 m 23.394286,14.66039 -23.394286,-14.66039 m -3.047425,30.618489 3.047425,-30.618489 m 0,0 -15.43726,-20.687691 M 43.526312,69.595416 73.195697,60.790728 M 57.758437,40.103037 43.526312,69.595416 m 26.62196,21.813801 -26.62196,-21.813801 m -5.74703,-7.912598 5.74703,7.912598 m 0,0 2.220307,24.263894 M 70.148272,91.409217 45.746619,93.85931 M 76.6168,96.96467 70.148272,91.409217 M 45.746619,93.85931 76.6168,96.96467 M 37.779282,61.682818 45.746619,93.85931 M 57.758437,40.103037 37.779282,61.682818 M 87.642793,45.842761 57.758437,40.103037 M 96.589983,75.451118 87.642793,45.842761 M 76.6168,96.96467 96.589993,75.451118"
     inkscape:connector-curvature="0"
     sodipodi:nodetypes="cccccccccccccccccccccccccccccccccccc" /></svg>