<?xml version="1.0" encoding="UTF-8" standalone="no"?>
<svg
   xmlns:dc="http://purl.org/dc/elements/1.1/"
   xmlns:cc="http://creativecommons.org/ns#"
   xmlns:rdf="http://www.w3.org/1999/02/22-rdf-syntax-ns#"
   xmlns:svg="http://www.w3.org/2000/svg"
   xmlns="http://www.w3.org/2000/svg"
   xmlns:sodipodi="http://sodipodi.sourceforge.net/DTD/sodipodi-0.dtd"
   xmlns:inkscape="http://www.inkscape.org/namespaces/inkscape"
   version="1.1"
   id="Your_Icon"
   x="0px"
   y="0px"
   width="100"
   height="100"
   viewBox="0 0 100 100"
   enable-background="new 0 0 100 100"
   xml:space="preserve"
   inkscape:version="0.48.2 r9819"
   sodipodi:docname="d20.svg"><metadata
   id="metadata9"><rdf:RDF><cc:Work
       rdf:about=""><dc:format>image/svg+xml</dc:format><dc:type
         rdf:resource="http://purl.org/dc/dcmitype/StillImage" /></cc:Work></rdf:RDF></metadata><defs
   id="defs7" /><sodipodi:namedview
   pagecolor="#ffffff"
   bordercolor="#666666"
   borderopacity="1"
   objecttolerance="10"
   gridtolerance="10"
   guidetolerance="10"
   inkscape:pageopacity="0"
   inkscape:pageshadow="2"
   inkscape:window-width="640"
   inkscape:window-height="480"
   id="namedview5"
   showgrid="false"
   inkscape:zoom="2.36"
   inkscape:cx="47.09145"
   inkscape:cy="47.364"
   inkscape:window-x="0"
   inkscape:window-y="0"
   inkscape:window-maximized="0"
   inkscape:current-layer="Your_Icon"
   fit-margin-top="0"
   fit-margin-left="0"
   fit-margin-right="0"
   fit-margin-bottom="0" />
<path
   d="m 80.509255,87.8755 16.592,-41.483 c 0.054,-0.128 0.088,-0.26 0.108,-0.394 0.006,-0.039 0.007,-0.077 0.011,-0.116 0.007,-0.087 0.008,-0.174 0.002,-0.26 -0.003,-0.046 -0.007,-0.091 -0.014,-0.137 -0.014,-0.089 -0.036,-0.176 -0.063,-0.262 -0.012,-0.034 -0.019,-0.069 -0.031,-0.103 -0.047,-0.118 -0.106,-0.229 -0.178,-0.335 -0.004,-0.006 -0.006,-0.012 -0.01,-0.018 l -29.062,-41.5160002 c -0.01,-0.013 -0.003,-0.026 -0.013,-0.04 l 0.014,-0.003 v 0.685 c 0,0 -0.033,0 -0.037,0 -0.403,-1 -1.094,-1.124 -1.752,-0.976 0,0.004 -0.004,-0.012 -0.007,-0.012 -0.003,0.004 -0.01,-0.012 -0.01,-0.012 h -0.004 -0.003 -0.003 -0.004 -0.003 c 0,0 -0.004,0 -0.007,0 -0.003,0 -0.003,-0.151 -0.007,-0.151 L 20.360255,15.1205 c -0.025,0.007 -0.046,-0.019 -0.071,-0.011 -0.087,0.028 -0.172,0.041 -0.253,0.083 -0.054,0.027 -0.102,0.053 -0.152,0.085 -0.051,0.033 -0.101,0.061 -0.147,0.099 -0.044,0.036 -0.084,0.073 -0.124,0.113 -0.048,0.048 -0.093,0.098 -0.136,0.152 -0.03,0.039 -0.059,0.076 -0.085,0.117 -0.046,0.07 -0.084,0.145 -0.12,0.223 -0.011,0.023 -0.027,0.042 -0.036,0.066 l -16.4599995,41.51 c -0.02,0.051 0.089,0.104 0.089,0.156 v 0.002 c 0,0.186 0,0.375 0,0.562 0,0.004 0,0.004 0,0.008 0,0 0,0 0,0.002 0,0 0,0 0,0.004 v 0.004 0.002 c 0,0.074 -0.002,0.15 0.012,0.223 0.003,0.004 -0.012,0.004 -0.012,0.006 0,0.004 0,0.004 0,0.008 0,0 0,0 0,0.002 0,0 0,0 0,0.004 v 0.004 c 0,0 0,0 0,0.002 v 0.004 c 0,0.191 -0.046,0.377 0.06,0.545 0,-0.002 -0.03,0.004 -0.03,0.004 0,0.004 -0.03,0.004 -0.03,0.004 0,0.002 0,0.002 0,0.002 l -0.045,0.004 c 0.03,0.047 0.036,0.09 0.068,0.133 l 29.0489995,37.359 c 0.002,0.004 0,0.006 0.002,0.01 0.002,0.002 0,0.004 0.002,0.008 0.006,0.008 0.014,0.014 0.021,0.021 0.024,0.029 0.052,0.051 0.078,0.078 0.027,0.029 0.053,0.057 0.082,0.082 0.03,0.027 0.055,0.062 0.086,0.088 0.026,0.02 0.057,0.033 0.084,0.053 0.04,0.027 0.081,0.053 0.123,0.076 0.005,0.004 0.01,0.008 0.016,0.01 0.087,0.051 0.176,0.09 0.269,0.123 0.042,0.014 0.082,0.031 0.125,0.043 0.021,0.006 0.041,0.018 0.062,0.021 0.123,0.027 0.249,0.043 0.375,0.043 0.099,0 0.202,-0.012 0.304,-0.027 l 45.669,-8.303 c 0.057,-0.01 0.108,-0.021 0.163,-0.037 0.014,-0.005 0.029,0.003 0.042,0.003 0.004,0 0.004,0 0.004,0 0.021,0 0.039,-0.027 0.06,-0.035 0.041,-0.014 0.08,-0.034 0.12,-0.052 0.021,-0.01 0.044,-0.019 0.064,-0.03 0.017,-0.01 0.026,-0.015 0.033,-0.017 0.014,-0.008 0.023,-0.021 0.037,-0.028 0.14,-0.078 0.269,-0.174 0.38,-0.285 0.014,-0.016 0.024,-0.034 0.038,-0.048 0.109,-0.119 0.201,-0.252 0.271,-0.398 0.006,-0.01 0.016,-0.018 0.021,-0.029 0.004,-0.008 0.008,-0.017 0.011,-0.026 0.002,-0.004 0.003,-0.006 0.005,-0.01 0.008,-0.021 0.016,-0.04 0.025,-0.06 z m -3.033,-3.521 -28.806,-18.008 32.407,-25.202 -3.601,43.21 z m -30.794,-20.752 -10.954,-40.167 43.818,14.608 -32.864,25.559 z m 37.851,-23.167 8.926,5.952 -11.902,29.75 2.976,-35.702 z m 4.46,-1.096 -4.598,-3.066 -6.129,-12.257 10.727,15.323 z m -9.252,-4.801 -42.069,-14.023 28.047,-14.0230002 14.022,28.0460002 z m -46.608,-15.538 -6.485,-2.162 23.781,-6.487 -17.296,8.649 z m -11.348,-0.212 8.67,2.891 -20.232999,26.012 11.562999,-28.903 z m 10.732,5.754 10.845,39.757 -36.1459995,-7.228 25.3009995,-32.529 z m 10.82,43.208 -10.503,24.506 -24.5069995,-31.508 35.0099995,7.002 z m 3.159,1.233 27.826,17.393 -38.263,6.959 10.437,-24.352 z"
   id="path3"
   inkscape:connector-curvature="0" />
</svg>