<?xml version="1.0" encoding="UTF-8" standalone="no"?>
<svg
   xmlns:dc="http://purl.org/dc/elements/1.1/"
   xmlns:cc="http://creativecommons.org/ns#"
   xmlns:rdf="http://www.w3.org/1999/02/22-rdf-syntax-ns#"
   xmlns:svg="http://www.w3.org/2000/svg"
   xmlns="http://www.w3.org/2000/svg"
   xmlns:sodipodi="http://sodipodi.sourceforge.net/DTD/sodipodi-0.dtd"
   xmlns:inkscape="http://www.inkscape.org/namespaces/inkscape"
   version="1.1"
   id="Layer_1"
   x="0px"
   y="0px"
   width="100"
   height="100"
   viewBox="0 0 100 100"
   enable-background="new 0 0 75.142 99.999"
   xml:space="preserve"
   inkscape:version="0.91 r13725"
   sodipodi:docname="Icon-Fire.svg"><metadata
     id="metadata11"><rdf:RDF><cc:Work
         rdf:about=""><dc:format>image/svg+xml</dc:format><dc:type
           rdf:resource="http://purl.org/dc/dcmitype/StillImage" /></cc:Work></rdf:RDF></metadata><defs
     id="defs9" /><sodipodi:namedview
     pagecolor="#ffffff"
     bordercolor="#666666"
     borderopacity="1"
     objecttolerance="10"
     gridtolerance="10"
     guidetolerance="10"
     inkscape:pageopacity="0"
     inkscape:pageshadow="2"
     inkscape:window-width="1658"
     inkscape:window-height="780"
     id="namedview7"
     showgrid="false"
     fit-margin-top="0"
     fit-margin-left="0"
     fit-margin-right="0"
     fit-margin-bottom="0"
     inkscape:zoom="2.3600302"
     inkscape:cx="-67.0895"
     inkscape:cy="62.01488"
     inkscape:window-x="0"
     inkscape:window-y="0"
     inkscape:window-maximized="0"
     inkscape:current-layer="Layer_1" /><g
     id="g2983"
     transform="matrix(0.98001258,0,0,0.96001232,13.180298,1.9987708)"><path
       inkscape:connector-curvature="0"
       id="path3"
       d="m 56.571285,55.699281 c 0,-1.52 6.527,-21.734 -6.182,-27.847 -14.642,-7.043 -18.689,-12.661 -18.568,-21.6630007 -0.009,0.365 -8.855,14.6200007 -3.094,21.6630007 8.942,10.902 5.166,19.343 0,18.566 -8.68,-1.301 -7.632,-12.617 -6.191,-15.472 -4.536,-0.478 -9.782,2.343 -12.378,6.188 -7.8080004,11.598 9.114,22.696 3.097,30.944 -4.5790004,6.285 -12.40400038,-6.09 -12.37800038,-6.188 -9.29000002,48.493999 58.18200038,49.725999 61.88900038,9.284 1.104,-12.128 12.024,-18.725 12.375,-18.569 -11.627,-5.361 -18.57,3.482 -18.57,3.094 z m -21.654,34.045 c -16.223,0.598 -14.557,-11.559 -12.381,-15.473 2.763,-4.984 9.76,-5.969 6.191,-12.381 0.046,0.098 7.589,1.231 12.373,6.188 7.338,7.575 6.503,21.187 -6.183,21.666 z" /><path
       inkscape:connector-curvature="0"
       id="path5"
       d="m 44.196285,15.473281 c -1.894,-2.032 -3.097,-4.472 -3.097,-6.1900007 0,-3.221 2.631,-6.317 6.193,-9.28199994 0.357,2.57899994 -1.543,6.44699994 0,9.28199994 1.197,2.0980007 3.097,4.4720007 3.097,6.1900007 0,2.302 -0.857,4.4 -3.097,6.188 -0.339,-0.861 -0.932,-3.684 -3.096,-6.188 z" /></g></svg>