<?xml version="1.0" encoding="UTF-8" standalone="no"?>
<svg
   xmlns:dc="http://purl.org/dc/elements/1.1/"
   xmlns:cc="http://creativecommons.org/ns#"
   xmlns:rdf="http://www.w3.org/1999/02/22-rdf-syntax-ns#"
   xmlns:svg="http://www.w3.org/2000/svg"
   xmlns="http://www.w3.org/2000/svg"
   xmlns:sodipodi="http://sodipodi.sourceforge.net/DTD/sodipodi-0.dtd"
   xmlns:inkscape="http://www.inkscape.org/namespaces/inkscape"
   version="1.1"
   x="0px"
   y="0px"
   width="56.270985"
   height="99.703003"
   viewBox="0 0 56.270985 99.703003"
   enable-background="new 0 0 100 100"
   xml:space="preserve"
   id="svg2"
   inkscape:version="0.48.2 r9819"
   sodipodi:docname="Lightning.svg"><metadata
   id="metadata18"><rdf:RDF><cc:Work
       rdf:about=""><dc:format>image/svg+xml</dc:format><dc:type
         rdf:resource="http://purl.org/dc/dcmitype/StillImage" /></cc:Work></rdf:RDF></metadata><defs
   id="defs16" /><sodipodi:namedview
   pagecolor="#ffffff"
   bordercolor="#666666"
   borderopacity="1"
   objecttolerance="10"
   gridtolerance="10"
   guidetolerance="10"
   inkscape:pageopacity="0"
   inkscape:pageshadow="2"
   inkscape:window-width="640"
   inkscape:window-height="480"
   id="namedview14"
   showgrid="false"
   fit-margin-top="0"
   fit-margin-left="0"
   fit-margin-right="0"
   fit-margin-bottom="0"
   inkscape:zoom="2.36"
   inkscape:cx="27.590238"
   inkscape:cy="49.703"
   inkscape:window-x="0"
   inkscape:window-y="0"
   inkscape:window-maximized="0"
   inkscape:current-layer="svg2" />
<g
   id="Layer_1"
   display="none"
   style="display:none"
   transform="translate(-22.409762,0)">
	<path
   display="inline"
   d="m 94.52,7.213 c -3.867,-3.869 -8.576,0.838 -8.576,0.838 0,0 -23.538,23.543 -28.245,28.253 -4.707,4.709 -18.14,10.112 -18.14,10.112 l 15.458,15.458 c 0,0 5.699,-13.125 10.412,-17.843 4.701,-4.704 28.241,-28.246 28.241,-28.246 0,0 4.713,-4.708 0.85,-8.572 z"
   id="path5"
   inkscape:connector-curvature="0"
   style="display:inline" />
	<path
   display="inline"
   d="M 21.956,61.873 C 14.809,78.971 15.98,88.717 3.958,91.682 50.312,99.732 50.312,66.58 50.312,66.58 L 34.852,51.115 c 0,0 -9.385,2.364 -12.896,10.758 z m -4.464,24.674 c 3.537,-4.099 9.075,-23.742 16.196,-28.673 5.026,3.353 -0.187,18.99 -16.196,28.673 z"
   id="path7"
   inkscape:connector-curvature="0"
   style="display:inline" />
</g>
<g
   id="Layer_2"
   transform="translate(-22.409762,0)">
	<path
   d="M 75.116,30.644 74.603,30.641 H 52.968 c -4.603,0.302 -1.882,-4.569 -1.882,-4.569 L 63.987,0 41.947,4.569 c 0,0 -17.202,37.091 -19.083,41.123 -1.881,4.032 2.688,4.16 2.688,4.16 h 16.664 c 4.2,0 2.419,3.097 2.419,3.097 l -21.77,46.754 54.517,-64.86 c 3.74,-4.538 -1.733,-4.186 -2.266,-4.199"
   id="path10"
   inkscape:connector-curvature="0"
   style="fill:#000000" />
	<path
   d="M 75.007,30.73"
   id="path12"
   inkscape:connector-curvature="0"
   style="fill:#000000" />
</g>
</svg>