<?xml version="1.0" encoding="UTF-8" standalone="no"?>
<svg
   xmlns:dc="http://purl.org/dc/elements/1.1/"
   xmlns:cc="http://creativecommons.org/ns#"
   xmlns:rdf="http://www.w3.org/1999/02/22-rdf-syntax-ns#"
   xmlns:svg="http://www.w3.org/2000/svg"
   xmlns="http://www.w3.org/2000/svg"
   xmlns:sodipodi="http://sodipodi.sourceforge.net/DTD/sodipodi-0.dtd"
   xmlns:inkscape="http://www.inkscape.org/namespaces/inkscape"
   version="1.1"
   id="Your_Icon"
   x="0px"
   y="0px"
   width="1024"
   height="500"
   viewBox="0 0 1024 500"
   enable-background="new 0 0 100 100"
   xml:space="preserve"
   inkscape:version="0.48.2 r9819"
   sodipodi:docname="CriticalRoll-Function.svg"
   inkscape:export-filename="C:\Users\Ele\workspace\CriticalRoll\resources\svg\CriticalRoll-Function.png"
   inkscape:export-xdpi="90"
   inkscape:export-ydpi="90"><metadata
   id="metadata9"><rdf:RDF><cc:Work
       rdf:about=""><dc:format>image/svg+xml</dc:format><dc:type
         rdf:resource="http://purl.org/dc/dcmitype/StillImage" /><dc:title></dc:title></cc:Work></rdf:RDF></metadata><defs
   id="defs7"><linearGradient
     id="linearGradient4145"><stop
       style="stop-color:#2980b9;stop-opacity:1;"
       offset="0"
       id="stop4147" /><stop
       style="stop-color:#3498db;stop-opacity:1;"
       offset="1"
       id="stop4149" /></linearGradient></defs><sodipodi:namedview
   pagecolor="#ffffff"
   bordercolor="#666666"
   borderopacity="1"
   objecttolerance="10"
   gridtolerance="10"
   guidetolerance="10"
   inkscape:pageopacity="0"
   inkscape:pageshadow="2"
   inkscape:window-width="1920"
   inkscape:window-height="1018"
   id="namedview5"
   showgrid="false"
   inkscape:zoom="0.4395578"
   inkscape:cx="982.83395"
   inkscape:cy="110.26117"
   inkscape:window-x="1912"
   inkscape:window-y="32"
   inkscape:window-maximized="1"
   inkscape:current-layer="Your_Icon"
   showguides="true"
   inkscape:snap-bbox="true"
   inkscape:bbox-paths="true"
   inkscape:bbox-nodes="true"
   inkscape:snap-bbox-edge-midpoints="true"
   inkscape:snap-bbox-midpoints="true"
   inkscape:object-paths="true"
   inkscape:snap-intersection-paths="true"
   inkscape:object-nodes="true"
   inkscape:snap-smooth-nodes="true"
   inkscape:snap-midpoints="true"
   inkscape:snap-object-midpoints="true"
   inkscape:snap-center="true"
   inkscape:snap-page="true"
   inkscape:snap-global="true"
   fit-margin-top="0"
   fit-margin-left="0"
   fit-margin-right="0"
   fit-margin-bottom="0"><inkscape:grid
     type="xygrid"
     id="grid2988"
     empspacing="5"
     visible="true"
     enabled="true"
     snapvisiblegridlinesonly="true" /></sodipodi:namedview>
<rect
   style="fill:#34495e;fill-opacity:1;stroke:none"
   id="rect2986"
   width="1024"
   height="500.00006"
   x="-4.6386103e-007"
   y="-6.1035156e-005" />
<path
   d="m 781.52899,247.91884 41.17504,-102.94507 c 0.13402,-0.31765 0.21839,-0.64522 0.268,-0.97776 0.0149,-0.0968 0.0174,-0.19108 0.0274,-0.28786 0.0174,-0.2159 0.0199,-0.43181 0.005,-0.64521 -0.007,-0.11417 -0.0174,-0.22584 -0.0347,-0.34 -0.0347,-0.22085 -0.0893,-0.43677 -0.15633,-0.65018 -0.0298,-0.0844 -0.0471,-0.17123 -0.077,-0.2556 -0.11665,-0.29284 -0.26306,-0.5683 -0.44174,-0.83136 -0.0102,-0.0148 -0.0148,-0.0298 -0.0248,-0.0447 L 750.14889,37.914185 c -0.0248,-0.0323 -0.007,-0.0645 -0.0323,-0.0993 l 0.0347,-0.007 v 1.69991 c 0,0 -0.0819,0 -0.0918,0 -1.0001,-2.48162 -2.71489,-2.78934 -4.34779,-2.42206 0,0.01 -0.0102,-0.0298 -0.0174,-0.0298 -0.007,0.01 -0.0248,-0.0298 -0.0248,-0.0298 h -0.0102 -0.007 -0.007 -0.0102 -0.007 c 0,0 -0.0102,0 -0.0174,0 -0.007,0 -0.007,-0.37472 -0.0175,-0.37472 l -113.3307,30.71751 c -0.0621,0.0174 -0.11416,-0.0472 -0.1762,-0.0273 -0.21591,0.0695 -0.42684,0.10175 -0.62785,0.20597 -0.13401,0.067 -0.25313,0.13153 -0.37721,0.21094 -0.12655,0.0819 -0.25064,0.15138 -0.36479,0.24568 -0.1092,0.0893 -0.20846,0.18116 -0.30773,0.28043 -0.11912,0.11912 -0.23079,0.2432 -0.33749,0.3772 -0.0744,0.0968 -0.14642,0.18861 -0.21095,0.29035 -0.11415,0.17371 -0.20845,0.35984 -0.29779,0.5534 -0.0273,0.0571 -0.067,0.10423 -0.0893,0.16379 L 588.62517,172.68107 c -0.0496,0.12656 0.22086,0.25809 0.22086,0.38713 v 0.005 c 0,0.46158 0,0.93061 0,1.39466 0,0.0102 0,0.0102 0,0.0199 0,0 0,0 0,0.005 0,0 0,0 0,0.0102 v 0.0102 0.005 c 0,0.18365 -0.005,0.37226 0.0298,0.55341 0.007,0.0102 -0.0298,0.0102 -0.0298,0.0149 0,0.0101 0,0.0101 0,0.0199 0,0 0,0 0,0.005 0,0 0,0 0,0.0102 v 0.0102 c 0,0 0,0 0,0.005 v 0.0102 c 0,0.47398 -0.11415,0.93556 0.1489,1.35247 0,-0.005 -0.0745,0.0102 -0.0745,0.0102 0,0.0102 -0.0744,0.0102 -0.0744,0.0102 0,0.005 0,0.005 0,0.005 l -0.11167,0.0102 c 0.0744,0.11664 0.0893,0.22335 0.16875,0.33005 l 72.08861,92.70835 c 0.005,0.0102 0,0.0148 0.005,0.0248 0.005,0.005 0,0.0102 0.005,0.0199 0.0148,0.0198 0.0347,0.0347 0.0522,0.0522 0.0596,0.072 0.12904,0.12656 0.19356,0.19356 0.067,0.072 0.13153,0.14145 0.20349,0.20351 0.0744,0.067 0.13649,0.15384 0.21343,0.21837 0.0645,0.0496 0.14144,0.0819 0.20845,0.13153 0.0993,0.067 0.20101,0.13153 0.30524,0.18859 0.0123,0.0102 0.0248,0.0199 0.0397,0.0248 0.21591,0.12655 0.43676,0.22334 0.66755,0.30524 0.10423,0.0347 0.2035,0.077 0.3102,0.1067 0.0522,0.0148 0.10174,0.0446 0.15386,0.0522 0.30523,0.067 0.61793,0.10671 0.9306,0.10671 0.24569,0 0.5013,-0.0297 0.75442,-0.067 l 113.33367,-20.60361 c 0.14145,-0.0248 0.26802,-0.0522 0.4045,-0.0918 0.0347,-0.0123 0.072,0.007 0.10424,0.007 0.0101,0 0.0101,0 0.0101,0 0.0522,0 0.0968,-0.067 0.14889,-0.0868 0.10176,-0.0347 0.19853,-0.0844 0.29779,-0.12905 0.0522,-0.0248 0.1092,-0.0471 0.15883,-0.0744 0.0423,-0.0248 0.0645,-0.0372 0.082,-0.0423 0.0347,-0.0199 0.0571,-0.0522 0.0918,-0.0695 0.34743,-0.19356 0.66756,-0.4318 0.94302,-0.70726 0.0347,-0.0397 0.0596,-0.0844 0.0942,-0.11911 0.27051,-0.29532 0.49881,-0.62537 0.67253,-0.98768 0.0148,-0.0248 0.0397,-0.0446 0.0522,-0.072 0.0102,-0.0199 0.0199,-0.0423 0.0273,-0.0645 0.005,-0.0102 0.007,-0.0148 0.0124,-0.0248 0.0199,-0.0522 0.0397,-0.0992 0.062,-0.14889 z m -7.52677,-8.73778 -71.48556,-44.68902 80.42188,-62.54181 -8.93632,107.23083 z m -76.41901,-51.49859 -27.18368,-99.679255 108.73966,36.251515 -81.55598,63.42774 z m 93.93182,-57.49171 22.15093,14.7706 -29.53624,73.82822 7.38531,-88.59882 z m 11.06802,-2.71986 -11.41049,-7.60865 -15.20984,-30.417215 26.62033,38.025865 z M 779.62311,115.55665 675.2238,80.756875 l 69.60201,-34.79976 34.7973,69.599535 z m -115.66338,-38.559425 -16.09331,-5.36526 59.01542,-16.09827 -42.92211,21.46353 z m -28.16143,-0.5261 21.51565,7.17436 -50.21064,64.551915 28.69499,-71.726275 z m 26.63274,14.27925 26.91318,98.661775 -89.70066,-17.93715 62.78748,-80.724625 z m 26.85114,107.225845 -26.06446,60.81459 -60.81708,-78.19089 86.88154,17.3763 z m 7.83943,3.05984 69.05358,43.16283 -94.95424,17.2696 25.90066,-60.43243 z"
   id="path3"
   inkscape:connector-curvature="0"
   style="fill:#000000;fill-opacity:1;stroke:#000000;stroke-width:1.01239586;stroke-opacity:1" /><path
   d="M 981.57276,352.41764 960.52795,243.55909 c -0.059,-0.33967 -0.16527,-0.66083 -0.30339,-0.96738 -0.0398,-0.0895 -0.0887,-0.17013 -0.13269,-0.25691 -0.10214,-0.19101 -0.21685,-0.37393 -0.34472,-0.54544 -0.0677,-0.0922 -0.13678,-0.18054 -0.21308,-0.26719 -0.14866,-0.167 -0.31134,-0.31907 -0.48316,-0.46233 -0.0707,-0.0548 -0.13229,-0.11851 -0.20295,-0.17338 -0.2565,-0.18322 -0.52862,-0.33573 -0.82119,-0.46036 -0.0165,-0.007 -0.0286,-0.017 -0.045,-0.0241 L 841.59723,192.75074 c -0.0384,-0.0138 -0.0408,-0.0504 -0.081,-0.0661 l 0.0254,-0.0248 0.91941,1.42982 c 0,0 -0.069,0.0444 -0.0773,0.0497 -2.1834,-1.54643 -3.79217,-0.87783 -4.96698,0.31426 0.006,0.008 -0.0247,-0.0196 -0.0307,-0.0156 -4.8e-4,0.0123 -0.0371,-0.0117 -0.0371,-0.0117 l -0.008,0.006 -0.006,0.003 -0.006,0.003 -0.008,0.006 -0.006,0.003 c 0,0 -0.008,0.006 -0.0147,0.01 -0.006,0.003 -0.20863,-0.31136 -0.21732,-0.30577 l -78.71095,87.13201 c -0.0428,0.0481 -0.12153,0.0221 -0.16297,0.0722 -0.14405,0.17519 -0.304,0.31642 -0.4167,0.51281 -0.0766,0.12885 -0.14179,0.24753 -0.2032,0.38145 -0.0622,0.13732 -0.12896,0.26288 -0.17396,0.40394 -0.0436,0.13417 -0.0773,0.26513 -0.10719,0.4023 -0.0358,0.16463 -0.0625,0.32938 -0.0798,0.49981 -0.01,0.12165 -0.0212,0.23783 -0.0205,0.3583 -0.003,0.20785 0.0193,0.41541 0.0489,0.62655 0.008,0.0628 -4.3e-4,0.12391 0.0135,0.18606 l 21.35614,108.73814 c 0.0267,0.13327 0.32537,0.0976 0.39516,0.20616 l 0.003,0.003 c 0.24965,0.38825 0.50332,0.78275 0.75431,1.17307 0.006,0.008 0.006,0.008 0.0107,0.0167 0,0 0,0 0.003,0.003 0,0 0,0 0.006,0.008 l 0.006,0.008 0.003,0.003 c 0.0993,0.15446 0.19706,0.31585 0.32434,0.44939 0.0115,0.003 -0.0196,0.0246 -0.017,0.0286 0.006,0.008 0.006,0.008 0.0107,0.0167 0,0 0,0 0.003,0.003 0,0 0,0 0.006,0.008 l 0.006,0.008 c 0,0 0,0 0.003,0.003 l 0.006,0.008 c 0.25636,0.39869 0.40999,0.84867 0.85674,1.05707 -0.003,-0.003 -0.0571,0.0487 -0.0571,0.0487 0.006,0.008 -0.0571,0.0487 -0.0571,0.0487 0.003,0.003 0.003,0.003 0.003,0.003 l -0.0884,0.0688 c 0.12567,0.0578 0.19599,0.13952 0.32046,0.18634 l 110.77777,38.99169 c 0.01,0.005 0.008,0.0125 0.0177,0.0181 0.007,8.7e-4 0.006,0.008 0.0149,0.0139 0.0233,0.009 0.0479,0.0103 0.072,0.0156 0.089,0.0283 0.17699,0.0366 0.26749,0.0582 0.0953,0.0243 0.18713,0.0478 0.28124,0.0611 0.0988,0.0161 0.198,0.0556 0.2976,0.0682 0.081,0.007 0.16329,-0.008 0.24647,-0.002 0.11979,0.003 0.24021,0.003 0.35874,-0.006 0.0159,8.6e-4 0.0317,0.003 0.0468,-5.9e-4 0.25005,-0.0103 0.48816,-0.0484 0.72658,-0.10431 0.10643,-0.0271 0.21277,-0.0453 0.31862,-0.078 0.052,-0.0155 0.10973,-0.0174 0.15763,-0.0394 0.29298,-0.10871 0.57745,-0.24444 0.84046,-0.41357 0.20663,-0.13287 0.40553,-0.29615 0.5983,-0.46438 l 84.18215,-78.62775 c 0.10557,-0.0974 0.19724,-0.18881 0.29058,-0.29601 0.0225,-0.0291 0.0643,-0.033 0.0915,-0.0503 0.008,-0.006 0.008,-0.006 0.008,-0.006 0.0438,-0.0282 0.0452,-0.10871 0.0783,-0.15359 0.0667,-0.0843 0.12136,-0.17831 0.18067,-0.26961 0.0305,-0.0491 0.0663,-0.0987 0.0933,-0.14849 0.0221,-0.0437 0.0341,-0.0662 0.0461,-0.0798 0.0185,-0.0355 0.0199,-0.0748 0.0398,-0.10807 0.18752,-0.35074 0.32794,-0.72426 0.41067,-1.10493 0.007,-0.0522 0.004,-0.10313 0.0148,-0.15117 0.0678,-0.3947 0.0813,-0.7958 0.031,-1.19451 -8.7e-4,-0.0288 0.009,-0.059 0.005,-0.0888 -0.002,-0.0221 -0.006,-0.0463 -0.012,-0.0691 -5.9e-4,-0.0112 -0.002,-0.0163 -0.003,-0.0276 -0.0115,-0.0546 -0.0204,-0.10492 -0.0283,-0.1588 z m -11.05674,-3.27867 -84.29792,1.07425 33.81857,-96.1013 50.47935,95.02705 z m -92.13051,-1.98513 -76.77628,-69.13979 111.06962,-28.32007 -34.29334,97.45986 z m 47.9134,-99.16044 26.62025,0.44348 15.08654,78.07299 -41.70679,-78.51647 z m 7.83848,-8.27387 -13.71272,-0.22842 -29.24446,-17.35823 42.95718,17.58665 z m -25.75589,2.3966 -106.63368,27.19368 39.7221,-66.91502 66.91158,39.72134 z m -118.14151,30.12355 -16.43819,4.19125 40.93223,-45.45908 -24.49404,41.26783 z m -23.97163,14.78861 21.97746,-5.60226 -7.32015,81.45226 -14.65731,-75.85 z m 30.12423,-2.3938 75.99847,68.43028 -85.15022,33.42737 9.15175,-101.85765 z m 80.57816,75.66722 10.96831,65.24928 -93.44398,-32.87488 82.47567,-32.3744 z m 8.24882,-1.66628 81.42689,-1.0426 -70.52751,65.88184 -10.89938,-64.83924 z"
   id="path3-0"
   inkscape:connector-curvature="0" /><path
   style="fill:#e74c3c;fill-opacity:1;stroke:none"
   d="m 696.70181,183.03837 c -5.1967,-18.16642 -25.49618,-93.707115 -25.24792,-93.955375 0.38629,-0.3863 106.5501,34.926815 106.5121,35.428965 -0.028,0.37092 -78.71772,61.63473 -79.65773,62.0175 -0.29941,0.12193 -1.02231,-1.44907 -1.60645,-3.49109 l 0,0 z"
   id="path3925"
   inkscape:connector-curvature="0" /><path
   style="fill:#e74c3c;fill-opacity:1;stroke:none"
   d="m 727.02268,97.682215 -50.62088,-16.94791 33.68622,-16.8606 c 18.52742,-9.27334 33.92466,-16.86061 34.21609,-16.86061 0.29142,0 8.14724,15.23863 17.45738,33.86362 9.31013,18.625 16.69229,33.838815 16.40479,33.808505 -0.28749,-0.0303 -23.30211,-7.68167 -51.1436,-17.003005 z"
   id="path3927"
   inkscape:connector-curvature="0" /><path
   style="fill:#e74c3c;fill-opacity:1;stroke:none"
   d="m 656.26691,74.109965 c -3.39378,-1.16495 -5.90737,-2.34521 -5.58575,-2.6228 0.65107,-0.56195 47.65765,-13.36437 48.76187,-13.28048 1.07106,0.0814 -34.76489,18.05892 -35.95828,18.03892 -0.57604,-0.01 -3.82406,-0.97069 -7.21784,-2.13564 z"
   id="path3929"
   inkscape:connector-curvature="0" /><path
   style="fill:#c0392b;fill-opacity:1;stroke:none"
   d="m 609.19073,144.06553 c 0.74769,-2.10166 26.59154,-66.687265 26.78075,-66.926975 0.17944,-0.22735 19.8776,6.11545 20.42249,6.57603 0.21914,0.18524 -45.26627,59.078845 -46.88059,60.700055 -0.46248,0.46445 -0.5705,0.34757 -0.32265,-0.34911 z"
   id="path3931"
   inkscape:connector-curvature="0" /><path
   style="fill:#c0392b;fill-opacity:1;stroke:none"
   d="m 643.74498,180.05617 c -23.33754,-4.70663 -42.59007,-8.71568 -42.78338,-8.90899 -0.40139,-0.40139 60.37316,-78.749855 61.08592,-78.749855 0.34981,0 14.14696,49.706265 26.40623,95.132345 0.23174,0.8587 -0.0576,1.2014 -0.97356,1.15295 -0.71683,-0.0379 -20.39768,-3.91983 -43.73521,-8.62645 l 0,0 z"
   id="path3933"
   inkscape:connector-curvature="0" /><path
   style="fill:#c0392b;fill-opacity:1;stroke:none"
   d="m 633.87869,220.46205 c -16.03849,-20.61713 -29.30865,-37.87078 -29.48927,-38.34145 -0.21132,-0.5507 14.68151,2.13616 41.77686,7.53709 23.15788,4.61608 42.20668,8.47051 42.33066,8.5654 0.19936,0.15257 -23.72885,56.52137 -24.96686,58.81563 -0.31721,0.58784 -10.7938,-12.33563 -29.65139,-36.57667 z"
   id="path3935"
   inkscape:connector-curvature="0" /><path
   style="fill:#c0392b;fill-opacity:1;stroke:none"
   d="m 673.93569,255.95514 c 17.09508,-40.08223 23.12363,-53.57855 23.9062,-53.51965 1.70419,0.12827 67.10971,41.43315 66.12149,41.75703 -1.31909,0.43232 -90.12493,16.47645 -91.19612,16.47597 -0.54141,-2.4e-4 -0.12459,-1.68166 1.16843,-4.71335 z"
   id="path3937"
   inkscape:connector-curvature="0" /><path
   style="fill:#e74c3c;fill-opacity:1;stroke:none"
   d="m 764.72651,233.09803 c -4.41624,-2.81244 -20.06549,-12.65898 -34.77612,-21.8812 l -26.7466,-16.76768 39.19137,-30.49344 c 21.55525,-16.77139 39.37679,-30.30801 39.60342,-30.08138 0.22663,0.22662 -1.38725,22.17122 -3.5864,48.76576 -4.46155,53.95404 -4.62643,55.70822 -5.22862,55.62823 -0.23514,-0.0312 -4.04081,-2.35786 -8.45705,-5.17029 z"
   id="path3939"
   inkscape:connector-curvature="0" /><path
   style="fill:#e74c3c;fill-opacity:1;stroke:none"
   d="m 784.96472,213.82926 c -0.0192,-1.87267 6.329,-78.49431 6.69041,-80.7518 l 0.36187,-2.26034 10.51014,7.02918 c 7.82986,5.23662 10.42718,7.32654 10.18485,8.1952 -0.46341,1.66113 -27.10956,68.13488 -27.45275,68.48598 -0.15641,0.16001 -0.28894,-0.15419 -0.29452,-0.69822 l 0,0 z"
   id="path3941"
   inkscape:connector-curvature="0" /><path
   style="fill:#e74c3c;fill-opacity:1;stroke:none"
   d="m 795.22862,122.20159 c -3.05439,-2.02136 -3.83967,-3.17238 -8.59493,-12.59797 -2.87837,-5.70534 -5.10447,-10.502295 -4.94686,-10.659895 0.25373,-0.25374 17.24863,23.572655 17.83427,25.003165 0.42568,1.03982 -0.89613,0.50238 -4.29248,-1.7453 z"
   id="path3943"
   inkscape:connector-curvature="0" /><path
   style="fill:#2ecc71;fill-opacity:1;stroke:none"
   d="m 801.81201,269.00686 c 1.36529,-3.38169 39.53446,-66.36755 40.13724,-66.23353 1.05231,0.23396 66.57745,39.14767 66.33215,39.39298 -0.10141,0.10141 -23.10687,6.02545 -51.12324,13.16455 -28.01637,7.1391 -51.97955,13.25821 -53.25149,13.59803 -1.27195,0.33983 -2.21455,0.3749 -2.09466,0.078 l 0,0 z"
   id="path3945"
   inkscape:connector-curvature="0" /><path
   style="fill:#27ae60;fill-opacity:1;stroke:none"
   d="m 780.51865,361.10203 c -1.44471,-5.17887 -14.29332,-73.72646 -13.88438,-74.07346 0.7509,-0.63718 21.0734,-5.76507 21.43091,-5.40756 0.2523,0.25229 -5.99084,72.82335 -6.83758,79.48102 l -0.22201,1.74555 -0.48694,-1.74555 z"
   id="path3947"
   inkscape:connector-curvature="0" /><path
   style="fill:#27ae60;fill-opacity:1;stroke:none"
   d="m 775.39118,274.52208 c 5.11688,-6.08106 37.7279,-41.85839 37.95077,-41.63552 0.2472,0.2472 -21.72975,37.84756 -22.83715,39.07205 -0.38832,0.42938 -15.14334,4.54694 -16.6402,4.64363 -0.13014,0.009 0.55682,-0.92767 1.52658,-2.08016 z"
   id="path3949"
   inkscape:connector-curvature="0" /><path
   style="fill:#2ecc71;fill-opacity:1;stroke:none"
   d="m 840.07616,312.84835 c -20.9254,-18.82815 -37.9863,-34.44686 -37.91312,-34.70825 0.13192,-0.47123 109.99531,-28.73284 110.39239,-28.39767 0.26827,0.22645 -33.41825,96.19043 -33.99524,96.8434 -0.24081,0.27254 -17.55862,-14.90933 -38.48403,-33.73748 z"
   id="path3951"
   inkscape:connector-curvature="0" /><path
   style="fill:#27ae60;fill-opacity:1;stroke:none"
   d="m 787.36303,382.92138 c 0.21607,-1.8241 2.28505,-24.51462 4.59772,-50.4234 2.31268,-25.90876 4.35081,-47.25279 4.52919,-47.43116 0.17838,-0.17838 1.34076,0.62619 2.58308,1.78793 1.2423,1.16174 18.02904,16.30093 37.30385,33.64265 19.27481,17.34171 35.21858,31.81108 35.43061,32.15414 0.21202,0.34307 -0.005,0.78259 -0.48327,0.97672 -11.23881,4.5661 -83.20155,32.60966 -83.67983,32.60966 -0.39397,0 -0.51091,-1.37852 -0.28135,-3.31654 z"
   id="path3953"
   inkscape:connector-curvature="0" /><path
   style="fill:#27ae60;fill-opacity:1;stroke:none"
   d="m 840.60855,409.10862 c -25.24827,-8.89444 -45.67118,-16.39093 -45.38424,-16.65885 1.0028,-0.93634 81.30233,-32.14237 81.69599,-31.74872 0.87093,0.87093 11.08803,64.63629 10.35215,64.60821 -0.41688,-0.0159 -21.41564,-7.3062 -46.6639,-16.20064 z"
   id="path3955"
   inkscape:connector-curvature="0" /><path
   style="fill:#27ae60;fill-opacity:1;stroke:none"
   d="m 895.6569,421.3656 c -1.02514,-4.87044 -10.18339,-60.075 -10.18639,-61.40201 l -0.003,-1.48755 39.27771,-0.51681 c 21.60275,-0.28425 39.83553,-0.40034 40.51729,-0.25799 0.87728,0.18317 -8.68264,9.54422 -32.70814,32.02777 -18.67125,17.47294 -34.5184,32.1807 -35.2159,32.68392 -1.129,0.81454 -1.31353,0.69959 -1.68122,-1.04733 z"
   id="path3957"
   inkscape:connector-curvature="0" /><path
   style="fill:#2ecc71;fill-opacity:1;stroke:none"
   d="m 886.16538,350.08171 c 0,-0.48654 33.00949,-94.10908 33.50691,-95.03335 0.35018,-0.65067 2.10035,2.00209 5.29753,8.02953 2.62601,4.95066 13.95812,26.28213 25.18244,47.40326 l 20.40787,38.40205 -14.44316,0.46505 c -16.35073,0.52649 -69.95159,1.0885 -69.95159,0.73346 z"
   id="path3959"
   inkscape:connector-curvature="0" /><path
   style="fill:#2ecc71;fill-opacity:1;stroke:none"
   d="m 946.81872,287.00568 -20.68917,-39.01513 13.14211,0 c 7.68562,0 13.31492,0.27959 13.55832,0.67342 0.55849,0.90366 15.13466,76.18018 14.87879,76.83936 -0.11048,0.28462 -9.511,-17.03932 -20.89005,-38.49765 z"
   id="path3961"
   inkscape:connector-curvature="0" /><path
   style="fill:#2ecc71;fill-opacity:1;stroke:none"
   d="m 906.06463,231.19634 c -7.68041,-4.58688 -13.67922,-8.34021 -13.33067,-8.34073 0.53052,-8e-4 23.87029,9.41016 37.41922,15.08799 l 3.84021,1.60929 -6.98219,-0.009 -6.9822,-0.009 -13.96437,-8.33978 0,1e-5 z"
   id="path3963"
   inkscape:connector-curvature="0" /><text
   xml:space="preserve"
   style="font-size:144px;font-style:normal;font-variant:normal;font-weight:normal;font-stretch:normal;text-align:end;line-height:130.99999428%;letter-spacing:13.47998905px;word-spacing:0px;text-anchor:end;fill:#bdc3c7;fill-opacity:1;stroke:#000000;stroke-width:5.9000001;stroke-miterlimit:4;stroke-opacity:1;stroke-dasharray:none;font-family:Dax;-inkscape-font-specification:Dax"
   x="574.63293"
   y="211.47954"
   id="text3089"
   sodipodi:linespacing="130.99999%"><tspan
     sodipodi:role="line"
     id="tspan3091"
     x="588.11292"
     y="211.47954">Critical</tspan><tspan
     sodipodi:role="line"
     x="588.11292"
     y="400.11954"
     id="tspan3093">Roll</tspan></text>
</svg>