<?xml version="1.0" encoding="UTF-8" standalone="no"?>
<svg
   xmlns:dc="http://purl.org/dc/elements/1.1/"
   xmlns:cc="http://creativecommons.org/ns#"
   xmlns:rdf="http://www.w3.org/1999/02/22-rdf-syntax-ns#"
   xmlns:svg="http://www.w3.org/2000/svg"
   xmlns="http://www.w3.org/2000/svg"
   xmlns:sodipodi="http://sodipodi.sourceforge.net/DTD/sodipodi-0.dtd"
   xmlns:inkscape="http://www.inkscape.org/namespaces/inkscape"
   version="1.1"
   id="Your_Icon"
   x="0px"
   y="0px"
   width="576"
   height="576"
   viewBox="0 0 576 576"
   enable-background="new 0 0 100 100"
   xml:space="preserve"
   inkscape:version="0.48.2 r9819"
   sodipodi:docname="CriticalRoll-Logo-round.svg"
   inkscape:export-filename="C:\Users\Ele\workspace\CriticalRoll\resources\svg\CriticalRoll-Logo-36.png"
   inkscape:export-xdpi="5.625"
   inkscape:export-ydpi="5.625"><metadata
   id="metadata9"><rdf:RDF><cc:Work
       rdf:about=""><dc:format>image/svg+xml</dc:format><dc:type
         rdf:resource="http://purl.org/dc/dcmitype/StillImage" /><dc:title></dc:title></cc:Work></rdf:RDF></metadata><defs
   id="defs7"><linearGradient
     id="linearGradient4145"><stop
       style="stop-color:#2980b9;stop-opacity:1;"
       offset="0"
       id="stop4147" /><stop
       style="stop-color:#3498db;stop-opacity:1;"
       offset="1"
       id="stop4149" /></linearGradient></defs><sodipodi:namedview
   pagecolor="#ffffff"
   bordercolor="#666666"
   borderopacity="1"
   objecttolerance="10"
   gridtolerance="10"
   guidetolerance="10"
   inkscape:pageopacity="0"
   inkscape:pageshadow="2"
   inkscape:window-width="705"
   inkscape:window-height="403"
   id="namedview5"
   showgrid="false"
   inkscape:zoom="0.8791156"
   inkscape:cx="8.0815295"
   inkscape:cy="238.39333"
   inkscape:window-x="2896"
   inkscape:window-y="80"
   inkscape:window-maximized="0"
   inkscape:current-layer="Your_Icon"
   showguides="true"
   inkscape:snap-bbox="true"
   inkscape:bbox-paths="true"
   inkscape:bbox-nodes="true"
   inkscape:snap-bbox-edge-midpoints="true"
   inkscape:snap-bbox-midpoints="true"
   inkscape:object-paths="true"
   inkscape:snap-intersection-paths="true"
   inkscape:object-nodes="true"
   inkscape:snap-smooth-nodes="true"
   inkscape:snap-midpoints="true"
   inkscape:snap-object-midpoints="true"
   inkscape:snap-center="true"
   inkscape:snap-page="true"
   inkscape:snap-global="true"
   inkscape:guide-bbox="true"><inkscape:grid
     type="xygrid"
     id="grid2988"
     empspacing="5"
     visible="true"
     enabled="true"
     snapvisiblegridlinesonly="true" /></sodipodi:namedview>
<rect
   style="fill:#34495e;fill-opacity:1;stroke:#000000;stroke-width:15.34295273;stroke-miterlimit:4;stroke-opacity:1;stroke-dasharray:none"
   id="rect2986"
   width="560.65704"
   height="560.65704"
   x="7.6714764"
   y="7.6714764"
   ry="132.92534" /><path
   d="m 286.74881,303.10229 47.43308,-118.5913 c 0.15439,-0.36593 0.25158,-0.74329 0.30874,-1.12637 0.0171,-0.11149 0.0201,-0.22012 0.0315,-0.33161 0.0201,-0.24872 0.0229,-0.49744 0.006,-0.74328 -0.008,-0.13152 -0.0201,-0.26016 -0.04,-0.39167 -0.04,-0.25442 -0.10287,-0.50315 -0.18009,-0.749 -0.0343,-0.0972 -0.0543,-0.19725 -0.0887,-0.29445 -0.13437,-0.33735 -0.30304,-0.65467 -0.50887,-0.95771 -0.0117,-0.0171 -0.0171,-0.0343 -0.0286,-0.0515 L 250.59937,61.179806 c -0.0286,-0.03717 -0.008,-0.07433 -0.0372,-0.114352 l 0.04,-0.0086 v 1.958274 c 0,0 -0.0944,0 -0.10578,0 -1.1521,-2.858794 -3.12752,-3.213285 -5.0086,-2.790183 0,0.01143 -0.0117,-0.03432 -0.0201,-0.03432 -0.008,0.01143 -0.0286,-0.0343 -0.0286,-0.0343 h -0.0117 -0.008 -0.008 -0.0117 -0.008 c 0,0 -0.0117,0 -0.0201,0 -0.008,0 -0.008,-0.431678 -0.0201,-0.431678 L 114.79587,95.110763 c -0.0715,0.02006 -0.13151,-0.05435 -0.20298,-0.03149 -0.24872,0.08 -0.49171,0.11721 -0.72327,0.237277 -0.15438,0.07721 -0.2916,0.15151 -0.43454,0.242991 -0.14579,0.09435 -0.28874,0.174392 -0.42024,0.283029 -0.12579,0.102865 -0.24014,0.208692 -0.3545,0.323045 -0.13722,0.137223 -0.26586,0.28016 -0.38878,0.434527 -0.0857,0.111495 -0.16868,0.217276 -0.24301,0.334485 -0.1315,0.200108 -0.24013,0.414526 -0.34305,0.637505 -0.0315,0.06577 -0.0772,0.120079 -0.10287,0.18869 L 64.526257,216.42941 c -0.05718,0.1458 0.254433,0.29732 0.254433,0.44597 v 0.006 c 0,0.53174 0,1.07205 0,1.60664 0,0.0117 0,0.0117 0,0.0229 0,0 0,0 0,0.006 0,0 0,0 0,0.0117 v 0.0117 0.006 c 0,0.21156 -0.0057,0.42883 0.03432,0.63752 0.0086,0.0117 -0.03432,0.0117 -0.03432,0.0171 0,0.0117 0,0.0117 0,0.0229 0,0 0,0 0,0.006 0,0 0,0 0,0.0117 v 0.0117 c 0,0 0,0 0,0.006 v 0.0117 c 0,0.54602 -0.131505,1.07775 0.171527,1.55803 0,-0.006 -0.08577,0.0117 -0.08577,0.0117 0,0.0117 -0.08577,0.0117 -0.08577,0.0117 0,0.006 0,0.006 0,0.006 l -0.128646,0.0117 c 0.08577,0.13437 0.102927,0.25729 0.194398,0.38021 l 83.045091,106.79875 c 0.006,0.0117 0,0.0171 0.006,0.0286 0.006,0.006 0,0.0117 0.006,0.0229 0.0171,0.0228 0.04,0.04 0.0601,0.0601 0.0686,0.0829 0.14865,0.1458 0.22298,0.22298 0.0772,0.0829 0.15152,0.16295 0.23442,0.23444 0.0857,0.0772 0.15723,0.17723 0.24586,0.25156 0.0743,0.0572 0.16294,0.0944 0.24014,0.15152 0.11441,0.0772 0.23156,0.15152 0.35163,0.21726 0.0142,0.0117 0.0286,0.0229 0.0457,0.0286 0.24872,0.14579 0.50314,0.25728 0.769,0.35163 0.12008,0.04 0.23443,0.0887 0.35735,0.12292 0.0601,0.0171 0.11721,0.0514 0.17725,0.0601 0.35162,0.0772 0.71184,0.12293 1.07204,0.12293 0.28303,0 0.57748,-0.0342 0.86908,-0.0772 L 283.1079,306.1123 c 0.16295,-0.0286 0.30876,-0.0601 0.46598,-0.10578 0.04,-0.0142 0.0829,0.008 0.12008,0.008 0.0117,0 0.0117,0 0.0117,0 0.0601,0 0.11149,-0.0772 0.17152,-0.10003 0.11722,-0.04 0.2287,-0.0972 0.34305,-0.14866 0.0601,-0.0286 0.12579,-0.0543 0.18297,-0.0857 0.0487,-0.0286 0.0743,-0.0429 0.0944,-0.0487 0.04,-0.0229 0.0658,-0.0601 0.10578,-0.08 0.40023,-0.22298 0.76902,-0.49743 1.08634,-0.81475 0.04,-0.0457 0.0686,-0.0972 0.10858,-0.13722 0.31162,-0.3402 0.57462,-0.72041 0.77474,-1.13779 0.0171,-0.0286 0.0457,-0.0514 0.0601,-0.0829 0.0117,-0.0229 0.0229,-0.0487 0.0315,-0.0743 0.006,-0.0117 0.008,-0.0171 0.0143,-0.0286 0.0229,-0.0601 0.0457,-0.11429 0.0714,-0.17153 z m -8.67073,-10.0658 -82.35039,-51.48114 92.6449,-72.0473 -10.29451,123.52844 z m -88.03366,-59.32567 -31.31522,-114.82914 125.26659,41.76125 -93.95137,73.06789 z m 108.20817,-66.22966 25.51757,17.01553 -34.02534,85.0491 8.50777,-102.06463 z m 12.75021,-3.13324 -13.14473,-8.76506 -17.52153,-35.04022 30.66626,43.80528 z M 284.55326,150.62286 164.28669,110.534 244.46725,70.445154 284.55326,150.62286 z m -133.24263,-44.41993 -18.53927,-6.18071 67.98496,-18.544984 -49.44569,24.725694 z m -32.44158,-0.60606 24.78574,8.26477 -57.841965,74.36292 33.056225,-82.62769 z m 30.68056,16.4495 31.00361,113.65702 -103.333922,-20.66335 72.330312,-92.99367 z m 30.93214,123.52271 -30.0259,70.05758 -70.060433,-90.07484 100.086333,20.01726 z m 9.03092,3.52489 79.54878,49.72299 -109.38599,19.89435 29.83721,-69.61734 z"
   id="path3"
   inkscape:connector-curvature="0"
   style="fill:#000000;fill-opacity:1;stroke:#000000;stroke-width:1.1662662;stroke-opacity:1" />
<path
   d="m 266.30806,336.67429 13.49199,127.01085 c 0.0345,0.39566 0.12497,0.7747 0.25348,1.1401 0.0371,0.10668 0.0851,0.20394 0.12713,0.30788 0.0985,0.22924 0.21222,0.45047 0.34226,0.65982 0.0687,0.11241 0.1393,0.22064 0.21845,0.32752 0.15395,0.20649 0.3261,0.39674 0.50927,0.57802 0.0757,0.0698 0.14027,0.14899 0.21596,0.21889 0.27644,0.23546 0.57385,0.43715 0.89747,0.60885 0.0184,0.01 0.0311,0.0224 0.0495,0.0316 l 128.92003,66.09549 c 0.0429,0.0194 0.0419,0.0618 0.0865,0.0839 l -0.0313,0.0266 -0.91523,-1.73125 c 0,0 0.0834,-0.0445 0.0936,-0.0495 2.35464,1.98891 4.26672,1.37907 5.73195,0.12585 -0.007,-0.01 0.0265,0.0249 0.0339,0.0204 0.002,-0.0145 0.0417,0.0165 0.0417,0.0165 l 0.01,-0.006 0.007,-0.003 0.007,-0.003 0.01,-0.006 0.007,-0.003 c 0,0 0.01,-0.006 0.0179,-0.01 0.007,-0.003 0.20902,0.37779 0.21946,0.37228 l 98.88077,-92.30097 c 0.0539,-0.0509 0.14163,-0.0135 0.19413,-0.0669 0.18256,-0.18693 0.37993,-0.33343 0.52852,-0.54778 0.10057,-0.14038 0.187,-0.27025 0.27064,-0.41792 0.0852,-0.15137 0.17376,-0.28909 0.23954,-0.44644 0.0632,-0.14975 0.1148,-0.29673 0.16248,-0.45125 0.0572,-0.18546 0.10405,-0.37191 0.14054,-0.56588 0.0232,-0.13869 0.0476,-0.27091 0.0586,-0.40926 0.0234,-0.23831 0.0186,-0.4787 0.005,-0.72396 -0.003,-0.0729 0.0128,-0.14217 0.003,-0.21487 l -13.86074,-126.9009 c -0.0176,-0.15554 -0.36391,-0.1438 -0.43335,-0.27538 l -0.001,-0.004 c -0.24845,-0.47014 -0.50104,-0.94777 -0.75092,-1.42036 -0.007,-0.01 -0.007,-0.01 -0.0103,-0.0202 0,0 0,0 -0.001,-0.004 0,0 0,0 -0.007,-0.01 l -0.007,-0.01 -0.001,-0.004 c -0.099,-0.18701 -0.1951,-0.38192 -0.32825,-0.5476 -0.0128,-0.006 0.0248,-0.0263 0.0224,-0.0312 -0.007,-0.01 -0.007,-0.01 -0.0103,-0.0202 0,0 0,0 -0.001,-0.004 0,0 0,0 -0.006,-0.01 l -0.007,-0.01 c 0,0 0,0 -0.001,-0.004 l -0.007,-0.01 c -0.25512,-0.48277 -0.38746,-1.01426 -0.87985,-1.29721 0.001,0.004 0.07,-0.0506 0.07,-0.0506 -0.007,-0.01 0.07,-0.0506 0.07,-0.0506 -0.001,-0.004 -0.001,-0.004 -0.001,-0.004 l 0.10809,-0.0706 c -0.13855,-0.0787 -0.21129,-0.17937 -0.34962,-0.2452 L 377.40657,249.72771 c -0.011,-0.007 -0.007,-0.0152 -0.018,-0.023 -0.008,-9.2e-4 -0.007,-0.01 -0.0153,-0.0178 -0.026,-0.0122 -0.0542,-0.0161 -0.0811,-0.0249 -0.0995,-0.0411 -0.1996,-0.0593 -0.30132,-0.093 -0.107,-0.0372 -0.2101,-0.0732 -0.31686,-0.0976 -0.11188,-0.0283 -0.22183,-0.0831 -0.33493,-0.10739 -0.0923,-0.0159 -0.18818,-0.007 -0.28308,-0.0221 -0.13724,-0.0146 -0.27547,-0.0265 -0.41236,-0.0281 -0.0182,-0.002 -0.0362,-0.006 -0.0537,-0.004 -0.28801,-0.0126 -0.56505,0.008 -0.84421,0.0486 -0.12475,0.0206 -0.24865,0.0311 -0.37334,0.0583 -0.0612,0.0128 -0.1277,0.009 -0.18483,0.0298 -0.34696,0.096 -0.68675,0.22399 -1.00521,0.39234 -0.25016,0.13234 -0.4945,0.30016 -0.73222,0.47443 l -104.32795,82.00361 c -0.13068,0.10147 -0.24512,0.19711 -0.36249,0.31133 -0.0284,0.0315 -0.0772,0.0314 -0.10993,0.0487 -0.01,0.007 -0.01,0.007 -0.01,0.007 -0.0535,0.0275 -0.0628,0.12021 -0.10503,0.16859 -0.0849,0.0902 -0.15674,0.19279 -0.23369,0.29182 -0.0398,0.0535 -0.0859,0.10679 -0.12172,0.16126 -0.0298,0.0481 -0.0456,0.0728 -0.0607,0.087 -0.0242,0.0392 -0.0301,0.0839 -0.056,0.12023 -0.24963,0.3842 -0.44736,0.79919 -0.57963,1.22802 -0.0131,0.0591 -0.0151,0.11795 -0.0318,0.17206 -0.11648,0.4464 -0.17133,0.90546 -0.15255,1.36806 -0.002,0.0332 -0.0165,0.0667 -0.0146,0.10148 -1.6e-4,0.0257 0.003,0.0538 0.007,0.0805 1e-5,0.0133 5.7e-4,0.0189 6.3e-4,0.0319 0.008,0.0638 0.0131,0.12243 0.0169,0.18504 z m 12.36991,4.8464 96.86355,7.02458 -48.23128,106.99361 -48.63227,-114.01819 z m 105.55421,11.30345 81.35211,86.88043 -130.26141,21.62605 48.9093,-108.50648 z m -64.70918,109.12423 -30.51166,-3.11668 -9.66869,-91.09111 40.18035,94.20779 z m -9.80762,8.72902 15.71729,1.60547 31.86682,22.78872 -47.58408,-24.39422 z m 29.79774,-0.22785 125.05945,-20.76769 -52.14842,72.91491 -72.91103,-52.14722 z m 138.5553,-23.00336 19.27856,-3.20054 -51.43565,48.16894 32.15709,-44.9684 z m 28.96362,-14.62636 -25.77482,4.27749 16.38106,-92.77498 9.39376,88.49749 z m -34.81149,-0.20328 -80.52883,-85.98985 101.01109,-30.02727 -20.48226,116.01712 z m -85.07654,-94.74513 -6.19791,-75.96845 104.03594,46.8878 -97.83803,29.08065 z m -9.63134,1.10453 -93.56504,-6.77965 87.40608,-68.71138 6.15896,75.49103 z"
   id="path3-0"
   inkscape:connector-curvature="0" /><path
   style="fill:#e74c3c;fill-opacity:1;stroke:none"
   d="m 189.02906,228.36088 c -5.98652,-20.92746 -29.37125,-107.94932 -29.08526,-108.23531 0.44501,-0.44501 122.74426,40.23522 122.70049,40.81369 -0.0323,0.4273 -90.68174,71.00237 -91.76462,71.44331 -0.34491,0.14046 -1.17769,-1.66931 -1.85061,-4.02169 l 0,0 z"
   id="path3925"
   inkscape:connector-curvature="0" /><path
   style="fill:#e74c3c;fill-opacity:1;stroke:none"
   d="M 223.95829,130.03175 165.64373,110.508 204.44979,91.084813 c 21.34334,-10.682754 39.08075,-19.42319 39.41647,-19.42319 0.33571,0 9.38551,17.554694 20.11066,39.010427 10.72514,21.45574 19.22929,38.98186 18.89809,38.94694 -0.33118,-0.0349 -26.84371,-8.84918 -58.91672,-19.58724 z"
   id="path3927"
   inkscape:connector-curvature="0" /><path
   style="fill:#e74c3c;fill-opacity:1;stroke:none"
   d="m 142.44861,102.87685 c -3.90959,-1.34201 -6.80521,-2.70165 -6.43471,-3.021428 0.75003,-0.647361 54.90096,-15.395573 56.17301,-15.298933 1.23385,0.09374 -40.04868,20.803631 -41.42345,20.780581 -0.66358,-0.0111 -4.40526,-1.11822 -8.31485,-2.46022 z"
   id="path3929"
   inkscape:connector-curvature="0" /><path
   style="fill:#c0392b;fill-opacity:1;stroke:none"
   d="m 88.217504,183.46471 c 0.861333,-2.42109 30.633086,-76.82283 30.851046,-77.09897 0.20672,-0.2619 22.89873,7.04492 23.52643,7.5755 0.25245,0.21339 -52.146105,68.05802 -54.005787,69.92564 -0.532764,0.53504 -0.657209,0.40039 -0.371689,-0.40217 z"
   id="path3931"
   inkscape:connector-curvature="0" /><path
   style="fill:#c0392b;fill-opacity:1;stroke:none"
   d="M 128.02352,224.92543 C 101.139,219.50345 78.96036,214.88509 78.737662,214.66239 78.275263,214.2 148.28671,123.94364 149.10779,123.94364 c 0.40298,0 16.29711,57.26094 30.41962,109.59116 0.26696,0.98921 -0.0664,1.38399 -1.12153,1.32818 -0.82578,-0.0437 -23.49784,-4.51559 -50.38236,-9.93755 l 0,0 z"
   id="path3933"
   inkscape:connector-curvature="0" /><path
   style="fill:#c0392b;fill-opacity:1;stroke:none"
   d="M 116.65769,271.47245 C 98.181585,247.7218 82.894536,227.84583 82.686471,227.30362 c -0.243443,-0.6344 16.912894,2.46083 48.126359,8.68263 26.67756,5.31766 48.62151,9.75791 48.76434,9.86722 0.22965,0.17576 -27.33532,65.11185 -28.76149,67.7548 -0.36542,0.67718 -12.43431,-14.21047 -34.15799,-42.13582 z"
   id="path3935"
   inkscape:connector-curvature="0" /><path
   style="fill:#c0392b;fill-opacity:1;stroke:none"
   d="m 162.8028,312.36 c 19.6933,-46.17418 26.63811,-61.72175 27.53962,-61.6539 1.9632,0.14776 77.30947,47.73042 76.17105,48.10353 -1.51957,0.49802 -103.82268,18.98064 -105.05668,18.98009 -0.6237,-2.8e-4 -0.14353,-1.93725 1.34601,-5.42972 z"
   id="path3937"
   inkscape:connector-curvature="0" /><path
   style="fill:#e74c3c;fill-opacity:1;stroke:none"
   d="m 267.39259,286.02892 c -5.08745,-3.23989 -23.11518,-14.58297 -40.06162,-25.20684 l -30.81172,-19.31614 45.14792,-35.12802 c 24.83136,-19.32041 45.36153,-34.91441 45.6226,-34.65334 0.26108,0.26107 -1.59809,25.54094 -4.13148,56.17749 -5.13964,62.15431 -5.32958,64.1751 -6.0233,64.08296 -0.27088,-0.036 -4.65496,-2.71622 -9.7424,-5.95611 z"
   id="path3939"
   inkscape:connector-curvature="0" /><path
   style="fill:#e74c3c;fill-opacity:1;stroke:none"
   d="m 290.70672,263.83157 c -0.0221,-2.1573 7.29093,-90.42437 7.70727,-93.02497 l 0.41687,-2.60388 12.10753,8.09752 c 9.01989,6.03251 12.01197,8.44007 11.73281,9.44076 -0.53384,1.91359 -31.22984,78.49044 -31.62519,78.89491 -0.18018,0.18432 -0.33286,-0.17763 -0.33929,-0.80434 l 0,0 z"
   id="path3941"
   inkscape:connector-curvature="0" /><path
   style="fill:#e74c3c;fill-opacity:1;stroke:none"
   d="m 302.5306,158.27775 c -3.51862,-2.32858 -4.42325,-3.65454 -9.90124,-14.51269 -3.31585,-6.57248 -5.88028,-12.09851 -5.69872,-12.28006 0.2923,-0.29231 19.87019,27.15538 20.54483,28.80331 0.49038,1.19785 -1.03232,0.57873 -4.94487,-2.01056 z"
   id="path3943"
   inkscape:connector-curvature="0" /><path
   style="fill:#27ae60;fill-opacity:1;stroke:none"
   d="m 464.46923,450.02329 c -1.89839,3.74779 -51.87942,72.30488 -52.55816,72.09201 -1.18496,-0.37163 -72.58372,-51.45601 -72.27813,-51.71355 0.12609,-0.10679 27.11261,-4.6526 59.96952,-10.10254 32.85692,-5.44994 60.96159,-10.12616 62.45484,-10.39162 1.49326,-0.26547 2.57862,-0.21339 2.41191,0.11567 l 0,0 z"
   id="path3945"
   inkscape:connector-curvature="0" /><path
   style="fill:#2ecc71;fill-opacity:1;stroke:none"
   d="m 497.93147,346.40102 c 1.15095,6.08589 9.18399,86.0244 8.68062,86.38261 -0.92435,0.65777 -24.75309,4.55295 -25.12842,4.10758 -0.2649,-0.31431 14.00999,-83.00082 15.63406,-90.55965 l 0.42581,-1.98181 0.38793,2.05127 z"
   id="path3947"
   inkscape:connector-curvature="0" /><path
   style="fill:#27ae60;fill-opacity:1;stroke:none"
   d="m 495.33567,446.28097 c -6.46891,6.47869 -47.40495,44.3499 -47.63894,44.07226 -0.25954,-0.30796 28.64917,-41.31336 30.0402,-42.61038 0.48777,-0.45481 17.82716,-3.73562 19.55473,-3.69998 0.15026,0.003 -0.73,1.01023 -1.95599,2.2381 z"
   id="path3949"
   inkscape:connector-curvature="0" /><path
   style="fill:#27ae60;fill-opacity:1;stroke:none"
   d="m 424.84371,395.95316 c 22.17408,23.66101 40.22687,43.25961 40.11728,43.5525 -0.19762,0.52794 -129.06877,22.20505 -129.49172,21.78145 -0.28574,-0.2862 47.78053,-107.13514 48.50679,-107.82812 0.30307,-0.28925 18.69354,18.83315 40.86765,42.49417 z"
   id="path3951"
   inkscape:connector-curvature="0" /><path
   style="fill:#2ecc71;fill-opacity:1;stroke:none"
   d="m 492.21276,320.68601 c -0.42669,2.07257 -5.0242,27.91438 -10.21668,57.42629 -5.1925,29.51189 -9.6227,53.81121 -9.84493,53.99848 -0.22216,0.18733 -1.47755,-0.85014 -2.78973,-2.30524 -1.31215,-1.45516 -19.09719,-20.47653 -39.52235,-42.2697 -20.42514,-21.79317 -37.30822,-39.96314 -37.51799,-40.37767 -0.21003,-0.41442 0.0826,-0.89776 0.65032,-1.07378 13.34736,-4.1401 98.69427,-29.27959 99.24326,-29.23273 0.4522,0.0385 0.4514,1.63234 -0.002,3.83433 z"
   id="path3953"
   inkscape:connector-curvature="0" /><path
   style="fill:#2ecc71;fill-opacity:1;stroke:none"
   d="m 433.66206,285.41212 c 28.10903,12.68243 50.8164,23.28758 50.4608,23.56699 -1.24278,0.97649 -96.46854,28.92927 -96.88183,28.43887 -0.91438,-1.08497 -6.39537,-75.27657 -5.55347,-75.17227 0.47695,0.0591 23.86547,10.48397 51.9745,23.16641 z"
   id="path3955"
   inkscape:connector-curvature="0" /><path
   style="fill:#2ecc71;fill-opacity:1;stroke:none"
   d="m 371.67745,265.95098 c 0.69958,5.69078 5.80384,69.95246 5.67729,71.47592 l -0.14176,1.70776 -45.13412,-3.25434 c -24.82377,-1.78992 -45.76299,-3.44268 -46.53157,-3.67286 -0.98902,-0.29618 10.90101,-10.10446 40.68021,-33.55791 23.14273,-18.22667 42.77306,-33.55611 43.62296,-34.0654 1.37567,-0.82434 1.57623,-0.67428 1.82712,1.36685 z"
   id="path3957"
   inkscape:connector-curvature="0" /><path
   style="fill:#27ae60;fill-opacity:1;stroke:none"
   d="m 375.58915,348.70139 c -0.0476,0.55848 -47.10746,104.78617 -47.76894,105.79834 -0.46566,0.71255 -2.21469,-2.50378 -5.29402,-9.73534 -2.52921,-5.93967 -13.44679,-31.53429 -24.26125,-56.87695 l -19.66266,-46.0775 16.62361,0.88102 c 18.81918,0.99737 80.39803,5.60291 80.36326,6.01043 z"
   id="path3959"
   inkscape:connector-curvature="0" /><path
   style="fill:#27ae60;fill-opacity:1;stroke:none"
   d="m 299.79161,415.15946 19.92551,46.80879 -15.08471,-1.28737 c -8.82166,-0.75288 -15.25567,-1.62523 -15.49646,-2.1011 -0.55254,-1.09194 -9.90935,-88.92324 -9.55108,-89.65479 0.15458,-0.31592 9.24772,20.48965 20.20674,46.23447 z"
   id="path3961"
   inkscape:connector-curvature="0" /><path
   style="fill:#27ae60;fill-opacity:1;stroke:none"
   d="m 341.10279,483.2104 c 8.36635,6.01722 14.88421,10.91297 14.48408,10.87943 -0.60902,-0.0511 -26.47685,-13.13939 -41.47231,-20.98371 l -4.25022,-2.22333 8.01341,0.69392 8.01341,0.69393 15.21156,10.94044 -10e-6,-3e-5 z"
   id="path3963"
   inkscape:connector-curvature="0" /></svg>