<?xml version="1.0" encoding="UTF-8" standalone="no"?>
<svg
   xmlns:dc="http://purl.org/dc/elements/1.1/"
   xmlns:cc="http://creativecommons.org/ns#"
   xmlns:rdf="http://www.w3.org/1999/02/22-rdf-syntax-ns#"
   xmlns:svg="http://www.w3.org/2000/svg"
   xmlns="http://www.w3.org/2000/svg"
   xmlns:sodipodi="http://sodipodi.sourceforge.net/DTD/sodipodi-0.dtd"
   xmlns:inkscape="http://www.inkscape.org/namespaces/inkscape"
   version="1.1"
   id="Your_Icon"
   x="0px"
   y="0px"
   width="576"
   height="576"
   viewBox="0 0 576 576"
   enable-background="new 0 0 100 100"
   xml:space="preserve"
   inkscape:version="0.91 r13725"
   sodipodi:docname="logo-template.svg"><metadata
     id="metadata9"><rdf:RDF><cc:Work
         rdf:about=""><dc:format>image/svg+xml</dc:format><dc:type
           rdf:resource="http://purl.org/dc/dcmitype/StillImage" /><dc:title></dc:title></cc:Work></rdf:RDF></metadata><defs
     id="defs7" /><sodipodi:namedview
     pagecolor="#ffffff"
     bordercolor="#666666"
     borderopacity="1"
     objecttolerance="10"
     gridtolerance="10"
     guidetolerance="10"
     inkscape:pageopacity="0"
     inkscape:pageshadow="2"
     inkscape:window-width="1440"
     inkscape:window-height="837"
     id="namedview5"
     showgrid="false"
     inkscape:zoom="1"
     inkscape:cx="256.73763"
     inkscape:cy="314"
     inkscape:window-x="-8"
     inkscape:window-y="-8"
     inkscape:window-maximized="1"
     inkscape:current-layer="Your_Icon"
     showguides="true"
     inkscape:snap-bbox="true"
     inkscape:bbox-paths="true"
     inkscape:bbox-nodes="true"
     inkscape:snap-bbox-edge-midpoints="true"
     inkscape:snap-bbox-midpoints="true"
     inkscape:object-paths="true"
     inkscape:snap-intersection-paths="true"
     inkscape:object-nodes="true"
     inkscape:snap-smooth-nodes="true"
     inkscape:snap-midpoints="true"
     inkscape:snap-object-midpoints="true"
     inkscape:snap-center="true"
     inkscape:snap-page="true"
     inkscape:snap-global="false"
     inkscape:guide-bbox="true"><inkscape:grid
       type="xygrid"
       id="grid2988"
       empspacing="5"
       visible="true"
       enabled="true"
       snapvisiblegridlinesonly="true" /><sodipodi:guide
       position="48,225.19067"
       orientation="1,0"
       id="guide3340"
       inkscape:label=""
       inkscape:color="rgb(0,0,255)" /><sodipodi:guide
       position="528,530.72134"
       orientation="1,0"
       id="guide3342"
       inkscape:label=""
       inkscape:color="rgb(0,0,255)" /><sodipodi:guide
       position="529.37231,48"
       orientation="0,1"
       id="guide3346"
       inkscape:label=""
       inkscape:color="rgb(0,0,255)" /><sodipodi:guide
       position="529.44331,288"
       orientation="0,1"
       id="guide3348"
       inkscape:label=""
       inkscape:color="rgb(0,0,255)" /><sodipodi:guide
       position="529.92257,528"
       orientation="0,1"
       id="guide3350"
       inkscape:label=""
       inkscape:color="rgb(0,0,255)" /><sodipodi:guide
       position="288,530.966"
       orientation="1,0"
       id="guide3352"
       inkscape:label=""
       inkscape:color="rgb(0,0,255)" /></sodipodi:namedview><path
     style="fill:#ffffff;fill-opacity:1;stroke:#ffffff;stroke-width:4.59695482;stroke-linecap:round;stroke-linejoin:round;stroke-miterlimit:4;stroke-dasharray:none;stroke-opacity:1"
     d="m 127.2894,279.75654 c -17.19364,-32.96295 -31.111632,-60.08218 -30.928854,-60.26495 0.182777,-0.18278 17.159404,2.41142 37.725834,5.76489 20.56643,3.35347 50.54116,8.23653 66.61051,10.85124 16.06934,2.61471 29.13374,4.955 29.03199,5.20064 -0.50172,1.21125 -70.34807,98.33558 -70.73248,98.35652 -0.2452,0.0133 -14.51334,-26.94539 -31.707,-59.90834 z"
     id="path4610"
     inkscape:connector-curvature="0" /><path
     style="fill:#ffffff;fill-opacity:1;stroke:#ffffff;stroke-width:4.59695482;stroke-linecap:round;stroke-linejoin:round;stroke-miterlimit:4;stroke-dasharray:none;stroke-opacity:1"
     d="m 226.35745,230.19475 c -24.78231,-3.9134 -128.574163,-20.97399 -128.768962,-21.16616 -0.137087,-0.13525 0.181556,-0.84287 0.708097,-1.57251 C 100.2909,204.69253 200.28192,97.519785 200.86597,97.519785 c 0.33696,0 0.78062,0.557626 0.98593,1.239171 1.16098,3.853904 30.22519,131.337684 30.0397,131.762584 -0.12287,0.2815 -2.61324,0.13444 -5.53415,-0.32679 z"
     id="path4612"
     inkscape:connector-curvature="0" /><path
     style="fill:#ffffff;fill-opacity:1;stroke:#ffffff;stroke-width:4.59695482;stroke-linecap:round;stroke-linejoin:round;stroke-miterlimit:4;stroke-dasharray:none;stroke-opacity:1"
     d="M 91.071577,198.60072 C 90.950878,198.05611 87.00058,94.322187 87.098455,94.267424 87.497116,94.044365 191.32996,91.288262 191.53695,91.495244 191.9093,91.867597 92.436299,198.77774 91.717497,198.77774 c -0.333678,0 -0.624342,-0.0796 -0.64592,-0.17702 z"
     id="path4614"
     inkscape:connector-curvature="0" /><path
     style="fill:#ffffff;fill-opacity:1;stroke:#ffffff;stroke-width:4.59695482;stroke-linecap:round;stroke-linejoin:round;stroke-miterlimit:4;stroke-dasharray:none;stroke-opacity:1"
     d="m 64.620831,225.15438 c 0.21028,-1.071 3.173224,-18.97599 6.584321,-39.78886 3.833083,-23.38763 6.520167,-37.94764 7.034996,-38.11925 0.458151,-0.15272 0.837717,-14.03247 0.843481,-13.31847 0.0057,0.714 0.47791,27.10834 1.049216,41.12867 0.571306,14.02033 1.044556,27.7296 1.051668,30.46505 l 0.01293,4.97353 -7.847284,8.30329 c -4.316006,4.56683 -8.131767,8.30331 -8.479469,8.30331 -0.347701,0 -0.460138,-0.87627 -0.249858,-1.94727 z"
     id="path4616"
     inkscape:connector-curvature="0"
     sodipodi:nodetypes="ssccsscsss" /><path
     style="fill:#ffffff;fill-opacity:1;stroke:#ffffff;stroke-width:4.59695482;stroke-linecap:round;stroke-linejoin:round;stroke-miterlimit:4;stroke-dasharray:none;stroke-opacity:1"
     d="m 98.71378,280.03194 -36.76215,-37.88321 12.344809,-9.89995 c 6.534177,-5.24009 10.977992,-10.55211 11.254704,-10.26741 0.57332,0.58988 55.303527,101.99839 55.303527,102.5064 0,0.18224 -6.09609,-7.45772 -6.40688,-7.45772 -0.3108,0 -16.3911,-16.64915 -35.73401,-36.99811 z"
     id="path4618"
     inkscape:connector-curvature="0"
     sodipodi:nodetypes="scsssss" /><path
     style="fill:#ffffff;fill-opacity:1;stroke:#ffffff;stroke-width:4.59695482;stroke-linecap:round;stroke-linejoin:round;stroke-miterlimit:4;stroke-dasharray:none;stroke-opacity:1"
     d="m 171.36089,340.80608 c 0.26451,-0.68928 15.66626,-22.4344 34.22612,-48.32247 l 33.74521,-47.06923 1.93995,1.99617 c 9.89747,10.18431 57.91094,63.62503 57.49641,63.9956 -0.29657,0.26512 -28.7392,7.09941 -63.20586,15.18731 -34.46665,8.08791 -63.12026,14.87642 -63.67469,15.08558 -0.72742,0.27442 -0.87418,0.0315 -0.52714,-0.87296 z"
     id="path4620"
     inkscape:connector-curvature="0" /><path
     style="fill:#ffffff;fill-opacity:1;stroke:#ffffff;stroke-width:4.59695482;stroke-linecap:round;stroke-linejoin:round;stroke-miterlimit:4;stroke-dasharray:none;stroke-opacity:1"
     d="m 276.47546,270.91918 c -16.07603,-17.57189 -29.30517,-32.14986 -29.39809,-32.39546 -0.19498,-0.51528 91.30877,-60.36757 91.6974,-59.97895 0.19973,0.19973 -29.80321,117.75111 -31.41509,123.08415 -0.20599,0.68154 -0.66266,1.23918 -1.01482,1.23918 -0.35216,0 -13.79339,-14.37701 -29.8694,-31.94892 z"
     id="path4622"
     inkscape:connector-curvature="0" /><path
     style="fill:#ffffff;fill-opacity:1;stroke:#ffffff;stroke-width:4.59695482;stroke-linecap:round;stroke-linejoin:round;stroke-miterlimit:4;stroke-dasharray:none;stroke-opacity:1"
     d="M 240.20416,220.55175 C 223.67559,148.98512 211.64769,96.425244 211.76986,96.298698 c 0.0844,-0.08741 28.38889,15.685462 62.8989,35.050832 34.51001,19.36537 65.37647,35.42957 65.11588,35.69822 -0.93678,0.96577 -96.6371,61.4701 -97.18248,61.4701 -0.30701,0 -1.38611,-3.58475 -2.398,-7.9661 z"
     id="path4624"
     inkscape:connector-curvature="0"
     sodipodi:nodetypes="scscss" /><path
     style="fill:#ffffff;fill-opacity:1;stroke:#ffffff;stroke-width:4.59695482;stroke-linecap:round;stroke-linejoin:round;stroke-miterlimit:4;stroke-dasharray:none;stroke-opacity:1"
     d="M 266.06821,115.01095 C 238.25379,99.354279 215.382,86.198336 215.24199,85.775525 c -0.25347,-0.765553 27.42744,-18.801082 29.1144,-18.969518 0.80175,-0.08006 72.67024,74.615383 73.22764,76.108053 0.12982,0.34763 9.52979,6.81251 9.20527,6.79367 -0.32454,-0.0188 -32.90666,-19.0401 -60.72109,-34.69678 z"
     id="path4626"
     inkscape:connector-curvature="0"
     sodipodi:nodetypes="scsscs" /><path
     style="fill:#ffffff;fill-opacity:1;stroke:#ffffff;stroke-width:4.59695482;stroke-linecap:round;stroke-linejoin:round;stroke-miterlimit:4;stroke-dasharray:none;stroke-opacity:1"
     d="m 136.55813,84.386818 c 0.21734,-0.652003 32.59351,-5.767512 51.96226,-9.30944 15.55276,-2.844104 36.48188,-8.10137 37.20555,-8.00464 0.83262,0.111293 -9.43287,5.179397 -14.83841,8.616021 l -8.54211,5.430731 -21.36868,0.516395 c -17.74933,0.428931 -44.68217,3.541606 -44.41861,2.750933 z"
     id="path4628"
     inkscape:connector-curvature="0"
     sodipodi:nodetypes="cssscsc" /><path
     id="path4241"
     style="fill:none;fill-opacity:0.78698222;fill-rule:evenodd;stroke:#000000;stroke-width:9.19390965;stroke-linecap:round;stroke-linejoin:round;stroke-miterlimit:4;stroke-dasharray:none;stroke-opacity:1"
     d="M 86.510076,212.47985 158.18553,349.90706 M 309.28477,314.33742 238.92339,237.30547 M 158.18553,349.90706 238.92339,237.30547 M 86.510076,212.47985 238.92339,237.30547 m 0,0 108.44319,-70.86343 M 204.08655,85.945071 238.92339,237.30547 M 347.36658,166.44204 204.08655,85.945071 M 86.510076,212.47985 204.08655,85.945071 m 41.42809,-26.315398 -41.42809,26.315398 m 0,0 -122.228738,3.544266 M 86.510076,212.47985 81.857812,89.489337 M 56.663437,243.14523 86.510076,212.47985 M 81.857812,89.489337 56.663437,243.14523 M 245.51464,59.629673 81.857812,89.489337 M 347.36658,166.44204 245.51464,59.629673 M 309.28477,314.33742 347.36658,166.44204 M 158.18553,349.90706 309.28477,314.33742 M 56.663437,243.14523 158.18553,349.90706"
     inkscape:connector-curvature="0"
     sodipodi:nodetypes="cccccccccccccccccccccccccccccccccccc" /><g
     id="g4631" /><path
     inkscape:connector-curvature="0"
     id="path4580"
     d="m 268.06997,378.09631 c 0.33716,-1.36576 60.04549,-124.42032 60.50599,-124.69847 0.31595,-0.19084 2.88937,2.74476 5.71873,6.52356 32.94487,44.00011 59.73273,80.23873 59.78838,80.8818 0.0603,0.69629 -124.30285,38.12144 -125.60703,37.79949 -0.27531,-0.068 -0.45804,-0.29583 -0.40607,-0.50638 z"
     style="fill:#ffffff;fill-opacity:1;stroke:#ffffff;stroke-width:4.4968996;stroke-linecap:round;stroke-linejoin:round;stroke-miterlimit:4;stroke-dasharray:none;stroke-opacity:1" /><path
     sodipodi:nodetypes="scssss"
     inkscape:connector-curvature="0"
     id="path4590"
     d="m 246.61116,363.6598 c -5.67631,-7.80627 -10.34146,-14.39524 -10.36698,-14.64213 -0.0424,-0.41014 79.09311,-88.32876 80.24916,-89.12775 0.2761,-0.19082 -8.69614,11.88979 -8.58423,12.07507 0.17977,0.29762 -50.34225,105.5044 -50.7968,105.77896 -0.0994,0.06 -4.82484,-6.27788 -10.50115,-14.08415 z"
     style="fill:#ffffff;fill-opacity:1;stroke:#ffffff;stroke-width:4.4968996;stroke-linecap:round;stroke-linejoin:round;stroke-miterlimit:4;stroke-dasharray:none;stroke-opacity:1" /><path
     inkscape:connector-curvature="0"
     id="path4594"
     d="m 326.63827,437.49535 c -31.8139,-26.06751 -57.82496,-47.61308 -57.80234,-47.87905 0.0462,-0.54417 128.74356,-38.86353 129.01509,-38.41398 0.19194,0.31778 -12.98661,133.4849 -13.22242,133.61037 -0.0808,0.0429 -26.17645,-21.24982 -57.99033,-47.31734 z"
     style="fill:#ffffff;fill-opacity:1;stroke:#ffffff;stroke-width:4.4968996;stroke-linecap:round;stroke-linejoin:round;stroke-miterlimit:4;stroke-dasharray:none;stroke-opacity:1" /><path
     sodipodi:nodetypes="ssscsss"
     inkscape:connector-curvature="0"
     id="path4596"
     d="m 248.60324,404.98017 c -4.33008,-17.47493 -8.57287,-33.57518 -8.40586,-33.67606 0.16703,-0.10085 3.81597,5.20949 7.08621,9.69854 l 5.94588,8.1619 2.09184,22.77462 c 2.30606,25.10695 4.47218,34.71361 3.79608,34.54671 -0.26099,-0.0644 -6.18405,-24.0308 -10.51415,-41.50571 z"
     style="fill:#ffffff;fill-opacity:1;stroke:#ffffff;stroke-width:4.4968996;stroke-linecap:round;stroke-linejoin:round;stroke-miterlimit:4;stroke-dasharray:none;stroke-opacity:1" /><path
     sodipodi:nodetypes="cscsssc"
     inkscape:connector-curvature="0"
     id="path4600"
     d="m 322.533,506.42032 c 0.18696,-0.29574 14.75859,-1.99798 32.3814,-3.78276 l 32.04146,-3.24506 9.11629,7.81921 c 7.00966,6.01232 8.88737,7.85126 8.12563,7.95788 -0.80265,0.11231 -92.73683,-8.59066 -94.04047,-8.91248 -0.20937,-0.0517 12.18872,0.45894 12.37569,0.16321 z"
     style="fill:#ffffff;fill-opacity:1;stroke:#ffffff;stroke-width:4.4968996;stroke-linecap:round;stroke-linejoin:round;stroke-miterlimit:4;stroke-dasharray:none;stroke-opacity:1" /><path
     sodipodi:nodetypes="ssscs"
     inkscape:connector-curvature="0"
     id="path4602"
     d="m 408.35602,505.18015 c -6.11598,-5.29272 -11.08861,-9.7501 -11.0503,-9.90531 0.14267,-0.57795 99.10241,-61.29018 99.32054,-60.92907 0.24575,0.40687 -76.363,80.68643 -76.85337,80.54383 -0.16336,-0.0473 -5.3009,-4.41675 -11.41687,-9.70945 z"
     style="fill:#ffffff;fill-opacity:1;stroke:#ffffff;stroke-width:4.4968996;stroke-linecap:round;stroke-linejoin:round;stroke-miterlimit:4;stroke-dasharray:none;stroke-opacity:1" /><path
     inkscape:connector-curvature="0"
     id="path4604"
     d="m 394.37864,484.54357 c 0.0345,-0.19958 2.98808,-29.94897 6.56327,-66.10978 3.57521,-36.1608 6.57376,-65.80534 6.66345,-65.87674 0.0896,-0.0714 19.59351,12.0496 43.34178,26.93558 23.74828,14.886 46.60254,29.19716 50.78727,31.80259 l 7.60858,4.73716 -57.15605,34.52529 c -31.43585,18.9889 -57.31698,34.48557 -57.51364,34.43702 -0.19666,-0.0486 -0.32925,-0.25156 -0.29466,-0.45112 z"
     style="fill:#ffffff;fill-opacity:1;stroke:#ffffff;stroke-width:4.4968996;stroke-linecap:round;stroke-linejoin:round;stroke-miterlimit:4;stroke-dasharray:none;stroke-opacity:1" /><path
     inkscape:connector-curvature="0"
     id="path4606"
     d="m 460.36072,374.11693 c -26.8611,-16.85666 -48.89178,-30.7447 -48.95706,-30.86229 -0.23219,-0.41813 60.34631,-62.73293 60.74187,-62.48285 0.32126,0.20312 35.9858,117.22681 37.40203,122.72481 0.2099,0.81487 0.21736,1.43372 0.0165,1.37521 -0.2007,-0.0588 -22.34232,-13.89821 -49.20341,-30.75488 z"
     style="fill:#ffffff;fill-opacity:1;stroke:#ffffff;stroke-width:4.4968996;stroke-linecap:round;stroke-linejoin:round;stroke-miterlimit:4;stroke-dasharray:none;stroke-opacity:1" /><path
     inkscape:connector-curvature="0"
     id="path4608"
     d="m 371.69122,293.48917 c -17.50653,-23.51095 -31.83199,-42.97468 -31.83437,-43.25274 -0.002,-0.31672 5.98109,0.64496 16.01743,2.57419 8.81196,1.69388 36.80859,7.06852 62.21474,11.94365 25.40613,4.87514 46.2567,8.9694 46.3346,9.09837 0.2173,0.35975 -59.84983,62.39362 -60.41036,62.38835 -0.2706,-0.002 -14.81552,-19.24088 -32.32204,-42.75182 z"
     style="fill:#ffffff;fill-opacity:1;stroke:#ffffff;stroke-width:4.4968996;stroke-linecap:round;stroke-linejoin:round;stroke-miterlimit:4;stroke-dasharray:none;stroke-opacity:1" /><path
     inkscape:connector-curvature="0"
     id="path4592"
     d="m 268.42171,449.9165 c -2.55865,-28.03187 -4.56332,-51.02187 -4.45482,-51.08887 0.14189,-0.0877 112.13986,91.41098 112.57691,91.97159 0.12338,0.15822 -102.54426,10.34047 -102.99774,10.21499 -0.25966,-0.0722 -2.56569,-23.06585 -5.12435,-51.09771 z"
     style="fill:#ffffff;fill-opacity:1;stroke:#ffffff;stroke-width:4.4968996;stroke-linecap:round;stroke-linejoin:round;stroke-miterlimit:4;stroke-dasharray:none;stroke-opacity:1" /><path
     sodipodi:nodetypes="cccccccccccccccccccccccccccccccccccc"
     inkscape:connector-curvature="0"
     d="m 388.58249,494.46889 129.81273,-78.34458 m -43.92527,-145.35896 -70.92647,73.38539 m 114.85174,71.97357 -114.85174,-71.97357 m -14.96099,150.31815 14.96099,-150.31815 m 0,0 -75.78753,-101.56393 M 257.88491,387.37643 403.54348,344.15074 M 327.75595,242.58681 257.88491,387.37643 M 388.58249,494.46889 257.88491,387.37643 m -28.21442,-38.84607 28.21442,38.84607 m 0,0 10.90034,119.12094 m 119.79724,-12.02848 -119.79724,12.02848 m 151.55376,15.2454 -31.75652,-27.27388 m -119.79724,12.02848 151.55376,15.2454 M 229.67049,348.53036 268.78525,506.49737 m 58.9707,-263.91056 -98.08546,105.94355 m 244.79946,-77.76501 -146.714,-28.17854 m 190.63927,173.5375 -43.92527,-145.35896 m -54.13094,250.97742 98.05622,-105.61843"
     style="fill:#ff0000;fill-opacity:0.78698222;fill-rule:evenodd;stroke:#000000;stroke-width:8.99379921;stroke-linecap:round;stroke-linejoin:round;stroke-miterlimit:4;stroke-dasharray:none;stroke-opacity:1"
     id="path4241-1" /><path
     id="path4241-1-1"
     style="fill:#ff0000;fill-opacity:0.78698222;fill-rule:evenodd;stroke:#000000;stroke-width:8.99379921;stroke-linecap:round;stroke-linejoin:round;stroke-miterlimit:4;stroke-dasharray:none;stroke-opacity:1"
     d="M 386.39957,493.93002 516.2123,415.58544 m -43.92527,-145.35898 -70.92647,73.3854 M 516.2123,415.58544 401.36056,343.61186 m -14.96099,150.31816 14.96099,-150.31816 m 0,0 -75.78754,-101.56394 M 255.70199,386.83754 401.36056,343.61186 M 325.57302,242.04792 255.70199,386.83754 M 386.39957,493.93002 255.70199,386.83754 m -28.21442,-38.84607 28.21442,38.84607 m 0,0 10.90033,119.12094 m 119.79725,-12.02846 -119.79725,12.02846 m 151.55377,15.2454 -31.75652,-27.27386 m -119.79725,12.02846 151.55377,15.2454 M 227.48757,347.99147 266.60232,505.95848 m 58.9707,-263.91056 -98.08545,105.94355 M 472.28703,270.22646 325.57302,242.04792 M 516.2123,415.58544 472.28703,270.22646 m -54.13094,250.97742 98.05622,-105.61842"
     inkscape:connector-curvature="0"
     sodipodi:nodetypes="cccccccccccccccccccccccccccccccccccc" /></svg>