<?xml version="1.0" encoding="UTF-8" standalone="no"?>
<svg
   xmlns:dc="http://purl.org/dc/elements/1.1/"
   xmlns:cc="http://creativecommons.org/ns#"
   xmlns:rdf="http://www.w3.org/1999/02/22-rdf-syntax-ns#"
   xmlns:svg="http://www.w3.org/2000/svg"
   xmlns="http://www.w3.org/2000/svg"
   xmlns:sodipodi="http://sodipodi.sourceforge.net/DTD/sodipodi-0.dtd"
   xmlns:inkscape="http://www.inkscape.org/namespaces/inkscape"
   version="1.1"
   id="Your_Icon"
   x="0px"
   y="0px"
   width="200"
   height="320"
   viewBox="0 0 200 320"
   enable-background="new 0 0 100 100"
   xml:space="preserve"
   inkscape:version="0.91 r13725"
   sodipodi:docname="logo-splash_android_ldpi.svg"
   inkscape:export-filename="C:\Users\Eleazar\Workspace\CriticalRoll\resources\svg\logo-splash_android_ldpi.png"
   inkscape:export-xdpi="90"
   inkscape:export-ydpi="90"><metadata
     id="metadata9"><rdf:RDF><cc:Work
         rdf:about=""><dc:format>image/svg+xml</dc:format><dc:type
           rdf:resource="http://purl.org/dc/dcmitype/StillImage" /><dc:title></dc:title></cc:Work></rdf:RDF></metadata><defs
     id="defs7" /><sodipodi:namedview
     pagecolor="#ffffff"
     bordercolor="#666666"
     borderopacity="1"
     objecttolerance="10"
     gridtolerance="10"
     guidetolerance="10"
     inkscape:pageopacity="0"
     inkscape:pageshadow="2"
     inkscape:window-width="1440"
     inkscape:window-height="837"
     id="namedview5"
     showgrid="false"
     inkscape:zoom="0.70710678"
     inkscape:cx="446.98864"
     inkscape:cy="353.52819"
     inkscape:window-x="-8"
     inkscape:window-y="-8"
     inkscape:window-maximized="1"
     inkscape:current-layer="Your_Icon"
     showguides="true"
     inkscape:snap-bbox="true"
     inkscape:bbox-paths="true"
     inkscape:bbox-nodes="true"
     inkscape:snap-bbox-edge-midpoints="true"
     inkscape:snap-bbox-midpoints="true"
     inkscape:object-paths="true"
     inkscape:snap-intersection-paths="true"
     inkscape:object-nodes="true"
     inkscape:snap-smooth-nodes="true"
     inkscape:snap-midpoints="true"
     inkscape:snap-object-midpoints="true"
     inkscape:snap-center="true"
     inkscape:snap-page="true"
     inkscape:snap-global="true"
     inkscape:guide-bbox="true"><inkscape:grid
       type="xygrid"
       id="grid2988"
       empspacing="5"
       visible="true"
       enabled="true"
       snapvisiblegridlinesonly="true" /></sodipodi:namedview><rect
     style="fill:#336e7b;fill-opacity:1;stroke:#000000;stroke-width:7.76797581;stroke-linecap:square;stroke-linejoin:miter;stroke-miterlimit:4;stroke-dasharray:none;stroke-opacity:1"
     id="rect4165"
     width="192.23215"
     height="312.23215"
     x="3.8838611"
     y="3.8839879"
     ry="0" /><g
     id="g4716"
     transform="matrix(0.36160571,0,0,0.353473,6.2637449,67.597088)"><path
       inkscape:connector-curvature="0"
       id="path4610"
       d="m 119.8305,251.94771 c -14.9609,-28.68242 -27.071515,-52.27998 -26.912473,-52.43902 0.159042,-0.15904 14.931103,2.09828 32.826803,5.01627 17.8957,2.91799 43.97795,7.16694 57.96055,9.44211 13.9826,2.27517 25.35047,4.31155 25.26194,4.52529 -0.43657,1.05396 -61.21276,85.56585 -61.54725,85.58407 -0.21336,0.0116 -12.62866,-23.4463 -27.58957,-52.12872 z"
       style="fill:#d91e18;fill-opacity:1;stroke:#d91e18;stroke-width:4;stroke-linecap:round;stroke-linejoin:round;stroke-miterlimit:4;stroke-dasharray:none;stroke-opacity:1" /><path
       inkscape:connector-curvature="0"
       id="path4612"
       d="M 206.0337,208.82195 C 184.46959,205.41674 94.156013,190.57162 93.98651,190.4044 c -0.119285,-0.11768 0.15798,-0.73341 0.616145,-1.3683 1.735338,-2.40468 88.741645,-95.660108 89.249855,-95.660108 0.2932,0 0.67925,0.485214 0.8579,1.078254 1.01021,3.353437 26.30018,114.282334 26.13878,114.652064 -0.10692,0.24494 -2.27389,0.11698 -4.81549,-0.28436 z"
       style="fill:#d91e18;fill-opacity:1;stroke:#d91e18;stroke-width:4;stroke-linecap:round;stroke-linejoin:round;stroke-miterlimit:4;stroke-dasharray:none;stroke-opacity:1" /><path
       inkscape:connector-curvature="0"
       id="path4614"
       d="M 88.315877,181.33068 C 88.210852,180.8568 84.773535,90.59363 84.8587,90.545979 c 0.346891,-0.194093 90.69613,-2.592292 90.87624,-2.412188 0.324,0.323999 -86.231562,93.350929 -86.857021,93.350929 -0.290347,0 -0.543266,-0.0693 -0.562042,-0.15404 z"
       style="fill:#d91e18;fill-opacity:1;stroke:#d91e18;stroke-width:4;stroke-linecap:round;stroke-linejoin:round;stroke-miterlimit:4;stroke-dasharray:none;stroke-opacity:1" /><path
       sodipodi:nodetypes="ssccsscsss"
       inkscape:connector-curvature="0"
       id="path4616"
       d="m 65.299992,204.43612 c 0.182973,-0.93192 2.761153,-16.51179 5.729289,-34.62193 3.335324,-20.35054 5.673467,-33.01981 6.121441,-33.16913 0.398656,-0.13289 0.728932,-12.21023 0.733947,-11.58895 0.005,0.62128 0.415849,23.58808 0.912966,35.78775 0.497117,12.19967 0.908912,24.12867 0.9151,26.5089 l 0.01125,4.32767 -6.828245,7.22504 c -3.755535,3.97378 -7.075786,7.22505 -7.378336,7.22505 -0.302549,0 -0.400385,-0.76248 -0.217412,-1.6944 z"
       style="fill:#96281b;fill-opacity:1;stroke:#96281b;stroke-width:4;stroke-linecap:round;stroke-linejoin:round;stroke-miterlimit:4;stroke-dasharray:none;stroke-opacity:1" /><path
       sodipodi:nodetypes="scsssss"
       inkscape:connector-curvature="0"
       id="path4618"
       d="M 94.965673,252.18735 62.97741,219.2236 73.719138,210.60925 c 5.685657,-4.55962 9.552403,-9.18183 9.793182,-8.9341 0.498869,0.51328 48.12188,88.75301 48.12188,89.19505 0,0.15857 -5.30446,-6.48927 -5.57489,-6.48927 -0.27044,0 -14.26257,-14.48711 -31.093637,-32.19358 z"
       style="fill:#96281b;fill-opacity:1;stroke:#96281b;stroke-width:4;stroke-linecap:round;stroke-linejoin:round;stroke-miterlimit:4;stroke-dasharray:none;stroke-opacity:1" /><path
       inkscape:connector-curvature="0"
       id="path4620"
       d="m 158.17892,305.06943 c 0.23016,-0.59977 13.63186,-19.52109 29.78156,-42.04737 l 29.3631,-40.95688 1.68803,1.73695 c 8.6122,8.86179 50.3907,55.36276 50.03,55.68521 -0.25806,0.23069 -25.00717,6.17749 -54.99803,13.21511 -29.99085,7.03762 -54.92354,12.94458 -55.40597,13.12658 -0.63296,0.23879 -0.76066,0.0274 -0.45869,-0.7596 z"
       style="fill:#d91e18;fill-opacity:1;stroke:#d91e18;stroke-width:4;stroke-linecap:round;stroke-linejoin:round;stroke-miterlimit:4;stroke-dasharray:none;stroke-opacity:1" /><path
       inkscape:connector-curvature="0"
       id="path4622"
       d="m 249.64344,244.25796 c -13.98841,-15.29003 -25.49963,-27.97492 -25.58049,-28.18863 -0.16966,-0.44836 79.45153,-52.52831 79.78969,-52.19016 0.1738,0.1738 -25.933,102.4601 -27.33556,107.1006 -0.17924,0.59304 -0.57661,1.07826 -0.88304,1.07826 -0.30643,0 -12.0022,-12.51003 -25.9906,-27.80007 z"
       style="fill:#f22613;fill-opacity:1;stroke:#f22613;stroke-width:4;stroke-linecap:round;stroke-linejoin:round;stroke-miterlimit:4;stroke-dasharray:none;stroke-opacity:1" /><path
       sodipodi:nodetypes="scscss"
       inkscape:connector-curvature="0"
       id="path4624"
       d="M 218.08229,200.43118 C 203.7001,138.1581 193.23413,92.423587 193.34043,92.313474 c 0.0734,-0.07606 24.70235,13.648566 54.73093,30.499176 30.02858,16.85061 56.88676,30.82873 56.66001,31.06249 -0.81513,0.84036 -84.08792,53.48767 -84.56248,53.48767 -0.26714,0 -1.20611,-3.11924 -2.0866,-6.93163 z"
       style="fill:#f22613;fill-opacity:1;stroke:#f22613;stroke-width:4;stroke-linecap:round;stroke-linejoin:round;stroke-miterlimit:4;stroke-dasharray:none;stroke-opacity:1" /><path
       sodipodi:nodetypes="scsscs"
       inkscape:connector-curvature="0"
       id="path4626"
       d="M 240.58767,108.59578 C 216.38519,94.972261 196.4835,83.524732 196.36168,83.156827 c -0.22056,-0.666139 23.86574,-16.359597 25.33364,-16.50616 0.69763,-0.06966 63.23337,64.925923 63.71839,66.224753 0.11296,0.30249 8.29226,5.92785 8.00988,5.91146 -0.28239,-0.0164 -28.63344,-16.56758 -52.83592,-30.1911 z"
       style="fill:#f22613;fill-opacity:1;stroke:#f22613;stroke-width:4;stroke-linecap:round;stroke-linejoin:round;stroke-miterlimit:4;stroke-dasharray:none;stroke-opacity:1" /><path
       sodipodi:nodetypes="cssscsc"
       inkscape:connector-curvature="0"
       id="path4628"
       d="m 127.8956,81.948456 c 0.18912,-0.567335 28.36096,-5.01855 45.21451,-8.100528 13.5331,-2.474772 31.74439,-7.049336 32.37408,-6.965167 0.7245,0.09684 -8.20793,4.506807 -12.91151,7.497155 l -7.43284,4.725503 -18.59377,0.449337 c -15.44443,0.37323 -38.8798,3.081697 -38.65047,2.3937 z"
       style="fill:#d91e18;fill-opacity:1;stroke:#d91e18;stroke-width:4;stroke-linecap:round;stroke-linejoin:round;stroke-miterlimit:4;stroke-dasharray:none;stroke-opacity:1" /><path
       sodipodi:nodetypes="cccccccccccccccccccccccccccccccccccc"
       inkscape:connector-curvature="0"
       d="M 84.346727,193.40749 146.7145,312.98857 m 131.47768,-30.95061 -61.22434,-67.02868 m -70.25334,97.97929 70.25334,-97.97929 M 84.346727,193.40749 216.96784,215.00928 m 0,0 94.36089,-61.66119 M 186.65487,83.304356 216.96784,215.00928 M 311.32873,153.34809 186.65487,83.304356 M 84.346727,193.40749 186.65487,83.304356 m 36.04829,-22.898113 -36.04829,22.898113 m 0,0 L 80.2986,86.388368 M 84.346727,193.40749 80.2986,86.388368 M 58.375935,220.0907 84.346727,193.40749 M 80.2986,86.388368 58.375935,220.0907 M 222.70316,60.406243 80.2986,86.388368 M 311.32873,153.34809 222.70316,60.406243 M 278.19218,282.03796 311.32873,153.34809 M 146.7145,312.98857 278.19218,282.03796 M 58.375935,220.0907 146.7145,312.98857"
       style="fill:none;fill-opacity:0.78698222;fill-rule:evenodd;stroke:#000000;stroke-width:8;stroke-linecap:round;stroke-linejoin:round;stroke-miterlimit:4;stroke-dasharray:none;stroke-opacity:1"
       id="path4241" /></g><g
     id="g4631"
     transform="translate(0,-256)" /><g
     id="g4740"
     transform="matrix(0.35373514,0,0,0.34577946,-13.060726,54.303881)"><path
       style="fill:#2ecc71;fill-opacity:1;stroke:#2ecc71;stroke-width:4;stroke-linecap:round;stroke-linejoin:round;stroke-miterlimit:4;stroke-dasharray:none;stroke-opacity:1"
       d="m 302.35104,383.47108 c 0.2999,-1.21485 53.41056,-110.67209 53.82018,-110.91951 0.28104,-0.16975 2.5701,2.44147 5.08682,5.80272 29.30452,39.13817 53.13237,71.37249 53.18187,71.9445 0.0536,0.61935 -110.5676,33.90909 -111.72767,33.62271 -0.24489,-0.0605 -0.40743,-0.26314 -0.3612,-0.45042 z"
       id="path4580"
       inkscape:connector-curvature="0" /><path
       style="fill:#26a65b;fill-opacity:1;stroke:#26a65b;stroke-width:4;stroke-linecap:round;stroke-linejoin:round;stroke-miterlimit:4;stroke-dasharray:none;stroke-opacity:1"
       d="m 283.26339,370.62978 c -5.04909,-6.94369 -9.19875,-12.80459 -9.22145,-13.0242 -0.0377,-0.36482 70.35346,-78.56859 71.38177,-79.27929 0.24559,-0.16974 -7.73523,10.57599 -7.63569,10.74079 0.15991,0.26474 -44.77952,93.84635 -45.18384,94.09057 -0.0884,0.0534 -4.2917,-5.58418 -9.34079,-12.52787 z"
       id="path4590"
       inkscape:connector-curvature="0"
       sodipodi:nodetypes="scssss" /><path
       style="fill:#2ecc71;fill-opacity:1;stroke:#2ecc71;stroke-width:4;stroke-linecap:round;stroke-linejoin:round;stroke-miterlimit:4;stroke-dasharray:none;stroke-opacity:1"
       d="m 354.44764,436.30663 c -28.29852,-23.1871 -51.4354,-42.35192 -51.41528,-42.5885 0.0411,-0.48404 114.51762,-34.56918 114.75915,-34.1693 0.17073,0.28266 -11.55162,118.73505 -11.76137,118.84665 -0.0719,0.0382 -23.284,-18.90175 -51.5825,-42.08885 z"
       id="path4594"
       inkscape:connector-curvature="0" /><path
       style="fill:#26a65b;fill-opacity:1;stroke:#26a65b;stroke-width:4;stroke-linecap:round;stroke-linejoin:round;stroke-miterlimit:4;stroke-dasharray:none;stroke-opacity:1"
       d="m 285.03535,407.38432 c -3.85162,-15.54398 -7.62559,-29.86518 -7.47703,-29.95492 0.14857,-0.0897 3.39431,4.63385 6.3032,8.62687 l 5.28887,7.26003 1.86069,20.25806 c 2.05125,22.33268 3.97801,30.87782 3.37662,30.72936 -0.23215,-0.0573 -5.50072,-21.37544 -9.35235,-36.9194 z"
       id="path4596"
       inkscape:connector-curvature="0"
       sodipodi:nodetypes="ssscsss" /><path
       style="fill:#26a65b;fill-opacity:1;stroke:#26a65b;stroke-width:4;stroke-linecap:round;stroke-linejoin:round;stroke-miterlimit:4;stroke-dasharray:none;stroke-opacity:1"
       d="m 350.796,497.61551 c 0.1663,-0.26306 13.12779,-1.77721 28.80331,-3.36477 l 28.50093,-2.88649 8.10896,6.9552 c 6.2351,5.34797 7.90533,6.98371 7.22776,7.07855 -0.71396,0.0999 -82.48957,-7.64141 -83.64916,-7.92767 -0.18624,-0.046 10.84189,0.40823 11.0082,0.14518 z"
       id="path4600"
       inkscape:connector-curvature="0"
       sodipodi:nodetypes="cscsssc" /><path
       style="fill:#2ecc71;fill-opacity:1;stroke:#2ecc71;stroke-width:4;stroke-linecap:round;stroke-linejoin:round;stroke-miterlimit:4;stroke-dasharray:none;stroke-opacity:1"
       d="m 427.13572,496.51237 c -5.44017,-4.70788 -9.86334,-8.67273 -9.82926,-8.81079 0.12691,-0.51408 88.15177,-54.51772 88.34579,-54.19651 0.2186,0.36191 -67.92502,71.77072 -68.3612,71.64388 -0.14531,-0.0421 -4.71516,-3.92871 -10.15533,-8.63658 z"
       id="path4602"
       inkscape:connector-curvature="0"
       sodipodi:nodetypes="ssscs" /><path
       style="fill:#2ecc71;fill-opacity:1;stroke:#2ecc71;stroke-width:4;stroke-linecap:round;stroke-linejoin:round;stroke-miterlimit:4;stroke-dasharray:none;stroke-opacity:1"
       d="m 414.70282,478.1561 c 0.0307,-0.17753 2.6579,-26.63966 5.83804,-58.80476 3.18015,-32.1651 5.84737,-58.53397 5.92715,-58.59748 0.0797,-0.0635 17.42846,10.71814 38.55259,23.95925 21.12413,13.24112 41.45304,25.97092 45.17536,28.28846 l 6.76785,4.21371 -50.84041,30.7103 c -27.96224,16.89066 -50.98355,30.67498 -51.15848,30.63179 -0.17493,-0.0432 -0.29287,-0.22376 -0.2621,-0.40127 z"
       id="path4604"
       inkscape:connector-curvature="0" /><path
       style="fill:#87d37c;fill-opacity:1;stroke:#87d37c;stroke-width:4;stroke-linecap:round;stroke-linejoin:round;stroke-miterlimit:4;stroke-dasharray:none;stroke-opacity:1"
       d="M 473.39399,379.93141 C 449.501,364.93738 429.90467,352.58395 429.8466,352.47935 c -0.20653,-0.37193 53.67815,-55.80105 54.03,-55.5786 0.28576,0.18067 32.00943,104.27345 33.26917,109.16393 0.18671,0.72483 0.19334,1.2753 0.0147,1.22325 -0.17853,-0.0523 -19.87354,-12.36248 -43.76652,-27.35652 z"
       id="path4606"
       inkscape:connector-curvature="0" /><path
       style="fill:#87d37c;fill-opacity:1;stroke:#87d37c;stroke-width:4;stroke-linecap:round;stroke-linejoin:round;stroke-miterlimit:4;stroke-dasharray:none;stroke-opacity:1"
       d="m 394.52232,308.21288 c -15.57209,-20.91303 -28.31461,-38.22605 -28.31673,-38.47339 -0.002,-0.28172 5.32019,0.5737 14.24753,2.28975 7.83826,1.50671 32.74131,6.28746 55.34012,10.6239 22.5988,4.33644 41.14542,7.97829 41.21471,8.09301 0.19329,0.32 -53.23653,55.49924 -53.73512,55.49455 -0.2407,-0.002 -13.17843,-17.1148 -28.75051,-38.02782 z"
       id="path4608"
       inkscape:connector-curvature="0" /><path
       style="fill:#26a65b;fill-opacity:1;stroke:#26a65b;stroke-width:4;stroke-linecap:round;stroke-linejoin:round;stroke-miterlimit:4;stroke-dasharray:none;stroke-opacity:1"
       d="m 302.66391,447.35526 c -2.27592,-24.9344 -4.05908,-45.38404 -3.96257,-45.44364 0.12621,-0.078 99.7486,81.31023 100.13736,81.80889 0.10974,0.14074 -91.2133,9.19787 -91.61667,9.08625 -0.23097,-0.0642 -2.28219,-20.51711 -4.55812,-45.4515 z"
       id="path4592"
       inkscape:connector-curvature="0" /><path
       id="path4241-1"
       style="fill:#ff0000;fill-opacity:0.78698222;fill-rule:evenodd;stroke:#000000;stroke-width:8;stroke-linecap:round;stroke-linejoin:round;stroke-miterlimit:4;stroke-dasharray:none;stroke-opacity:1"
       d="M 409.54713,486.98469 525.01578,417.29705 M 485.94418,288 422.85496,353.27643 m 102.16082,64.02062 -102.16082,-64.02062 m -13.30783,133.70826 13.30783,-133.70826 m 0,0 -67.41314,-90.34129 m -62.15041,128.79062 129.56355,-38.44933 m -67.41314,-90.34129 -62.15041,128.79062 m 116.25572,95.25893 -116.25572,-95.25893 m -25.09678,-34.55365 25.09678,34.55365 m 0,0 9.69587,105.95828 m 106.55985,-10.69935 -106.55985,10.69935 m 134.80733,13.56081 -28.24748,-24.26016 m -106.55985,10.69935 134.80733,13.56081 M 268.19463,357.17211 302.98728,497.68404 m 52.45454,-234.7489 -87.24719,94.23697 M 485.94418,288 355.44182,262.93514 M 525.01578,417.29705 485.94418,288 m -48.14957,223.24485 87.22118,-93.94777"
       inkscape:connector-curvature="0"
       sodipodi:nodetypes="cccccccccccccccccccccccccccccccccccc" /><path
       sodipodi:nodetypes="cccccccccccccccccccccccccccccccccccc"
       inkscape:connector-curvature="0"
       d="M 407.60542,486.50536 523.07407,416.81772 M 484.00247,287.52066 420.91325,352.7971 M 523.07407,416.81772 420.91325,352.7971 M 407.60542,486.50536 420.91325,352.7971 m 0,0 -67.41315,-90.3413 M 291.3497,391.24642 420.91325,352.7971 M 353.5001,262.4558 291.3497,391.24642 M 407.60542,486.50536 291.3497,391.24642 m -25.09678,-34.55365 25.09678,34.55365 m 0,0 9.69586,105.95828 M 407.60542,486.50536 301.04556,497.2047 M 435.8529,510.76551 407.60542,486.50536 M 301.04556,497.2047 435.8529,510.76551 M 266.25292,356.69277 301.04556,497.2047 M 353.5001,262.4558 266.25292,356.69277 M 484.00247,287.52066 353.5001,262.4558 m 169.57397,154.36192 -39.0716,-129.29706 m -48.14957,223.24485 87.22118,-93.94777"
       style="fill:#ff0000;fill-opacity:0.78698222;fill-rule:evenodd;stroke:#000000;stroke-width:8;stroke-linecap:round;stroke-linejoin:round;stroke-miterlimit:4;stroke-dasharray:none;stroke-opacity:1"
       id="path4241-1-1" /></g></svg>