<?xml version="1.0" encoding="UTF-8" standalone="no"?>
<svg
   xmlns:dc="http://purl.org/dc/elements/1.1/"
   xmlns:cc="http://creativecommons.org/ns#"
   xmlns:rdf="http://www.w3.org/1999/02/22-rdf-syntax-ns#"
   xmlns:svg="http://www.w3.org/2000/svg"
   xmlns="http://www.w3.org/2000/svg"
   xmlns:sodipodi="http://sodipodi.sourceforge.net/DTD/sodipodi-0.dtd"
   xmlns:inkscape="http://www.inkscape.org/namespaces/inkscape"
   version="1.1"
   id="Your_Icon"
   x="0px"
   y="0px"
   width="576"
   height="576"
   viewBox="0 0 576 576"
   enable-background="new 0 0 100 100"
   xml:space="preserve"
   inkscape:version="0.91 r13725"
   sodipodi:docname="logo-template.svg"><metadata
     id="metadata9"><rdf:RDF><cc:Work
         rdf:about=""><dc:format>image/svg+xml</dc:format><dc:type
           rdf:resource="http://purl.org/dc/dcmitype/StillImage" /><dc:title></dc:title></cc:Work></rdf:RDF></metadata><defs
     id="defs7" /><sodipodi:namedview
     pagecolor="#ffffff"
     bordercolor="#666666"
     borderopacity="1"
     objecttolerance="10"
     gridtolerance="10"
     guidetolerance="10"
     inkscape:pageopacity="0"
     inkscape:pageshadow="2"
     inkscape:window-width="1440"
     inkscape:window-height="837"
     id="namedview5"
     showgrid="false"
     inkscape:zoom="0.61580177"
     inkscape:cx="287.98407"
     inkscape:cy="314.88266"
     inkscape:window-x="-8"
     inkscape:window-y="-8"
     inkscape:window-maximized="1"
     inkscape:current-layer="Your_Icon"
     showguides="true"
     inkscape:snap-bbox="true"
     inkscape:bbox-paths="true"
     inkscape:bbox-nodes="true"
     inkscape:snap-bbox-edge-midpoints="true"
     inkscape:snap-bbox-midpoints="true"
     inkscape:object-paths="true"
     inkscape:snap-intersection-paths="true"
     inkscape:object-nodes="true"
     inkscape:snap-smooth-nodes="true"
     inkscape:snap-midpoints="true"
     inkscape:snap-object-midpoints="true"
     inkscape:snap-center="true"
     inkscape:snap-page="true"
     inkscape:snap-global="false"
     inkscape:guide-bbox="true"><inkscape:grid
       type="xygrid"
       id="grid2988"
       empspacing="5"
       visible="true"
       enabled="true"
       snapvisiblegridlinesonly="true" /><sodipodi:guide
       position="48,225.19067"
       orientation="1,0"
       id="guide3340"
       inkscape:label=""
       inkscape:color="rgb(0,0,255)" /><sodipodi:guide
       position="528,530.72134"
       orientation="1,0"
       id="guide3342"
       inkscape:label=""
       inkscape:color="rgb(0,0,255)" /><sodipodi:guide
       position="529.37231,48"
       orientation="0,1"
       id="guide3346"
       inkscape:label=""
       inkscape:color="rgb(0,0,255)" /><sodipodi:guide
       position="529.44331,288"
       orientation="0,1"
       id="guide3348"
       inkscape:label=""
       inkscape:color="rgb(0,0,255)" /><sodipodi:guide
       position="529.92257,528"
       orientation="0,1"
       id="guide3350"
       inkscape:label=""
       inkscape:color="rgb(0,0,255)" /><sodipodi:guide
       position="288,530.966"
       orientation="1,0"
       id="guide3352"
       inkscape:label=""
       inkscape:color="rgb(0,0,255)" /></sodipodi:namedview><path
     d="M 318.78684,175.31484 249.86617,67.780032 c -0.208,-0.338346 -0.45855,-0.636795 -0.73702,-0.905997 -0.0808,-0.07873 -0.16742,-0.144316 -0.25151,-0.218403 -0.19069,-0.160941 -0.39144,-0.307806 -0.6013,-0.436967 -0.11166,-0.06995 -0.22337,-0.134882 -0.34194,-0.19514 -0.23027,-0.115353 -0.4692,-0.20879 -0.71414,-0.288876 -0.099,-0.0286 -0.19206,-0.07048 -0.29115,-0.099 -0.3526,-0.08678 -0.70885,-0.133998 -1.07508,-0.142684 -0.0207,-4.21e-4 -0.0378,-0.006 -0.0585,-0.0067 l -144.86904,-1.39254 c -0.0469,0.0017 -0.0651,-0.0367 -0.11468,-0.03621 l 0.0163,-0.03755 1.5934,1.138389 c 0,0 -0.0549,0.07681 -0.0615,0.08607 -2.99586,-0.724448 -4.43266,0.676825 -5.18191,2.453369 0.009,0.0066 -0.0347,-0.01043 -0.0396,-0.0036 0.005,0.01315 -0.0445,0.0033 -0.0445,0.0033 l -0.007,0.0095 -0.005,0.0065 -0.005,0.0065 -0.007,0.0095 -0.005,0.0065 c 0,0 -0.007,0.0095 -0.0117,0.01636 -0.005,0.0065 -0.3559,-0.244435 -0.36293,-0.234589 L 49.589588,194.31824 c -0.02524,0.0698 -0.120673,0.0754 -0.143619,0.14685 -0.07949,0.24889 -0.190471,0.46823 -0.227387,0.72644 -0.02692,0.1705 -0.04623,0.32535 -0.05489,0.49483 -0.008,0.17348 -0.02595,0.33632 -0.014,0.50647 0.01057,0.16215 0.03021,0.31672 0.05677,0.47624 0.03189,0.19143 0.07341,0.37919 0.127556,0.56894 0.0409,0.13455 0.07873,0.26356 0.130895,0.39218 0.08638,0.22332 0.197696,0.43636 0.319298,0.64973 0.0352,0.0639 0.05283,0.13262 0.09373,0.19339 l 69.202549,107.27322 c 0.0854,0.13128 0.38983,-0.0342 0.51078,0.0522 l 0.005,0.003 c 0.43266,0.30912 0.8723,0.62321 1.30728,0.93398 0.01,0.007 0.01,0.007 0.0186,0.0133 0,0 0,0 0.005,0.003 0,0 0,0 0.01,0.007 l 0.01,0.007 0.005,0.003 c 0.17214,0.12298 0.34561,0.25393 0.53868,0.34268 0.0145,-2e-4 -0.0104,0.0347 -0.006,0.0379 0.01,0.007 0.01,0.007 0.0186,0.0133 0,0 0,0 0.005,0.003 0,0 0,0 0.01,0.007 l 0.01,0.007 c 0,0 0,0 0.005,0.003 l 0.01,0.007 c 0.44428,0.31741 0.80049,0.73352 1.36744,0.76615 -0.005,-0.003 -0.0403,0.0766 -0.0403,0.0766 0.01,0.007 -0.0403,0.0766 -0.0403,0.0766 0.005,0.003 0.005,0.003 0.005,0.003 l -0.0653,0.11147 c 0.15919,0.008 0.26918,0.0658 0.42237,0.0628 l 135.17527,-5.48707 c 0.013,0.002 0.0139,0.01 0.0268,0.0117 0.008,-0.001 0.01,0.007 0.0221,0.008 0.0285,-6.6e-4 0.0558,-0.009 0.0838,-0.014 0.10733,-0.008 0.20504,-0.0362 0.31105,-0.0518 0.11234,-0.0146 0.22067,-0.0286 0.32703,-0.0545 0.11264,-0.0249 0.23561,-0.0249 0.34762,-0.0538 0.0897,-0.0272 0.17153,-0.0777 0.26288,-0.10731 0.12933,-0.0482 0.2579,-0.10034 0.38119,-0.15982 0.0178,-0.005 0.0353,-0.01 0.0498,-0.0206 0.26321,-0.11762 0.50183,-0.25983 0.73315,-0.4213 0.10235,-0.0745 0.20845,-0.13919 0.30775,-0.21931 0.0488,-0.039 0.10996,-0.0655 0.15194,-0.10929 0.26722,-0.24122 0.51383,-0.50774 0.72323,-0.80083 0.16453,-0.23029 0.30787,-0.48976 0.4424,-0.75202 l 56.58417,-120.02997 c 0.0715,-0.14921 0.13059,-0.28617 0.18482,-0.44065 0.0117,-0.0408 0.0547,-0.0628 0.0763,-0.0931 0.007,-0.01 0.007,-0.01 0.007,-0.01 0.0349,-0.0489 0.002,-0.1356 0.0183,-0.19771 0.0356,-0.11863 0.0539,-0.24259 0.0785,-0.36555 0.0117,-0.0655 0.0289,-0.13392 0.0366,-0.1987 0.005,-0.0563 0.008,-0.0854 0.0152,-0.10512 0.005,-0.0459 -0.0106,-0.0885 -0.004,-0.13258 0.0512,-0.45528 0.0423,-0.91489 -0.0314,-1.35756 -0.0139,-0.0591 -0.0392,-0.11232 -0.0485,-0.16811 -0.0957,-0.45133 -0.25214,-0.88635 -0.47541,-1.29181 -0.0133,-0.0305 -0.0153,-0.0671 -0.0325,-0.0971 -0.0118,-0.0228 -0.0263,-0.047 -0.0421,-0.0688 -0.006,-0.0117 -0.009,-0.0165 -0.015,-0.0283 -0.0356,-0.0536 -0.0664,-0.10362 -0.0981,-0.15781 z m -13.23076,1.20367 -89.76096,37.07918 -4.76641,-117.265394 94.52737,80.186214 z m -99.44766,37.1433 -111.63764,-41.27238 106.80028,-77.649344 4.83736,118.921724 z m 9.01453,-126.546885 28.67901,-10.871458 49.4225,77.126463 -78.10151,-66.255005 z m 4.86254,-12.195928 -14.77322,5.600191 -38.69695,-6.112862 53.47017,0.512671 z M 193.44207,88.461598 90.90919,163.01475 104.90071,74.469422 193.44207,88.461598 Z M 79.841836,171.05528 64.035464,182.5472 88.46708,116.44904 79.841836,171.05528 Z m -19.352151,26.04453 21.133325,-15.363 26.8823,90.29329 -48.015625,-74.93029 z M 91.7095,181.69832 202.21228,222.54288 125.32874,294.61087 91.7095,181.69832 Z m 118.48868,46.63786 39.54926,65.15731 -114.01919,4.64379 74.46993,-69.8011 z m 8.11799,-5.29913 86.70175,-35.82163 -47.40102,100.56949 -39.30073,-64.74786 z"
     id="path3"
     inkscape:connector-curvature="0"
     style="fill:#000000;fill-opacity:1;stroke:#000000;stroke-width:1.1662662;stroke-opacity:1" /><path
     d="m 304.4455,284.74845 -48.25646,118.25864 c -0.15696,0.36482 -0.25676,0.74153 -0.31659,1.1242 -0.0179,0.11141 -0.0215,0.21998 -0.0338,0.33138 -0.0218,0.24858 -0.0263,0.49727 -0.011,0.74323 0.007,0.13156 0.0182,0.26029 0.0373,0.39192 0.0382,0.25471 0.0994,0.50386 0.17489,0.75025 0.0337,0.0973 0.053,0.19763 0.0866,0.29505 0.13202,0.33828 0.29847,0.65676 0.50219,0.96123 0.0114,0.0173 0.0169,0.0344 0.0282,0.0516 l 82.25526,119.26051 c 0.0284,0.0375 0.008,0.0743 0.0365,0.11479 l -0.0401,0.008 0.0136,-1.95823 c 0,0 0.0946,6.8e-4 0.1058,7.9e-4 1.1322,2.86673 3.1051,3.23496 4.98906,2.82493 -0.001,-0.0113 0.0114,0.0345 0.0198,0.0344 0.008,-0.0117 0.0284,0.0347 0.0284,0.0347 l 0.0113,-10e-4 0.008,1.8e-4 0.008,1.7e-4 0.0113,-10e-4 0.008,1.7e-4 c 0,0 0.0113,-0.001 0.0203,-2.6e-4 0.008,1.7e-4 0.005,0.43172 0.0171,0.4318 l 130.79824,-34.47755 c 0.0715,-0.0194 0.13109,0.0553 0.20268,0.033 0.24928,-0.0783 0.49251,-0.11376 0.7249,-0.23222 0.155,-0.0761 0.29266,-0.14947 0.43623,-0.23998 0.14646,-0.0933 0.28996,-0.17236 0.4222,-0.28009 0.12648,-0.102 0.24157,-0.20702 0.35675,-0.32055 0.1382,-0.13627 0.26775,-0.27834 0.39172,-0.43188 0.0861,-0.11112 0.17017,-0.21609 0.24545,-0.33268 0.13344,-0.19884 0.24325,-0.41272 0.34746,-0.63515 0.0322,-0.0653 0.0786,-0.11917 0.10459,-0.18771 L 526.0597,372.96255 c 0.0582,-0.14539 -0.25241,-0.29903 -0.25133,-0.44774 l -5.1e-4,-0.005 c 0.004,-0.53174 0.007,-1.07203 0.0112,-1.6066 -0.001,-0.0113 -0.001,-0.0113 1.5e-4,-0.0228 0,0 0,0 -5.2e-4,-0.005 0,0 0,0 -10e-4,-0.0113 l -10e-4,-0.0113 -5.1e-4,-0.005 c 10e-4,-0.21156 0.009,-0.42878 -0.0299,-0.63775 -0.009,-0.011 0.0344,-0.0113 0.0344,-0.0169 -0.001,-0.0113 -0.001,-0.0113 2e-4,-0.0229 0,0 0,0 -5.1e-4,-0.005 0,0 0,0 -10e-4,-0.0113 l -0.001,-0.0113 c 0,0 0,0 -5.1e-4,-0.005 l -10e-4,-0.0113 c 0.004,-0.54601 0.139,-1.07682 -0.16069,-1.55919 5.1e-4,0.005 0.0858,-0.011 0.0858,-0.011 -0.001,-0.0113 0.0858,-0.011 0.0858,-0.011 -5.1e-4,-0.005 -5.1e-4,-0.005 -5.1e-4,-0.005 l 0.12864,-0.0107 c -0.0848,-0.13493 -0.1012,-0.25801 -0.19178,-0.38156 L 443.46201,260.7708 c -0.007,-0.011 7.1e-4,-0.0167 -0.006,-0.0287 -0.006,-0.005 -10e-4,-0.0113 -0.006,-0.0228 -0.017,-0.0231 -0.0397,-0.0402 -0.0597,-0.0605 -0.068,-0.0833 -0.14766,-0.14679 -0.2214,-0.22456 -0.0766,-0.0835 -0.1504,-0.16395 -0.23278,-0.23607 -0.0852,-0.0779 -0.15602,-0.17829 -0.24411,-0.25325 -0.0737,-0.0577 -0.16244,-0.0952 -0.23865,-0.15385 -0.11399,-0.0778 -0.23004,-0.15382 -0.35012,-0.21965 -0.0147,-0.0111 -0.0291,-0.0222 -0.0457,-0.0286 -0.24766,-0.1476 -0.50139,-0.2607 -0.76655,-0.35698 -0.11973,-0.0409 -0.23378,-0.0903 -0.35645,-0.12546 -0.0599,-0.0178 -0.11685,-0.0522 -0.17688,-0.0612 -0.35106,-0.0796 -0.71094,-0.12788 -1.07115,-0.13038 -0.28301,-0.002 -0.5777,0.0303 -0.86958,0.0712 l -130.72001,22.8287 c -0.16314,0.0274 -0.30916,0.0579 -0.46671,0.10254 -0.04,0.0139 -0.0828,-0.009 -0.11993,-0.009 -0.0113,0.001 -0.0113,0.001 -0.0113,0.001 -0.0601,-3.9e-4 -0.11212,0.0764 -0.17228,0.0988 -0.11751,0.0393 -0.22936,0.0956 -0.34407,0.14629 -0.0603,0.0282 -0.12614,0.0535 -0.18354,0.0845 -0.0489,0.0282 -0.0746,0.0424 -0.0947,0.0479 -0.0402,0.0226 -0.0663,0.0597 -0.10639,0.0792 -0.40176,0.22022 -0.77244,0.49209 -1.09198,0.80718 -0.0395,0.046 -0.0688,0.097 -0.10951,0.13648 -0.31398,0.33802 -0.57964,0.71639 -0.78213,1.13272 -0.0173,0.0283 -0.0461,0.0512 -0.0611,0.0823 -0.0123,0.0225 -0.0233,0.0484 -0.032,0.0742 -0.006,0.0112 -0.009,0.0167 -0.0147,0.0284 -0.0233,0.06 -0.0464,0.11407 -0.0727,0.17099 z m 8.60053,10.12586 81.99046,52.05246 -93.14359,71.4014 11.15313,-123.45386 z m 87.61907,59.9363 30.51607,115.0441 -124.97321,-42.63121 94.45714,-72.41289 z m -108.66605,65.47571 -25.39866,-17.19254 34.61587,-84.81047 -9.21721,102.00301 z m -12.77169,3.04452 13.08346,8.85624 17.2775,35.1612 -30.36096,-44.01744 z m 26.35349,13.90863 119.98493,40.92409 -80.45738,39.53039 -39.52755,-80.45448 z m 132.93057,45.34527 18.49584,6.30947 -68.11227,18.07183 49.61643,-24.3813 z m 32.43656,0.83159 -24.72766,-8.43689 58.35758,-73.95895 -33.62992,82.39584 z m -30.56544,-16.6624 -30.21262,-113.86985 103.18776,21.38132 -72.97514,92.48853 z m -30.07257,-123.7348 30.51229,-69.84713 69.43246,90.55979 -99.94475,-20.71266 z m -9.0062,-3.5876 -79.20113,-50.27488 109.52167,-19.13331 -30.32054,69.40819 z"
     id="path3-0"
     inkscape:connector-curvature="0" /></svg>