<?xml version="1.0" encoding="UTF-8" standalone="no"?>
<svg
   xmlns:dc="http://purl.org/dc/elements/1.1/"
   xmlns:cc="http://creativecommons.org/ns#"
   xmlns:rdf="http://www.w3.org/1999/02/22-rdf-syntax-ns#"
   xmlns:svg="http://www.w3.org/2000/svg"
   xmlns="http://www.w3.org/2000/svg"
   xmlns:sodipodi="http://sodipodi.sourceforge.net/DTD/sodipodi-0.dtd"
   xmlns:inkscape="http://www.inkscape.org/namespaces/inkscape"
   version="1.1"
   id="Your_Icon"
   x="0px"
   y="0px"
   width="576"
   height="576"
   viewBox="0 0 576 576"
   enable-background="new 0 0 100 100"
   xml:space="preserve"
   inkscape:version="0.91 r13725"
   sodipodi:docname="logo-color.svg"><metadata
     id="metadata9"><rdf:RDF><cc:Work
         rdf:about=""><dc:format>image/svg+xml</dc:format><dc:type
           rdf:resource="http://purl.org/dc/dcmitype/StillImage" /><dc:title></dc:title></cc:Work></rdf:RDF></metadata><defs
     id="defs7" /><sodipodi:namedview
     pagecolor="#ffffff"
     bordercolor="#666666"
     borderopacity="1"
     objecttolerance="10"
     gridtolerance="10"
     guidetolerance="10"
     inkscape:pageopacity="0"
     inkscape:pageshadow="2"
     inkscape:window-width="1440"
     inkscape:window-height="837"
     id="namedview5"
     showgrid="false"
     inkscape:zoom="1"
     inkscape:cx="152.13403"
     inkscape:cy="335.44554"
     inkscape:window-x="-8"
     inkscape:window-y="-8"
     inkscape:window-maximized="1"
     inkscape:current-layer="Your_Icon"
     showguides="true"
     inkscape:snap-bbox="true"
     inkscape:bbox-paths="true"
     inkscape:bbox-nodes="true"
     inkscape:snap-bbox-edge-midpoints="true"
     inkscape:snap-bbox-midpoints="true"
     inkscape:object-paths="true"
     inkscape:snap-intersection-paths="true"
     inkscape:object-nodes="true"
     inkscape:snap-smooth-nodes="true"
     inkscape:snap-midpoints="true"
     inkscape:snap-object-midpoints="true"
     inkscape:snap-center="true"
     inkscape:snap-page="true"
     inkscape:snap-global="false"
     inkscape:guide-bbox="true"><inkscape:grid
       type="xygrid"
       id="grid2988"
       empspacing="5"
       visible="true"
       enabled="true"
       snapvisiblegridlinesonly="true" /><sodipodi:guide
       position="48,225.19067"
       orientation="1,0"
       id="guide3340"
       inkscape:label=""
       inkscape:color="rgb(0,0,255)" /><sodipodi:guide
       position="528,530.72134"
       orientation="1,0"
       id="guide3342"
       inkscape:label=""
       inkscape:color="rgb(0,0,255)" /><sodipodi:guide
       position="529.37231,48"
       orientation="0,1"
       id="guide3346"
       inkscape:label=""
       inkscape:color="rgb(0,0,255)" /><sodipodi:guide
       position="529.44331,288"
       orientation="0,1"
       id="guide3348"
       inkscape:label=""
       inkscape:color="rgb(0,0,255)" /><sodipodi:guide
       position="529.92257,528"
       orientation="0,1"
       id="guide3350"
       inkscape:label=""
       inkscape:color="rgb(0,0,255)" /><sodipodi:guide
       position="288,530.966"
       orientation="1,0"
       id="guide3352"
       inkscape:label=""
       inkscape:color="rgb(0,0,255)" /></sodipodi:namedview><path
     d="m 364.09426,530.41516 140.38349,-68.60468 c 0.44047,-0.20504 0.83844,-0.4675 1.2048,-0.76798 0.10718,-0.0871 0.19891,-0.1832 0.30079,-0.27491 0.22247,-0.20904 0.42916,-0.43235 0.61558,-0.66926 0.10042,-0.12607 0.19539,-0.25241 0.28523,-0.38807 0.17224,-0.26382 0.31985,-0.54075 0.45153,-0.8272 0.0481,-0.11644 0.11274,-0.22349 0.16104,-0.33997 0.15522,-0.41621 0.26268,-0.8425 0.32485,-1.28632 0.003,-0.0251 0.0124,-0.0452 0.0165,-0.0701 L 529.93665,281.3393 c 0.004,-0.0574 0.053,-0.0745 0.0605,-0.13433 l 0.0433,0.0249 -1.60784,1.77591 c 0,0 -0.0858,-0.0776 -0.096,-0.0869 1.30233,-3.53849 -0.19808,-5.48188 -2.25137,-6.64255 -0.007,0.0112 0.0176,-0.0407 0.0101,-0.0475 -0.0169,0.004 0.002,-0.0549 0.002,-0.0549 l -0.0112,-0.007 -0.008,-0.007 -0.008,-0.007 -0.0112,-0.007 -0.008,-0.007 c 0,0 -0.0112,-0.007 -0.0188,-0.0161 -0.008,-0.007 0.34729,-0.39793 0.3362,-0.40796 L 378.91838,200.61464 c -0.081,-0.0406 -0.0745,-0.1573 -0.15809,-0.19524 -0.29128,-0.1316 -0.54214,-0.29741 -0.85071,-0.37866 -0.20344,-0.0568 -0.38885,-0.10199 -0.5936,-0.13643 -0.20968,-0.034 -0.40494,-0.0794 -0.61347,-0.0884 -0.19854,-0.01 -0.38912,-0.008 -0.58673,0.002 -0.2371,0.0121 -0.47108,0.0361 -0.70932,0.075 -0.1691,0.0312 -0.33134,0.0585 -0.49501,0.10364 -0.28378,0.0727 -0.55824,0.17845 -0.83457,0.29653 -0.0826,0.0334 -0.16877,0.0447 -0.24836,0.0862 l -140.10533,68.98401 c -0.17156,0.0852 -0.0133,0.47853 -0.1356,0.61332 l -0.003,0.005 c -0.43695,0.48193 -0.8801,0.97232 -1.31913,1.45701 -0.007,0.0112 -0.007,0.0112 -0.0183,0.0209 0,0 0,0 -0.003,0.005 0,0 0,0 -0.007,0.0112 l -0.007,0.0112 -0.003,0.005 c -0.17301,0.19247 -0.35752,0.38397 -0.49233,0.6063 -5.4e-4,0.0174 -0.0406,-0.0176 -0.0452,-0.0124 -0.007,0.0112 -0.007,0.0112 -0.0183,0.0209 0,0 0,0 -0.003,0.005 0,0 0,0 -0.007,0.0112 l -0.007,0.0111 c 0,0 0,0 -0.003,0.005 l -0.007,0.0112 c -0.44856,0.49494 -1.00413,0.86943 -1.12364,1.55379 0.003,-0.005 -0.0873,-0.0598 -0.0873,-0.0598 -0.007,0.0111 -0.0873,-0.0598 -0.0873,-0.0598 -0.003,0.005 -0.003,0.005 -0.003,0.005 l -0.1261,-0.095 c -0.0325,0.19222 -0.1179,0.31789 -0.13582,0.50443 l -12.37339,165.04418 c -0.001,0.0164 -0.0141,0.0148 -0.0177,0.031 0.001,0.009 -0.007,0.0112 -0.0134,0.0255 -0.004,0.0348 0.004,0.0691 0.005,0.10393 -0.006,0.13143 0.0153,0.25423 0.0192,0.38529 0.001,0.13861 0.004,0.27214 0.0205,0.40505 0.0146,0.1405 -0.003,0.28981 0.0164,0.42998 0.0203,0.11279 0.0708,0.21922 0.0924,0.33485 0.0407,0.16387 0.0847,0.32777 0.14058,0.48568 0.005,0.0222 0.009,0.0438 0.0184,0.0633 0.1058,0.33646 0.24516,0.6464 0.4087,0.95028 0.0759,0.13488 0.13978,0.27286 0.22308,0.40491 0.0401,0.0651 0.0642,0.14276 0.11163,0.19988 0.25551,0.35868 0.54461,0.69592 0.87129,0.99168 0.25624,0.23284 0.55187,0.443 0.85157,0.64346 l 137.89005,85.66553 c 0.17114,0.10797 0.32951,0.19872 0.50945,0.28665 0.0475,0.0204 0.0682,0.0756 0.10209,0.10599 0.0112,0.007 0.0112,0.007 0.0112,0.007 0.0544,0.0492 0.16458,0.0216 0.23775,0.05 0.1394,0.0597 0.28721,0.0996 0.43321,0.14676 0.0782,0.0233 0.15866,0.0539 0.23633,0.0724 0.0676,0.0141 0.10267,0.0222 0.12533,0.034 0.0552,0.0121 0.10921,-3.6e-4 0.1616,0.0144 0.54605,0.12632 1.10581,0.18023 1.65412,0.15303 0.0735,-0.01 0.14183,-0.0324 0.21113,-0.0353 0.5619,-0.0527 1.1126,-0.18153 1.63657,-0.39651 0.039,-0.0117 0.0837,-0.009 0.12289,-0.0253 0.0296,-0.01 0.0607,-0.0252 0.0896,-0.0416 0.0143,-0.006 0.0219,-0.008 0.0367,-0.0139 0.0702,-0.0358 0.13525,-0.0664 0.20563,-0.0969 z m 0.40101,-16.24745 -32.41477,-114.29973 143.17137,10.72573 -110.7566,103.574 z M 333.36702,388.08773 399.24601,258.24011 478.56116,398.96056 333.36702,388.08773 Z m 152.50902,28.77959 9.17123,36.38187 -100.68505,49.1939 91.51382,-85.57577 z m 14.13547,7.62682 -4.72437,-18.74112 12.87907,-46.1632 -8.1547,64.90432 z M 487.29349,390.33118 411.13972,255.23259 516.7685,284.70736 487.29349,390.33118 Z m -84.36565,-149.68011 -11.7384,-20.82652 76.88055,38.99961 -65.14215,-18.17309 z m -28.92318,-27.18515 15.69219,27.84504 -113.51026,19.94859 97.81807,-47.79363 z m 14.31821,40.10747 -65.19924,128.52883 -76.74675,-103.57967 141.94599,-24.94916 z m -73.36409,137.4172 -84.7495,38.88199 10.41748,-139.20935 74.33202,100.32736 z m 5.29599,10.61134 31.31748,110.40508 -115.53442,-71.76743 84.21694,-38.63765 z"
     id="path3-0"
     inkscape:connector-curvature="0" /><path
     style="fill:#00ff00;fill-opacity:1"
     d="m 529.93723,281.34523 0.1033,-0.11432 -0.0424,-0.0267 c -0.007,0.0599 -0.0561,0.0778 -0.0597,0.13526 l -0.001,0.006 z"
     id="path4281"
     inkscape:connector-curvature="0" /><path
     style="fill:#00ff00;fill-opacity:1"
     d="M 374.00562,213.46567 276.18781,261.2607 389.69783,241.312 374.00562,213.46567 Z"
     id="path4277"
     inkscape:connector-curvature="0" /><path
     style="fill:#00ff00;fill-opacity:1"
     d="m 391.19085,219.82537 11.73896,20.82567 65.14113,18.1739 -76.88009,-38.99957 z"
     id="path4275"
     inkscape:connector-curvature="0" /><path
     style="fill:#00ff00;fill-opacity:1"
     d="M 411.1415,255.23385 487.29402,390.33041 516.77061,284.7078 411.1415,255.23385 Z"
     id="path4273"
     inkscape:connector-curvature="0" /><path
     style="fill:#00ff00;fill-opacity:1"
     d="M 388.32321,253.57406 246.37875,278.52262 323.12433,382.1018 388.32321,253.57406 Z"
     id="path4271"
     inkscape:connector-curvature="0" /><path
     style="fill:#00ff00;fill-opacity:1"
     d="M 399.24677,258.24037 333.36905,388.08795 478.5617,398.96019 399.24677,258.24037 Z"
     id="path4269"
     inkscape:connector-curvature="0" /><path
     style="fill:#00ff00;fill-opacity:1"
     d="M 240.62778,290.6644 230.21119,429.87272 314.96086,390.99041 240.62778,290.6644 Z"
     id="path4267"
     inkscape:connector-curvature="0" /><path
     style="fill:#00ff00;fill-opacity:1"
     d="m 508.1671,359.59074 -12.87853,46.16314 4.72458,18.73986 8.15395,-64.903 z"
     id="path4265"
     inkscape:connector-curvature="0" /><path
     style="fill:#00ff00;fill-opacity:1"
     d="M 475.25256,410.5942 332.08193,399.8675 364.49682,514.16801 475.25256,410.5942 Z"
     id="path4263"
     inkscape:connector-curvature="0" /><path
     style="fill:#00ff00;fill-opacity:1"
     d="m 485.87673,416.86794 -91.51366,85.57579 100.68466,-49.19435 -9.171,-36.38144 z"
     id="path4261"
     inkscape:connector-curvature="0" /><path
     style="fill:#00ff00;fill-opacity:1"
     d="m 320.25595,401.60194 -84.21657,38.63722 115.53388,71.7678 -31.31731,-110.40502 z"
     id="path3-0-4-0"
     inkscape:connector-curvature="0" /><path
     d="M 4.0930873,0.75778258 -35.388996,151.93745 c -0.131619,0.46769 -0.192001,0.94057 -0.202944,1.41426 -0.0038,0.13803 0.0093,0.27027 0.01241,0.40731 0.01352,0.30497 0.04813,0.60728 0.106275,0.90308 0.03015,0.15833 0.06405,0.3127 0.10837,0.46927 0.08779,0.30258 0.201583,0.59504 0.332972,0.88162 0.05695,0.11237 0.096,0.23118 0.152843,0.34374 0.214463,0.38901 0.467687,0.74838 0.763738,1.08483 0.01698,0.0187 0.02623,0.0389 0.04242,0.0582 L 84.876186,288.88376 c 0.04117,0.0402 0.02195,0.0888 0.06246,0.13341 l -0.04711,0.0165 -0.298703,-2.37692 c 0,0 0.114788,-0.0145 0.128478,-0.0162 1.8345,3.29418 4.286311,3.42313 6.504933,2.6226 -0.0037,-0.0129 0.0194,0.0399 0.02946,0.0387 0.0082,-0.0152 0.04025,0.0374 0.04025,0.0374 l 0.01295,-0.004 0.01018,-0.002 0.01018,-0.002 0.01295,-0.004 0.01018,-0.002 c 0,0 0.01295,-0.004 0.02451,-0.004 0.01018,-0.002 0.0754,0.52276 0.09023,0.52088 L 244.53454,226.97901 c 0.0836,-0.035 0.16789,0.046 0.25111,0.007 0.28968,-0.1351 0.57894,-0.21727 0.84169,-0.39831 0.17571,-0.11723 0.33082,-0.2284 0.4904,-0.36122 0.16249,-0.13683 0.32415,-0.25535 0.46689,-0.40763 0.13691,-0.14412 0.25965,-0.28994 0.38106,-0.44615 0.14539,-0.18768 0.27972,-0.38076 0.40548,-0.58682 0.0866,-0.14858 0.17159,-0.28942 0.24407,-0.44295 0.12982,-0.26261 0.22856,-0.53965 0.31914,-0.82618 0.0285,-0.0845 0.0761,-0.15716 0.0966,-0.24451 l 39.0131,-151.216002 c 0.0472,-0.185668 -0.35424,-0.321985 -0.37672,-0.502616 l -0.002,-0.006 c -0.0806,-0.645503 -0.16367,-1.301227 -0.24506,-1.950112 -0.004,-0.01295 -0.004,-0.01295 -0.004,-0.02753 0,0 0,0 -0.002,-0.006 0,0 0,0 -0.004,-0.01295 l -0.004,-0.01295 -0.002,-0.006 c -0.0332,-0.256664 -0.0581,-0.52141 -0.13887,-0.768573 -0.0129,-0.01178 0.0398,-0.01934 0.0389,-0.02623 -0.004,-0.01295 -0.004,-0.01295 -0.004,-0.02753 0,0 0,0 -0.002,-0.006 0,0 0,0 -0.004,-0.01295 l -0.004,-0.01287 c 0,0 0,0 -0.002,-0.006 l -0.004,-0.01295 c -0.0829,-0.662794 -0.005,-1.328223 -0.44588,-1.864943 0.002,0.006 0.10225,-0.02728 0.10225,-0.02728 -0.004,-0.01287 0.10225,-0.02728 0.10225,-0.02728 -0.002,-0.006 -0.002,-0.006 -0.002,-0.006 l 0.15425,-0.0337 c -0.12461,-0.149924 -0.16422,-0.296619 -0.294,-0.431809 L 168.80655,-50.698329 c -0.0115,-0.01168 -0.002,-0.02029 -0.0119,-0.03362 -0.008,-0.0053 -0.004,-0.01295 -0.0106,-0.02681 -0.0237,-0.02579 -0.0548,-0.0422 -0.0821,-0.06394 -0.0959,-0.09003 -0.20276,-0.15412 -0.30471,-0.236575 -0.10599,-0.08933 -0.20875,-0.17463 -0.32056,-0.24845 -0.11609,-0.08049 -0.21791,-0.191079 -0.33678,-0.267832 -0.0988,-0.05809 -0.21236,-0.08924 -0.31419,-0.148163 -0.15077,-0.07599 -0.30374,-0.149466 -0.45995,-0.209988 -0.0198,-0.01096 -0.0391,-0.02171 -0.06,-0.02732 -0.32412,-0.139089 -0.65,-0.235444 -0.98705,-0.309501 -0.15176,-0.03036 -0.29804,-0.07186 -0.45248,-0.09477 -0.0755,-0.01206 -0.15012,-0.04438 -0.22435,-0.04564 -0.43855,-0.04004 -0.88275,-0.04062 -1.31998,0.01432 -0.34361,0.04254 -0.69569,0.129747 -1.04306,0.22635 L 8.0311042,-3.442008 c -0.1934341,0.059404 -0.3654864,0.1203524 -0.5494589,0.1994877 -0.046406,0.022693 -0.1018357,0.00245 -0.1469296,0.00833 -0.01295,0.00368 -0.01295,0.00368 -0.01295,0.00368 -0.072758,0.00918 -0.1236393,0.1107545 -0.1929161,0.1476955 -0.1361126,0.066817 -0.2627626,0.1528592 -0.3936819,0.2328488 -0.068628,0.044146 -0.1443321,0.085166 -0.2089533,0.1320307 -0.054809,0.042081 -0.083725,0.063422 -0.1074846,0.072886 -0.045136,0.033992 -0.070906,0.08305 -0.116269,0.1131494 -0.4517408,0.3317526 -0.8574974,0.721112 -1.1942838,1.1546508 -0.040371,0.062252 -0.06785,0.1287 -0.1108512,0.1831283 -0.3263361,0.46044087 -0.5875804,0.96206714 -0.7661018,1.49955306 -0.016541,0.0371556 -0.047956,0.0691192 -0.060908,0.10969479 -0.011714,0.0290071 -0.020506,0.0624537 -0.02691,0.0950666 -0.00463,0.0149464 -0.00854,0.0215019 -0.013365,0.036851 -0.018609,0.0765284 -0.037827,0.14582072 -0.060558,0.21908864 z M 16.152965,11.652735 123.96171,61.576858 22.502083,163.15945 16.152965,11.652735 Z M 132.05666,70.231402 187.58372,204.83152 29.166943,173.25209 132.05666,70.231402 Z M 10.819153,167.12687 -22.749304,150.36649 5.5756679,41.945014 10.819153,167.12687 Z m -14.997961,5.74813 17.291909,8.63361 26.61272,39.85818 L -4.178808,172.875 Z m 34.1977,12.62429 L 182.1116,215.81157 90.905629,276.70222 30.018892,185.49929 Z M 198.5224,219.089 l 23.44544,4.67387 -79.68971,32.88067 56.24427,-37.55454 z m 39.46935,-4.21337 -31.34521,-6.25052 58.86325,-99.08401 -27.51804,105.33453 z M 198.24294,199.58993 143.2729,66.364957 271.84974,75.68205 198.24294,199.58993 Z M 141.85462,54.379281 167.61211,-35.235665 266.39104,63.407579 141.85462,54.379281 Z M 130.35533,51.478531 26.21536,3.2609976 155.95096,-37.573274 130.35533,51.478531 Z"
     id="path3-0-4"
     inkscape:connector-curvature="0" /><path
     inkscape:connector-curvature="0"
     style="fill:#00ff00;fill-opacity:1"
     d="m 84.871315,288.88033 0.01935,0.15285 0.04788,-0.0147 c -0.04069,-0.0445 -0.02245,-0.0932 -0.06363,-0.13347 l -0.0037,-0.005 z"
     id="path4281-2" /><path
     inkscape:connector-curvature="0"
     style="fill:#00ff00;fill-opacity:1"
     d="m 237.99132,214.87651 27.5168,-105.33524 -58.863,99.08391 31.3462,6.25133 z"
     id="path4277-6" /><path
     inkscape:connector-curvature="0"
     style="fill:#00ff00;fill-opacity:1"
     d="m 221.9663,223.76341 -23.44516,-4.6729 -56.24423,37.55324 79.68939,-32.88034 z"
     id="path4275-9" /><path
     inkscape:connector-curvature="0"
     style="fill:#00ff00;fill-opacity:1"
     d="M 182.10949,215.81209 30.019138,185.5002 90.903913,276.70353 182.10949,215.81209 Z"
     id="path4273-5" /><path
     inkscape:connector-curvature="0"
     style="fill:#00ff00;fill-opacity:1"
     d="M 198.24222,199.58976 271.84847,75.683426 143.27276,66.365765 198.24222,199.58976 Z"
     id="path4271-4" /><path
     inkscape:connector-curvature="0"
     style="fill:#00ff00;fill-opacity:1"
     d="M 187.58303,204.83193 132.05517,70.232807 29.166866,173.25274 187.58303,204.83193 Z"
     id="path4269-4" /><path
     inkscape:connector-curvature="0"
     style="fill:#00ff00;fill-opacity:1"
     d="M 266.38948,63.407593 167.61076,-35.234306 141.8534,54.380978 266.38948,63.407593 Z"
     id="path4267-8" /><path
     inkscape:connector-curvature="0"
     style="fill:#00ff00;fill-opacity:1"
     d="M 39.72455,221.36686 13.111515,181.50914 -4.179579,172.87651 39.72455,221.36686 Z"
     id="path4265-0" /><path
     inkscape:connector-curvature="0"
     style="fill:#00ff00;fill-opacity:1"
     d="M 22.501258,163.15966 123.96115,61.578254 16.151727,11.653717 22.501258,163.15966 Z"
     id="path4263-1" /><path
     inkscape:connector-curvature="0"
     style="fill:#00ff00;fill-opacity:1"
     d="M 10.818232,167.12699 5.5746269,41.945236 -22.749753,150.36671 10.818232,167.12699 Z"
     id="path4261-0" /><path
     inkscape:connector-curvature="0"
     style="fill:#00ff00;fill-opacity:1"
     d="M 130.35455,51.479422 155.95027,-37.571822 26.214737,3.2617944 130.35455,51.479422 Z"
     id="path3-0-4-0-6" /></svg>