<?xml version="1.0" encoding="UTF-8" standalone="no"?>
<svg
   xmlns:dc="http://purl.org/dc/elements/1.1/"
   xmlns:cc="http://creativecommons.org/ns#"
   xmlns:rdf="http://www.w3.org/1999/02/22-rdf-syntax-ns#"
   xmlns:svg="http://www.w3.org/2000/svg"
   xmlns="http://www.w3.org/2000/svg"
   xmlns:sodipodi="http://sodipodi.sourceforge.net/DTD/sodipodi-0.dtd"
   xmlns:inkscape="http://www.inkscape.org/namespaces/inkscape"
   version="1.1"
   id="Layer_1"
   x="0px"
   y="0px"
   width="61.190151"
   height="75.972244"
   viewBox="5 -10 61.190151 102.56253"
   enable-background="new 0 0 100 100"
   xml:space="preserve"
   inkscape:version="0.48.2 r9819"
   sodipodi:docname="Hammer.svg"><metadata
   id="metadata17"><rdf:RDF><cc:Work
       rdf:about=""><dc:format>image/svg+xml</dc:format><dc:type
         rdf:resource="http://purl.org/dc/dcmitype/StillImage" /><dc:title></dc:title></cc:Work></rdf:RDF></metadata><defs
   id="defs15" /><sodipodi:namedview
   pagecolor="#ffffff"
   bordercolor="#666666"
   borderopacity="1"
   objecttolerance="10"
   gridtolerance="10"
   guidetolerance="10"
   inkscape:pageopacity="0"
   inkscape:pageshadow="2"
   inkscape:window-width="1920"
   inkscape:window-height="1058"
   id="namedview13"
   showgrid="false"
   inkscape:snap-bbox="true"
   inkscape:bbox-paths="true"
   inkscape:bbox-nodes="true"
   inkscape:snap-bbox-edge-midpoints="true"
   inkscape:snap-bbox-midpoints="true"
   inkscape:object-paths="true"
   inkscape:snap-intersection-paths="true"
   inkscape:object-nodes="true"
   inkscape:snap-midpoints="true"
   inkscape:snap-smooth-nodes="true"
   inkscape:snap-object-midpoints="true"
   inkscape:snap-center="true"
   inkscape:snap-page="true"
   fit-margin-top="0"
   fit-margin-left="0"
   fit-margin-right="0"
   fit-margin-bottom="0"
   inkscape:zoom="5.6568543"
   inkscape:cx="61.453297"
   inkscape:cy="27.521498"
   inkscape:window-x="-8"
   inkscape:window-y="-8"
   inkscape:window-maximized="1"
   inkscape:current-layer="Layer_1" />
<g
   id="g3"
   transform="matrix(0.56879139,-0.40680196,0.41073425,0.57428953,-26.573124,7.7586918)">
	<path
   d="m 54.021,12.795 c -0.344,0 -0.686,-10e-4 -1.027,-10e-4 l 0,-1.458 -9.005,0 0,1.444 c -5.088,-0.008 -8.715,-0.014 -8.715,-0.014 l -0.019,11.928 8.734,0.014 0,1.387 0.03,0 -0.04771,12.690416 -0.02446,6.505825 4.860375,1.767532 0.041,11.497275 -4.944585,-1.772041 -0.280175,74.522913 5.067679,-1.31036 0.391043,8.88859 -5.492812,1.48974 -0.129347,34.40473 c -0.004,3.313 2.018,6.001 4.518,6.006 2.501,0.004 4.53,-2.679 4.536,-5.991 l 0.139174,-37.02047 -3.571015,1.111 -0.391043,-8.88859 3.996268,-1.32339 0.258711,-68.817547 -4.097898,-1.299575 -0.041,-11.497275 4.182118,1.298762 0.02385,-6.345212 L 53.074,25.835 c 0,-0.38 -0.029,-0.752 -0.08,-1.113 l 5.02,0.008 c 0,0 6.402,-6.31 17.334,0.027 0.002,-0.234 0.004,-1.65 0.004,-1.65 -2.8,-3.223 -13.21,-10.298 -21.331,-10.312 z"
   id="path5"
   inkscape:connector-curvature="0"
   style="stroke:#000000;stroke-width:0;stroke-miterlimit:4;stroke-dasharray:none"
   sodipodi:nodetypes="ccccccccccccccccccccccccccccccccccccc" />
	
		<rect
   x="28.655001"
   y="12.761"
   transform="matrix(-1,-0.0016,0.0016,-1,62.7398,37.4992)"
   width="5.461"
   height="11.927"
   id="rect7"
   style="stroke:#000000;stroke-width:1.38330281;stroke-miterlimit:4;stroke-dasharray:none" />
</g>
<g
   transform="matrix(0.8897075,0,0,0.8897075,-6.3942073,1.1753908)"
   id="g2992"><path
     inkscape:connector-curvature="0"
     id="path3"
     d="m 50.171,6.288 c 11.637,8.013 30.191,11.898 38.101,13.26 0.301,2.772 0.455,5.527 0.455,8.223 0,27.634 -14.728,52.93 -38.612,66.642 C 26.229,80.697 11.5,55.402 11.5,27.771 c 0,-2.669 0.154,-5.403 0.455,-8.17 8.076,-1.283 26.991,-5.033 38.216,-13.313 M 50.039,0 C 38.216,11.699 7.588,15.281 7.588,15.281 c -0.628,4.078 -0.98,8.24 -0.98,12.49 0,31.327 17.64,58.512 43.506,72.229 25.87,-13.718 43.504,-40.902 43.504,-72.229 0,-4.25 -0.346,-8.412 -0.973,-12.49 C 92.646,15.281 62.822,11.34 50.039,0 l 0,0 z" /><path
     inkscape:connector-curvature="0"
     id="path5-1"
     d="m 20.738,26.015 c -0.435,2.824 -0.677,5.702 -0.677,8.638 0,21.633 12.19,40.407 30.053,49.882 17.864,-9.476 30.052,-28.249 30.052,-49.882 0,-2.936 -0.247,-5.814 -0.674,-8.638 0,0 -20.602,-2.719 -29.432,-10.551 -8.168,8.078 -29.322,10.551 -29.322,10.551 z" /></g></svg>