<?xml version="1.0" encoding="UTF-8" standalone="no"?>
<svg
   xmlns:dc="http://purl.org/dc/elements/1.1/"
   xmlns:cc="http://creativecommons.org/ns#"
   xmlns:rdf="http://www.w3.org/1999/02/22-rdf-syntax-ns#"
   xmlns:svg="http://www.w3.org/2000/svg"
   xmlns="http://www.w3.org/2000/svg"
   xmlns:sodipodi="http://sodipodi.sourceforge.net/DTD/sodipodi-0.dtd"
   xmlns:inkscape="http://www.inkscape.org/namespaces/inkscape"
   version="1.1"
   id="Layer_1"
   x="0px"
   y="0px"
   width="100"
   height="100"
   viewBox="4.75 -9.5 100 135"
   enable-background="new 0 0 95 95"
   xml:space="preserve"
   inkscape:version="0.48.2 r9819"
   sodipodi:docname="Ranged.svg"><metadata
   id="metadata15"><rdf:RDF><cc:Work
       rdf:about=""><dc:format>image/svg+xml</dc:format><dc:type
         rdf:resource="http://purl.org/dc/dcmitype/StillImage" /><dc:title></dc:title></cc:Work></rdf:RDF></metadata><defs
   id="defs13" /><sodipodi:namedview
   pagecolor="#ffffff"
   bordercolor="#666666"
   borderopacity="1"
   objecttolerance="10"
   gridtolerance="10"
   guidetolerance="10"
   inkscape:pageopacity="0"
   inkscape:pageshadow="2"
   inkscape:window-width="1920"
   inkscape:window-height="1058"
   id="namedview11"
   showgrid="false"
   inkscape:object-paths="true"
   inkscape:snap-intersection-paths="true"
   inkscape:object-nodes="true"
   inkscape:snap-smooth-nodes="true"
   inkscape:snap-midpoints="true"
   inkscape:snap-object-midpoints="true"
   inkscape:snap-center="true"
   inkscape:snap-page="true"
   inkscape:snap-bbox="true"
   inkscape:bbox-paths="true"
   inkscape:bbox-nodes="true"
   inkscape:snap-bbox-edge-midpoints="true"
   inkscape:snap-bbox-midpoints="true"
   fit-margin-top="0"
   fit-margin-left="0"
   fit-margin-right="0"
   fit-margin-bottom="0"
   inkscape:zoom="5.6568543"
   inkscape:cx="24.016508"
   inkscape:cy="37.235313"
   inkscape:window-x="-8"
   inkscape:window-y="-8"
   inkscape:window-maximized="1"
   inkscape:current-layer="g3"
   inkscape:snap-global="false" />


<g
   transform="matrix(0.55393308,-0.47486175,0.65042646,0.75873186,-34.213383,71.560764)"
   id="g3"><g
     id="g2997"
     transform="matrix(1.7856843,0,0,1.7856843,17.366841,-47.451041)"><g
       id="Layer_3"
       transform="matrix(0.23116229,0.98630164,-1.3509546,0.16876639,108.79958,12.668795)"><g
         id="g8"><path
           id="path10"
           d="m 32.086,97.406 c -0.174,-0.392 -4.175,-9.681 3.161,-18.064 l 0.087,-0.088 c 0.086,-0.077 8.561,-7.8 6.679,-19.09 L 42,60 42.014,39.835 C 43.896,28.545 35.421,20.823 35.335,20.746 L 35.248,20.658 C 27.912,12.273 31.913,2.985 32.087,2.593 L 33.914,3.405 33,3 33.915,3.404 c -0.151,0.344 -3.625,8.502 2.8,15.894 0.813,0.742 9.245,8.764 7.286,20.784 v 19.836 c 1.959,12.021 -6.472,20.043 -7.286,20.784 -6.452,7.423 -2.838,15.808 -2.801,15.892 l -1.828,0.812 z"
           inkscape:connector-curvature="0" /></g><g
         id="g12"><rect
           id="rect14"
           height="78"
           width="1"
           y="10"
           x="31" /></g></g><g
       transform="matrix(0.99450121,0,0,0.99450121,0.27493927,0.53715985)"
       id="g3044"><path
         inkscape:connector-curvature="0"
         d="m 48,95 v 0.812 c 0,0 -0.25,1.875 2,1.875 2.25,0 2,-1.875 2,-1.875 V 95 h -4 z"
         id="path5-1" /><rect
         x="48"
         y="78"
         width="4"
         height="16"
         id="rect7" /><rect
         x="48"
         y="28"
         width="4"
         height="49"
         id="rect9" /><polygon
         points="56,21.073 50,6.859 44,21.055 47.75,27 52.25,27 "
         id="polygon11" /></g></g></g></svg>