<?xml version="1.0" encoding="UTF-8" standalone="no"?>
<svg
   xmlns:dc="http://purl.org/dc/elements/1.1/"
   xmlns:cc="http://creativecommons.org/ns#"
   xmlns:rdf="http://www.w3.org/1999/02/22-rdf-syntax-ns#"
   xmlns:svg="http://www.w3.org/2000/svg"
   xmlns="http://www.w3.org/2000/svg"
   xmlns:sodipodi="http://sodipodi.sourceforge.net/DTD/sodipodi-0.dtd"
   xmlns:inkscape="http://www.inkscape.org/namespaces/inkscape"
   version="1.1"
   x="0px"
   y="0px"
   width="100"
   height="100"
   viewBox="0 0 100 100"
   enable-background="new 0 0 100 100"
   xml:space="preserve"
   id="svg2"
   inkscape:version="0.48.2 r9819"
   sodipodi:docname="Slashing.svg"><metadata
   id="metadata172"><rdf:RDF><cc:Work
       rdf:about=""><dc:format>image/svg+xml</dc:format><dc:type
         rdf:resource="http://purl.org/dc/dcmitype/StillImage" /></cc:Work></rdf:RDF></metadata><defs
   id="defs170">
	
	
	
	
	
	
	
	
	
	
	
</defs><sodipodi:namedview
   pagecolor="#ffffff"
   bordercolor="#666666"
   borderopacity="1"
   objecttolerance="10"
   gridtolerance="10"
   guidetolerance="10"
   inkscape:pageopacity="0"
   inkscape:pageshadow="2"
   inkscape:window-width="1920"
   inkscape:window-height="1018"
   id="namedview168"
   showgrid="false"
   inkscape:snap-bbox="true"
   inkscape:bbox-paths="true"
   inkscape:bbox-nodes="true"
   inkscape:snap-bbox-edge-midpoints="true"
   inkscape:snap-bbox-midpoints="true"
   inkscape:object-paths="true"
   inkscape:snap-intersection-paths="true"
   inkscape:object-nodes="true"
   inkscape:snap-smooth-nodes="true"
   inkscape:snap-midpoints="true"
   inkscape:snap-page="true"
   inkscape:snap-center="true"
   inkscape:snap-object-midpoints="true"
   fit-margin-top="0"
   fit-margin-left="0"
   fit-margin-right="0"
   fit-margin-bottom="0"
   inkscape:zoom="4"
   inkscape:cx="0.43632711"
   inkscape:cy="71.903116"
   inkscape:window-x="1912"
   inkscape:window-y="32"
   inkscape:window-maximized="1"
   inkscape:current-layer="svg2"
   inkscape:snap-global="false" />

<g
   id="g2983"
   transform="matrix(0.9275,0,0,0.9275,4.4383596,3.6249998)"><path
     sodipodi:nodetypes="scccccccccsccccccccssssccccsccccccssccccccs"
     id="path3"
     d="M 36.132861,5.7291125 C 35.156646,4.4469319 31.797138,0 31.797138,0 c 0,0 -1.68417,0.8972307 -2.974958,1.6707305 -0.197365,0.1167937 -0.556313,0.3424251 -1.026649,0.6383699 -0.313756,-0.4496946 -0.506936,-0.7221152 -0.506936,-0.7221152 0,0 -3.67187,2.2537578 -5.119722,3.1401461 -1.448118,0.888028 -4.899446,3.5385498 -4.899446,3.5385498 0,0 0.14797,0.21592 0.398871,0.579524 C 15.959856,10.021027 11.194446,13.589354 8.2359685,15.270172 5.1575109,17.015787 -1.3378906e-7,19.786333 -1.3378906e-7,19.786333 c 0,0 2.18700103378906,2.874211 2.85081303378906,3.746393 0.663812,0.872183 1.118212,1.577846 5.5504906,6.329467 4.4315685,4.750673 9.0973765,8.018139 9.0973765,8.018139 0,0 1.948893,-6.020586 2.297339,-9.851478 0.348709,-3.832531 1.393959,-7.28947 1.790569,-8.052943 0.396875,-0.765114 1.226805,-0.964791 2.015578,-1.534582 0.11908,-0.08593 0.29536,-0.211007 0.512543,-0.365096 0.287071,0.411998 0.528657,0.75317 0.701535,0.996432 1.275479,1.784269 8.539196,12.154659 15.348881,20.99436 2.088468,2.712588 4.825884,6.094936 7.687356,9.570098 0.04831,0.05867 3.115131,-3.273797 3.163506,-3.215076 0.136248,0.165377 0.581723,0.740772 0.718436,0.906463 0.04518,0.05475 -3.237067,3.090853 -3.191844,3.145629 2.233754,2.705924 4.5169,5.439906 6.604021,7.932185 3.770096,4.499762 6.902121,8.213624 7.9502,9.542106 2.433027,3.091712 9.137264,12.007678 11.566552,16.057494 1.295823,2.160437 2.826016,6.710208 3.478055,8.862745 0.655406,2.153053 1.338202,4.761501 2.080293,5.736411 0.740672,0.97303 10.782114,1.83357 11.729192,1.14856 0.946632,-0.6876 0.706538,-2.18131 0.62178,-3.152132 -0.0852,-0.973414 -4.618215,-6.607565 -8.04627,-12.163152 C 81.101005,78.882335 69.442926,63.204874 68.116274,61.459817 67.475157,60.617999 64.67315,57.295827 61.711498,53.781991 58.672631,50.177708 55.467864,46.37498 54.258762,44.848876 c -0.04161,-0.05274 -2.482093,2.53359 -2.524339,2.479634 -0.169331,-0.21627 -0.561118,-0.70317 -0.718436,-0.906463 -0.04253,-0.05496 2.534007,-2.484272 2.494015,-2.535861 C 40.215877,26.698699 42.373917,26.116722 41.389396,24.083967 c -0.999381,-2.062921 -3.264567,-8.977909 -3.642373,-9.581095 -0.375413,-0.601977 -2.70116,-2.264021 -3.280156,-2.919037 -0.05194,-0.05753 -0.141653,-0.169582 -0.259827,-0.329683 1.99271,-1.136466 3.793579,-2.1048769 3.793579,-2.1048769 0,0 -0.890833,-2.1370335 -1.867758,-3.4201626 z"
     inkscape:connector-curvature="0"
     style="fill:#000000" /><path
     sodipodi:nodetypes="ccccccccccccccccccccccccccccccc"
     d="m 48.246,60.29725 c 10.294,-10.293 0,0 10.294,-10.293 l 16.168,-16.169 8.193,8.193 9.095,-0.31 -12.586,-12.585 -2.607,-2.606 14.625,-14.626 c 1.796,0.249 3.681,-0.291 5.063,-1.674 2.34,-2.339 2.34,-6.131 0.001,-8.47 -2.341,-2.343 -6.132,-2.343 -8.473,0 -1.382,1.38 -1.924,3.267 -1.673,5.062 l -14.625,14.625 -2.605,-2.605 -12.588,-12.589 -0.309,9.098 8.193,8.194 -16.167,16.165 c -10.293,10.297 0,0 -10.293,10.297 L 0.76399987,87.19025 -1.3378907e-7,98.25025 42.758,54.81025 43.44,55.49325 9.9986621e-4,98.25125 11.06,97.48425 z m -5.488,-5.487 26.255,-26.669 1.098,1.098 -26.671,26.254 z"
     id="path166"
     inkscape:connector-curvature="0" /></g>
</svg>