<?xml version="1.0" standalone="no"?>
<!DOCTYPE svg PUBLIC "-//W3C//DTD SVG 1.1//EN" "http://www.w3.org/Graphics/SVG/1.1/DTD/svg11.dtd" >
<svg xmlns="http://www.w3.org/2000/svg">
<metadata>Generated by IcoMoon</metadata>
<defs>
<font id="icomoon" horiz-adv-x="1024">
<font-face units-per-em="1024" ascent="960" descent="-64" />
<missing-glyph horiz-adv-x="1024" />
<glyph unicode="&#x20;" d="" horiz-adv-x="512" />
<glyph unicode="&#xe600;" d="M900.18 743.567c3.637 11 12.567 19.67 15.118 30.856 1.37 5.989 1.37 12.468 0.606 18.928-1.937 2.713-3.122 5.897-3.927 9.301-3.328 3.537-6.666 7.081-9.988 10.628-17.17 18.3-38.681 25.907-63.362 25.702l-30.948-6.913c-10.844-10.063-24.42-18.376-32.098-30.449-5.318-8.355-10.585-16.743-15.902-25.106l-50.561 47.167-4.889-5.238 51.545-48.091c-7.795-12.268-15.537-24.578-23.322-36.853l-63.447 25.326-2.652-6.651 62.201-24.827c-15.248-24.031-30.396-48.111-45.602-72.168l-53.347 34.436-3.884-6.015 53.408-34.467c-46.184-73.084-92.222-146.261-137.629-219.823-30.278-49.040-54.621-101.804-85.672-150.302-43.407-67.835-90.648-133.184-136.039-199.737-5.836-8.56-12.135-14.765-22.474-18.684-7.045-2.664-11.661-11.764-17.368-17.981 1.462-6.545 4.851-9.354 7.915-12.789 0.968-0.374 1.899-0.899 2.738-1.658 2.588-2.344 5.146-4.677 7.743-6.939 0.341-0.165 0.665-0.379 1.006-0.544 10.232 0.083 17.824-4.946 29.349-2.372 3.715 8.050 10.818 16.339 10.275 24.091-0.631 9.028 1.832 14.841 6.545 21.265 65.077 88.68 131.321 176.012 205.496 257.886 81.529 89.996 159.122 183.571 236.625 277.189l49.831-16.616 2.262 6.796-47.196 15.739c13.371 16.15 26.747 32.283 40.132 48.409l53.22-32.507 3.728 6.114-52.33 31.964c2.536 3.051 5.067 6.118 7.603 9.169 13.243 15.925 25.421 32.737 37.315 49.781l50.393-15.132 2.060 6.859-48.121 14.442c4.58 6.581 9.116 13.198 13.644 19.812zM834.715 102.833l10.963-17.525c0 0 14.139-26.493-16.343-45.561s-48.12 5.236-48.12 5.236l-10.963 17.525 64.464 40.326zM385.372 821.141l-64.464-40.326 276.519-442.036 64.464 40.326-276.519 442.036zM667.652 369.896l-64.464-40.326 11.522-18.418 64.464 40.326-11.522 18.418zM315.148 790.024c0 0-12.38 27.593 18.093 46.656 30.482 19.068 46.37-6.33 46.37-6.33l-64.464-40.326zM337.765 188.889c-32 2.161-62.683 17.087-84.116 42.951l-83.174-24.508 65.674 52.871c-7.361 16.703-10.736 34.388-10.181 51.853l-79.352 54.772 86.187-18.631c8.71 24.706 25.456 46.765 49.372 61.726 1.308 0.818 2.652 1.454 3.98 2.22l-12.026 85.587 42.918-73.092c20.224 4.989 41.15 4.473 60.763-0.991l56.953 78.242-22.741-93.832c13.789-9.159 25.937-21.226 35.287-36.173 1.872-2.993 3.528-6.070 5.117-9.163l89.561 14.768-78.273-48.503c3.655-20.918 1.592-42.26-5.587-61.896l76.996-60.654-95.868 27.143c-8.225-10.283-18.181-19.458-29.969-26.832-10.765-6.734-22.182-11.506-33.852-14.501l-6.214-96.165-31.456 92.806zM742.836 249.709l-104.789 24.138-8.146 13.022 104.789-24.138zM759.128 223.666l-104.789 24.138-8.146 13.022 104.789-24.138zM620.471 301.943l10.977 6.867 86.945-20.027 8.152-13.031-104.789 24.138zM693.944 327.866l-23.413 5.393 13.022 8.146 2.245-0.517zM775.419 197.622l-104.789 24.138-8.146 13.022 104.789-24.138zM710.242 301.814l-65.763 15.148 13.022 8.146 44.595-10.272zM808.003 145.536l-104.789 24.138-8.146 13.022 104.789-24.138zM771.269 75.957l-6.778-4.24-4.24 6.778zM784.291 84.102l-32.185 7.414-8.146 13.022 53.362-12.284zM810.343 100.4l-74.535 17.169-8.152 13.031 95.708-22.054zM791.711 171.579l-104.789 24.138-8.146 13.022 104.789-24.138zM824.3 119.483l-104.789 24.138-8.152 13.031 104.789-24.138z" />
<glyph unicode="&#xe601;" d="M824.415 62.715l169.902 424.786c0.553 1.311 0.901 2.662 1.106 4.035 0.061 0.399 0.072 0.788 0.113 1.188 0.072 0.891 0.082 1.782 0.020 2.662-0.031 0.471-0.072 0.932-0.143 1.403-0.143 0.911-0.369 1.802-0.645 2.683-0.123 0.348-0.195 0.707-0.317 1.055-0.481 1.208-1.085 2.345-1.823 3.43-0.041 0.061-0.061 0.123-0.102 0.184l-297.595 425.124c-0.102 0.133-0.031 0.266-0.133 0.41l0.143 0.031v-7.014c0 0-0.338 0-0.379 0-4.127 10.24-11.203 11.51-17.94 9.994 0-0.041-0.041 0.123-0.072 0.123-0.031-0.041-0.102 0.123-0.102 0.123h-0.174c0 0-0.041 0-0.072 0s-0.031 1.546-0.072 1.546l-467.64-126.751c-0.256-0.072-0.471 0.195-0.727 0.113-0.891-0.287-1.761-0.42-2.591-0.85-0.553-0.276-1.044-0.543-1.556-0.87-0.522-0.338-1.034-0.625-1.505-1.014-0.451-0.369-0.86-0.748-1.27-1.157-0.492-0.492-0.952-1.004-1.393-1.556-0.307-0.399-0.604-0.778-0.87-1.198-0.471-0.717-0.86-1.485-1.229-2.284-0.113-0.236-0.276-0.43-0.369-0.676l-168.55-425.062c-0.205-0.522 0.911-1.065 0.911-1.597v-0.020c0-1.905 0-3.84 0-5.755 0-0.041 0-0.041 0-0.082 0 0 0 0 0-0.020 0 0 0 0 0-0.041v-0.061c0-0.758-0.020-1.536 0.123-2.284 0.031-0.041-0.123-0.041-0.123-0.061 0-0.041 0-0.041 0-0.082 0 0 0 0 0-0.020 0 0 0 0 0-0.041v-0.041c0 0 0 0 0-0.020v-0.041c0-1.956-0.471-3.86 0.614-5.581 0 0.020-0.307-0.041-0.307-0.041 0-0.041-0.307-0.041-0.307-0.041 0-0.020 0-0.020 0-0.020l-0.461-0.041c0.307-0.481 0.369-0.922 0.696-1.362l297.462-382.556c0.020-0.041 0-0.061 0.020-0.102 0.020-0.020 0-0.041 0.020-0.082 0.061-0.082 0.143-0.143 0.215-0.215 0.246-0.297 0.532-0.522 0.799-0.799 0.276-0.297 0.543-0.584 0.84-0.84 0.307-0.276 0.563-0.635 0.881-0.901 0.266-0.205 0.584-0.338 0.86-0.543 0.41-0.276 0.829-0.543 1.26-0.778 0.051-0.041 0.102-0.082 0.164-0.102 0.891-0.522 1.802-0.922 2.755-1.26 0.43-0.143 0.84-0.317 1.28-0.44 0.215-0.061 0.42-0.184 0.635-0.215 1.26-0.276 2.55-0.44 3.84-0.44 1.014 0 2.068 0.123 3.113 0.276l467.651 85.023c0.584 0.102 1.106 0.215 1.669 0.379 0.143 0.051 0.297-0.031 0.43-0.031 0.041 0 0.041 0 0.041 0 0.215 0 0.399 0.276 0.614 0.358 0.42 0.143 0.819 0.348 1.229 0.532 0.215 0.102 0.451 0.195 0.655 0.307 0.174 0.102 0.266 0.154 0.338 0.174 0.143 0.082 0.236 0.215 0.379 0.287 1.434 0.799 2.755 1.782 3.891 2.918 0.143 0.164 0.246 0.348 0.389 0.492 1.116 1.219 2.058 2.58 2.775 4.076 0.061 0.102 0.164 0.184 0.215 0.297 0.041 0.082 0.082 0.174 0.113 0.266 0.020 0.041 0.031 0.061 0.051 0.102 0.082 0.215 0.164 0.41 0.256 0.614zM793.357 98.77l-294.973 184.402 331.848 258.068-36.874-442.47zM478.026 311.27l-112.169 411.31 448.696-149.586-336.527-261.724zM865.621 548.5l91.402-60.948-121.876-304.64 30.474 365.588zM911.291 559.724l-47.084 31.396-62.761 125.512 109.844-156.908zM816.55 608.886l-430.787 143.596 287.201 143.596 143.585-287.191zM339.285 767.995l-66.406 22.139 243.517 66.427-177.111-88.566zM223.081 770.166l88.781-29.604-207.186-266.363 118.405 295.967zM332.977 711.245l111.053-407.112-370.135 74.015 259.082 333.097zM443.773 268.795l-107.551-250.941-250.952 322.642 358.502-71.7zM476.122 256.169l284.938-178.104-391.813-71.26 106.875 249.364z" />
<glyph unicode="&#xe602;" d="M503.895 421.964l99.623 249.075c0.324 0.769 0.528 1.561 0.648 2.366 0.036 0.234 0.042 0.462 0.067 0.697 0.042 0.522 0.048 1.045 0.012 1.561-0.016 0.276-0.042 0.546-0.084 0.823-0.084 0.534-0.216 1.057-0.378 1.573-0.072 0.204-0.114 0.414-0.186 0.618-0.282 0.709-0.637 1.375-1.069 2.011-0.025 0.036-0.036 0.072-0.060 0.108l-174.496 249.273c-0.060 0.078-0.016 0.156-0.078 0.24l0.084 0.019v-4.113c0 0-0.198 0-0.222 0-2.42 6.004-6.569 6.749-10.519 5.86 0-0.024-0.025 0.072-0.042 0.072-0.016-0.024-0.060 0.072-0.060 0.072h-0.098c0 0-0.025 0-0.042 0s-0.016 0.907-0.042 0.907l-274.204-74.321c-0.15-0.042-0.276 0.114-0.426 0.067-0.522-0.168-1.033-0.246-1.519-0.498-0.324-0.162-0.612-0.318-0.913-0.51-0.306-0.198-0.606-0.366-0.883-0.594-0.264-0.216-0.504-0.438-0.745-0.679-0.288-0.288-0.558-0.588-0.817-0.913-0.18-0.234-0.354-0.456-0.51-0.703-0.276-0.42-0.504-0.871-0.72-1.339-0.067-0.138-0.162-0.252-0.216-0.396l-98.832-249.238c-0.12-0.306 0.534-0.624 0.534-0.937v-0.012c0-1.117 0-2.252 0-3.374 0-0.025 0-0.025 0-0.048 0 0 0 0 0-0.012 0 0 0 0 0-0.025v-0.037c0-0.444-0.012-0.901 0.072-1.339 0.018-0.025-0.072-0.025-0.072-0.036 0-0.025 0-0.025 0-0.048 0 0 0 0 0-0.012 0 0 0 0 0-0.025v-0.025c0 0 0 0 0-0.012v-0.025c0-1.147-0.276-2.264 0.36-3.272 0 0.012-0.18-0.025-0.18-0.025 0-0.025-0.18-0.025-0.18-0.025 0-0.012 0-0.012 0-0.012l-0.27-0.025c0.18-0.282 0.216-0.54 0.408-0.799l174.416-224.31c0.012-0.025 0-0.036 0.012-0.060 0.012-0.012 0-0.025 0.012-0.048 0.036-0.048 0.084-0.084 0.126-0.126 0.144-0.174 0.312-0.306 0.468-0.468 0.162-0.174 0.318-0.342 0.492-0.492 0.18-0.162 0.33-0.372 0.516-0.528 0.156-0.12 0.342-0.198 0.504-0.318 0.24-0.162 0.486-0.318 0.739-0.456 0.030-0.025 0.060-0.048 0.096-0.060 0.522-0.306 1.057-0.54 1.615-0.739 0.252-0.084 0.492-0.186 0.75-0.258 0.126-0.036 0.246-0.108 0.372-0.126 0.739-0.162 1.495-0.258 2.252-0.258 0.594 0 1.213 0.072 1.825 0.162l274.21 49.85c0.342 0.060 0.648 0.126 0.979 0.222 0.084 0.030 0.174-0.016 0.252-0.016 0.025 0 0.025 0 0.025 0 0.126 0 0.234 0.162 0.36 0.21 0.246 0.084 0.48 0.204 0.72 0.312 0.126 0.060 0.264 0.114 0.384 0.18 0.102 0.060 0.156 0.090 0.198 0.102 0.084 0.048 0.138 0.126 0.222 0.168 0.841 0.468 1.615 1.045 2.282 1.711 0.084 0.096 0.144 0.204 0.228 0.288 0.655 0.715 1.207 1.513 1.627 2.39 0.036 0.060 0.096 0.108 0.126 0.174 0.025 0.048 0.048 0.102 0.067 0.156 0.012 0.025 0.016 0.036 0.030 0.060 0.048 0.126 0.096 0.24 0.15 0.36zM485.684 443.105l-172.959 108.125 194.58 151.32-21.621-259.445zM300.789 567.706l-65.771 241.174 263.095-87.71-197.324-153.463zM528.057 706.807l53.594-35.737-71.463-178.627 17.869 214.365zM554.836 713.387l-27.608 18.409-36.8 73.594 64.408-92.003zM499.284 742.214l-252.594 84.198 168.402 84.198 84.192-168.396zM219.437 835.508l-38.938 12.981 142.788 38.95-103.85-51.931zM151.3 836.781l52.057-17.358-121.484-156.183 69.427 173.541zM215.738 802.233l65.116-238.712-217.030 43.399 151.914 195.313zM280.705 542.8l-63.063-147.141-147.147 189.183 210.21-42.042zM299.672 535.397l167.075-104.432-229.741-41.784 62.667 146.216zM987.901 169.13l-50.918 263.383c-0.143 0.822-0.4 1.599-0.734 2.341-0.096 0.216-0.215 0.412-0.321 0.622-0.247 0.462-0.525 0.905-0.834 1.32-0.164 0.223-0.331 0.437-0.516 0.646-0.36 0.404-0.753 0.772-1.169 1.119-0.171 0.133-0.32 0.287-0.491 0.419-0.621 0.443-1.279 0.812-1.987 1.114-0.040 0.016-0.070 0.041-0.109 0.058l-281.592 115.292c-0.093 0.034-0.098 0.122-0.196 0.16l0.061 0.060 2.224-3.459c0 0-0.167-0.107-0.187-0.12-5.283 3.742-9.175 2.124-12.018-0.76 0.014-0.018-0.059 0.047-0.075 0.038-0.001-0.030-0.090 0.029-0.090 0.029l-0.018-0.014-0.029-0.017-0.018-0.014-0.014-0.008c0 0-0.018-0.014-0.036-0.024-0.014-0.008-0.505 0.753-0.526 0.74l-190.442-210.817c-0.104-0.116-0.294-0.053-0.394-0.175-0.348-0.424-0.736-0.766-1.008-1.241-0.185-0.312-0.343-0.599-0.492-0.923-0.15-0.332-0.312-0.636-0.421-0.977-0.105-0.325-0.187-0.641-0.259-0.973-0.087-0.398-0.151-0.797-0.193-1.209-0.024-0.294-0.051-0.575-0.049-0.867-0.006-0.503 0.047-1.005 0.118-1.516 0.018-0.152-0.001-0.3 0.033-0.45l51.671-263.092c0.065-0.322 0.787-0.236 0.956-0.499l0.006-0.008c0.604-0.939 1.218-1.894 1.825-2.838 0.014-0.018 0.014-0.018 0.026-0.040 0 0 0 0 0.006-0.008 0 0 0 0 0.014-0.018l0.014-0.018 0.006-0.008c0.24-0.374 0.477-0.764 0.785-1.087 0.028-0.008-0.047-0.059-0.041-0.070 0.014-0.018 0.014-0.018 0.026-0.040 0 0 0 0 0.006-0.008 0 0 0 0 0.014-0.018l0.014-0.018c0 0 0 0 0.006-0.008l0.014-0.018c0.62-0.965 0.992-2.053 2.073-2.558-0.006 0.008-0.138-0.118-0.138-0.118 0.014-0.018-0.138-0.118-0.138-0.118 0.006-0.008 0.006-0.008 0.006-0.008l-0.214-0.167c0.304-0.14 0.474-0.338 0.775-0.451l268.026-94.34c0.025-0.012 0.018-0.031 0.043-0.044 0.016-0.002 0.014-0.018 0.036-0.034 0.056-0.022 0.116-0.025 0.174-0.038 0.215-0.069 0.428-0.089 0.647-0.141 0.231-0.058 0.453-0.116 0.68-0.148 0.239-0.039 0.479-0.134 0.72-0.165 0.196-0.016 0.395 0.018 0.596 0.004 0.29-0.006 0.581-0.006 0.868 0.014 0.039-0.002 0.077-0.006 0.113 0.001 0.605 0.025 1.181 0.117 1.758 0.252 0.258 0.066 0.515 0.11 0.771 0.189 0.126 0.038 0.266 0.042 0.381 0.095 0.709 0.263 1.397 0.591 2.033 1.001 0.5 0.322 0.981 0.716 1.448 1.124l203.68 190.238c0.255 0.236 0.477 0.457 0.703 0.716 0.054 0.071 0.156 0.080 0.221 0.122 0.018 0.014 0.018 0.014 0.018 0.014 0.106 0.069 0.109 0.263 0.189 0.372 0.161 0.204 0.294 0.431 0.437 0.652 0.074 0.119 0.16 0.239 0.226 0.359 0.053 0.106 0.083 0.16 0.112 0.193 0.045 0.086 0.048 0.181 0.096 0.262 0.454 0.849 0.793 1.752 0.994 2.673 0.016 0.126 0.010 0.25 0.036 0.366 0.164 0.955 0.197 1.925 0.075 2.89-0.002 0.070 0.023 0.143 0.012 0.215-0.004 0.053-0.014 0.112-0.029 0.167-0.001 0.027-0.004 0.040-0.006 0.067-0.028 0.132-0.049 0.254-0.069 0.384zM961.149 177.062l-203.959-2.599 81.824 232.517 122.135-229.918zM738.239 181.865l-185.76 167.283 268.733 68.52-82.973-235.804zM854.166 421.784l64.408-1.073 36.502-188.897-100.909 189.97zM873.131 441.802l-33.178 0.553-70.757 41.998 103.935-42.551zM810.815 436.004l-258-65.795 96.107 161.901 161.892-96.106zM524.972 363.12l-39.772-10.141 99.035 109.988-59.263-99.847zM466.972 327.339l53.174 13.555-17.711-197.073-35.463 183.519zM539.858 333.131l183.878-165.567-206.021-80.877 22.143 246.444zM734.816 150.054l26.538-157.87-226.087 79.541 199.55 78.33zM754.774 154.086l197.012 2.523-170.641-159.401-26.371 156.878z" />
<glyph unicode="&#xe603;" d="M503.895 421.964l99.623 249.075c0.324 0.769 0.528 1.561 0.648 2.366 0.036 0.234 0.042 0.462 0.066 0.696 0.042 0.522 0.048 1.045 0.013 1.561-0.017 0.276-0.042 0.546-0.084 0.823-0.084 0.534-0.216 1.057-0.378 1.573-0.072 0.204-0.114 0.414-0.186 0.618-0.282 0.709-0.636 1.375-1.069 2.011-0.025 0.036-0.036 0.072-0.060 0.108l-174.497 249.273c-0.060 0.078-0.017 0.156-0.078 0.24l0.084 0.019v-4.113c0 0-0.198 0-0.222 0-2.42 6.004-6.569 6.749-10.519 5.86 0-0.024-0.025 0.072-0.042 0.072-0.017-0.024-0.060 0.072-0.060 0.072h-0.1c0 0-0.025 0-0.042 0s-0.017 0.907-0.042 0.907l-274.204-74.321c-0.15-0.042-0.276 0.114-0.426 0.066-0.522-0.168-1.033-0.246-1.519-0.498-0.324-0.162-0.612-0.318-0.913-0.51-0.306-0.198-0.606-0.366-0.883-0.594-0.264-0.216-0.504-0.438-0.745-0.678-0.288-0.288-0.558-0.588-0.817-0.913-0.18-0.234-0.354-0.456-0.51-0.703-0.276-0.42-0.504-0.871-0.721-1.339-0.066-0.138-0.162-0.252-0.216-0.396l-98.832-249.238c-0.12-0.306 0.534-0.624 0.534-0.937v-0.013c0-1.117 0-2.252 0-3.374 0-0.025 0-0.025 0-0.048 0 0 0 0 0-0.013 0 0 0 0 0-0.025v-0.037c0-0.444-0.012-0.901 0.072-1.339 0.018-0.025-0.072-0.025-0.072-0.036 0-0.025 0-0.025 0-0.048 0 0 0 0 0-0.013 0 0 0 0 0-0.025v-0.025c0 0 0 0 0-0.013v-0.025c0-1.147-0.276-2.264 0.36-3.272 0 0.013-0.18-0.025-0.18-0.025 0-0.025-0.18-0.025-0.18-0.025 0-0.013 0-0.013 0-0.013l-0.27-0.025c0.18-0.282 0.216-0.54 0.408-0.799l174.418-224.308c0.013-0.025 0-0.036 0.013-0.060 0.013-0.013 0-0.025 0.013-0.048 0.036-0.048 0.084-0.084 0.126-0.126 0.144-0.174 0.312-0.306 0.468-0.468 0.162-0.174 0.318-0.342 0.492-0.492 0.18-0.162 0.33-0.372 0.516-0.528 0.156-0.12 0.342-0.198 0.504-0.318 0.24-0.162 0.486-0.318 0.739-0.456 0.030-0.025 0.060-0.048 0.096-0.060 0.522-0.306 1.057-0.54 1.615-0.739 0.252-0.084 0.492-0.186 0.751-0.258 0.126-0.036 0.246-0.108 0.372-0.126 0.739-0.162 1.495-0.258 2.252-0.258 0.594 0 1.213 0.072 1.825 0.162l274.21 49.85c0.342 0.060 0.648 0.126 0.979 0.222 0.084 0.030 0.174-0.017 0.252-0.017 0.025 0 0.025 0 0.025 0 0.126 0 0.234 0.162 0.36 0.21 0.246 0.084 0.48 0.204 0.721 0.312 0.126 0.060 0.264 0.114 0.384 0.18 0.102 0.060 0.156 0.090 0.198 0.102 0.084 0.048 0.138 0.126 0.222 0.168 0.841 0.468 1.615 1.045 2.282 1.711 0.084 0.096 0.144 0.204 0.228 0.288 0.654 0.715 1.207 1.513 1.627 2.39 0.036 0.060 0.096 0.108 0.126 0.174 0.025 0.048 0.048 0.102 0.066 0.156 0.013 0.025 0.017 0.036 0.030 0.060 0.048 0.126 0.096 0.24 0.15 0.36zM485.684 443.105l-172.959 108.125 194.58 151.32-21.621-259.445zM300.789 567.706l-65.771 241.174 263.095-87.71-197.324-153.463zM528.057 706.807l53.594-35.737-71.463-178.627 17.869 214.365zM554.836 713.387l-27.608 18.409-36.8 73.594 64.408-92.003zM499.284 742.214l-252.594 84.198 168.402 84.198 84.192-168.396zM219.437 835.508l-38.938 12.981 142.788 38.95-103.85-51.931zM151.3 836.781l52.057-17.358-121.484-156.183 69.427 173.541zM215.738 802.233l65.116-238.712-217.030 43.399 151.914 195.313zM280.705 542.8l-63.063-147.141-147.147 189.183 210.21-42.042zM299.672 535.397l167.075-104.432-229.741-41.784 62.667 146.216z" />
<glyph unicode="&#xe604;" d="M987.901 169.13l-50.918 263.383c-0.143 0.822-0.4 1.599-0.734 2.341-0.096 0.216-0.215 0.412-0.321 0.622-0.247 0.462-0.525 0.905-0.834 1.32-0.164 0.223-0.331 0.437-0.516 0.646-0.36 0.404-0.753 0.772-1.169 1.119-0.171 0.133-0.32 0.287-0.491 0.419-0.621 0.443-1.279 0.812-1.987 1.114-0.040 0.017-0.069 0.041-0.109 0.058l-281.592 115.292c-0.093 0.033-0.099 0.122-0.196 0.16l0.062 0.060 2.224-3.459c0 0-0.167-0.107-0.187-0.12-5.283 3.742-9.175 2.124-12.018-0.76 0.015-0.019-0.060 0.047-0.074 0.038-0.001-0.030-0.090 0.028-0.090 0.028l-0.019-0.015-0.029-0.017-0.019-0.015-0.015-0.008c0 0-0.019-0.015-0.035-0.024s-0.505 0.753-0.526 0.74l-190.441-210.816c-0.104-0.116-0.294-0.053-0.394-0.175-0.349-0.424-0.736-0.766-1.008-1.241-0.185-0.312-0.343-0.599-0.492-0.923-0.15-0.332-0.312-0.636-0.421-0.977-0.105-0.325-0.187-0.641-0.259-0.973-0.087-0.398-0.151-0.797-0.193-1.209-0.024-0.294-0.051-0.575-0.050-0.867-0.006-0.503 0.047-1.005 0.118-1.516 0.019-0.152-0.001-0.3 0.033-0.45l51.671-263.092c0.065-0.322 0.787-0.236 0.956-0.499l0.006-0.008c0.604-0.939 1.218-1.894 1.825-2.838 0.015-0.019 0.015-0.019 0.026-0.040 0 0 0 0 0.006-0.008 0 0 0 0 0.015-0.019l0.015-0.019 0.006-0.008c0.24-0.374 0.477-0.764 0.785-1.087 0.028-0.008-0.047-0.059-0.041-0.069 0.015-0.019 0.015-0.019 0.026-0.040 0 0 0 0 0.006-0.008 0 0 0 0 0.015-0.019l0.015-0.019c0 0 0 0 0.006-0.008l0.015-0.019c0.62-0.965 0.992-2.053 2.073-2.558-0.006 0.008-0.138-0.118-0.138-0.118 0.015-0.019-0.138-0.118-0.138-0.118 0.006-0.008 0.006-0.008 0.006-0.008l-0.214-0.167c0.304-0.14 0.474-0.338 0.775-0.451l268.026-94.34c0.024-0.013 0.019-0.030 0.043-0.044 0.017-0.002 0.015-0.019 0.036-0.034 0.056-0.021 0.116-0.025 0.174-0.038 0.215-0.068 0.428-0.089 0.647-0.141 0.231-0.059 0.453-0.116 0.68-0.148 0.239-0.039 0.479-0.134 0.72-0.165 0.196-0.017 0.395 0.019 0.596 0.004 0.29-0.006 0.581-0.006 0.868 0.015 0.038-0.002 0.077-0.006 0.113 0.001 0.605 0.025 1.181 0.117 1.758 0.252 0.258 0.066 0.515 0.11 0.771 0.189 0.126 0.038 0.265 0.042 0.381 0.095 0.709 0.263 1.397 0.591 2.033 1.001 0.5 0.321 0.981 0.717 1.448 1.124l203.678 190.24c0.255 0.236 0.477 0.457 0.703 0.716 0.054 0.070 0.156 0.080 0.221 0.122 0.019 0.015 0.019 0.015 0.019 0.015 0.106 0.068 0.109 0.263 0.189 0.372 0.162 0.204 0.294 0.431 0.437 0.652 0.074 0.119 0.16 0.239 0.226 0.359 0.054 0.106 0.083 0.16 0.112 0.193 0.045 0.086 0.048 0.181 0.096 0.261 0.454 0.849 0.793 1.752 0.994 2.673 0.017 0.126 0.011 0.25 0.036 0.366 0.164 0.955 0.197 1.925 0.075 2.89-0.002 0.070 0.022 0.143 0.013 0.215-0.004 0.054-0.015 0.112-0.029 0.167-0.001 0.027-0.004 0.039-0.006 0.067-0.028 0.132-0.049 0.254-0.068 0.384zM961.149 177.062l-203.959-2.599 81.824 232.517 122.135-229.918zM738.239 181.865l-185.76 167.283 268.733 68.52-82.973-235.804zM854.166 421.784l64.408-1.073 36.502-188.897-100.909 189.97zM873.131 441.802l-33.178 0.553-70.757 41.998 103.935-42.551zM810.815 436.004l-258-65.795 96.107 161.901 161.892-96.106zM524.972 363.12l-39.772-10.141 99.035 109.988-59.263-99.847zM466.972 327.339l53.174 13.555-17.711-197.073-35.463 183.519zM539.858 333.131l183.878-165.567-206.021-80.877 22.143 246.444zM734.816 150.054l26.538-157.87-226.087 79.541 199.55 78.33zM754.774 154.086l197.012 2.523-170.641-159.401-26.371 156.878z" />
<glyph unicode="&#xe605;" d="M298.656 578.942c-12.573 43.954-61.688 226.724-61.087 227.325 0.935 0.935 257.798-84.505 257.706-85.72-0.068-0.897-190.457-149.125-192.732-150.051-0.724-0.295-2.473 3.506-3.887 8.447v0z" />
<glyph unicode="&#xe606;" d="M372.018 785.461l-122.477 41.005 81.504 40.794c44.827 22.437 82.081 40.794 82.786 40.794s19.712-36.87 42.238-81.933c22.526-45.063 40.387-81.873 39.691-81.8s-56.379 18.586-123.742 41.139z" />
<glyph unicode="&#xe607;" d="M200.824 842.494c-8.211 2.819-14.293 5.674-13.515 6.346 1.575 1.36 115.308 32.335 117.979 32.132 2.591-0.197-84.114-43.693-87.001-43.645-1.394 0.023-9.252 2.349-17.464 5.167z" />
<glyph unicode="&#xe608;" d="M86.924 673.237c1.809 5.085 64.338 161.35 64.796 161.93 0.434 0.55 48.094-14.796 49.412-15.911 0.53-0.448-109.522-142.941-113.427-146.864-1.119-1.124-1.38-0.841-0.781 0.845z" />
<glyph unicode="&#xe609;" d="M170.527 586.158c-56.465 11.388-103.046 21.088-103.514 21.555-0.971 0.971 146.073 190.535 147.797 190.535 0.846 0 34.229-120.264 63.89-230.172 0.561-2.078-0.139-2.907-2.356-2.79-1.734 0.092-49.352 9.484-105.817 20.872v0z" />
<glyph unicode="&#xe60a;" d="M146.656 488.396c-38.805 49.883-70.912 91.628-71.349 92.767-0.511 1.332 35.522-5.168 101.079-18.236 56.030-11.169 102.119-20.494 102.419-20.724 0.482-0.369-57.412-136.753-60.407-142.304-0.767-1.422-26.116 29.846-71.741 88.497z" />
<glyph unicode="&#xe60b;" d="M243.574 402.52c41.361 96.979 55.948 129.633 57.841 129.491 4.123-0.31 162.372-100.247 159.981-101.031-3.192-1.046-218.057-39.865-220.649-39.864-1.31 0.001-0.301 4.069 2.827 11.404z" />
<glyph unicode="&#xe60c;" d="M463.242 457.823c-10.685 6.805-48.548 30.628-84.141 52.941l-64.713 40.569 94.823 73.779c52.153 40.578 95.272 73.33 95.82 72.782s-3.356-53.643-8.677-117.989c-10.795-130.542-11.194-134.786-12.651-134.592-0.569 0.076-9.777 5.705-20.462 12.51z" />
<glyph unicode="&#xe60d;" d="M512.208 504.444c-0.046 4.531 15.313 189.917 16.187 195.379l0.876 5.469 25.429-17.007c18.944-12.67 25.229-17.727 24.642-19.828-1.121-4.019-65.591-164.852-66.422-165.702-0.378-0.387-0.699 0.373-0.713 1.689v0z" />
<glyph unicode="&#xe60e;" d="M537.042 726.136c-7.39 4.891-9.29 7.676-20.795 30.481-6.964 13.804-12.35 25.41-11.969 25.792 0.614 0.614 41.733-57.034 43.15-60.495 1.030-2.516-2.168-1.215-10.386 4.223z" />
<glyph unicode="&#xe60f;" d="M552.97 370.942c3.303 8.182 95.653 160.576 97.112 160.252 2.546-0.566 161.084-94.718 160.49-95.311-0.245-0.245-55.907-14.579-123.692-31.852s-125.764-32.078-128.842-32.9c-3.077-0.822-5.358-0.907-5.068-0.189v0z" />
<glyph unicode="&#xe610;" d="M501.451 148.118c-3.495 12.53-34.583 178.381-33.593 179.22 1.817 1.542 50.987 13.949 51.852 13.084 0.61-0.61-14.495-176.196-16.544-192.304l-0.537-4.223-1.178 4.223z" />
<glyph unicode="&#xe611;" d="M489.045 357.598c12.38 14.713 91.283 101.276 91.822 100.737 0.598-0.598-52.575-91.572-55.254-94.535-0.94-1.039-36.639-11.001-40.261-11.235-0.315-0.021 1.347 2.244 3.694 5.033z" />
<glyph unicode="&#xe612;" d="M645.55 264.867c-50.629 45.555-91.908 83.344-91.731 83.976 0.319 1.14 266.133 69.519 267.094 68.708 0.649-0.548-80.855-232.732-82.251-234.312-0.583-0.659-42.483 36.073-93.112 81.628z" />
<glyph unicode="&#xe613;" d="M518.011 95.326c0.523 4.413 5.529 59.313 11.124 121.999s10.527 114.328 10.958 114.76c0.432 0.432 3.244-1.515 6.25-4.326s43.621-39.44 90.257-81.398c46.635-41.958 85.211-76.967 85.724-77.797s-0.013-1.893-1.169-2.363c-27.192-11.048-201.306-78.899-202.463-78.899-0.953 0-1.236 3.335-0.681 8.024z" />
<glyph unicode="&#xe614;" d="M646.838 31.966c-61.088 21.52-110.501 39.658-109.807 40.306 2.426 2.265 196.711 77.768 197.663 76.816 2.107-2.107 26.827-156.387 25.047-156.319-1.009 0.038-51.815 17.677-112.903 39.197z" />
<glyph unicode="&#xe615;" d="M780.027 2.31c-2.48 11.784-24.639 145.351-24.646 148.562l-0.008 3.599 95.032 1.25c52.268 0.688 96.382 0.969 98.031 0.624 2.123-0.443-21.008-23.092-79.137-77.491-45.175-42.276-83.517-77.861-85.205-79.079-2.732-1.971-3.178-1.693-4.068 2.534z" />
<glyph unicode="&#xe616;" d="M757.063 174.781c0 1.177 79.866 227.697 81.070 229.933 0.847 1.574 5.082-4.844 12.817-19.427 6.354-11.978 33.772-63.59 60.929-114.692l49.377-92.914-34.945-1.125c-39.561-1.274-169.248-2.634-169.248-1.775z" />
<glyph unicode="&#xe617;" d="M903.813 327.394l-50.057 94.397h31.797c18.595 0 32.215-0.676 32.804-1.629 1.351-2.186 36.618-184.318 35.999-185.913-0.267-0.689-23.012 41.227-50.543 93.145z" />
<glyph unicode="&#xe618;" d="M805.209 462.424c-18.583 11.098-33.097 20.179-32.254 20.18 1.284 0.002 57.754-22.768 90.536-36.505l9.291-3.894-33.787 0.042-33.787 20.178z" />
<glyph unicode="&#xe619;" d="M693.153 396.229c0 14.492 62.229 207.213-58.939 265.494-139.597 67.148-178.182 120.71-177.028 206.536-0.086-3.48-84.424-139.388-29.498-206.536 85.253-103.94 49.253-184.417 0-177.009-82.755 12.404-72.764 120.291-59.025 147.511-43.246 4.557-93.262-22.338-118.012-58.997-74.442-110.576 86.893-216.385 29.527-295.021-43.656-59.921-118.26 58.062-118.012 58.997-88.571-462.344 554.709-474.090 590.052-88.514 10.526 115.629 114.637 178.525 117.984 177.038-110.852 51.112-177.047-33.198-177.047-29.498zM486.703 71.643c-154.671-5.701-138.787 110.204-118.041 147.52 26.343 47.518 93.052 56.909 59.025 118.041 0.439-0.934 72.354-11.736 117.965-58.997 69.961-72.22 62-201.998-58.949-206.564zM575.169 779.745c-18.057 19.373-29.527 42.636-29.527 59.016 0 30.709 25.084 60.227 59.044 88.495 3.404-24.588-14.711-61.466 0-88.495 11.412-20.002 29.527-42.636 29.527-59.016 0-21.947-8.171-41.95-29.527-58.997-3.232 8.209-8.886 35.123-29.517 58.997z" />
<glyph unicode="&#xe61a;" d="M597.168 858.354h-399.295v-815.587h628.255v577.917l-228.96 237.67zM607.893 751.944l107.845-111.931h-107.845v111.931zM760.024 108.821h-496.048v683.372h294.321v-201.776h201.719v-481.596zM334.496 552.932h355.009v-33.129h-355.009v33.129zM334.496 415.726h355.009v-33.031h-355.009v33.031zM334.496 278.52h355.009v-33.031h-355.009v33.031z" />
<glyph unicode="&#xe61b;" d="M763.604 647.245l-5.253 0.031h-221.542c-47.135-3.092-19.272 46.787-19.272 46.787l132.106 266.977-225.69-46.787c0 0-176.148-379.812-195.41-421.1s27.525-42.598 27.525-42.598h170.639c43.008 0 24.771-31.713 24.771-31.713l-222.925-478.761 558.254 664.166c38.298 46.469-17.746 42.865-23.204 42.998z" />
<glyph unicode="&#xe61c;" d="M275.414 883.975c-1.761-1.26-3.516-2.507-5.262-3.756l-5.391 7.537-46.107-32.976 5.339-7.465c-26.081-18.591-44.674-31.841-44.674-31.841l44.004-61.733 44.771 31.911 5.128-7.17 0.154 0.11 70.605-99.501 31.421 8.661 42.719-59.286-31.869-8.946 274.101-386.28 21.102 25.332 34.866-44.519-22.616-27.816 126.543-178.333c12.229-17.142 32.52-23.633 45.339-14.504 12.82 9.138 13.289 30.438 1.074 47.582l-136.164 191.891-14.176-18.82-34.866 44.519 15.568 21.475-253.116 356.707-25.787-8.288-42.719 59.286 26.215 8.601-82.839 116.743c-1.405 1.964-2.929 3.781-4.525 5.461l25.733 18.342c0 0 9.449 56.064 88.852 63.336-0.855 1.217-6.080 8.545-6.080 8.545-26.253 6.408-105.712 4.863-147.344-24.804zM217.431 749.54l-27.993-19.953-44 61.728 27.993 19.953 44-61.728zM534.974 761.2c93.2-64.175 241.797-95.29 305.148-106.198 2.411-22.201 3.644-44.265 3.644-65.857 0-221.319-117.955-423.912-309.241-533.731-191.301 109.85-309.265 312.436-309.265 533.731 0 21.376 1.233 43.272 3.644 65.433 64.68 10.275 216.169 40.309 306.069 106.623zM533.917 811.56c-94.689-93.696-339.987-122.384-339.987-122.384-5.030-32.66-7.849-65.994-7.849-100.031 0-250.896 141.277-468.618 348.436-578.476 207.191 109.866 348.42 327.581 348.42 578.476 0 34.038-2.771 67.371-7.793 100.031 0.008 0-238.85 31.563-341.228 122.384v0zM299.247 603.208c-3.484-22.617-5.422-45.667-5.422-69.181 0-173.257 97.629-323.617 240.692-399.501 143.071 75.893 240.684 226.244 240.684 399.501 0 23.514-1.978 46.564-5.398 69.181 0 0-165 21.776-235.719 84.502-65.417-64.696-234.838-84.502-234.838-84.502z" />
<glyph unicode="&#xe61d;" d="M878.622 535.799c-39.16-4.049-49.759-53.571-51.627-64.644 4.463 11.546 48.331 32.533 56.851 8.376 9.137-25.847-7.21-62.353-66.512-57.789-59.319 4.564-79.85 57.78-152.844 115.578-73.003 57.789-153.605 0-153.605 0s-79.452 57.789-152.455 0c-73.003-57.789-92.968-111.013-152.261-115.578-59.319-4.564-75.378 31.942-66.258 57.789 8.528 24.165 52.548 3.161 57.020-8.385-1.876 11.039-12.4 60.595-51.576 64.644-44.113 4.573-54.247-45.229-54.247-69.563 0-24.326 5.798-128.113 183.721-128.113s236.049 112.442 236.049 112.442c0 0 59.243-112.442 237.182-112.442 177.922 0 184.836 103.787 184.836 128.113 0 24.334-10.177 74.136-54.273 69.571z" />
<glyph unicode="&#xe61e;" d="M326.324 750.559c0 0 7.815-44.818 62.82-37.088l110.774 117.204c0 0 18.658 46.676-48.733 14.615 0 0-92.050-60.379-124.86-94.731zM548.257 776.595c0 0 7.8-44.818 62.813-37.096 0 0 77.87 86.423 110.773 117.219 9.291 8.704 18.666 46.669-48.733 14.601 0 0-92.036-60.378-124.853-94.724zM880.737 471.774c0 0-45.523-0.477-47.94 55.007 0 0 70.747 92.357 95.009 130.302 6.858 10.699 42.484 26.873 23.274-45.261 0.007 0.008-42.571-101.482-70.343-140.049zM880.214 274.342c0 0-45.33 3.5-42.87 59.001 0 0 78.643 85.747 106.152 121.401 7.788 10.074 44.707 22.987 19.212-47.158 0 0-51.385-97.328-82.493-133.244zM722.372 716.597c0 0 17.838-65.255 70.764-61.577l69.92 97.166c0 0 50.503 97.992-48.591 34.974-24.468-15.575-92.092-70.564-92.092-70.564zM469.588 17.623c-115.744-11.096-176.487 176.323-176.487 176.323-25.956 73.040-143.654 62.848-205.55 135.363-102.356 120.013 47.156 173.451 92.886 166.989 56.675-8.002 143.018-27.502 184.378-7.092 58.498 28.869 278.427 63.745 227.984-173.343-7.039-33.022-35.691-94.22-1.884-134.964 0 0 96.197-142.433-121.326-163.277zM339.304 586.719c-29.169-44.323-79.748-62.502-113.008-40.661-33.205 21.902-36.532 75.549-7.363 119.858 29.169 44.323 79.754 62.51 112.987 40.638 33.241-21.879 36.525-75.542 7.383-119.835zM550.588 611.125c-32.112-49.67-87.094-71.22-122.806-48.132s-38.631 82.070-6.519 131.741c32.112 49.67 87.094 71.22 122.806 48.132s38.631-82.070 6.519-131.741zM798.458 353.28c-42.984-40.627-101.521-48.514-130.755-17.617-29.22 30.912-18.052 88.897 24.916 129.567 42.992 40.606 101.492 48.527 130.742 17.602 29.19-30.899 18.045-88.89-24.902-129.552zM798.49 146.425c-49.756-31.944-108.755-28.826-131.732 6.941-22.994 35.81-1.238 90.734 48.525 122.686 49.77 31.945 108.762 28.833 131.748-6.97 22.972-35.804 1.244-90.712-48.54-122.657zM722.631 528.105c-37.785-45.502-96.078-59.432-130.238-31.077-34.122 28.321-31.154 88.207 6.631 133.709 37.778 45.509 96.078 59.418 130.238 31.062 34.13-28.343 31.147-88.2-6.632-133.695z" />
<glyph unicode="&#xe61f;" d="M975.503 434.361c0 255.995-207.491 463.503-463.486 463.503-255.991 0-463.519-207.508-463.519-463.503 0-195.742 121.35-363.156 292.891-431.105l117.256 296.277c-53.676 21.257-91.655 73.597-91.655 134.828 0 80.085 64.938 145.007 145.023 145.007 80.089 0 145.027-64.921 145.027-145.007 0-61.231-38.016-113.575-91.655-134.828l117.223-296.277c171.578 67.949 292.895 235.362 292.895 431.105z" />
<glyph unicode="&#xe620;" d="M708.147-17.284l5.106-8.649c0 0 9.89-21.102 26.987-10.917s3.408 29.024 3.408 29.024l-5.106 8.649-30.395-18.107zM601.255 163.781l30.395 18.107 100.604-170.414-30.395-18.107-100.604 170.414zM286.868 696.326l30.395 18.107 308.099-521.894-30.395-18.107-308.099 521.894zM304.103 806.32l-134.966 124.231 43.668-178.361 65.876-46.344 34.194 20.371zM208.436-32.404c0.831 5.185 21.788 127.242 153.058 164.302l1.481 0.322c1.397 0.216 139.951 22.897 196.018 151.343l0.962 1.77 134.786 206.88c94.701 103.314 59.273 239.16 58.905 240.525l-0.305 1.484c-19.31 135.046 83.773 203.663 88.176 206.525l13.331-20.533-6.677 10.26 6.694-10.256c-3.847-2.523-93.975-63.060-77.386-181.831 3.39-13.044 36.373-151.683-63.992-261.975l-132.446-203.596c-60.157-136.464-200.256-162.507-213.559-164.678-115.787-33.109-134.68-143.303-134.861-144.413l-24.184 3.871zM780.902 871.98l10.264-6.677-520.809-800.59-10.264 6.677 520.809 800.59z" />
<glyph unicode="&#xe621;" d="M388.624 871.027c-9.272 12.178-41.179 54.413-41.179 54.413s-15.996-8.522-28.255-15.868c-1.874-1.109-5.284-3.252-9.751-6.063-2.98 4.271-4.815 6.858-4.815 6.858s-34.874-21.405-48.625-29.824c-13.754-8.434-46.533-33.608-46.533-33.608s1.405-2.051 3.788-5.504c-16.226-11.167-61.486-45.058-89.584-61.022-29.238-16.579-78.222-42.893-78.222-42.893s20.771-27.298 27.076-35.582c6.305-8.284 10.62-14.986 52.716-60.115 42.089-45.12 86.403-76.153 86.403-76.153s18.51 57.181 21.819 93.565c3.312 36.4 13.239 69.232 17.006 76.484 3.769 7.267 11.652 9.163 19.143 14.575 1.131 0.816 2.805 2.004 4.868 3.468 2.726-3.913 5.021-7.153 6.663-9.464 12.114-16.946 81.102-115.44 145.778-199.396 19.835-25.763 45.834-57.887 73.011-90.893 0.459-0.557 29.586 31.093 30.046 30.536 1.294-1.571 5.525-7.036 6.823-8.609 0.429-0.52-30.744-29.356-30.315-29.876 21.215-25.7 42.9-51.666 62.722-75.337 35.807-42.737 65.554-78.010 75.508-90.627 23.108-29.364 86.782-114.044 109.854-152.508 12.307-20.519 26.84-63.731 33.033-84.175 6.225-20.449 12.71-45.223 19.758-54.482 7.035-9.241 102.404-17.415 111.399-10.909 8.991 6.531 6.71 20.717 5.905 29.938-0.809 9.245-43.862 62.756-76.42 115.521-32.533 52.769-143.257 201.667-155.857 218.241-6.089 7.995-32.701 39.548-60.83 72.921-28.862 34.232-59.3 70.349-70.783 84.843-0.395 0.501-23.574-24.063-23.975-23.551-1.608 2.054-5.329 6.678-6.823 8.609-0.404 0.522 24.067 23.595 23.687 24.085-126.262 163.24-105.766 168.767-115.117 188.074-9.492 19.593-31.006 85.269-34.594 90.997-3.566 5.717-25.655 21.503-31.154 27.724-0.493 0.546-1.345 1.611-2.468 3.131 18.926 10.794 36.030 19.991 36.030 19.991s-8.461 20.297-17.739 32.483zM503.67 352.761c97.768 97.759 0 0 97.768 97.759l153.557 153.567 77.814-77.814 86.381 2.944-144.297 144.278 138.902 138.912c17.058-2.365 34.961 2.764 48.086 15.899 22.224 22.215 22.224 58.23 0.009 80.445-22.234 22.253-58.239 22.253-80.473 0-13.126-13.107-18.273-31.029-15.889-48.077l-138.902-138.902-144.297 144.307-2.935-86.409 77.814-77.823-153.548-153.529c-97.759-97.797 0 0-97.759-97.797l-353.197-353.178-7.256-105.043 406.098 412.576 6.477-6.487-412.566-406.098 105.034 7.285zM451.547 404.874l249.359 253.291 10.428-10.428-253.31-249.35z" />
<glyph unicode="&#xe622;" d="M183.67 737.097v-67.917h64.824l22.441-655.559h482.131l22.441 655.559h64.824v67.917h-656.66zM397.514 128.745h-45.030l-11.369 466.524h56.399v-466.524zM536.46 128.745h-48.91v466.532h48.91v-466.532zM670.1 128.745h-44.034v466.532h56.819l-12.785-466.532zM806.345 834.848h-228.788v52.651h-131.107v-52.651h-228.796v-67.917h588.69z" />
<glyph unicode="&#xe9b3;" d="M1024 512h-100.924c-27.64 178.24-168.836 319.436-347.076 347.076v100.924h-128v-100.924c-178.24-27.64-319.436-168.836-347.076-347.076h-100.924v-128h100.924c27.64-178.24 168.836-319.436 347.076-347.076v-100.924h128v100.924c178.24 27.64 319.436 168.836 347.076 347.076h100.924v128zM792.822 512h-99.762c-19.284 54.55-62.51 97.778-117.060 117.060v99.762c107.514-24.49 192.332-109.31 216.822-216.822zM512 384c-35.346 0-64 28.654-64 64s28.654 64 64 64c35.346 0 64-28.654 64-64s-28.654-64-64-64zM448 728.822v-99.762c-54.55-19.282-97.778-62.51-117.060-117.060h-99.762c24.49 107.512 109.31 192.332 216.822 216.822zM231.178 384h99.762c19.282-54.55 62.51-97.778 117.060-117.060v-99.762c-107.512 24.49-192.332 109.308-216.822 216.822zM576 167.178v99.762c54.55 19.284 97.778 62.51 117.060 117.060h99.762c-24.49-107.514-109.308-192.332-216.822-216.822z" />
<glyph unicode="&#xeab1;" d="M512.008 947.358c-282.738 0-512.008-229.218-512.008-511.998 0-226.214 146.704-418.132 350.136-485.836 25.586-4.738 34.992 11.11 34.992 24.632 0 12.204-0.48 52.542-0.696 95.324-142.448-30.976-172.504 60.41-172.504 60.41-23.282 59.176-56.848 74.916-56.848 74.916-46.452 31.778 3.51 31.124 3.51 31.124 51.4-3.61 78.476-52.766 78.476-52.766 45.672-78.27 119.776-55.64 149.004-42.558 4.588 33.086 17.852 55.68 32.506 68.464-113.73 12.942-233.276 56.85-233.276 253.032 0 55.898 20.004 101.574 52.76 137.428-5.316 12.9-22.854 64.972 4.952 135.5 0 0 43.006 13.752 140.84-52.49 40.836 11.348 84.636 17.036 128.154 17.234 43.502-0.198 87.336-5.886 128.256-17.234 97.734 66.244 140.656 52.49 140.656 52.49 27.872-70.528 10.35-122.6 5.036-135.5 32.82-35.856 52.694-81.532 52.694-137.428 0-196.654-119.778-239.95-233.79-252.624 18.364-15.89 34.724-47.046 34.724-94.812 0-68.508-0.596-123.644-0.596-140.508 0-13.628 9.222-29.594 35.172-24.566 203.322 67.776 349.842 259.626 349.842 485.768 0 282.78-229.234 511.998-511.992 511.998z" />
</font>
</defs>
</svg>
